<?xml version="1.0" encoding="UTF-8" standalone="no"?>
<!-- Created with Inkscape (http://www.inkscape.org/) -->

<svg
   width="67.728615mm"
   height="67.723358mm"
   viewBox="0 0 67.728615 67.723358"
   version="1.1"
   id="svg1"
   xml:space="preserve"
   xmlns="http://www.w3.org/2000/svg"
   xmlns:svg="http://www.w3.org/2000/svg"><defs
     id="defs1" /><g
     id="layer1"
     transform="translate(-358.23115,-441.39678)"><g
       id="g12881"
       transform="translate(106.13505,9.405497)"><path
         style="fill:#ecf5fd"
         d="m 298.43828,499.15839 c -1.76544,-0.87388 -3.44551,-3.34712 -4.20495,-6.19012 -0.54857,-2.05364 -0.46974,-2.95838 0.3018,-3.46392 0.42263,-0.27692 0.66458,-0.68512 0.6701,-1.13058 0.005,-0.38344 0.23898,-1.35201 0.52052,-2.15238 0.28154,-0.80036 0.51578,-1.5288 0.52053,-1.61876 0.005,-0.0899 -1.86659,-0.22645 -4.15855,-0.30334 -5.45595,-0.18302 -9.60104,-0.9993 -14.07485,-2.77173 l -1.70559,-0.67571 -0.39617,0.63425 c -0.2179,0.34884 -1.0179,1.25203 -1.77778,2.00709 -2.1329,2.11937 -3.9207,2.38989 -6.39382,0.96748 -1.38666,-0.79753 -3.78153,-3.64945 -4.83556,-5.75839 -0.70994,-1.42049 -0.74715,-1.62019 -0.40042,-2.14935 0.3236,-0.49389 0.3292,-0.76099 0.0365,-1.74131 -0.19015,-0.63686 -0.43296,-1.98342 -0.5396,-2.99235 -0.18189,-1.72105 -0.30635,-1.99084 -2.01383,-4.36562 -3.35975,-4.67276 -5.97884,-10.78886 -7.17645,-16.75846 -0.48755,-2.43023 -0.5971,-3.86117 -0.60218,-7.86547 -0.006,-4.47903 0.0428,-5.00085 0.57067,-6.14351 0.80819,-1.74943 2.69312,-3.49375 4.52403,-4.18656 1.41208,-0.53433 1.84221,-0.56345 6.40847,-0.43386 3.5258,0.10007 5.6109,0.29316 7.4552,0.69042 5.59427,1.20499 10.47283,3.22252 15.06,6.22808 2.50912,1.644 2.71644,1.72877 4.22801,1.72877 3.87512,0 8.4363,1.64593 11.46575,4.13751 2.96046,2.43482 3.96474,4.40705 3.36351,6.60531 -0.39436,1.4419 -1.45887,2.5903 -2.21725,2.39198 -0.37646,-0.0985 -0.89068,0.088 -1.5085,0.5471 -0.51554,0.38305 -0.96524,0.71383 -0.99933,0.73506 -0.0341,0.0212 0.34958,1.01448 0.85261,2.20721 1.87017,4.43435 3.04147,10.21282 3.04427,15.01862 l 0.002,2.67091 1.52136,-0.54083 c 2.20135,-0.78257 6.24953,-0.75944 8.29566,0.0474 2.22638,0.8779 4.20332,2.37682 4.91432,3.72605 0.78577,1.49111 0.82617,3.59945 0.0964,5.02993 -1.18189,2.3167 -5.26755,4.85124 -8.62294,5.34926 l -1.84016,0.27312 -0.0809,1.33145 c -0.20039,3.29937 -3.28701,8.28523 -5.69004,9.19121 -1.23312,0.46491 -3.37457,0.33679 -4.61244,-0.27594 z"
         id="path12893" /><path
         style="fill:#cae2f8"
         d="m 298.43828,499.15839 c -1.84934,-0.91541 -3.64816,-3.67379 -4.29558,-6.587 -0.41533,-1.86889 -0.28817,-2.71169 0.45858,-3.0393 0.38648,-0.16956 0.5977,-0.4944 0.60214,-0.92604 0.004,-0.36568 0.27574,-1.45378 0.60442,-2.418 l 0.59759,-1.75314 -4.24244,-0.13673 c -5.51568,-0.17776 -9.64748,-0.98678 -14.15011,-2.77062 l -1.70559,-0.67571 -0.39617,0.63425 c -0.2179,0.34884 -1.0179,1.25203 -1.77778,2.00709 -2.1329,2.11937 -3.9207,2.38989 -6.39382,0.96748 -1.38666,-0.79753 -3.78153,-3.64945 -4.83556,-5.75839 -0.71034,-1.4213 -0.7473,-1.61996 -0.39992,-2.15012 0.33296,-0.50816 0.33352,-0.76902 0.004,-2.00589 -0.20812,-0.78196 -0.37982,-2.04535 -0.38155,-2.80752 -0.003,-1.2882 -0.12386,-1.54901 -1.71772,-3.70417 -5.61979,-7.59888 -8.53503,-16.86347 -8.2924,-26.35318 0.0804,-3.14431 0.18765,-3.94717 0.66732,-4.99519 0.79892,-1.74552 2.6845,-3.49251 4.51869,-4.18656 1.41208,-0.53433 1.84221,-0.56345 6.40847,-0.43386 3.5258,0.10007 5.6109,0.29316 7.4552,0.69042 5.59427,1.20499 10.47283,3.22252 15.06,6.22808 2.50912,1.644 2.71644,1.72877 4.22801,1.72877 3.87512,0 8.4363,1.64593 11.46575,4.13751 2.96046,2.43482 3.96474,4.40705 3.36351,6.60531 -0.39681,1.45088 -1.45835,2.59044 -2.22605,2.38968 -0.38086,-0.0996 -0.92146,0.085 -1.57465,0.53765 -0.54708,0.37912 -0.99469,0.7065 -0.99469,0.72751 0,0.021 0.41344,1.0185 0.91876,2.21665 1.87437,4.44431 3.04563,10.21847 3.04843,15.02848 l 0.002,2.67091 1.52136,-0.54083 c 2.20135,-0.78257 6.24953,-0.75944 8.29566,0.0474 2.22638,0.8779 4.20332,2.37682 4.91432,3.72605 0.78577,1.49111 0.82617,3.59945 0.0964,5.02993 -1.18189,2.3167 -5.26755,4.85124 -8.62294,5.34926 l -1.84016,0.27312 -0.0809,1.33145 c -0.20039,3.29937 -3.28701,8.28523 -5.69004,9.19121 -1.23312,0.46491 -3.37457,0.33679 -4.61244,-0.27594 z m -16.09454,-32.63618 c -0.21979,-0.87569 0.44113,-1.99596 2.40693,-4.07981 l 1.70619,-1.80865 -0.99064,-0.38914 -0.99064,-0.38913 -0.7594,1.16552 c -0.72331,1.11013 -3.10892,3.23997 -3.62906,3.23997 -0.3702,0 1.01193,2.57779 1.54084,2.87378 0.63141,0.35335 0.90042,0.12314 0.71578,-0.61254 z m -25.75022,-17.72542 c 1.16211,-5.74004 3.89655,-8.51609 9.04259,-9.18015 1.19686,-0.15444 2.38285,-0.38765 2.63553,-0.51824 0.667,-0.34469 1.29078,-0.29192 1.77974,0.15059 0.23581,0.2134 1.67393,0.62832 3.19583,0.92204 1.5219,0.29373 4.06241,0.97629 5.64559,1.51681 l 2.87851,0.98277 0.49493,-0.61121 c 0.27221,-0.33617 0.49493,-1.02303 0.49493,-1.52635 0,-0.90132 -0.041,-0.93441 -2.71198,-2.19062 -5.24106,-2.46494 -10.18791,-3.65205 -16.20573,-3.88893 -4.73844,-0.18652 -5.78632,0.0302 -7.4178,1.53403 -1.76586,1.62772 -2.08859,2.90468 -1.89271,7.48896 0.13973,3.26998 0.37256,5.29486 0.86553,7.52744 0.23828,1.07913 0.70378,0.2194 1.19504,-2.20714 z"
         id="path12892" /><path
         style="fill:#b3d3f3"
         d="m 298.4091,499.14395 c -1.8658,-0.92354 -3.6926,-3.86414 -4.30982,-6.9375 -0.3282,-1.63424 -0.0472,-2.81006 0.6715,-2.81006 0.24065,0 0.44732,-0.41104 0.56538,-1.12448 0.10235,-0.61846 0.41041,-1.71979 0.68458,-2.44739 0.27418,-0.72761 0.49856,-1.35269 0.49863,-1.38907 7e-5,-0.0364 -1.34244,-0.0661 -2.98337,-0.0661 -5.22691,0 -10.07532,-0.84683 -14.72562,-2.572 l -2.49559,-0.92581 -0.52912,0.75672 c -1.9479,2.78574 -4.3781,4.11112 -6.4936,3.54147 -3.14419,-0.84664 -8.05782,-7.47805 -6.61215,-8.92371 0.2125,-0.2125 0.17659,-0.79762 -0.13229,-2.15567 -0.23318,-1.0252 -0.42396,-2.30099 -0.42396,-2.83509 0,-0.75876 -0.30651,-1.38372 -1.40181,-2.85819 -3.97575,-5.35208 -6.46606,-10.91789 -7.88809,-17.62981 -0.48337,-2.28148 -0.59247,-3.6768 -0.61028,-7.8052 -0.0205,-4.74248 0.0129,-5.09741 0.59016,-6.26927 0.78093,-1.58545 2.38135,-3.18586 3.9668,-3.9668 1.15873,-0.57075 1.56213,-0.61185 6.00468,-0.61185 3.51429,0 5.45595,0.12879 7.40833,0.49138 5.7053,1.05959 11.60614,3.4277 16.20324,6.50265 l 2.41101,1.6127 2.46683,0.10512 c 4.40446,0.1877 8.4821,1.92431 11.6339,4.95473 2.53749,2.43976 3.07179,4.29535 1.92978,6.70197 -0.53412,1.12557 -1.24225,1.58364 -1.90257,1.23073 -0.35413,-0.18927 -0.70309,-0.0458 -1.48381,0.60998 -1.00291,0.84243 -1.01378,0.87099 -0.621,1.63054 0.82511,1.5956 2.30226,6.28163 2.84664,9.03058 0.31393,1.58523 0.62783,4.44987 0.70785,6.45974 l 0.14377,3.61137 1.48531,-0.54145 c 2.31118,-0.84252 6.24481,-0.78909 8.43102,0.1145 4.47482,1.84952 6.39477,5.23088 4.85474,8.55004 -1.23284,2.65709 -5.78117,5.32889 -9.33488,5.48356 l -1.21189,0.0527 -0.12933,1.80753 c -0.22595,3.15799 -2.8111,7.43178 -5.24708,8.67453 -1.38327,0.70569 -3.48023,0.68328 -4.96789,-0.0531 z m 15.38738,-17.74842 c 3.04626,0.0801 3.75622,-0.1666 3.49717,-1.21515 -0.3939,-1.59437 -3.02613,-3.33958 -5.68209,-3.76731 -1.76133,-0.28365 -5.21774,0.25498 -5.61091,0.87439 -0.65823,1.03699 0.0938,3.08343 1.44576,3.93402 0.71984,0.4529 1.0656,0.50087 2.30226,0.31941 0.80036,-0.11744 2.62188,-0.18285 4.04781,-0.14536 z m -29.80642,-14.90788 c 1.28878,-0.739 2.37677,-1.95763 3.01408,-3.37601 0.64182,-1.42841 0.40379,-1.97999 -1.17285,-2.71782 l -1.35033,-0.63192 -0.39687,0.59589 c -0.73365,1.10155 -2.43815,2.83686 -3.32463,3.38473 l -0.87921,0.54339 0.52642,1.2443 c 0.87913,2.07801 1.39075,2.21471 3.58339,0.95744 z m -21.07264,-5.59501 c 7.36621,-1.76182 14.0882,-7.5563 16.93895,-14.6017 0.44642,-1.1033 0.92289,-2.2739 1.05882,-2.60132 0.14095,-0.33952 0.47694,-0.59531 0.78198,-0.59531 0.29416,0 0.53862,-0.14883 0.54325,-0.33073 0.005,-0.21517 0.12212,-0.1814 0.33385,0.0967 0.17899,0.23506 1.04681,0.79154 1.92849,1.23661 2.21103,1.11613 6.02785,3.71422 7.82581,5.327 0.82369,0.73885 1.75453,1.34336 2.06854,1.34336 h 0.57093 l -0.5187,-0.72844 c -0.28529,-0.40065 -1.17541,-1.46444 -1.97805,-2.36397 -4.67637,-5.2409 -10.32869,-8.94734 -17.08874,-11.20573 -4.5029,-1.50432 -7.32102,-1.94785 -12.46513,-1.96185 -4.30604,-0.0117 -4.38268,-0.002 -5.61536,0.72276 -0.81041,0.47638 -1.50799,1.17396 -1.98438,1.98437 -0.72858,1.23945 -0.73443,1.28677 -0.71017,5.74766 0.0193,3.5419 0.14685,5.07428 0.60027,7.20964 0.67785,3.19229 1.82982,6.73538 3.08636,9.49269 l 0.90145,1.97808 1.00102,-0.16923 c 0.55056,-0.0931 1.77493,-0.35433 2.72081,-0.58056 z m 5.49011,-14.64452 c -0.31732,-0.18483 -0.46303,-0.59859 -0.46303,-1.31488 0,-1.03382 -0.0109,-1.04518 -1.00541,-1.04518 -1.12995,0 -1.64042,-0.3705 -1.64042,-1.19063 0,-0.82012 0.51047,-1.19062 1.64042,-1.19062 0.98778,0 1.00541,-0.0176 1.00541,-1.00542 0,-1.12995 0.37051,-1.64042 1.19063,-1.64042 0.82012,0 1.19062,0.51047 1.19062,1.64042 0,0.98778 0.0176,1.00542 1.00542,1.00542 1.12995,0 1.64042,0.3705 1.64042,1.19062 0,0.82013 -0.51047,1.19063 -1.64042,1.19063 -0.98778,0 -1.00542,0.0176 -1.00542,1.00541 0,1.4807 -0.76919,2.0239 -1.91822,1.35465 z"
         id="path12891" /><path
         style="fill:#9cc5ee"
         d="m 298.74481,499.33855 c -1.90441,-0.82914 -3.99982,-3.97683 -4.61273,-6.92917 -0.38334,-1.84655 -0.18747,-2.68972 0.6751,-2.90621 0.95643,-0.24005 1.35935,0.24158 1.66801,1.99384 0.35111,1.99334 1.34533,3.94302 2.55007,5.0008 1.76778,1.55214 3.64721,0.91918 5.42139,-1.82583 1.49864,-2.31869 1.96614,-3.91373 1.77104,-6.04255 -0.088,-0.96062 -0.0535,-1.91669 0.0766,-2.12461 0.1773,-0.28312 0.8897,-0.3839 2.83772,-0.40142 2.32198,-0.0209 2.75708,-0.10467 4.05619,-0.78102 3.70967,-1.93135 5.08142,-4.10276 3.78246,-5.98743 -0.65029,-0.94351 -1.0652,-1.24718 -2.98871,-2.18741 -1.51213,-0.73915 -1.97537,-0.83851 -3.83645,-0.82289 -2.11794,0.0178 -2.47714,0.12034 -6.28135,1.79354 -0.94183,0.41424 -1.01443,0.41055 -1.50135,-0.0764 -0.457,-0.457 -0.49585,-0.77658 -0.36369,-2.99175 0.18335,-3.07325 -0.29387,-7.88337 -1.11793,-11.26813 -3.55265,-14.59222 -14.94752,-25.38788 -30.22175,-28.6325 -1.74582,-0.37085 -4.04013,-0.59642 -7.0806,-0.69612 l -4.49792,-0.14751 -1.45112,0.76793 c -1.06151,0.56175 -1.66533,1.11498 -2.24896,2.06055 l -0.79783,1.29263 0.0245,4.5165 c 0.0194,3.5827 0.14577,5.09091 0.61118,7.29464 0.69733,3.30185 1.80434,6.71115 3.06531,9.44035 l 0.91725,1.98527 1.13048,-0.17518 c 2.09878,-0.32524 5.03284,-1.2107 6.9558,-2.09916 6.0959,-2.81648 11.18166,-8.45068 13.20501,-14.629 0.46493,-1.41967 1.01353,-1.84812 1.97548,-1.54281 0.7698,0.24433 0.81825,1.01126 0.17939,2.83958 -3.031,8.67418 -11.0385,15.65096 -20.1115,17.52279 -0.86468,0.17838 -1.60883,0.4344 -1.65367,0.56891 -0.16255,0.48764 3.37124,4.82226 5.92412,7.26665 5.32951,5.10302 11.51264,8.28305 19.05957,9.80246 2.16964,0.43681 3.94436,0.58572 7.44783,0.62491 4.06295,0.0454 4.63952,0.10621 4.94277,0.52093 0.18881,0.25821 0.2753,0.66627 0.1922,0.90679 -0.33109,0.9583 -0.90016,1.09887 -4.42719,1.09359 -5.71094,-0.009 -10.99008,-0.92033 -15.58416,-2.69165 -1.14116,-0.43999 -2.16261,-0.69781 -2.2699,-0.57293 -0.1073,0.12487 -0.65182,0.7991 -1.21005,1.49829 -1.03913,1.30149 -2.60244,2.36942 -3.91398,2.67373 -1.71081,0.39694 -3.83205,-0.82425 -6.0425,-3.47865 -2.24486,-2.69572 -3.10878,-4.88461 -2.21926,-5.62285 0.73792,-0.61242 1.55229,-0.0955 2.37833,1.50975 0.84171,1.63568 4.35712,5.44071 4.55035,4.92524 0.0637,-0.16997 -0.31532,-0.87389 -0.8423,-1.56427 -1.2076,-1.58204 -2.04795,-3.24213 -2.66795,-5.27045 -0.39061,-1.27787 -0.84838,-1.97852 -2.347,-3.59225 -5.42468,-5.84136 -9.32662,-13.39753 -10.98807,-21.27858 -0.37622,-1.78458 -0.60858,-4.11854 -0.71382,-7.17006 -0.2024,-5.86858 0.067,-6.89388 2.43843,-9.2798 2.31385,-2.32799 3.3105,-2.58515 9.24214,-2.38465 5.09892,0.17236 8.0833,0.68728 12.44786,2.14775 3.63376,1.21593 7.04217,2.86699 10.1079,4.89635 l 2.43577,1.61235 2.45903,0.10481 c 4.37749,0.18657 8.40191,1.89423 11.55347,4.90242 0.84794,0.80936 1.75912,1.88718 2.02484,2.39516 0.67901,1.29805 0.62876,3.0727 -0.12498,4.41381 -0.63604,1.13167 -1.24653,1.49202 -1.9042,1.12396 -0.2509,-0.1404 -0.71362,0.0711 -1.37784,0.62991 l -1.00009,0.84132 0.78564,1.85208 c 1.89667,4.47128 2.91687,9.16723 3.14113,14.45855 l 0.15303,3.61064 1.44552,-0.49733 c 4.12083,-1.41778 8.77318,-0.612 11.69206,2.02502 2.08856,1.8869 2.68391,4.29764 1.63281,6.61176 -1.09608,2.41313 -5.50177,5.11444 -8.71654,5.34445 l -1.83052,0.13098 -0.13097,1.83052 c -0.22515,3.14672 -2.82845,7.46278 -5.24486,8.69554 -1.19387,0.60907 -3.4092,0.67763 -4.63605,0.14349 z m 4.12469,-49.86999 c 0,-0.5686 -3.34798,-3.48877 -4.97422,-4.33859 -1.92194,-1.00436 -4.24543,-1.77445 -5.3264,-1.76537 -0.63892,0.005 -0.59764,0.0845 0.68981,1.32292 0.75316,0.72446 1.61511,1.3172 1.91544,1.3172 0.95448,0 3.90175,1.32597 5.62933,2.53261 1.70615,1.19168 2.06604,1.3539 2.06604,0.93123 z m -22.38474,19.97048 c -0.95898,-0.41746 -1.66313,-1.33786 -2.47545,-3.23573 -0.71379,-1.66765 -0.45691,-2.4715 0.78979,-2.4715 0.70457,0 0.85762,0.16722 1.54936,1.69281 0.93645,2.06529 1.39608,2.26923 3.12409,1.3862 1.51927,-0.77636 2.72774,-2.00227 3.50649,-3.55708 0.79146,-1.58021 0.55454,-2.06711 -1.46587,-3.01258 -1.51559,-0.70923 -1.69367,-0.87399 -1.69367,-1.56705 0,-0.55949 0.17525,-0.85433 0.63132,-1.06213 0.52861,-0.24085 0.92524,-0.14308 2.43802,0.60099 2.0434,1.00505 2.72631,1.78067 2.93451,3.33285 0.31099,2.3186 -2.26782,5.96561 -5.28407,7.47285 -1.73523,0.86711 -2.77953,0.97538 -4.05452,0.42037 z m -12.12448,-23.32092 c -0.22868,-0.22868 -0.41578,-0.82399 -0.41578,-1.32292 0,-0.85675 -0.0504,-0.90714 -0.90714,-0.90714 -0.98269,0 -1.73869,-0.56043 -1.73869,-1.2889 0,-0.72369 0.55363,-1.09235 1.64042,-1.09235 0.98778,0 1.00541,-0.0176 1.00541,-1.00542 0,-1.12995 0.37051,-1.64042 1.19063,-1.64042 0.82012,0 1.19062,0.51047 1.19062,1.64042 0,0.98778 0.0176,1.00542 1.00542,1.00542 1.14714,0 1.64042,0.37114 1.64042,1.23423 0,0.70651 -0.70461,1.14702 -1.83469,1.14702 -0.76875,0 -0.81115,0.0548 -0.81115,1.04902 0,0.76635 -0.1379,1.12283 -0.51177,1.32292 -0.69529,0.37211 -0.96615,0.34567 -1.4537,-0.14188 z"
         id="path12890" /><path
         style="fill:#99b4ce"
         d="m 298.74481,499.33855 c -1.90441,-0.82914 -3.99982,-3.97683 -4.61273,-6.92917 -0.38334,-1.84655 -0.18747,-2.68972 0.6751,-2.90621 0.95643,-0.24005 1.35935,0.24158 1.66801,1.99384 0.47395,2.69071 2.15124,5.36055 3.59538,5.72301 1.93628,0.48598 3.5716,-0.75239 5.26523,-3.98717 0.75848,-1.44866 0.83325,-1.81283 0.85489,-4.16394 0.013,-1.41705 0.10601,-2.65874 0.20659,-2.75932 0.10058,-0.10058 1.34228,-0.19294 2.75932,-0.20523 2.27195,-0.0197 2.75033,-0.1101 4.04776,-0.76484 5.24862,-2.64868 5.63122,-5.90414 0.95545,-8.12976 -2.83795,-1.35084 -5.5588,-1.26432 -8.86283,0.28182 -1.75941,0.82333 -2.80061,0.99425 -3.10052,0.50899 -0.0963,-0.15583 -0.20633,-2.38826 -0.24449,-4.96094 -0.0511,-3.44614 -0.21236,-5.38158 -0.61244,-7.35157 -2.43191,-11.97477 -9.56241,-21.4007 -20.35126,-26.90271 -5.64728,-2.87995 -10.58324,-4.10818 -17.40939,-4.33203 l -4.49792,-0.14751 -1.45112,0.76793 c -1.06151,0.56175 -1.66533,1.11498 -2.24896,2.06055 l -0.79783,1.29263 0.0245,4.5165 c 0.0194,3.5827 0.14577,5.09091 0.61118,7.29464 0.69733,3.30185 1.80434,6.71115 3.06531,9.44035 l 0.91725,1.98527 1.13048,-0.17518 c 2.09878,-0.32524 5.03284,-1.2107 6.9558,-2.09916 6.10132,-2.81899 11.18113,-8.44967 13.20923,-14.64171 0.35845,-1.09439 0.60045,-1.42587 1.1398,-1.56124 0.51532,-0.12934 0.79853,-0.0313 1.14473,0.39623 0.54987,0.67906 0.48217,1.01792 -0.80605,4.03482 -2.9625,6.93783 -8.74574,12.34552 -15.9607,14.92425 -1.34687,0.48139 -3.01289,0.95983 -3.70228,1.06321 -0.68938,0.10338 -1.31729,0.29129 -1.39534,0.41758 -0.20222,0.32721 1.65413,2.97793 3.55255,5.07276 4.37384,4.82636 9.27246,8.21161 15.04228,10.39514 4.39122,1.66181 11.07995,2.70293 15.51796,2.4154 2.75327,-0.17837 3.34188,0.0253 3.34188,1.15647 0,1.10616 -0.71061,1.30809 -4.58129,1.30189 -5.47947,-0.009 -10.82549,-0.94603 -15.35292,-2.69165 -1.14116,-0.43999 -2.16261,-0.69781 -2.2699,-0.57293 -0.1073,0.12487 -0.65182,0.7991 -1.21005,1.49829 -1.03913,1.30149 -2.60244,2.36942 -3.91398,2.67373 -1.71081,0.39694 -3.83205,-0.82425 -6.0425,-3.47865 -2.23524,-2.68417 -3.1086,-4.88476 -2.22853,-5.61516 0.84159,-0.69845 1.2765,-0.32111 3.05542,2.651 0.3638,0.60782 1.29948,1.74591 2.07928,2.52908 1.16428,1.16932 1.57994,1.42396 2.32441,1.42396 1.12926,0 1.98411,-0.54763 2.99002,-1.91545 l 0.78109,-1.06212 -2.04416,-1.22858 c -9.61407,-5.77823 -16.61693,-15.92895 -19.09343,-27.67614 -0.37622,-1.78458 -0.60858,-4.11854 -0.71382,-7.17006 -0.2024,-5.86858 0.067,-6.89388 2.43843,-9.2798 2.31385,-2.32799 3.3105,-2.58515 9.24214,-2.38465 5.09892,0.17236 8.0833,0.68728 12.44786,2.14775 3.63376,1.21593 7.04217,2.86699 10.1079,4.89635 l 2.43577,1.61235 2.45903,0.10481 c 4.37749,0.18657 8.40191,1.89423 11.55347,4.90242 0.84794,0.80936 1.75912,1.88718 2.02484,2.39516 0.67901,1.29805 0.62876,3.0727 -0.12498,4.41381 -0.69687,1.23991 -1.31602,1.52213 -2.11365,0.96344 -0.64231,-0.44989 -0.69924,-1.1076 -0.15783,-1.82341 0.21366,-0.28247 0.39225,-0.95214 0.39688,-1.48814 0.007,-0.81076 -0.20281,-1.19128 -1.24836,-2.26407 -0.69122,-0.70924 -1.91161,-1.73207 -2.71198,-2.27296 -1.48612,-1.00434 -5.02048,-2.29363 -6.28756,-2.29363 -0.69243,0 -0.68425,0.0207 0.49765,1.25677 3.20283,3.34973 5.41734,6.57297 7.38403,10.74753 2.40739,5.11002 3.63602,10.1948 3.88546,16.08029 l 0.15303,3.61064 1.44552,-0.49733 c 4.12083,-1.41778 8.77318,-0.612 11.69206,2.02502 2.08856,1.8869 2.68391,4.29764 1.63281,6.61176 -1.09608,2.41313 -5.50177,5.11444 -8.71654,5.34445 l -1.83052,0.13098 -0.13097,1.83052 c -0.22515,3.14672 -2.82845,7.46278 -5.24486,8.69554 -1.19387,0.60907 -3.4092,0.67763 -4.63605,0.14349 z m -18.36902,-30.00532 c -1.29419,-0.67943 -3.10157,-4.03632 -2.67603,-4.97027 0.21039,-0.46176 0.50141,-0.63115 1.08435,-0.63115 0.723,0 0.86788,0.15678 1.56435,1.69281 0.93645,2.06529 1.39608,2.26923 3.12409,1.3862 1.52551,-0.77955 2.72803,-2.00298 3.51751,-3.57869 0.75787,-1.51261 0.53949,-1.96617 -1.45707,-3.02634 -1.27176,-0.6753 -1.59754,-0.98156 -1.6647,-1.56497 -0.0637,-0.55326 0.0667,-0.79381 0.5495,-1.01379 0.52993,-0.24145 0.92939,-0.14487 2.45321,0.59308 2.05602,0.99569 2.74373,1.77037 2.95235,3.32571 0.31099,2.3186 -2.26782,5.96561 -5.28407,7.47285 -1.83954,0.91923 -2.86424,0.99665 -4.16349,0.31456 z m -12.01551,-23.21511 c -0.22868,-0.22868 -0.41578,-0.82399 -0.41578,-1.32292 0,-0.85675 -0.0504,-0.90714 -0.90714,-0.90714 -0.98269,0 -1.73869,-0.56043 -1.73869,-1.2889 0,-0.72369 0.55363,-1.09235 1.64042,-1.09235 0.98778,0 1.00541,-0.0176 1.00541,-1.00542 0,-1.12995 0.37051,-1.64042 1.19063,-1.64042 0.82012,0 1.19062,0.51047 1.19062,1.64042 0,0.98778 0.0176,1.00542 1.00542,1.00542 1.14714,0 1.64042,0.37114 1.64042,1.23423 0,0.70651 -0.70461,1.14702 -1.83469,1.14702 -0.76875,0 -0.81115,0.0548 -0.81115,1.04902 0,0.76635 -0.1379,1.12283 -0.51177,1.32292 -0.69529,0.37211 -0.96615,0.34567 -1.4537,-0.14188 z"
         id="path12889" /><path
         style="fill:#989fa5"
         d="m 298.76846,499.22152 c -2.12875,-0.96951 -4.07142,-3.90311 -4.64717,-7.01766 -0.33488,-1.81153 -0.15978,-2.48844 0.69949,-2.70411 0.90239,-0.22648 1.34671,0.24347 1.55719,1.64702 0.39298,2.62055 1.70854,5.09554 3.08755,5.80866 0.40253,0.20815 1.17639,0.37846 1.71969,0.37846 0.83458,0 1.17924,-0.19859 2.22171,-1.28013 0.67864,-0.70407 1.57948,-1.984 2.00188,-2.84427 0.67669,-1.37819 0.76877,-1.8543 0.77454,-4.00485 0.004,-1.53582 0.12413,-2.55829 0.3237,-2.75786 0.19758,-0.19758 1.24251,-0.32479 2.77158,-0.33742 2.14969,-0.0177 2.64863,-0.11561 4.01856,-0.78826 0.86028,-0.42239 2.1402,-1.32324 2.84427,-2.00188 1.08155,-1.04247 1.28014,-1.38712 1.28014,-2.2217 0,-0.5433 -0.17357,-1.32346 -0.3857,-1.73368 -0.5383,-1.04095 -2.62331,-2.3045 -4.70261,-2.84986 -1.53247,-0.40194 -1.99873,-0.41882 -3.66682,-0.13277 -1.05111,0.18024 -2.65361,0.68208 -3.56113,1.1152 -1.69802,0.81039 -2.61538,0.97903 -2.89189,0.53162 -0.087,-0.14072 -0.19677,-2.43268 -0.244,-5.09323 -0.057,-3.21276 -0.23886,-5.59267 -0.54142,-7.08633 -3.20607,-15.8274 -14.67381,-27.29003 -30.70539,-30.69169 -3.83308,-0.81332 -10.78492,-1.04124 -12.44316,-0.40795 -1.70104,0.64963 -2.60814,1.5054 -3.30062,3.11385 -0.56939,1.32256 -0.59252,1.62237 -0.44445,5.76079 0.10155,2.83812 0.34586,5.25978 0.69823,6.92113 0.98271,4.63321 3.52031,11.07054 4.36401,11.07054 0.20667,0 1.18723,-0.17266 2.17901,-0.38369 5.24818,-1.1167 9.70306,-3.60501 13.25821,-7.40547 2.14113,-2.28888 3.06015,-3.67394 4.45609,-6.71577 1.80024,-3.92283 1.7754,-3.88361 2.45878,-3.88361 1.50261,0 1.33977,1.79074 -0.49646,5.45942 -2.82123,5.63664 -7.01871,9.83852 -12.62056,12.63379 -2.16959,1.0826 -6.23907,2.412 -7.38348,2.412 -0.33893,0 -0.67549,0.0958 -0.74789,0.21301 -0.2359,0.3817 3.30442,4.89126 5.65349,7.20125 5.16006,5.07424 11.86838,8.56587 19.42193,10.10898 1.97977,0.40445 3.90178,0.56537 7.40344,0.61985 2.60122,0.0405 4.84372,0.18782 4.98334,0.32744 0.43609,0.4361 0.10664,1.47628 -0.5847,1.84607 -0.50571,0.27049 -1.68944,0.32374 -5.02709,0.22611 -5.05348,-0.14781 -8.77758,-0.78503 -12.82247,-2.19404 -1.46061,-0.50879 -2.84305,-0.98426 -3.07209,-1.05659 -0.27683,-0.0874 -0.80125,0.36728 -1.56437,1.35643 -1.4876,1.9282 -3.01629,2.83684 -4.75009,2.82341 -1.74021,-0.0135 -2.50314,-0.4537 -4.55399,-2.62771 -2.89029,-3.06385 -4.10292,-5.74913 -2.88949,-6.39854 0.80722,-0.432 1.23088,-0.096 2.43336,1.92965 0.61921,1.04311 1.75031,2.52163 2.51356,3.28562 1.24039,1.24157 1.50754,1.38906 2.51599,1.38906 1.01526,0 1.25547,-0.13551 2.39851,-1.35299 0.69864,-0.74415 1.27025,-1.43316 1.27025,-1.53115 0,-0.098 -0.75996,-0.61524 -1.68879,-1.14946 -2.80117,-1.61109 -5.731,-3.97533 -8.53852,-6.89019 -5.61505,-5.82975 -9.31814,-13.04889 -10.98753,-21.4201 -0.4796,-2.40497 -0.59574,-3.89438 -0.60358,-7.74049 -0.009,-4.6594 0.006,-4.79114 0.69504,-6.08541 0.84465,-1.58554 2.30326,-3.02523 3.92547,-3.87456 1.13421,-0.59383 1.42878,-0.62233 6.2177,-0.60167 4.12841,0.0178 5.52372,0.12691 7.80521,0.61028 5.75654,1.21962 11.22716,3.48373 15.72711,6.50892 l 2.23254,1.50088 2.33112,0.0936 c 1.28211,0.0515 3.04548,0.28537 3.91861,0.51973 4.58949,1.2319 9.41506,4.94579 10.19639,7.84742 0.52087,1.93437 -0.71412,4.57219 -2.06447,4.40948 -1.02352,-0.12333 -1.33779,-0.83205 -0.78438,-1.76889 0.25171,-0.42612 0.45766,-1.23042 0.45766,-1.78733 0,-0.89767 -0.18889,-1.19328 -1.66462,-2.60501 -2.39119,-2.2875 -6.13688,-4.10599 -8.45746,-4.10599 -0.74713,0 -0.71628,0.0559 1.2772,2.31511 6.45869,7.31956 9.93783,15.97028 10.35609,25.74995 l 0.15419,3.60521 1.51927,-0.47285 c 3.37568,-1.05063 6.27836,-0.89705 9.22765,0.48824 4.99063,2.34411 6.02065,7.09059 2.2418,10.33055 -2.03507,1.74486 -4.84119,3.01301 -7.01053,3.16823 l -1.82275,0.13041 v 1.24595 c 0,3.20827 -2.87184,8.14391 -5.4092,9.29641 -1.36511,0.62006 -3.15839,0.62221 -4.51268,0.005 z m -18.29562,-29.90156 c -0.93258,-0.43432 -1.24299,-0.80517 -2.06344,-2.46523 -1.03434,-2.09287 -1.03428,-2.75816 2.9e-4,-3.01782 0.85778,-0.21529 1.07842,-0.0197 1.96997,1.74646 0.44716,0.88582 1.01382,1.62213 1.3242,1.72064 1.82084,0.57791 6.25915,-3.88781 5.67939,-5.71447 -0.0901,-0.28376 -0.86054,-0.86767 -1.71218,-1.29758 -1.77049,-0.89374 -1.96197,-1.11134 -1.74357,-1.98151 0.25801,-1.028 1.01449,-1.03623 3.00718,-0.0327 2.23874,1.12742 2.84267,1.93275 2.8246,3.76662 -0.0305,3.09523 -3.9234,7.17646 -7.30719,7.6607 -0.55137,0.0789 -1.29267,-0.0653 -1.97925,-0.38508 z m -12.09045,-23.26992 c -0.24084,-0.26612 -0.43789,-0.86144 -0.43789,-1.32292 0,-0.77513 -0.0674,-0.83906 -0.88503,-0.83906 -1.22732,0 -1.95724,-0.81361 -1.54387,-1.72087 0.24821,-0.54476 0.48718,-0.66038 1.3649,-0.66038 1.01091,0 1.064,-0.0405 1.064,-0.81115 0,-1.13007 0.44052,-1.83469 1.14702,-1.83469 0.8631,0 1.23423,0.49328 1.23423,1.64042 0,0.98778 0.0176,1.00542 1.00542,1.00542 1.08679,0 1.64042,0.36866 1.64042,1.09235 0,0.72847 -0.756,1.2889 -1.73869,1.2889 -0.85675,0 -0.90715,0.0504 -0.90715,0.90714 0,1.50569 -1.08331,2.20519 -1.94336,1.25484 z"
         id="path12888" /><path
         style="fill:#758a9f"
         d="m 298.7537,499.2161 c -2.09005,-0.94932 -4.03205,-3.95596 -4.6084,-7.13476 -0.26954,-1.48663 -0.25225,-1.73865 0.14971,-2.18281 0.52181,-0.57659 1.24446,-0.65243 1.6333,-0.17141 0.14705,0.1819 0.35349,0.97103 0.45876,1.75363 0.25325,1.88274 1.61836,4.48384 2.75533,5.25004 1.05256,0.70932 2.42238,0.77856 3.44554,0.17417 0.93341,-0.55138 2.79338,-3.30085 3.35594,-4.96087 0.32062,-0.9461 0.39778,-1.80399 0.29019,-3.22659 -0.18883,-2.49679 -0.018,-2.65797 2.69608,-2.54411 1.35674,0.0569 2.39576,-0.0528 3.19977,-0.33772 1.60542,-0.56902 4.33424,-2.44076 4.86274,-3.33543 0.90834,-1.53771 0.36862,-3.37316 -1.3386,-4.55224 -1.8883,-1.30413 -2.96452,-1.6224 -5.50851,-1.62904 -2.17509,-0.006 -2.5769,0.0791 -4.6411,0.97936 -2.40125,1.04724 -3.10753,1.18737 -3.30067,0.65484 -0.066,-0.1819 -0.16441,-2.47385 -0.21876,-5.09323 -0.14003,-6.74891 -1.16156,-11.28832 -3.7589,-16.70365 -6.43806,-13.42305 -20.20876,-21.79322 -35.85443,-21.79322 -3.03019,0 -3.67961,0.077 -4.66272,0.55292 -1.43078,0.69263 -2.5779,2.06327 -3.00576,3.59145 -0.53102,1.89662 -0.16698,9.0842 0.635,12.53713 1.17716,5.06832 3.40835,10.57058 4.2864,10.57058 0.22259,0 1.32242,-0.18861 2.44407,-0.41913 7.89629,-1.62285 14.8819,-7.52859 18.02436,-15.23809 1.06317,-2.60832 1.56797,-3.1904 2.3374,-2.69521 0.87517,0.56324 0.55018,2.23492 -1.06301,5.46789 -2.80827,5.62803 -6.96494,9.78831 -12.50139,12.51225 -1.78939,0.88037 -3.83267,1.64915 -5.29167,1.99097 -1.30721,0.30626 -2.53362,0.60248 -2.72537,0.65827 -0.23803,0.0693 0.0107,0.61367 0.78389,1.71597 4.83722,6.89593 11.28507,11.71756 19.17416,14.33823 4.24603,1.41048 6.94787,1.83356 12.34699,1.9334 2.58738,0.0479 4.8198,0.15836 4.96094,0.24559 0.39057,0.24139 0.30613,1.34439 -0.13069,1.70691 -0.56948,0.47263 -5.14193,0.64158 -8.38819,0.30995 -3.89283,-0.3977 -6.43474,-0.94718 -10.09881,-2.18305 l -3.13159,-1.05627 -1.59748,1.74337 c -0.87861,0.95885 -1.93403,1.9174 -2.34538,2.13012 -0.99043,0.51217 -2.98735,0.49133 -4.11322,-0.0429 -1.95554,-0.92797 -5.92136,-6.10778 -5.92136,-7.73399 0,-0.62158 0.82172,-1.17094 1.41242,-0.94426 0.21583,0.0828 0.84953,0.93945 1.40823,1.90361 0.55869,0.96417 1.68802,2.44379 2.50962,3.28805 1.36345,1.40105 1.59318,1.53502 2.63235,1.53502 1.02762,0 1.26228,-0.1318 2.40879,-1.35299 0.69864,-0.74415 1.27025,-1.4396 1.27025,-1.54545 0,-0.10585 -0.56555,-0.50073 -1.25677,-0.87749 -5.13164,-2.79712 -10.9251,-8.47769 -14.36331,-14.08345 -2.40669,-3.92393 -4.44791,-9.10389 -5.3908,-13.68016 -1.13475,-5.50745 -1.23721,-12.00854 -0.22506,-14.27986 0.77113,-1.73044 2.47957,-3.48576 4.11024,-4.22303 1.29056,-0.58349 1.69244,-0.62415 6.0132,-0.60829 5.16983,0.019 8.5924,0.54076 13.03216,1.98684 3.26836,1.06454 7.75868,3.25711 10.51576,5.13472 2.23121,1.51949 2.26599,1.53225 4.4076,1.6169 4.63018,0.18301 8.58555,1.80685 11.8097,4.84834 2.18965,2.06561 2.56811,2.74354 2.56811,4.60019 0,1.85039 -0.83881,3.22727 -1.96607,3.22727 -1.08682,0 -1.45239,-0.70704 -0.87284,-1.68813 0.79851,-1.35177 0.60536,-2.52909 -0.63583,-3.87562 -1.37195,-1.48839 -3.7672,-3.10052 -5.65741,-3.80774 -1.39604,-0.52233 -4.3616,-1.12302 -4.3616,-0.88347 0,0.0638 0.22622,0.31365 0.50271,0.55526 1.27411,1.11338 3.96139,4.36214 5.39703,6.5247 4.06542,6.12388 6.32062,13.29767 6.71648,21.3651 0.091,1.85539 0.19212,3.37344 0.22463,3.37344 0.0325,0 0.48614,-0.17842 1.00806,-0.39649 1.54761,-0.64664 4.51577,-0.96313 6.31501,-0.67337 3.34967,0.53945 6.66115,2.71217 7.50622,4.92496 0.61096,1.59976 0.36577,3.59814 -0.6122,4.98961 -1.55696,2.21529 -6.21781,4.64904 -8.90331,4.64904 h -1.14884 l -0.13783,1.71703 c -0.2561,3.19042 -2.95965,7.705 -5.28957,8.8329 -1.42768,0.69113 -3.14748,0.71498 -4.58169,0.0635 z m -18.30169,-29.93987 c -0.91788,-0.46509 -1.28172,-0.89293 -2.02815,-2.38496 -0.99316,-1.98521 -0.99632,-2.80786 -0.0117,-3.05497 0.85517,-0.21464 1.07646,-0.0181 1.96754,1.74707 0.42991,0.85164 1.01381,1.62213 1.29757,1.71219 1.82666,0.57976 6.29239,-3.85856 5.71447,-5.6794 -0.0985,-0.31038 -0.83481,-0.87704 -1.72063,-1.3242 -1.76614,-0.89154 -1.96175,-1.11219 -1.74647,-1.96996 0.25461,-1.01444 0.90673,-1.02103 2.99303,-0.0303 1.76961,0.84039 2.00402,1.04457 2.50852,2.18507 0.49452,1.11795 0.52093,1.39135 0.23716,2.45496 -0.64735,2.4263 -2.78366,4.93051 -5.20685,6.10355 -1.71833,0.83183 -2.71935,0.89205 -4.00445,0.2409 z m -12.06962,-23.22619 c -0.24084,-0.26612 -0.43789,-0.86144 -0.43789,-1.32292 0,-0.77513 -0.0674,-0.83906 -0.88503,-0.83906 -1.22732,0 -1.95724,-0.81361 -1.54387,-1.72087 0.24821,-0.54476 0.48718,-0.66038 1.3649,-0.66038 1.03539,0 1.064,-0.0244 1.064,-0.90715 0,-0.98269 0.56043,-1.73869 1.2889,-1.73869 0.72369,0 1.09235,0.55364 1.09235,1.64042 0,0.98778 0.0176,1.00542 1.00542,1.00542 1.08679,0 1.64042,0.36866 1.64042,1.09235 0,0.72847 -0.756,1.2889 -1.73869,1.2889 -0.85675,0 -0.90715,0.0504 -0.90715,0.90714 0,1.50569 -1.08331,2.20519 -1.94336,1.25484 z"
         id="path12887" /><path
         style="fill:#647789"
         d="m 298.7537,499.2161 c -2.07749,-0.94362 -4.09771,-4.06055 -4.58343,-7.07161 -0.19868,-1.23164 -0.17168,-1.68202 0.12905,-2.15279 0.77145,-1.20762 1.82136,-0.49844 2.05644,1.38907 0.21029,1.68854 1.53298,4.39951 2.57383,5.27533 0.92475,0.77812 2.46206,0.90833 3.62488,0.307 0.77888,-0.40277 1.99803,-1.98024 2.98519,-3.86254 0.51942,-0.99045 0.63311,-1.63351 0.67615,-3.82482 0.0428,-2.17954 0.13285,-2.69351 0.52165,-2.97781 0.25845,-0.18898 0.71116,-0.26703 1.00602,-0.17345 1.21231,0.38477 3.61404,0.12593 5.0865,-0.54818 2.06749,-0.94654 3.93792,-2.38427 4.32848,-3.32717 0.44995,-1.08629 0.17903,-2.81297 -0.56576,-3.60577 -0.33423,-0.35576 -1.34343,-1.00905 -2.24268,-1.45175 -2.89194,-1.4237 -5.82325,-1.31234 -9.45347,0.35914 -2.69638,1.24151 -2.65299,1.31311 -2.86041,-4.71885 -0.17959,-5.22282 -0.5367,-7.6248 -1.70121,-11.44261 -3.45592,-11.3302 -12.63131,-20.7418 -24.11973,-24.74065 -4.93419,-1.71748 -7.51992,-2.14316 -13.05092,-2.14853 l -4.91251,-0.005 -1.1045,0.72986 c -0.60747,0.40143 -1.43294,1.22692 -1.83436,1.83442 -0.72979,1.10445 -0.72986,1.10506 -0.72358,5.88472 0.008,6.33946 0.73153,9.89764 3.21673,15.82652 1.39259,3.32227 1.16706,3.22529 5.14358,2.21196 3.13888,-0.79988 5.05638,-1.65302 7.75093,-3.44856 4.09742,-2.73036 7.57054,-7.00461 9.40563,-11.5752 1.0461,-2.60548 1.55254,-3.19301 2.32424,-2.69636 0.76978,0.49542 0.53972,2.0968 -0.6718,4.67633 -2.87986,6.1317 -7.44532,10.76744 -13.33202,13.53727 -2.05478,0.96682 -6.20197,2.2555 -7.25859,2.2555 -0.34752,0 -0.63186,0.0698 -0.63186,0.1552 0,0.55342 3.1855,4.60898 5.29167,6.73698 7.60637,7.68524 16.77671,11.35787 28.37152,11.36251 l 3.89756,0.002 0.17164,0.68385 c 0.27535,1.09711 -0.30438,1.4113 -2.9479,1.59763 -4.73771,0.33395 -11.83858,-0.77547 -16.73495,-2.61462 -1.34151,-0.5039 -2.43912,-0.82046 -2.43912,-0.70347 0,0.45916 -3.09154,3.52021 -3.89411,3.8557 -1.14896,0.4803 -2.84201,0.44862 -3.94286,-0.0738 -2.15641,-1.02329 -6.17253,-6.47107 -5.81643,-7.88988 0.15378,-0.61271 0.79673,-0.95197 1.41184,-0.74498 0.17939,0.0604 0.69516,0.80207 1.14616,1.64823 1.05073,1.97138 3.27852,4.47274 4.40142,4.94192 0.74243,0.31021 1.00428,0.31003 1.7491,-0.001 0.81071,-0.33874 2.82821,-2.37673 2.82821,-2.85694 0,-0.11559 -0.38695,-0.40813 -0.85989,-0.65009 -2.02358,-1.03528 -5.78288,-3.84501 -8.07847,-6.03789 -6.24981,-5.97019 -10.26941,-13.36803 -12.14301,-22.34849 -0.5876,-2.81646 -0.69958,-4.05309 -0.72118,-7.96437 -0.0251,-4.55196 -0.0131,-4.65551 0.70991,-6.12789 0.85089,-1.73269 2.38238,-3.22079 4.12692,-4.01001 2.53579,-1.14716 9.98665,-0.85095 15.87949,0.6313 5.23066,1.31568 9.3653,3.13839 13.70732,6.04273 l 2.40966,1.61179 h 2.08633 c 2.62966,0 4.6476,0.50889 7.4412,1.87653 2.45142,1.20013 5.69707,4.00932 6.30504,5.45716 0.90081,2.14522 0.0294,5.13117 -1.55147,5.31602 -1.12853,0.13197 -1.40167,-0.71467 -0.69789,-2.16327 0.71774,-1.47731 0.48012,-2.19287 -1.31063,-3.94683 -2.24581,-2.19966 -5.37974,-3.7108 -8.90715,-4.29489 l -1.0507,-0.17398 2.11594,2.20577 c 3.46592,3.61308 5.95447,7.468 7.80282,12.08709 1.9636,4.90708 3.16284,10.94569 3.16284,15.92595 0,1.01293 0.0446,1.8417 0.099,1.8417 0.0545,0 0.60423,-0.17824 1.2217,-0.3961 3.33333,-1.17607 6.55187,-0.99937 9.69359,0.53218 3.57539,1.74295 4.93543,4.24439 4.0092,7.37385 -0.73566,2.48556 -5.53118,5.63413 -9.00607,5.91306 l -1.71705,0.13783 -0.13783,1.71705 c -0.27688,3.44941 -3.49196,8.36788 -5.90844,9.03882 -1.48768,0.41306 -2.73185,0.3472 -3.95743,-0.20948 z m -17.68076,-29.66984 c -1.12034,-0.33945 -2.00698,-1.26933 -2.71313,-2.84543 -0.72259,-1.61282 -0.7795,-2.24744 -0.24156,-2.69389 0.70529,-0.58533 1.32129,-0.15506 2.26227,1.58017 0.6429,1.18556 1.1079,1.7419 1.50315,1.79846 1.30806,0.18716 4.11798,-1.98667 5.13676,-3.97395 0.91151,-1.77804 0.69666,-2.20121 -1.71816,-3.38398 -1.06021,-0.51929 -1.35047,-0.79669 -1.35047,-1.29064 0,-0.34606 0.24854,-0.79422 0.55231,-0.99592 0.49414,-0.32809 0.74991,-0.26787 2.42795,0.57161 1.57746,0.78918 1.96283,1.1185 2.42424,2.07164 0.71753,1.48223 0.69554,1.84542 -0.23027,3.80239 -1.63039,3.44633 -5.61508,6.09824 -8.05309,5.35954 z m -12.54539,-23.42775 c -0.40905,-0.2865 -0.58305,-0.68025 -0.58305,-1.31941 0,-0.83588 -0.0655,-0.91104 -0.79375,-0.91104 -0.75431,0 -1.85208,-0.77292 -1.85208,-1.30402 0,-0.53334 0.87787,-1.07723 1.73869,-1.07723 0.85675,0 0.90714,-0.0504 0.90714,-0.90715 0,-1.00357 0.56339,-1.73869 1.33251,-1.73869 0.61616,0 1.04874,0.75677 1.04874,1.83469 0,0.77067 0.0531,0.81115 1.06401,0.81115 0.89092,0 1.11534,0.11266 1.37955,0.69254 0.27849,0.61123 0.24332,0.75102 -0.29957,1.19062 -0.33831,0.27395 -0.95192,0.49809 -1.36358,0.49809 -0.66927,0 -0.75715,0.10178 -0.83058,0.96203 -0.10926,1.28008 -0.906,1.85821 -1.74803,1.26842 z"
         id="path12886" /><path
         style="fill:#575d63"
         d="m 299.06606,499.32644 c -0.56393,-0.20101 -1.43474,-0.76133 -1.93514,-1.24516 -1.97952,-1.91396 -3.68894,-6.89249 -2.80158,-8.15937 0.80789,-1.15343 1.59839,-0.51763 2.05201,1.65043 0.45208,2.16073 1.44849,4.15838 2.5267,5.06563 0.64808,0.54533 1.109,0.69592 2.12996,0.69592 1.17939,0 1.40348,-0.10363 2.36363,-1.093 1.6114,-1.66043 2.95104,-4.5723 2.98231,-6.48238 0.014,-0.85401 -0.0628,-1.81454 -0.17055,-2.13452 -0.13918,-0.41321 -0.0464,-0.73137 0.3203,-1.09804 0.45076,-0.45076 0.67084,-0.4833 1.73449,-0.25645 2.07082,0.44167 4.5603,-0.33448 7.26126,-2.26382 1.37304,-0.9808 1.89214,-1.88808 1.89214,-3.3071 0,-1.40765 -0.89627,-2.43608 -3.04484,-3.49381 -2.98163,-1.46785 -5.72944,-1.36617 -9.4802,0.35081 -2.70579,1.23862 -2.6552,1.32478 -2.85135,-4.85597 -0.12306,-3.87789 -0.30703,-5.77399 -0.7531,-7.76218 -1.71922,-7.66278 -4.89062,-13.48216 -10.328,-18.95139 -7.63912,-7.68388 -17.22054,-11.62646 -28.32957,-11.6571 -3.94259,-0.0109 -5.02844,0.25412 -6.4312,1.56951 -1.45662,1.36588 -1.74034,2.43372 -1.74676,6.57425 -0.009,6.0284 1.19419,11.61261 3.71927,17.25668 l 0.87272,1.9507 1.58478,-0.16564 c 2.1531,-0.22504 6.28983,-1.67891 8.80817,-3.09566 2.99233,-1.6834 7.45786,-6.189 9.1569,-9.23906 0.68904,-1.23692 1.50093,-2.99432 1.80421,-3.90532 0.61049,-1.83379 1.22319,-2.38154 2.12443,-1.89921 0.71897,0.38479 0.59194,1.27764 -0.58353,4.10124 -2.52077,6.05516 -8.34871,11.86882 -14.44004,14.40464 -1.98731,0.82732 -5.57087,1.85074 -6.48046,1.85074 -0.26777,0 -0.48685,0.11396 -0.48685,0.25325 0,0.13929 0.88598,1.4294 1.96884,2.86691 5.99703,7.96112 14.92855,13.25454 24.8499,14.72772 1.51262,0.2246 4.46729,0.40837 6.56595,0.40837 3.91227,0 4.45073,0.13052 4.45073,1.07885 0,1.0159 -0.69562,1.17114 -5.1339,1.14567 -5.7453,-0.033 -10.7413,-0.9578 -15.34996,-2.84149 l -1.56614,-0.64014 -0.97999,1.22387 c -1.33575,1.66815 -2.36052,2.59184 -3.24713,2.92682 -1.14542,0.43277 -2.74228,0.33542 -3.86116,-0.23539 -2.31582,-1.18145 -6.3622,-6.78703 -5.68608,-7.87712 0.1602,-0.25829 0.59604,-0.50626 0.96853,-0.55105 0.58615,-0.0705 0.79012,0.13033 1.51634,1.49286 0.99104,1.85939 3.17491,4.39022 4.28266,4.96305 1.15306,0.59628 2.1194,0.25974 3.50372,-1.22021 0.66629,-0.71233 1.21144,-1.40089 1.21144,-1.53014 0,-0.12925 -1.007,-0.85036 -2.23779,-1.60247 -11.04326,-6.74835 -18.13995,-18.47423 -19.48139,-32.18917 -0.43619,-4.45961 -0.20545,-7.72405 0.67285,-9.51923 0.80955,-1.65466 2.36894,-3.14989 4.08061,-3.91272 2.25654,-1.00565 8.77528,-0.89996 14.26576,0.23129 5.20933,1.07333 11.63463,3.80309 15.52989,6.59781 l 2.01889,1.44849 h 2.17729 c 2.70444,0 4.71349,0.49671 7.47448,1.84795 2.43462,1.19151 5.5875,3.91473 6.3203,5.459 0.95291,2.00811 0.0542,5.15313 -1.52666,5.34276 -1.09021,0.13077 -1.3845,-0.73062 -0.69896,-2.04586 0.38747,-0.74339 0.50222,-1.30066 0.38124,-1.85149 -0.24732,-1.12607 -3.21082,-3.79905 -5.4775,-4.94053 -1.60838,-0.80997 -4.54386,-1.67535 -5.73458,-1.69057 -0.19774,-0.003 0.57846,0.98633 1.7249,2.19746 4.87149,5.1464 8.57728,12.28684 9.97969,19.2292 0.48396,2.39576 0.95806,6.87526 0.95806,9.05217 0,1.31968 0.0687,1.56143 0.40669,1.43172 2.005,-0.76939 3.5605,-1.00975 5.91343,-0.91376 2.17119,0.0886 2.80289,0.22547 4.31632,0.93535 2.99421,1.40446 4.71508,3.62069 4.70681,6.06167 -0.001,0.41968 -0.2879,1.37584 -0.63663,2.1248 -1.12496,2.41609 -5.33024,4.98139 -8.6785,5.29405 l -1.7248,0.16107 -0.16051,1.75094 c -0.11859,1.29368 -0.44083,2.31862 -1.23391,3.92464 -2.19253,4.43996 -5.03198,6.14306 -8.29984,4.97823 z m -19.21689,-30.47719 c -0.82837,-0.69702 -2.11508,-3.16671 -2.11508,-4.05963 0,-0.60325 0.64059,-1.12513 1.24406,-1.01351 0.26949,0.0498 0.82226,0.76524 1.27505,1.65017 0.43962,0.85919 0.98674,1.6804 1.21582,1.82489 1.78135,1.12365 6.97113,-4.064 5.87783,-5.87542 -0.14011,-0.23214 -0.96132,-0.77925 -1.8249,-1.21582 -1.25804,-0.63597 -1.57015,-0.9195 -1.57015,-1.42637 0,-0.97645 0.68076,-1.25282 2.00749,-0.81496 3.5391,1.16801 4.61319,3.48354 3.04479,6.56396 -2.06115,4.04819 -6.83011,6.32288 -9.15491,4.36669 z M 268.2184,445.75754 c -0.15064,-0.28148 -0.2739,-0.81726 -0.2739,-1.19063 0,-0.57789 -0.11804,-0.67885 -0.79375,-0.67885 -0.97166,0 -1.91108,-0.85399 -1.66694,-1.51536 0.24334,-0.65919 0.61109,-0.85718 1.6008,-0.86184 0.79795,-0.004 0.85989,-0.0678 0.85989,-0.88909 0,-0.86306 0.64175,-1.7608 1.25871,-1.7608 0.57477,0 1.12254,0.84845 1.12254,1.73869 0,0.85675 0.0504,0.90715 0.90715,0.90715 0.93299,0 1.73869,0.55353 1.73869,1.19452 0,0.52831 -1.06023,1.18673 -1.91096,1.18673 -0.65499,0 -0.73488,0.0949 -0.73488,0.87312 0,0.48022 -0.14287,1.016 -0.3175,1.19063 -0.48607,0.48607 -1.4837,0.37779 -1.78985,-0.19427 z"
         id="path12885" /><path
         style="fill:#3a444e"
         d="m 299.16805,499.38187 c -2.23923,-0.74896 -4.67842,-4.50616 -4.96302,-7.64479 -0.12527,-1.38155 -0.0739,-1.68113 0.34028,-1.98397 0.26831,-0.1962 0.57564,-0.35672 0.68295,-0.35672 0.45933,0 1.02666,0.89134 1.02666,1.61301 0,1.88942 1.60404,5.00929 3.06895,5.96914 0.84034,0.55061 2.55045,0.5482 3.39442,-0.005 0.82884,-0.54308 2.68944,-3.26037 3.24482,-4.73884 0.25798,-0.68677 0.43145,-2.03817 0.44926,-3.49998 l 0.029,-2.38125 1.86687,0.0748 c 2.3209,0.093 4.49431,-0.54092 6.56338,-1.91429 2.06836,-1.3729 2.54996,-2.05488 2.54996,-3.61094 0,-1.62008 -0.8994,-2.72573 -3.08966,-3.79819 -2.79598,-1.36906 -6.19394,-1.21194 -9.55302,0.44173 -2.56685,1.26366 -2.53829,1.31432 -2.73313,-4.84717 -0.17655,-5.58322 -0.56477,-8.07547 -1.86611,-11.97981 -1.91374,-5.74172 -4.80032,-10.33716 -9.33148,-14.85576 -6.94865,-6.92938 -15.0583,-10.61597 -25.34163,-11.52012 -6.50917,-0.57231 -9.30571,0.36731 -10.68769,3.591 -0.35343,0.82446 -0.45127,1.81844 -0.44273,4.49792 0.0196,6.15911 1.26863,11.84442 3.81639,17.37187 0.97912,2.12421 1.05527,2.14471 4.72489,1.27166 4.89925,-1.1656 10.22309,-4.58145 13.44924,-8.62923 1.65806,-2.08033 3.72232,-5.80682 4.31802,-7.79509 0.37076,-1.23749 1.03292,-1.71007 1.81191,-1.29317 0.7302,0.3908 0.66056,1.10933 -0.34871,3.59754 -3.2664,8.05285 -10.53924,14.29825 -18.96587,16.28653 -1.38245,0.3262 -2.56385,0.62986 -2.62534,0.6748 -0.26833,0.19616 2.68346,4.09446 4.72412,6.23895 5.31116,5.58138 11.95866,9.3009 19.74433,11.0477 1.9882,0.44607 3.8843,0.63003 7.76219,0.7531 4.49068,0.14251 5.16771,0.22065 5.4226,0.62586 0.21194,0.33691 0.21195,0.58913 5e-5,0.92604 -0.62878,0.99976 -8.22456,0.95162 -13.25065,-0.084 -2.34114,-0.48238 -6.70222,-1.82759 -7.87509,-2.42913 -0.74467,-0.38193 -0.80173,-0.37095 -1.19062,0.22916 -0.81547,1.25836 -2.52378,2.93532 -3.49489,3.43074 -1.92383,0.98147 -3.83472,0.53893 -5.9023,-1.3669 -1.3235,-1.21997 -3.74835,-4.66618 -4.00624,-5.69371 -0.19949,-0.79482 0.29088,-1.42835 1.10559,-1.42835 0.48259,0 0.8004,0.35237 1.48896,1.65093 0.48147,0.90801 1.60551,2.42335 2.49786,3.36742 1.50074,1.58772 1.70669,1.71649 2.74523,1.71649 1.02753,0 1.24406,-0.1303 2.55252,-1.53604 l 1.42975,-1.53604 -2.06559,-1.24145 c -6.73282,-4.04655 -11.85047,-9.63764 -15.41505,-16.84111 -2.82853,-5.71603 -4.00165,-9.96275 -4.54903,-16.46766 -0.35206,-4.18378 -0.12631,-6.85245 0.73397,-8.67646 0.74351,-1.57644 2.69965,-3.40037 4.22381,-3.93835 1.81296,-0.63992 5.23145,-0.80757 8.98772,-0.44079 7.57999,0.74014 14.14246,3.02556 20.07219,6.99025 l 2.53233,1.69314 2.72006,0.13747 c 3.17627,0.16053 5.3978,0.79384 7.86001,2.24071 2.14117,1.25821 4.66074,3.56086 5.32845,4.86968 0.62142,1.2181 0.6584,2.88437 0.0906,4.081 -0.56674,1.19431 -1.02986,1.53282 -1.82428,1.33343 -0.51024,-0.12806 -0.66294,-0.33494 -0.65648,-0.88944 0.005,-0.39741 0.18322,-0.95368 0.39688,-1.23615 0.76904,-1.01677 0.48802,-1.93486 -1.10275,-3.60262 -0.82017,-0.85985 -2.06869,-1.93394 -2.7745,-2.38685 -1.48638,-0.95382 -4.28448,-1.97125 -6.17964,-2.24702 l -1.31722,-0.19168 2.20499,2.35421 c 6.60365,7.05052 10.14715,15.77417 10.76865,26.51106 0.16414,2.83563 0.2431,3.23355 0.61314,3.08996 2.66101,-1.03252 6.23227,-1.19368 8.80982,-0.39756 4.95288,1.52979 7.23627,5.5275 5.17052,9.05244 -1.34072,2.28775 -6.3006,4.97644 -9.18015,4.97644 h -0.99277 l -0.16398,1.56886 c -0.0902,0.86287 -0.40443,2.20232 -0.69833,2.97656 -0.81883,2.15714 -2.8086,4.89361 -4.11499,5.6592 -1.31438,0.77028 -3.29785,1.01695 -4.62037,0.57461 z M 280.6445,469.36494 c -0.76067,-0.2797 -1.38591,-1.01308 -2.14559,-2.51673 -0.855,-1.6923 -0.94606,-2.37202 -0.38066,-2.84127 0.7021,-0.58269 1.32087,-0.16725 2.12938,1.42969 0.43656,0.86228 0.98368,1.68241 1.21582,1.82252 1.0799,0.65179 3.93481,-1.13357 5.19865,-3.25105 1.34598,-2.25509 1.13543,-2.89176 -1.31474,-3.97558 -1.30043,-0.57524 -1.78892,-1.35588 -1.25273,-2.00195 0.44572,-0.53707 1.02508,-0.48212 2.69273,0.2554 1.99171,0.88083 2.85298,1.95617 2.85298,3.56211 0,4.07343 -5.61058,8.76159 -8.99584,7.51686 z m -12.44196,-23.77431 c -0.14192,-0.37328 -0.25804,-0.96175 -0.25804,-1.30771 0,-0.55087 -0.1397,-0.63913 -1.12447,-0.71038 -0.94346,-0.0683 -1.1384,-0.17954 -1.21094,-0.69123 -0.12316,-0.86883 0.40726,-1.3745 1.44177,-1.3745 0.80064,0 0.89364,-0.0765 0.89364,-0.73488 0,-0.85073 0.65842,-1.91096 1.18673,-1.91096 0.64099,0 1.19452,0.80571 1.19452,1.73869 0,0.85675 0.0504,0.90715 0.90715,0.90715 0.49893,0 1.09424,0.1871 1.32291,0.41577 0.49189,0.49189 0.49611,0.52725 0.14189,1.18912 -0.20009,0.37387 -0.55657,0.51177 -1.32292,0.51177 -1.03827,0 -1.04903,0.0103 -1.04903,1.00542 0,1.15312 -0.37134,1.64042 -1.25009,1.64042 -0.4168,0 -0.69827,-0.21878 -0.87312,-0.67868 z"
         id="path12884" /><path
         style="fill:#2b2e31"
         d="m 299.32023,499.40006 c -2.3103,-0.64073 -4.85325,-4.47678 -5.11303,-7.71299 -0.121,-1.50744 -0.0761,-1.73909 0.3853,-1.986 0.8721,-0.46673 1.55954,0.24277 1.74397,1.79994 0.31044,2.62125 2.01243,5.25781 3.76813,5.83725 1.40042,0.46218 2.57747,-0.0489 3.8763,-1.68303 1.87068,-2.35363 2.42344,-3.88931 2.44328,-6.788 l 0.0172,-2.51355 h 2.51354 c 2.89141,0 4.37031,-0.53725 6.80217,-2.47106 2.45287,-1.95053 2.40486,-4.13221 -0.13312,-6.04969 -2.86228,-2.16251 -7.39351,-2.21597 -11.25247,-0.13277 -2.06186,1.11307 -2.15393,0.94179 -2.21327,-4.11757 -0.0954,-8.13323 -1.88538,-14.78149 -5.55652,-20.63788 -2.10789,-3.36263 -3.25061,-4.75963 -6.27997,-7.67743 -6.62927,-6.38512 -14.76678,-10.00402 -24.6103,-10.94464 -6.39986,-0.61155 -9.26117,0.27493 -10.80544,3.34771 -0.60797,1.20974 -0.79823,4.41546 -0.47,7.91931 0.49534,5.28788 1.65549,9.69464 3.7048,14.07245 l 1.00551,2.148 1.55483,-0.23427 c 8.97553,-1.3524 17.00101,-8.09912 19.93871,-16.76174 0.39755,-1.1723 0.54282,-1.33228 1.2759,-1.40515 1.28477,-0.12771 1.34162,0.74328 0.22464,3.44162 -2.67042,6.45106 -7.07459,11.19812 -13.26984,14.30298 -1.97231,0.98846 -5.35689,2.13353 -7.2099,2.43925 -0.61846,0.10204 -1.12448,0.27545 -1.12448,0.38535 0,0.63456 3.13213,4.52615 5.66037,7.03286 3.30522,3.27709 5.79707,5.0902 9.59916,6.98449 5.62548,2.80274 10.92608,3.99256 17.78676,3.99256 4.26264,0 4.78913,0.1186 4.78913,1.07885 0,0.91542 -0.63793,1.05156 -4.9302,1.05222 -5.94432,9e-4 -11.36351,-1.00615 -15.9164,-2.95774 l -1.23002,-0.52725 -0.53465,0.7431 c -2.66234,3.7004 -5.38969,4.67181 -8.09332,2.88263 -1.28277,-0.8489 -3.5632,-3.59053 -4.61729,-5.55112 -0.8808,-1.63827 -0.74874,-2.40923 0.41268,-2.40923 0.47715,0 0.83419,0.36493 1.55313,1.5875 0.51345,0.87312 1.71448,2.39117 2.66895,3.37343 1.35588,1.39537 1.9032,1.78594 2.5027,1.78594 0.94334,0 2.10827,-0.78422 3.26045,-2.19492 l 0.87291,-1.06877 -0.87291,-0.52179 c -4.59872,-2.74894 -7.91313,-5.41583 -10.71786,-8.62394 -6.7614,-7.73387 -10.38905,-17.44554 -10.48581,-28.07183 -0.0355,-3.89666 -0.003,-4.17356 0.64557,-5.55625 0.98863,-2.10668 1.89569,-3.04604 3.88793,-4.02636 1.76471,-0.86836 1.76516,-0.86843 5.73835,-0.84901 4.38422,0.0214 6.87845,0.33371 10.85266,1.35878 4.89495,1.26254 9.47327,3.3203 13.39082,6.01859 l 2.01372,1.387 2.74969,0.14034 c 4.3795,0.22351 7.7598,1.63785 11.08321,4.63726 2.52043,2.27472 3.22739,4.50013 2.11947,6.67182 -0.63478,1.24426 -0.89825,1.42883 -1.73861,1.21791 -0.49124,-0.12329 -0.6444,-0.33571 -0.63801,-0.88481 0.005,-0.39741 0.18322,-0.95368 0.39688,-1.23615 1.10088,-1.4555 -0.25407,-3.5147 -3.92678,-5.96773 -1.67561,-1.11915 -4.06245,-2.01115 -6.13421,-2.29244 l -1.32133,-0.17941 2.00071,2.15357 c 5.17232,5.56751 8.62045,12.2687 10.15472,19.73494 0.51193,2.49121 1.03643,8.96043 0.78955,9.73829 -0.19526,0.61521 -0.17717,0.61407 2.52996,-0.15905 4.51615,-1.28976 10.34468,0.54111 12.16461,3.82117 0.77429,1.39551 0.86485,3.61815 0.19968,4.90117 -1.29145,2.49102 -5.42903,4.95196 -8.94335,5.31928 -1.54838,0.16184 -1.56885,0.17484 -1.56885,0.99674 0,1.11625 -0.67333,3.64021 -1.29509,4.85461 -0.91301,1.78324 -2.68522,3.93588 -3.71837,4.51654 -1.23977,0.69679 -2.97033,0.9026 -4.35665,0.51812 z m -19.13042,-30.36862 c -0.88756,-0.54117 -2.45572,-3.23879 -2.45572,-4.22444 0,-0.61677 0.83469,-1.1444 1.44182,-0.91143 0.232,0.089 0.66835,0.73496 0.96967,1.4354 0.30132,0.70044 0.77174,1.47614 1.04538,1.72377 1.71408,1.55123 6.86637,-3.01274 6.23608,-5.52402 -0.10385,-0.41377 -0.65093,-0.84287 -1.7355,-1.36125 -0.87111,-0.41636 -1.64826,-0.92487 -1.72699,-1.13004 -0.21703,-0.56557 0.33548,-1.39304 0.93014,-1.39304 0.98566,0 3.68327,1.56816 4.22445,2.45573 1.15484,1.89403 0.26843,4.6575 -2.26141,7.05011 -2.43495,2.30288 -4.85464,2.98481 -6.66792,1.87921 z m -11.84654,-23.09286 c -0.0626,-0.1819 -0.14814,-0.74745 -0.19013,-1.25677 -0.0731,-0.88705 -0.12648,-0.93161 -1.26697,-1.05834 -0.99414,-0.11046 -1.20489,-0.23293 -1.27708,-0.74216 -0.12711,-0.89665 0.41484,-1.3745 1.55885,-1.3745 0.99573,0 1.01193,-0.0163 1.09208,-1.09753 0.10335,-1.3942 0.73421,-1.87756 1.52108,-1.16545 0.34303,0.31044 0.54465,0.82054 0.54465,1.37794 0,0.82128 0.0619,0.88533 0.8599,0.88909 0.96828,0.005 1.37935,0.21025 1.57822,0.7897 0.27084,0.78913 -0.28964,1.32291 -1.38909,1.32291 -0.99419,0 -1.04903,0.0424 -1.04903,0.81115 0,0.44613 -0.12325,1.04144 -0.27389,1.32292 -0.30697,0.57358 -1.52898,0.70306 -1.70859,0.18104 z"
         id="path12883" /><path
         style="fill:#000000"
         d="m 299.78928,499.46275 c -1.43542,-0.3423 -2.67869,-1.30795 -3.75052,-2.91302 -1.13789,-1.70402 -1.99275,-4.38992 -1.85599,-5.83138 0.074,-0.78001 0.19909,-0.93794 0.79758,-1.00709 0.84726,-0.0979 1.13232,0.34715 1.36492,2.13089 0.33456,2.56572 2.29916,5.32041 4.0254,5.64425 1.86545,0.34996 3.62381,-1.12387 5.22674,-4.38096 0.75248,-1.529 0.84397,-1.964 0.84397,-4.01279 0,-1.26383 0.0992,-2.39712 0.22054,-2.51842 0.1213,-0.1213 1.25239,-0.22055 2.51354,-0.22055 2.02048,0 2.50081,-0.0985 4.0415,-0.82847 5.71241,-2.70666 5.8337,-6.72615 0.26679,-8.84141 -2.60302,-0.98907 -6.00997,-0.6031 -9.24517,1.04738 -1.92815,0.98366 -2.02613,0.78086 -2.05695,-4.25732 -0.0317,-5.1783 -0.52361,-8.35005 -1.97549,-12.73709 -3.2967,-9.96144 -10.1222,-17.73013 -19.69393,-22.41536 -5.11438,-2.50342 -10.59833,-3.85464 -16.78601,-4.13599 -4.47866,-0.20365 -6.01449,0.15394 -7.63919,1.77863 -1.55999,1.56 -1.77393,2.40637 -1.73541,6.86567 0.0357,4.12842 0.48204,7.25424 1.57409,11.02267 0.7637,2.63539 2.67183,7.36368 3.1186,7.72785 0.87306,0.71162 7.44663,-1.29889 10.80347,-3.30422 2.77814,-1.65961 6.3661,-5.15084 8.12475,-7.90567 0.74318,-1.16417 1.78757,-3.218 2.32086,-4.56406 0.81434,-2.05546 1.06321,-2.4474 1.55402,-2.4474 1.13933,0 1.30728,0.6335 0.64954,2.44995 -3.16949,8.75298 -10.2702,15.13586 -19.31091,17.35871 l -2.94141,0.72321 1.65672,2.32911 c 4.86228,6.8356 12.09522,11.95895 20.19524,14.30501 3.72817,1.07982 7.01773,1.52288 11.58834,1.56081 3.3981,0.0282 4.22364,0.10866 4.42772,0.43154 0.34335,0.54321 0.32352,0.69138 -0.15682,1.17172 -0.34155,0.34156 -1.13264,0.41559 -4.43177,0.41471 -5.66839,-10e-4 -10.70838,-0.88891 -15.21425,-2.67883 l -2.0293,-0.80613 -0.65367,0.88312 c -3.52016,4.75577 -6.68543,4.81771 -10.4763,0.20501 -0.65024,-0.79121 -1.56249,-2.17047 -2.02722,-3.06503 -0.73086,-1.40685 -0.796,-1.68544 -0.48242,-2.06329 0.65966,-0.79484 1.36185,-0.3589 2.5338,1.57309 1.32002,2.1761 3.54494,4.54904 4.48696,4.78548 1.06457,0.26719 2.03607,-0.12069 3.09783,-1.23683 1.76727,-1.85779 1.76315,-1.92033 -0.19883,-3.01753 -6.24871,-3.49448 -12.35146,-10.03739 -15.79601,-16.93529 -3.2249,-6.45803 -5.01947,-15.34064 -4.42251,-21.89013 0.32161,-3.52861 1.76125,-5.66982 4.73159,-7.03742 1.39909,-0.64417 1.69726,-0.67878 5.57913,-0.64756 8.81103,0.0709 16.80445,2.49818 23.87723,7.25066 2.25041,1.51214 2.36259,1.55479 4.10105,1.55926 4.31944,0.0111 9.02164,1.90057 12.07772,4.85315 2.56951,2.48248 3.09064,4.16041 1.99506,6.42358 -0.58663,1.21181 -1.35928,1.65819 -1.97938,1.14355 -0.4912,-0.40766 -0.48955,-1.07193 0.004,-1.72483 1.01377,-1.34033 0.0656,-3.33474 -2.52583,-5.31269 -2.45877,-1.87672 -5.86426,-3.27069 -7.99034,-3.27069 -0.73431,0 -0.70035,0.0615 1.17746,2.13102 5.17524,5.7037 8.47779,12.08522 10.05667,19.43252 0.31323,1.4576 0.57164,3.99764 0.66622,6.54844 0.085,2.29195 0.16738,4.16713 0.18312,4.16705 0.0157,-7e-5 0.68346,-0.2628 1.48382,-0.58383 1.18478,-0.47522 1.99862,-0.58583 4.37935,-0.59518 2.84735,-0.0112 2.97589,0.0141 4.89479,0.96351 2.07781,1.02801 3.46894,2.19483 4.12169,3.4571 0.47497,0.91849 0.52637,3.00095 0.10554,4.27609 -0.70561,2.13802 -5.08817,4.95538 -8.57015,5.50938 l -1.91788,0.30515 -0.31012,1.94909 c -0.36938,2.32161 -1.71517,5.05329 -3.42824,6.95863 -0.88217,0.98119 -1.49991,1.39834 -2.51888,1.70094 -1.47018,0.43659 -1.52607,0.43962 -2.74674,0.14853 z m -19.58614,-30.4232 c -0.8224,-0.50146 -2.46905,-3.3986 -2.46905,-4.34407 0,-0.49834 0.87382,-1.01787 1.38321,-0.82239 0.19977,0.0767 0.74307,0.90966 1.20733,1.85113 0.78491,1.59173 0.90557,1.71175 1.72081,1.71175 2.24598,0 5.63294,-3.51903 5.42759,-5.63924 -0.0715,-0.73804 -0.27938,-0.94191 -1.66915,-1.6368 -1.40868,-0.70434 -1.5875,-0.88275 -1.5875,-1.58387 0,-1.09691 0.59217,-1.13578 2.64784,-0.17382 2.89431,1.35441 3.49317,3.2487 1.94521,6.15298 -0.97393,1.82728 -2.55649,3.371 -4.42809,4.31941 -1.59371,0.8076 -3.03115,0.86433 -4.1782,0.16492 z m -11.66332,-22.94058 c -0.19289,-0.0807 -0.33073,-0.61933 -0.33073,-1.29242 v -1.15408 l -1.25677,-0.0806 c -1.10442,-0.0709 -1.26784,-0.15904 -1.34805,-0.72728 -0.11487,-0.81387 0.56236,-1.33774 1.72935,-1.33774 0.84316,0 0.87547,-0.0386 0.87547,-1.04519 0,-1.18197 0.58296,-1.73207 1.38223,-1.30432 0.3288,0.17597 0.46985,0.56639 0.46985,1.30048 0,1.01096 0.0318,1.04903 0.87547,1.04903 1.16699,0 1.84422,0.52387 1.72935,1.33774 -0.0779,0.55201 -0.26551,0.66599 -1.2819,0.77892 l -1.19063,0.1323 -0.13229,1.19062 c -0.1332,1.19882 -0.58769,1.54314 -1.52135,1.15258 z"
         id="path12882" /></g></g></svg>
