<?xml version="1.0" encoding="UTF-8" standalone="no"?>
<!-- Created with Inkscape (http://www.inkscape.org/) -->

<svg
   width="50.718834mm"
   height="67.677979mm"
   viewBox="0 0 50.718834 67.677979"
   version="1.1"
   id="svg1"
   xml:space="preserve"
   xmlns="http://www.w3.org/2000/svg"
   xmlns:svg="http://www.w3.org/2000/svg"><defs
     id="defs1" /><g
     id="layer1"
     transform="translate(-293.25523,-587.11876)"><g
       id="g12893"
       transform="translate(104.45661,40.561204)"><path
         style="fill:#fde8c9"
         d="m 209.70635,614.02854 c -7.93485,-1.41526 -15.09728,-6.94281 -18.55375,-14.31873 -1.8777,-4.00691 -2.24977,-5.81108 -2.2549,-10.934 -0.005,-4.70854 0.15803,-5.96173 1.46035,-11.2448 1.94779,-7.90153 5.55347,-15.98694 9.69366,-21.73717 1.8527,-2.57317 5.60661,-6.23686 7.5246,-7.34375 4.27574,-2.46756 8.89344,-2.46756 13.16918,0 1.91799,1.10689 5.6719,4.77058 7.5246,7.34375 4.1402,5.75023 7.74588,13.83564 9.69366,21.73717 1.30232,5.28307 1.46507,6.53626 1.46035,11.2448 -0.004,3.89088 -0.0864,4.78293 -0.61133,6.60978 -2.56762,8.93579 -9.1818,15.58505 -18.03729,18.13294 -2.27169,0.65361 -8.62326,0.94626 -11.06913,0.51001 z"
         id="path12899" /><path
         style="fill:#fde2b9"
         d="m 210.45673,614.14195 c -5.81799,-1.10505 -10.02989,-3.23441 -13.946,-7.05053 -3.48596,-3.39695 -5.73882,-7.20677 -7.00784,-11.85101 -0.52969,-1.93847 -0.60748,-2.82151 -0.59278,-6.72919 0.0144,-3.81878 0.1235,-5.00257 0.72284,-7.84027 2.39513,-11.34026 7.39953,-22.01916 13.18091,-28.12679 7.55576,-7.98214 15.13832,-7.98214 22.69409,0 5.77981,6.10598 10.77541,16.7642 13.18325,28.12679 0.61364,2.89572 0.7083,3.96109 0.7084,7.97256 9e-5,3.92173 -0.0866,4.94188 -0.56644,6.6671 -2.47682,8.90477 -9.36181,15.7958 -18.19787,18.21385 -1.58483,0.4337 -3.02909,0.59771 -5.81293,0.66011 -2.03729,0.0457 -4.00182,0.0265 -4.36563,-0.0426 z m 0,-3.14114 c 0,-0.0728 -0.0595,-0.1323 -0.13229,-0.1323 -0.0728,0 -0.13229,0.0595 -0.13229,0.1323 0,0.0728 0.0595,0.13229 0.13229,0.13229 0.0728,0 0.13229,-0.0595 0.13229,-0.13229 z m -1.51008,-0.52202 c -1.56803,-0.68182 -3.93019,-2.45699 -5.44123,-4.08909 -4.71056,-5.08797 -6.94897,-13.10137 -6.02874,-21.58264 1.67709,-15.45695 7.5878,-30.47905 13.50922,-34.33373 1.5019,-0.97769 0.48735,-0.72323 -1.71808,0.43093 -2.12411,1.11159 -5.71179,4.71283 -7.68003,7.70905 -6.69097,10.18554 -11.01646,25.5457 -9.55246,33.92155 0.82296,4.70831 2.64644,8.32823 5.92259,11.75733 2.82339,2.95522 5.9811,4.91176 9.98527,6.18696 1.43081,0.45567 2.05169,0.45544 1.00346,-3.6e-4 z"
         id="path12898" /><path
         style="fill:#e5caa3"
         d="m 210.45673,614.14195 c -5.81799,-1.10505 -10.02989,-3.23441 -13.946,-7.05053 -3.48596,-3.39695 -5.73882,-7.20677 -7.00784,-11.85101 -0.52969,-1.93847 -0.60748,-2.82151 -0.59278,-6.72919 0.0144,-3.81878 0.1235,-5.00257 0.72284,-7.84027 2.39513,-11.34026 7.39953,-22.01916 13.18091,-28.12679 7.55576,-7.98214 15.13832,-7.98214 22.69409,0 5.77981,6.10598 10.77541,16.7642 13.18325,28.12679 0.61364,2.89572 0.7083,3.96109 0.7084,7.97256 9e-5,3.92173 -0.0866,4.94188 -0.56644,6.6671 -2.47682,8.90477 -9.36181,15.7958 -18.19787,18.21385 -1.58483,0.4337 -3.02909,0.59771 -5.81293,0.66011 -2.03729,0.0457 -4.00182,0.0265 -4.36563,-0.0426 z m 6.38004,-3.00853 c 6.11544,-1.13396 11.39267,-7.2959 13.51898,-15.78539 0.48815,-1.94901 0.58492,-3.06663 0.5805,-6.70452 -0.003,-2.40109 -0.15295,-5.31812 -0.33339,-6.48229 -2.19877,-14.18595 -6.7302,-25.84035 -11.90437,-30.61686 -1.91141,-1.76451 -3.1125,-2.19497 -5.46363,-1.95813 -8.18271,0.8243 -17.07031,14.41681 -20.694,31.64895 -0.57772,2.74729 -0.69587,4.0017 -0.69779,7.40833 -0.002,3.71899 0.0651,4.32197 0.72187,6.47245 1.72237,5.64002 5.21462,10.11152 10.26292,13.14072 4.18821,2.51311 9.7787,3.66112 14.00891,2.87674 z"
         id="path12897" /><path
         style="fill:#515a5f"
         d="m 211.11819,614.13905 c -12.49105,-1.97799 -21.23251,-11.21664 -22.24585,-23.51116 -0.81284,-9.86198 5.20852,-27.3571 12.52113,-36.38021 7.60659,-9.38586 15.84294,-10.08346 23.74764,-2.01137 7.98649,8.1556 15.00495,26.7624 14.33155,37.9947 -0.3903,6.51027 -3.36956,12.89652 -8.02797,17.20854 -3.07079,2.84245 -7.23853,5.10042 -11.22655,6.08224 -2.17336,0.53507 -7.38607,0.88865 -9.09995,0.61726 z m 9.08077,-3.51458 c 6.30646,-1.82966 11.20381,-5.92522 14.16947,-11.84967 1.74261,-3.48118 2.15209,-5.45177 2.13272,-10.26358 -0.0214,-5.32074 -0.70031,-8.99924 -2.87887,-15.59868 -3.316,-10.04503 -8.51465,-18.24151 -13.69228,-21.58797 -5.55974,-3.59343 -11.49573,-1.87326 -16.68383,4.83475 -5.07284,6.559 -8.96562,15.63349 -10.9273,25.47274 -0.58402,2.92928 -0.79739,8.8442 -0.40112,11.11974 1.58188,9.08384 8.33642,16.08802 17.61294,18.26387 2.35324,0.55196 8.15005,0.3394 10.66827,-0.3912 z"
         id="path12896" /><path
         style="fill:#384449"
         d="m 211.51507,613.99743 c -2.51864,-0.25078 -6.58333,-1.44786 -8.62411,-2.53987 l -1.34806,-0.72134 0.49025,-1.1063 0.49025,-1.1063 1.91615,0.87715 c 8.85211,4.05223 18.88139,2.29328 25.67813,-4.50346 2.90382,-2.90382 4.95178,-6.49595 6.02353,-10.56525 0.70924,-2.69289 0.76844,-7.58404 0.13771,-11.37709 -1.30921,-7.87335 -4.60318,-16.8624 -8.45582,-23.07546 l -1.51174,-2.43796 0.5495,-1.07712 c 0.30222,-0.59241 0.6591,-1.00937 0.79305,-0.92658 0.58253,0.36002 3.35847,4.90278 4.89011,8.00256 4.24656,8.59431 6.77989,18.02955 6.80247,25.3354 0.0164,5.31437 -1.28122,9.721 -4.11813,13.9846 -5.27109,7.92196 -14.25429,12.17883 -23.71329,11.23702 z"
         id="path12895" /><path
         style="fill:#313d42"
         d="m 223.95048,611.94229 c 0,-0.16232 0.3447,-0.97795 0.76599,-1.81252 0.59304,-1.17481 1.08586,-1.72252 2.18281,-2.42593 2.9888,-1.91653 6.32427,-5.87314 7.89628,-9.36673 1.54792,-3.44005 2.27657,-7.60571 1.98247,-11.33368 -0.1754,-2.22324 -0.15207,-2.36555 0.68579,-4.18331 0.5627,-1.22079 0.93583,-1.75945 1.06226,-1.53352 0.37118,0.66326 0.78464,4.5918 0.78995,7.50588 0.0147,8.07348 -3.47165,15.1917 -9.85586,20.12306 -1.82739,1.41153 -5.50969,3.4344 -5.50969,3.02675 z"
         id="path12894" /></g></g></svg>
