<?xml version="1.0" encoding="UTF-8" standalone="no"?>
<!-- Created with Inkscape (http://www.inkscape.org/) -->

<svg
   width="49.75489mm"
   height="67.756393mm"
   viewBox="0 0 49.75489 67.756393"
   version="1.1"
   id="svg1"
   xml:space="preserve"
   xmlns="http://www.w3.org/2000/svg"
   xmlns:svg="http://www.w3.org/2000/svg"><defs
     id="defs1" /><g
     id="layer1"
     transform="translate(97.054102,-758.50993)"><g
       id="g12899"
       transform="translate(-27.950887,33.50312)"><path
         style="fill:#f2e6d5"
         d="m -68.453759,792.09069 -0.649432,-0.64943 v -24.71207 -24.71207 l 2.778125,-4.77746 2.778125,-4.77747 v -3.13966 c 0,-2.41342 0.09527,-3.27568 0.411878,-3.7277 l 0.411878,-0.58804 h 18.490827 18.490828 l 0.411878,0.58804 c 0.316605,0.45202 0.411878,1.31428 0.411878,3.7277 v 3.13966 l 2.778125,4.77747 2.778125,4.77746 v 18.48009 c 0,18.19355 -0.0082,18.48522 -0.529167,18.81057 -0.386568,0.24141 -0.529167,0.61701 -0.529167,1.3938 0,0.77679 0.142599,1.15239 0.529167,1.39381 0.495529,0.30946 0.529167,0.61701 0.529167,4.83817 0,4.43317 -0.01074,4.51844 -0.649432,5.15713 l -0.649432,0.64943 h -23.57197 -23.571969 z m 19.855776,-24.27079 c 0.582084,-0.14363 2.30849,-0.88944 3.836459,-1.65738 2.638405,-1.32602 3.69789,-1.74345 5.357812,-2.11097 0.719515,-0.1593 0.727604,-0.18457 0.727604,-2.27272 0,-1.68724 -0.07864,-2.11162 -0.391301,-2.11162 -0.215217,0 -0.912504,-0.77693 -1.549528,-1.72651 -1.32102,-1.96918 -1.674149,-1.91502 -1.812559,0.27802 -0.07608,1.2054 -0.13875,1.31619 -0.744528,1.31619 h -0.661459 l -0.0727,-4.29947 -0.0727,-4.29948 h 0.787679 c 0.781428,0 0.788303,0.0131 0.866449,1.65364 l 0.07877,1.65365 1.177361,-1.67438 c 0.969053,-1.37814 1.285033,-1.6538 1.785937,-1.55805 l 0.608577,0.11634 v -3.66748 -3.66747 h -8.978609 c -8.960616,0 -10.335974,-0.12236 -10.335974,-0.9195 0,-0.30007 -0.296738,-0.40342 -1.158353,-0.40342 -0.907877,0 -1.243731,0.12873 -1.553191,0.59531 -0.363275,0.54773 -0.630233,0.60247 -3.339563,0.68487 l -2.944726,0.0896 v 9.97219 9.9722 l 1.911859,0.30104 c 1.424528,0.22431 2.722789,0.70827 5.093229,1.89861 4.016226,2.0168 5.766243,2.45309 8.869912,2.21132 0.800364,-0.0624 1.931458,-0.23087 2.513541,-0.37449 z m -12.115575,-8.31792 c -0.103152,-0.10315 -0.187549,-2.08025 -0.187549,-4.39355 v -4.206 l 0.859895,0.0829 c 0.734607,0.0708 0.968357,0.2853 1.604293,1.47197 0.409419,0.76399 0.826137,1.38698 0.926042,1.38443 0.0999,-0.003 0.543984,-0.62763 0.986844,-1.38906 0.683865,-1.17581 0.923084,-1.38443 1.5875,-1.38443 h 0.782301 v 4.23333 4.23333 h -0.661459 c -0.651947,0 -0.66336,-0.0376 -0.79375,-2.61169 l -0.132291,-2.61169 -0.591874,1.22263 c -0.414732,0.85671 -0.752306,1.22263 -1.127918,1.22263 -0.375612,0 -0.713186,-0.36592 -1.127918,-1.22263 l -0.591874,-1.22263 -0.132291,2.61169 c -0.120373,2.37638 -0.180951,2.61866 -0.672347,2.689 -0.29703,0.0425 -0.624451,-0.007 -0.727604,-0.11024 z m 8.202084,0 c -0.103153,-0.10315 -0.18755,-2.07271 -0.18755,-4.37679 v -4.18923 h 0.800304 0.800304 l -0.0727,4.29948 c -0.06931,4.09903 -0.09788,4.30308 -0.612754,4.37678 -0.29703,0.0425 -0.624452,-0.007 -0.727604,-0.11024 z m 2.908774,-0.002 c -0.102249,-0.10225 -0.185907,-2.07861 -0.185907,-4.39191 v -4.206 l 0.859895,0.0829 0.859896,0.0829 0.07373,3.49275 0.07373,3.49275 1.513765,0.0791 c 1.417194,0.0741 1.513765,0.12133 1.513765,0.74059 0,0.64806 -0.0458,0.66299 -2.261488,0.73712 -1.243818,0.0416 -2.345146,-0.008 -2.447396,-0.11024 z m 10.926592,-4.63287 v -2.68307 l -0.923473,1.16172 c -0.507911,0.63894 -0.924629,1.25239 -0.926042,1.36322 -0.0025,0.19621 1.651547,2.82697 1.78337,2.83645 0.03638,0.003 0.06614,-1.20263 0.06614,-2.67832 z"
         id="path12913" /><path
         style="fill:#aeedfc"
         d="m -68.405653,792.04258 -0.697538,-0.69753 V 766.7068 742.06855 l 2.773896,-4.76057 2.773896,-4.76056 0.0042,-3.24115 c 0.0038,-2.88508 0.06236,-3.29928 0.533396,-3.77031 0.518941,-0.51894 0.881944,-0.52917 18.785416,-0.52917 17.903473,0 18.266476,0.0102 18.785417,0.52917 0.471034,0.47103 0.529631,0.88523 0.533396,3.77031 l 0.0042,3.24115 2.773896,4.76056 2.773896,4.76057 v 18.45438 c 0,18.16783 -0.0082,18.45951 -0.529167,18.78485 -0.386568,0.24141 -0.529167,0.61701 -0.529167,1.3938 0,0.77679 0.142599,1.15239 0.529167,1.39381 0.495166,0.30923 0.529167,0.61701 0.529167,4.79006 v 4.4596 l -0.697538,0.69753 -0.697538,0.69754 h -23.475758 -23.475757 z m 20.336837,-24.35891 c 0.727604,-0.23426 2.394946,-0.99766 3.705204,-1.69645 3.242761,-1.72943 5.034811,-2.15385 8.626935,-2.04318 l 2.882055,0.0888 -3.26e-4,-10.07876 -3.26e-4,-10.07876 -4.407882,-0.17384 c -2.424335,-0.0956 -8.01225,-0.17385 -12.417587,-0.17385 -7.777333,0 -8.014578,-0.0154 -8.177656,-0.52916 -0.134408,-0.42348 -0.400324,-0.52917 -1.331437,-0.52917 -0.892697,0 -1.229399,0.12316 -1.446688,0.52917 -0.25792,0.48193 -0.553991,0.52916 -3.316601,0.52916 h -3.033399 v 10.18646 10.18646 l 0.727604,0.003 c 1.408693,0.006 3.670795,0.79296 6.823731,2.37366 2.118596,1.06214 3.713886,1.67868 4.7625,1.84058 1.992988,0.3077 4.891323,0.11712 6.603873,-0.43425 z m -12.708568,-8.34026 c -0.07617,-0.1985 -0.105405,-2.14162 -0.06496,-4.31804 l 0.07353,-3.95712 0.70368,-0.0814 c 0.617053,-0.0714 0.818472,0.12228 1.636163,1.57325 l 0.932485,1.65467 0.480503,-0.86184 c 1.323664,-2.37414 1.395522,-2.45362 2.14057,-2.36777 l 0.721183,0.0831 v 4.23333 4.23333 h -0.661459 c -0.65157,0 -0.663436,-0.0388 -0.79375,-2.59347 l -0.132291,-2.59348 -0.655933,1.20441 c -0.855594,1.57104 -1.424714,1.56631 -2.191777,-0.0182 l -0.591874,-1.22263 -0.132291,2.61169 c -0.124713,2.46206 -0.166467,2.61655 -0.728788,2.6964 -0.328072,0.0466 -0.658817,-0.0777 -0.734989,-0.27621 z m 8.202083,0 c -0.07617,-0.1985 -0.105405,-2.14162 -0.06496,-4.31804 l 0.07353,-3.95712 0.734245,-0.0844 0.734246,-0.0844 -0.07279,4.31769 c -0.07171,4.25359 -0.08164,4.31895 -0.669282,4.4024 -0.328073,0.0466 -0.658818,-0.0777 -0.73499,-0.27621 z m 2.907273,-0.008 c -0.07444,-0.194 -0.102261,-2.13343 -0.06182,-4.30985 l 0.07353,-3.95712 0.727604,-0.0837 0.727604,-0.0837 v 3.57682 3.57683 l 1.653646,0.0788 c 1.566495,0.0746 1.653646,0.11363 1.653646,0.74023 0,0.64943 -0.04216,0.66285 -2.319431,0.73796 -1.743917,0.0575 -2.353015,-0.011 -2.454781,-0.2762 z m 5.887804,0.16676 c -0.103153,-0.10315 -0.18755,-2.08062 -0.18755,-4.39436 V 750.901 l 0.727604,0.0837 c 0.687929,0.0792 0.734818,0.1717 0.859896,1.69718 l 0.132291,1.61347 1.190625,-1.67565 c 1.201818,-1.6914 1.782971,-2.00758 2.376203,-1.29278 0.266352,0.32093 0.130249,0.63455 -0.761353,1.75435 -0.597126,0.74996 -1.085683,1.4685 -1.085683,1.59676 0,0.12825 0.546474,1.05501 1.214386,2.05946 1.279273,1.92384 1.407636,2.74349 0.451073,2.88024 -0.46067,0.0659 -0.800828,-0.27003 -1.67466,-1.65365 -0.603112,-0.95496 -1.202689,-1.73629 -1.332392,-1.73629 -0.276901,0 -0.474018,0.77467 -0.572259,2.24896 -0.05566,0.83528 -0.184344,1.07463 -0.610577,1.13564 -0.29703,0.0425 -0.624452,-0.007 -0.727604,-0.11024 z m 20.746464,-19.34779 c -0.416311,-0.69123 -1.261479,-2.13296 -1.878152,-3.20384 l -1.121224,-1.94707 -1.451114,2.47623 c -0.798113,1.36193 -1.621776,2.80366 -1.830364,3.20384 l -0.379249,0.72761 h 3.708515 3.708516 z"
         id="path12912" /><path
         style="fill:#e4d7c5"
         d="m -68.405653,792.04258 -0.697538,-0.69753 V 766.7068 742.06855 l 2.773896,-4.76057 2.773896,-4.76056 0.0042,-3.24115 c 0.0038,-2.88508 0.06236,-3.29928 0.533396,-3.77031 0.518941,-0.51894 0.881944,-0.52917 18.785416,-0.52917 17.903473,0 18.266476,0.0102 18.785417,0.52917 0.471034,0.47103 0.529631,0.88523 0.533396,3.77031 l 0.0042,3.24115 2.773896,4.76056 2.773896,4.76057 v 18.45438 c 0,18.16783 -0.0082,18.45951 -0.529167,18.78485 -0.386568,0.24141 -0.529167,0.61701 -0.529167,1.3938 0,0.77679 0.142599,1.15239 0.529167,1.39381 0.495166,0.30923 0.529167,0.61701 0.529167,4.79006 v 4.4596 l -0.697538,0.69753 -0.697538,0.69754 h -23.475758 -23.475757 z m 20.336837,-24.35891 c 0.727604,-0.23426 2.394946,-0.99766 3.705204,-1.69645 3.242761,-1.72943 5.034811,-2.15385 8.626935,-2.04318 l 2.882055,0.0888 -3.26e-4,-10.07876 -3.26e-4,-10.07876 -4.407882,-0.17384 c -2.424335,-0.0956 -8.018005,-0.17385 -12.430376,-0.17385 h -8.022494 l -0.176347,-0.70262 c -0.34632,-1.37985 -0.09612,-1.41404 10.346907,-1.41404 h 9.550335 l 1.560565,-2.71198 c 0.85831,-1.49159 1.846363,-3.218 2.195673,-3.83646 l 0.63511,-1.12448 -14.111683,0.01 -14.111683,0.01 -2.167176,3.76068 -2.167176,3.76069 2.431759,0.0701 c 2.088157,0.0602 2.496641,0.14778 2.89094,0.61988 0.347316,0.41584 0.393391,0.67271 0.189129,1.05438 -0.241562,0.45136 -0.590075,0.50459 -3.303452,0.50459 h -3.033399 v 10.18646 10.18646 l 0.727604,0.003 c 1.408693,0.006 3.670795,0.79296 6.823731,2.37366 2.118596,1.06214 3.713886,1.67868 4.7625,1.84058 1.992988,0.3077 4.891323,0.11712 6.603873,-0.43425 z m -12.708568,-8.34026 c -0.07617,-0.1985 -0.105405,-2.14162 -0.06496,-4.31804 l 0.07353,-3.95712 0.70368,-0.0814 c 0.617053,-0.0714 0.818472,0.12228 1.636163,1.57325 l 0.932485,1.65467 0.480503,-0.86184 c 1.323664,-2.37414 1.395522,-2.45362 2.14057,-2.36777 l 0.721183,0.0831 v 4.23333 4.23333 h -0.661459 c -0.65157,0 -0.663436,-0.0388 -0.79375,-2.59347 l -0.132291,-2.59348 -0.655933,1.20441 c -0.855594,1.57104 -1.424714,1.56631 -2.191777,-0.0182 l -0.591874,-1.22263 -0.132291,2.61169 c -0.124713,2.46206 -0.166467,2.61655 -0.728788,2.6964 -0.328072,0.0466 -0.658817,-0.0777 -0.734989,-0.27621 z m 8.202083,0 c -0.07617,-0.1985 -0.105405,-2.14162 -0.06496,-4.31804 l 0.07353,-3.95712 0.734245,-0.0844 0.734246,-0.0844 -0.07279,4.31769 c -0.07171,4.25359 -0.08164,4.31895 -0.669282,4.4024 -0.328073,0.0466 -0.658818,-0.0777 -0.73499,-0.27621 z m 2.907273,-0.008 c -0.07444,-0.194 -0.102261,-2.13343 -0.06182,-4.30985 l 0.07353,-3.95712 0.727604,-0.0837 0.727604,-0.0837 v 3.57682 3.57683 l 1.653646,0.0788 c 1.566495,0.0746 1.653646,0.11363 1.653646,0.74023 0,0.64943 -0.04216,0.66285 -2.319431,0.73796 -1.743917,0.0575 -2.353015,-0.011 -2.454781,-0.2762 z m 5.887804,0.16676 c -0.103153,-0.10315 -0.18755,-2.08062 -0.18755,-4.39436 V 750.901 l 0.727604,0.0837 c 0.687929,0.0792 0.734818,0.1717 0.859896,1.69718 l 0.132291,1.61347 1.190625,-1.67565 c 1.201818,-1.6914 1.782971,-2.00758 2.376203,-1.29278 0.266352,0.32093 0.130249,0.63455 -0.761353,1.75435 -0.597126,0.74996 -1.085683,1.4685 -1.085683,1.59676 0,0.12825 0.546474,1.05501 1.214386,2.05946 1.279273,1.92384 1.407636,2.74349 0.451073,2.88024 -0.46067,0.0659 -0.800828,-0.27003 -1.67466,-1.65365 -0.603112,-0.95496 -1.202689,-1.73629 -1.332392,-1.73629 -0.276901,0 -0.474018,0.77467 -0.572259,2.24896 -0.05566,0.83528 -0.184344,1.07463 -0.610577,1.13564 -0.29703,0.0425 -0.624452,-0.007 -0.727604,-0.11024 z m 20.746464,-19.34779 c -0.416311,-0.69123 -1.261479,-2.13296 -1.878152,-3.20384 l -1.121224,-1.94707 -1.451114,2.47623 c -0.798113,1.36193 -1.621776,2.80366 -1.830364,3.20384 l -0.379249,0.72761 h 3.708515 3.708516 z"
         id="path12911" /><path
         style="fill:#d9c9b7"
         d="m -68.392231,791.99804 -0.71096,-0.74208 v -24.56399 -24.56399 l 2.778125,-4.81194 2.778125,-4.81194 v -3.21949 c 0,-2.86671 0.05798,-3.27747 0.529167,-3.74865 0.518941,-0.51894 0.881944,-0.52917 18.785416,-0.52917 17.903473,0 18.266476,0.0102 18.785417,0.52917 0.471183,0.47118 0.529167,0.88194 0.529167,3.74865 v 3.21949 l 2.779934,4.81508 2.779934,4.81507 -0.06796,18.4611 c -0.0635,17.25138 -0.0983,18.48025 -0.530976,18.75315 -0.3377,0.213 -0.588341,0.213 -0.926041,0 -0.432288,-0.27265 -0.467536,-1.46236 -0.531042,-17.92416 l -0.06802,-17.63213 h -4.496041 -4.496041 v 23.41562 23.41563 h 4.491198 4.491198 l 0.07286,-4.13872 c 0.06347,-3.60515 0.132558,-4.17633 0.535886,-4.43042 0.33738,-0.21255 0.588661,-0.21254 0.926041,3e-5 0.405979,0.2558 0.471983,0.83971 0.535767,4.73978 l 0.07275,4.44805 -0.71756,0.74897 -0.717559,0.74897 h -23.448915 -23.448914 z m 18.603624,-23.87863 c 1.188765,-0.19011 2.781844,-0.79616 5.159374,-1.96275 4.083797,-2.00381 5.461298,-2.34082 9.062238,-2.21705 l 2.712237,0.0932 -2.58e-4,-10.2526 -2.58e-4,-10.25261 h -12.250209 c -9.175162,0 -12.329907,-0.0797 -12.567708,-0.3175 -0.476742,-0.47674 -0.382509,-1.21659 0.194273,-1.52527 0.32548,-0.17419 3.96481,-0.27389 9.99778,-0.27389 h 9.486007 l 1.560565,-2.71198 c 0.85831,-1.49159 1.846363,-3.218 2.195673,-3.83646 l 0.63511,-1.12448 -14.111683,0.01 -14.111683,0.01 -2.167176,3.76068 -2.167176,3.76069 2.431759,0.0701 c 2.088157,0.0602 2.496641,0.14778 2.89094,0.61988 0.347316,0.41584 0.393391,0.67271 0.189129,1.05438 -0.241562,0.45136 -0.590075,0.50459 -3.303452,0.50459 h -3.033399 v 10.13261 10.1326 l 1.918229,0.32526 c 1.404129,0.23808 2.840064,0.78473 5.357813,2.03966 4.302113,2.14432 6.304419,2.5402 9.921875,1.96166 z m -10.936112,-8.62859 c -0.302204,-0.30221 -0.205004,-8.24136 0.103233,-8.43187 0.654533,-0.40452 1.467564,0.176 2.22464,1.58845 0.431458,0.80496 0.848177,1.46171 0.926042,1.45946 0.07786,-0.002 0.508397,-0.68687 0.95674,-1.52136 0.705928,-1.31392 0.918669,-1.51725 1.5875,-1.51725 h 0.772332 v 4.23333 4.23333 h -0.661459 c -0.656311,0 -0.662059,-0.0206 -0.738663,-2.64583 l -0.0772,-2.64583 -0.783178,1.25677 c -0.430747,0.69122 -0.94153,1.25677 -1.135074,1.25677 -0.193543,0 -0.666678,-0.56555 -1.051411,-1.25677 l -0.699514,-1.25677 -0.0064,2.55138 c -0.0052,2.07845 -0.08401,2.58115 -0.424951,2.71198 -0.537994,0.20645 -0.774115,0.20269 -0.992597,-0.0158 z m 8.349284,-0.0424 c -0.2555,-0.16495 -0.320002,-1.21304 -0.264583,-4.29915 l 0.07329,-4.08101 h 0.661458 0.661458 v 4.22971 c 0,3.55249 -0.06354,4.24083 -0.396875,4.29915 -0.218281,0.0382 -0.548916,-0.0287 -0.734744,-0.1487 z m 2.910417,0.002 c -0.255439,-0.16633 -0.31999,-1.21565 -0.264583,-4.30102 l 0.07329,-4.08101 0.727604,-0.0837 0.727604,-0.0837 v 3.57682 3.57683 l 1.653646,0.0788 c 1.566495,0.0746 1.653646,0.11363 1.653646,0.74023 0,0.64479 -0.05333,0.66316 -2.116667,0.72914 -1.164166,0.0372 -2.268707,-0.0313 -2.454535,-0.15232 z m 5.613846,-0.12543 c -0.07225,-0.18829 -0.09828,-2.12306 -0.05784,-4.29948 l 0.07353,-3.95712 h 0.661459 c 0.627575,0 0.665522,0.0858 0.740801,1.67567 l 0.07934,1.67567 1.318589,-1.74182 c 1.345168,-1.77692 1.787373,-2.03393 2.344521,-1.36261 0.253951,0.306 0.08525,0.67158 -0.873778,1.89348 l -1.188494,1.51426 1.319934,1.95606 c 1.375406,2.03826 1.530192,2.80118 0.595539,2.9353 -0.426999,0.0613 -0.811507,-0.31753 -1.688277,-1.66325 -0.624441,-0.95843 -1.267375,-1.69915 -1.428742,-1.64605 -0.161367,0.0531 -0.330324,0.73943 -0.375461,1.52518 -0.04514,0.78575 -0.22373,1.51871 -0.396875,1.6288 -0.480826,0.30572 -0.978244,0.24639 -1.124248,-0.13409 z m 21.250833,-18.50921 c -0.214092,-0.32742 -1.016212,-1.69858 -1.782489,-3.04703 -0.766277,-1.34845 -1.476849,-2.5034 -1.579049,-2.56657 -0.142296,-0.0879 -3.210615,4.92573 -3.6743,6.00385 -0.04851,0.11279 1.602296,0.20507 3.668451,0.20507 h 3.756644 z"
         id="path12910" /><path
         style="fill:#59dafb"
         d="m -68.329793,791.96672 -0.773398,-0.77339 v -24.51424 -24.51425 l 2.778125,-4.75977 2.778125,-4.75976 v -3.12212 c 0,-2.75793 0.06397,-3.20344 0.54837,-3.81926 l 0.548371,-0.69714 h 18.217842 18.217843 l 0.548371,0.69714 c 0.484404,0.61582 0.54837,1.06133 0.54837,3.81926 v 3.12212 l 2.778125,4.75976 2.778125,4.75977 v 18.39917 c 0,17.91992 -0.01333,18.4063 -0.511773,18.67305 -0.66187,0.35423 -0.697236,0.35001 -1.18912,-0.14188 -0.369631,-0.36963 -0.415774,-2.36636 -0.415774,-17.99166 v -17.5759 h -4.630208 -4.630209 v 23.54792 23.54792 h 4.630209 4.630208 v -3.94986 c 0,-3.23799 0.07493,-4.02478 0.415774,-4.36562 0.491884,-0.49188 0.52725,-0.4961 1.18912,-0.14188 0.474311,0.25384 0.511773,0.59426 0.511773,4.65056 v 4.37667 l -0.773398,0.77339 -0.773397,0.7734 h -23.324039 -23.324038 z m 18.835802,-23.8301 c 0.783846,-0.144 2.853925,-0.96127 4.600175,-1.81614 4.503591,-2.20473 4.797104,-2.28213 8.66493,-2.28508 l 3.373264,-0.003 1.74e-4,-10.2526 1.74e-4,-10.25261 h -12.250209 c -9.175162,0 -12.329907,-0.0797 -12.567708,-0.3175 -0.476742,-0.47674 -0.382509,-1.21659 0.194273,-1.52527 0.32548,-0.17419 3.96481,-0.27389 9.99778,-0.27389 h 9.486007 l 1.560565,-2.71198 c 0.85831,-1.49159 1.846363,-3.218 2.195673,-3.83646 l 0.63511,-1.12448 -14.111683,0.01 -14.111683,0.01 -2.167176,3.76068 -2.167176,3.76069 2.417439,0.0768 c 2.641745,0.0839 3.175104,0.3206 3.054769,1.3558 l -0.07952,0.6841 -3.108854,0.0745 -3.108854,0.0745 v 10.13232 10.13233 l 1.785937,0.31966 c 1.166656,0.20882 3.025199,0.91376 5.359827,2.03296 4.593309,2.202 6.808923,2.6249 10.346769,1.97493 z m -11.076387,-8.64464 c -0.244552,-0.0987 -0.330729,-1.19848 -0.330729,-4.22075 0,-3.54001 0.05796,-4.10954 0.432837,-4.25339 0.656665,-0.25199 1.211462,0.21929 2.031351,1.72555 0.409419,0.75216 0.826137,1.36715 0.926042,1.36664 0.0999,-5.1e-4 0.537256,-0.66016 0.971892,-1.46589 0.763123,-1.41468 1.578544,-1.99239 2.237423,-1.58519 0.176769,0.10925 0.279621,1.66514 0.279621,4.22994 0,3.36225 -0.06797,4.0832 -0.396875,4.20941 -0.966401,0.37085 -1.169824,-0.0694 -1.247488,-2.70011 l -0.07543,-2.55494 -0.666621,1.19062 c -0.366641,0.65485 -0.840568,1.19063 -1.053171,1.19063 -0.212603,0 -0.686531,-0.53578 -1.053172,-1.19063 l -0.66662,-1.19062 -0.07683,2.50453 c -0.08284,2.70048 -0.299211,3.15296 -1.312232,2.7442 z m 8.194943,-0.0473 c -0.255621,-0.16222 -0.320029,-1.20786 -0.264583,-4.29543 l 0.07329,-4.08101 h 0.661458 0.661458 l 0.07329,4.08101 c 0.07047,3.92401 -0.02498,4.50984 -0.734744,4.50984 -0.07276,0 -0.284333,-0.0965 -0.470161,-0.21441 z m 2.876561,-0.14405 c -0.206922,-0.24933 -0.280753,-1.62449 -0.230834,-4.29948 l 0.07339,-3.93291 h 0.661459 0.661458 l 0.132291,3.57187 0.132292,3.57188 1.5875,0.13229 c 1.528582,0.12738 1.624367,0.19519 1.494896,1.05833 -0.06394,0.42629 -4.15068,0.33393 -4.512454,-0.10198 z m 5.854689,0.14405 c -0.255621,-0.16222 -0.320029,-1.20786 -0.264583,-4.29543 l 0.07328,-4.08101 h 0.661459 c 0.622347,0 0.66928,0.0995 0.79375,1.68262 l 0.132291,1.68262 1.267763,-1.76605 c 0.848871,-1.18252 1.416117,-1.73748 1.716753,-1.67958 0.804462,0.15492 0.64825,0.98649 -0.442709,2.35668 l -1.070079,1.34396 1.352041,2.00364 c 1.039143,1.53994 1.290903,2.10074 1.087861,2.42321 -0.537754,0.85405 -1.053163,0.57977 -2.190329,-1.16562 -0.623981,-0.95772 -1.266539,-1.69787 -1.427906,-1.64477 -0.161367,0.0531 -0.330324,0.73943 -0.375461,1.52518 -0.09307,1.62024 -0.505913,2.12745 -1.314136,1.61455 z m 20.453044,-19.68738 c -0.522414,-0.9095 -1.332981,-2.33684 -1.801259,-3.17186 -0.468279,-0.83502 -0.930773,-1.51963 -1.027765,-1.52135 -0.169326,-0.003 -3.660109,5.91541 -3.660109,6.2055 0,0.0778 1.67377,0.14136 3.719488,0.14136 h 3.719489 z"
         id="path12909" /><path
         style="fill:#47c6e4"
         d="m -68.329793,791.96672 -0.773398,-0.77339 v -24.51424 -24.51425 l 2.778125,-4.75977 2.778125,-4.75976 v -3.12212 c 0,-2.75793 0.06397,-3.20344 0.54837,-3.81926 l 0.548371,-0.69714 h 18.217842 18.217843 l 0.548371,0.69714 c 0.484404,0.61582 0.54837,1.06133 0.54837,3.81926 v 3.12212 l 2.778125,4.75976 2.778125,4.75977 v 18.39917 c 0,17.91992 -0.01333,18.4063 -0.511773,18.67305 -0.66187,0.35423 -0.697236,0.35001 -1.18912,-0.14188 -0.369631,-0.36963 -0.415774,-2.36636 -0.415774,-17.99166 v -17.5759 h -4.630208 -4.630209 v 23.54792 23.54792 h 4.630209 4.630208 v -3.94986 c 0,-3.23799 0.07493,-4.02478 0.415774,-4.36562 0.491884,-0.49188 0.52725,-0.4961 1.18912,-0.14188 0.474311,0.25384 0.511773,0.59426 0.511773,4.65056 v 4.37667 l -0.773398,0.77339 -0.773397,0.7734 h -23.324039 -23.324038 z m 29.653685,-13.54354 V 766.2229 l -0.970763,0.18211 c -0.53392,0.10017 -2.397538,0.89734 -4.141374,1.7715 -6.232904,3.12446 -10.644013,3.14871 -16.62631,0.0914 -2.513071,-1.28433 -5.188299,-2.25069 -6.230683,-2.25069 -0.273766,0 -0.341286,2.43403 -0.341286,12.30312 v 12.30313 h 14.155208 14.155208 z m -10.817883,-10.28656 c 0.783846,-0.144 2.853925,-0.96127 4.600175,-1.81614 4.503591,-2.20473 4.797104,-2.28213 8.66493,-2.28508 l 3.373264,-0.003 1.74e-4,-10.2526 1.74e-4,-10.25261 h -12.250209 c -9.175162,0 -12.329907,-0.0797 -12.567708,-0.3175 -0.413392,-0.41339 -0.4064,-1.18123 0.01323,-1.45282 0.181901,-0.11773 5.968088,-0.27358 12.858192,-0.34634 l 12.527463,-0.13229 2.083905,-3.57188 c 1.146148,-1.96453 2.086993,-3.66117 2.090767,-3.77031 0.0038,-0.10914 -7.583374,-0.19411 -16.860327,-0.18881 l -16.867187,0.01 -2.167176,3.76068 -2.167176,3.76069 2.417439,0.0768 c 2.641745,0.0839 3.175104,0.3206 3.054769,1.3558 l -0.07952,0.6841 -3.108854,0.0745 -3.108854,0.0745 v 10.13232 10.13233 l 1.785937,0.31966 c 1.166656,0.20882 3.025199,0.91376 5.359827,2.03296 4.593309,2.202 6.808923,2.6249 10.346769,1.97493 z m -11.076387,-8.64464 c -0.244552,-0.0987 -0.330729,-1.19848 -0.330729,-4.22075 0,-3.54001 0.05796,-4.10954 0.432837,-4.25339 0.656665,-0.25199 1.211462,0.21929 2.031351,1.72555 0.409419,0.75216 0.826137,1.36715 0.926042,1.36664 0.0999,-5.1e-4 0.537256,-0.66016 0.971892,-1.46589 0.763123,-1.41468 1.578544,-1.99239 2.237423,-1.58519 0.176769,0.10925 0.279621,1.66514 0.279621,4.22994 0,3.36225 -0.06797,4.0832 -0.396875,4.20941 -0.966401,0.37085 -1.169824,-0.0694 -1.247488,-2.70011 l -0.07543,-2.55494 -0.666621,1.19062 c -0.366641,0.65485 -0.840568,1.19063 -1.053171,1.19063 -0.212603,0 -0.686531,-0.53578 -1.053172,-1.19063 l -0.66662,-1.19062 -0.07683,2.50453 c -0.08284,2.70048 -0.299211,3.15296 -1.312232,2.7442 z m 8.194943,-0.0473 c -0.255621,-0.16222 -0.320029,-1.20786 -0.264583,-4.29543 l 0.07329,-4.08101 h 0.661458 0.661458 l 0.07329,4.08101 c 0.07047,3.92401 -0.02498,4.50984 -0.734744,4.50984 -0.07276,0 -0.284333,-0.0965 -0.470161,-0.21441 z m 2.876561,-0.14405 c -0.206922,-0.24933 -0.280753,-1.62449 -0.230834,-4.29948 l 0.07339,-3.93291 h 0.661459 0.661458 l 0.132291,3.57187 0.132292,3.57188 1.5875,0.13229 c 1.528582,0.12738 1.624367,0.19519 1.494896,1.05833 -0.06394,0.42629 -4.15068,0.33393 -4.512454,-0.10198 z m 5.854689,0.14405 c -0.255621,-0.16222 -0.320029,-1.20786 -0.264583,-4.29543 l 0.07328,-4.08101 h 0.661459 c 0.622347,0 0.66928,0.0995 0.79375,1.68262 l 0.132291,1.68262 1.267763,-1.76605 c 0.848871,-1.18252 1.416117,-1.73748 1.716753,-1.67958 0.804462,0.15492 0.64825,0.98649 -0.442709,2.35668 l -1.070079,1.34396 1.352041,2.00364 c 1.039143,1.53994 1.290903,2.10074 1.087861,2.42321 -0.537754,0.85405 -1.053163,0.57977 -2.190329,-1.16562 -0.623981,-0.95772 -1.266539,-1.69787 -1.427906,-1.64477 -0.161367,0.0531 -0.330324,0.73943 -0.375461,1.52518 -0.09307,1.62024 -0.505913,2.12745 -1.314136,1.61455 z m 20.453044,-19.68738 c -0.522414,-0.9095 -1.332981,-2.33684 -1.801259,-3.17186 -0.468279,-0.83502 -0.930773,-1.51963 -1.027765,-1.52135 -0.169326,-0.003 -3.660109,5.91541 -3.660109,6.2055 0,0.0778 1.67377,0.14136 3.719488,0.14136 h 3.719489 z m -9.928717,-10.38489 v -2.24896 h -14.155208 -14.155208 v 2.24896 2.24895 h 14.155208 14.155208 z"
         id="path12908" /><path
         style="fill:#e58c65"
         d="m -68.329793,791.96672 -0.773398,-0.77339 v -24.51424 -24.51425 l 2.778125,-4.75977 2.778125,-4.75976 v -3.12212 c 0,-2.75793 0.06397,-3.20344 0.54837,-3.81926 l 0.548371,-0.69714 h 18.217842 18.217843 l 0.548371,0.69714 c 0.484404,0.61582 0.54837,1.06133 0.54837,3.81926 v 3.12212 l 2.778125,4.75976 2.778125,4.75977 v 18.39917 c 0,17.91992 -0.01333,18.4063 -0.511773,18.67305 -0.66187,0.35423 -0.697236,0.35001 -1.18912,-0.14188 -0.369631,-0.36963 -0.415774,-2.36636 -0.415774,-17.99166 v -17.5759 h -4.630208 -4.630209 v 23.54792 23.54792 h 4.630209 4.630208 v -3.94986 c 0,-3.23799 0.07493,-4.02478 0.415774,-4.36562 0.491884,-0.49188 0.52725,-0.4961 1.18912,-0.14188 0.474311,0.25384 0.511773,0.59426 0.511773,4.65056 v 4.37667 l -0.773398,0.77339 -0.773397,0.7734 h -23.324039 -23.324038 z m 35.474519,-13.48102 v -12.13776 l -0.826823,-0.16537 c -1.525007,-0.305 -4.884416,-0.16934 -6.335051,0.25583 -0.790396,0.23166 -2.508647,0.99542 -3.818335,1.69724 -3.330275,1.7846 -4.97374,2.22294 -8.334374,2.22294 -3.269937,0 -5.02504,-0.44397 -7.9375,-2.00786 -2.55948,-1.37435 -4.097162,-1.97641 -5.637966,-2.20747 l -1.241201,-0.18613 v 12.33317 12.33317 h 17.065625 17.065625 z m -16.638717,-10.34908 c 0.783846,-0.144 2.853925,-0.96127 4.600175,-1.81614 4.503591,-2.20473 4.797104,-2.28213 8.66493,-2.28508 l 3.373264,-0.003 1.74e-4,-10.2526 1.74e-4,-10.25261 h -12.250209 c -9.175162,0 -12.329907,-0.0797 -12.567708,-0.3175 -0.476742,-0.47674 -0.382509,-1.21659 0.194273,-1.52527 0.331413,-0.17737 4.877097,-0.27593 12.898437,-0.27967 l 12.386665,-0.006 1.380181,-2.44162 c 0.759099,-1.34289 1.743773,-3.06669 2.188164,-3.83068 l 0.807984,-1.38906 -17.004831,0.004 -17.004831,0.004 -2.171502,3.76586 -2.171502,3.76586 2.490228,0.13229 c 2.650769,0.14082 3.140563,0.36265 2.999656,1.35854 -0.08667,0.61254 -0.154584,0.62742 -3.197401,0.70037 l -3.108854,0.0745 v 10.13232 10.13233 l 1.785937,0.31966 c 1.166656,0.20882 3.025199,0.91376 5.359827,2.03296 4.593309,2.202 6.808923,2.6249 10.346769,1.97493 z m -11.076387,-8.64464 c -0.244552,-0.0987 -0.330729,-1.19848 -0.330729,-4.22075 0,-3.54001 0.05796,-4.10954 0.432837,-4.25339 0.656665,-0.25199 1.211462,0.21929 2.031351,1.72555 0.409419,0.75216 0.826137,1.36715 0.926042,1.36664 0.0999,-5.1e-4 0.537256,-0.66016 0.971892,-1.46589 0.763123,-1.41468 1.578544,-1.99239 2.237423,-1.58519 0.176769,0.10925 0.279621,1.66514 0.279621,4.22994 0,3.36225 -0.06797,4.0832 -0.396875,4.20941 -0.966401,0.37085 -1.169824,-0.0694 -1.247488,-2.70011 l -0.07543,-2.55494 -0.666621,1.19062 c -0.366641,0.65485 -0.840568,1.19063 -1.053171,1.19063 -0.212603,0 -0.686531,-0.53578 -1.053172,-1.19063 l -0.66662,-1.19062 -0.07683,2.50453 c -0.08284,2.70048 -0.299211,3.15296 -1.312232,2.7442 z m 8.194943,-0.0473 c -0.255621,-0.16222 -0.320029,-1.20786 -0.264583,-4.29543 l 0.07329,-4.08101 h 0.661458 0.661458 l 0.07329,4.08101 c 0.07047,3.92401 -0.02498,4.50984 -0.734744,4.50984 -0.07276,0 -0.284333,-0.0965 -0.470161,-0.21441 z m 2.876561,-0.14405 c -0.206922,-0.24933 -0.280753,-1.62449 -0.230834,-4.29948 l 0.07339,-3.93291 h 0.661459 0.661458 l 0.132291,3.57187 0.132292,3.57188 1.5875,0.13229 c 1.528582,0.12738 1.624367,0.19519 1.494896,1.05833 -0.06394,0.42629 -4.15068,0.33393 -4.512454,-0.10198 z m 5.854689,0.14405 c -0.255621,-0.16222 -0.320029,-1.20786 -0.264583,-4.29543 l 0.07328,-4.08101 h 0.661459 c 0.622347,0 0.66928,0.0995 0.79375,1.68262 l 0.132291,1.68262 1.267763,-1.76605 c 0.848871,-1.18252 1.416117,-1.73748 1.716753,-1.67958 0.804462,0.15492 0.64825,0.98649 -0.442709,2.35668 l -1.070079,1.34396 1.352041,2.00364 c 1.039143,1.53994 1.290903,2.10074 1.087861,2.42321 -0.537754,0.85405 -1.053163,0.57977 -2.190329,-1.16562 -0.623981,-0.95772 -1.266539,-1.69787 -1.427906,-1.64477 -0.161367,0.0531 -0.330324,0.73943 -0.375461,1.52518 -0.09307,1.62024 -0.505913,2.12745 -1.314136,1.61455 z m 20.453044,-19.68738 c -0.522414,-0.9095 -1.332981,-2.33684 -1.801259,-3.17186 -0.468279,-0.83502 -0.930773,-1.51963 -1.027765,-1.52135 -0.169326,-0.003 -3.660109,5.91541 -3.660109,6.2055 0,0.0778 1.67377,0.14136 3.719488,0.14136 h 3.719489 z m -3.8433,-10.38489 v -2.24896 h -17.197917 -17.197916 v 2.24896 2.24895 h 17.197916 17.197917 z"
         id="path12907" /><path
         style="fill:#f7652a"
         d="m -68.329793,791.96672 -0.773398,-0.77339 v -24.51424 -24.51425 l 2.778125,-4.75977 2.778125,-4.75976 v -3.12212 c 0,-2.75793 0.06397,-3.20344 0.54837,-3.81926 l 0.548371,-0.69714 h 18.217842 18.217843 l 0.548371,0.69714 c 0.484404,0.61582 0.54837,1.06133 0.54837,3.81926 v 3.12212 l 2.778125,4.75976 2.778125,4.75977 v 18.39917 c 0,17.91992 -0.01333,18.4063 -0.511773,18.67305 -0.66187,0.35423 -0.697236,0.35001 -1.18912,-0.14188 -0.369631,-0.36963 -0.415774,-2.36636 -0.415774,-17.99166 v -17.5759 h -4.630208 -4.630209 v 23.54792 23.54792 h 4.630209 4.630208 v -3.94986 c 0,-3.23799 0.07493,-4.02478 0.415774,-4.36562 0.491884,-0.49188 0.52725,-0.4961 1.18912,-0.14188 0.474311,0.25384 0.511773,0.59426 0.511773,4.65056 v 4.37667 l -0.773398,0.77339 -0.773397,0.7734 h -23.324039 -23.324038 z m 35.474519,-13.48102 v -12.13776 l -0.826823,-0.16537 c -1.525007,-0.305 -4.884416,-0.16934 -6.335051,0.25583 -0.790396,0.23166 -2.508647,0.99542 -3.818335,1.69724 -3.330275,1.7846 -4.97374,2.22294 -8.334374,2.22294 -3.269937,0 -5.02504,-0.44397 -7.9375,-2.00786 -2.55948,-1.37435 -4.097162,-1.97641 -5.637966,-2.20747 l -1.241201,-0.18613 v 12.33317 12.33317 h 17.065625 17.065625 z m -16.638717,-10.34908 c 0.783846,-0.144 2.853925,-0.96127 4.600175,-1.81614 4.503591,-2.20473 4.797104,-2.28213 8.66493,-2.28508 l 3.373264,-0.003 1.74e-4,-10.2526 1.74e-4,-10.25261 h -12.250209 c -9.175162,0 -12.329907,-0.0797 -12.567708,-0.3175 -0.476742,-0.47674 -0.382509,-1.21659 0.194273,-1.52527 0.331413,-0.17737 4.877097,-0.27593 12.898437,-0.27967 l 12.386665,-0.006 1.380181,-2.44162 c 0.759099,-1.34289 1.743773,-3.06669 2.188164,-3.83068 l 0.807984,-1.38906 -17.004831,0.004 -17.004831,0.004 -2.171502,3.76586 -2.171502,3.76586 2.490228,0.13229 c 2.650769,0.14082 3.140563,0.36265 2.999656,1.35854 -0.08667,0.61254 -0.154584,0.62742 -3.197401,0.70037 l -3.108854,0.0745 v 10.13232 10.13233 l 1.785937,0.31966 c 1.166656,0.20882 3.025199,0.91376 5.359827,2.03296 4.593309,2.202 6.808923,2.6249 10.346769,1.97493 z m -11.230728,-8.91039 c -0.09701,-0.097 -0.176388,-1.86837 -0.176388,-3.93635 0,-2.86517 0.08647,-3.83172 0.363339,-4.06151 0.598669,-0.49685 1.170995,-0.0594 2.076007,1.58684 0.471789,0.85818 0.919612,1.55848 0.995163,1.55623 0.07555,-0.002 0.498485,-0.67637 0.939852,-1.49803 1.762103,-3.28037 2.506587,-2.56213 2.500754,2.4126 -0.0022,1.90033 -0.105792,3.6157 -0.230142,3.81192 -0.12435,0.19622 -0.449948,0.31403 -0.723553,0.26181 -0.436007,-0.0832 -0.513805,-0.41922 -0.629754,-2.71976 l -0.132291,-2.62481 -0.744118,1.37081 c -0.409264,0.75395 -0.855783,1.37081 -0.992264,1.37081 -0.136481,0 -0.575535,-0.5936 -0.975675,-1.3191 -0.40014,-0.72551 -0.816824,-1.32082 -0.925964,-1.32292 -0.109141,-0.002 -0.198438,1.18681 -0.198438,2.64202 0,2.38927 -0.04704,2.64583 -0.485069,2.64583 -0.266788,0 -0.564445,-0.0794 -0.661459,-0.17639 z m 8.290278,-3.89063 c 0,-2.25711 0.108318,-4.17077 0.240707,-4.2526 0.132389,-0.0818 0.433071,-0.0749 0.668183,0.0153 0.372114,0.14279 0.418039,0.6826 0.354606,4.16804 -0.07144,3.92562 -0.08452,4.00567 -0.668183,4.08856 l -0.595313,0.0846 z m 2.910417,-0.0184 c 0,-2.24699 0.108318,-4.15237 0.240707,-4.2342 0.132388,-0.0818 0.430045,-0.0761 0.661458,0.0127 0.355632,0.13647 0.420751,0.70989 0.420751,3.70502 v 3.54357 h 1.5875 c 1.411112,0 1.5875,0.0588 1.5875,0.52917 0,0.48766 -0.176388,0.52916 -2.248958,0.52916 h -2.248958 z m 5.732639,3.90903 c -0.09701,-0.097 -0.176389,-1.92974 -0.176389,-4.07273 0,-3.31761 0.06249,-3.92033 0.420751,-4.0578 0.724951,-0.27819 0.902165,0.0833 0.902165,1.84025 0,0.93729 0.0893,1.69902 0.198438,1.69271 0.109141,-0.006 0.782763,-0.83974 1.496939,-1.85208 0.714176,-1.01234 1.384207,-1.84062 1.488958,-1.84062 0.38402,0 0.824087,0.78051 0.627462,1.11289 -0.111381,0.18827 -0.612594,0.84878 -1.113808,1.4678 l -0.911299,1.12549 1.379832,2.10174 c 1.377238,2.09779 1.488243,2.65874 0.526126,2.65874 -0.339234,0 -0.872364,-0.57462 -1.595603,-1.71979 -0.597381,-0.94588 -1.151645,-1.71979 -1.231698,-1.71979 -0.426506,0 -0.849532,1.07755 -0.856932,2.18281 -0.007,1.03924 -0.09237,1.25677 -0.493484,1.25677 -0.266788,0 -0.564444,-0.0794 -0.661458,-0.17639 z m 20.600244,-19.46892 c -0.522414,-0.9095 -1.332981,-2.33684 -1.801259,-3.17186 -0.468279,-0.83502 -0.930773,-1.51963 -1.027765,-1.52135 -0.169326,-0.003 -3.660109,5.91541 -3.660109,6.2055 0,0.0778 1.67377,0.14136 3.719488,0.14136 h 3.719489 z m -3.8433,-10.38489 v -2.24896 h -17.197917 -17.197916 v 2.24896 2.24895 h 17.197916 17.197917 z"
         id="path12906" /><path
         style="fill:#608790"
         d="m -68.329793,791.96672 -0.773398,-0.77339 v -24.51424 -24.51425 l 2.778125,-4.75977 2.778125,-4.75976 v -3.12212 c 0,-2.75793 0.06397,-3.20344 0.54837,-3.81926 l 0.548371,-0.69714 h 18.217842 18.217843 l 0.548371,0.69714 c 0.484404,0.61582 0.54837,1.06133 0.54837,3.81926 v 3.12212 l 2.778125,4.75976 2.778125,4.75977 v 18.39917 c 0,17.91992 -0.01333,18.4063 -0.511773,18.67305 -0.66187,0.35423 -0.697236,0.35001 -1.18912,-0.14188 -0.369631,-0.36963 -0.415774,-2.36636 -0.415774,-17.99166 v -17.5759 h -4.630208 -4.630209 v 23.54792 23.54792 h 4.630209 4.630208 v -3.94986 c 0,-3.23799 0.07493,-4.02478 0.415774,-4.36562 0.491884,-0.49188 0.52725,-0.4961 1.18912,-0.14188 0.474311,0.25384 0.511773,0.59426 0.511773,4.65056 v 4.37667 l -0.773398,0.77339 -0.773397,0.7734 h -23.324039 -23.324038 z m 35.474519,-13.48102 v -12.13776 l -0.826823,-0.16537 c -1.525007,-0.305 -4.884416,-0.16934 -6.335051,0.25583 -0.790396,0.23166 -2.508647,0.99542 -3.818335,1.69724 -3.330275,1.7846 -4.97374,2.22294 -8.334374,2.22294 -3.269937,0 -5.02504,-0.44397 -7.9375,-2.00786 -2.55948,-1.37435 -4.097162,-1.97641 -5.637966,-2.20747 l -1.241201,-0.18613 v 12.33317 12.33317 h 17.065625 17.065625 z m -16.638717,-10.34908 c 0.783846,-0.144 2.853925,-0.96127 4.600175,-1.81614 4.503591,-2.20473 4.797104,-2.28213 8.66493,-2.28508 l 3.373264,-0.003 1.74e-4,-10.2526 1.74e-4,-10.25261 h -12.250209 c -9.175162,0 -12.329907,-0.0797 -12.567708,-0.3175 -0.476742,-0.47674 -0.382509,-1.21659 0.194273,-1.52527 0.331413,-0.17737 4.877097,-0.27593 12.898437,-0.27967 l 12.386665,-0.006 1.380181,-2.44162 c 0.759099,-1.34289 1.743773,-3.06669 2.188164,-3.83068 l 0.807984,-1.38906 -17.004831,0.004 -17.004831,0.004 -2.171502,3.76586 -2.171502,3.76586 2.490228,0.13229 c 2.650769,0.14082 3.140563,0.36265 2.999656,1.35854 -0.08667,0.61254 -0.154584,0.62742 -3.197401,0.70037 l -3.108854,0.0745 v 10.13232 10.13233 l 1.785937,0.31966 c 1.166656,0.20882 3.025199,0.91376 5.359827,2.03296 4.593309,2.202 6.808923,2.6249 10.346769,1.97493 z m 26.30285,-28.37931 c -0.522414,-0.9095 -1.332981,-2.33684 -1.801259,-3.17186 -0.468279,-0.83502 -0.930773,-1.51963 -1.027765,-1.52135 -0.169326,-0.003 -3.660109,5.91541 -3.660109,6.2055 0,0.0778 1.67377,0.14136 3.719488,0.14136 h 3.719489 z m -3.8433,-10.38489 v -2.24896 h -17.197917 -17.197916 v 2.24896 2.24895 h 17.197916 17.197917 z"
         id="path12905" /><path
         style="fill:#827d76"
         d="m -68.329793,791.96672 -0.773398,-0.77339 v -24.51424 -24.51425 l 2.778125,-4.75977 2.778125,-4.75976 v -3.12212 c 0,-2.75793 0.06397,-3.20344 0.54837,-3.81926 l 0.548371,-0.69714 h 18.217842 18.217843 l 0.548371,0.69714 c 0.484404,0.61582 0.54837,1.06133 0.54837,3.81926 v 3.12212 l 2.778125,4.75976 2.778125,4.75977 v 18.39917 c 0,17.91992 -0.01333,18.4063 -0.511773,18.67305 -0.66187,0.35423 -0.697236,0.35001 -1.18912,-0.14188 -0.369631,-0.36963 -0.415774,-2.36636 -0.415774,-17.99166 v -17.5759 h -4.630208 -4.630209 v 23.54792 23.54792 h 4.630209 4.630208 v -3.94986 c 0,-3.23799 0.07493,-4.02478 0.415774,-4.36562 0.491884,-0.49188 0.52725,-0.4961 1.18912,-0.14188 0.474311,0.25384 0.511773,0.59426 0.511773,4.65056 v 4.37667 l -0.773398,0.77339 -0.773397,0.7734 h -23.324039 -23.324038 z m 35.474519,-13.48102 v -12.13776 l -0.826823,-0.16537 c -1.435676,-0.28713 -4.807786,-0.17344 -6.25099,0.21076 -0.764099,0.20341 -2.392,0.91201 -3.617557,1.57465 -3.56087,1.92533 -5.104878,2.35672 -8.486922,2.37121 -3.510813,0.015 -5.09679,-0.39773 -8.466666,-2.20355 -2.381746,-1.2763 -4.714756,-2.11843 -5.868856,-2.11843 h -0.613436 v 12.30312 12.30313 h 17.065625 17.065625 z m -16.638717,-10.34908 c 0.783846,-0.144 2.853925,-0.96127 4.600175,-1.81614 4.503591,-2.20473 4.797104,-2.28213 8.66493,-2.28508 l 3.373264,-0.003 1.74e-4,-10.2526 1.74e-4,-10.25261 h -12.270728 c -10.873166,0 -12.310339,-0.0477 -12.618512,-0.41905 -0.252154,-0.30383 -0.271433,-0.54027 -0.07011,-0.8599 0.249071,-0.39544 1.405595,-0.45748 11.229448,-0.60238 6.02348,-0.0888 11.725687,-0.17818 12.671572,-0.19851 l 1.719792,-0.037 1.389683,-2.44733 c 0.764326,-1.34603 1.756419,-3.0724 2.204652,-3.83639 l 0.814969,-1.38906 h -17.049277 -17.049277 l -2.154854,3.7344 c -1.18517,2.05392 -2.154854,3.8357 -2.154854,3.9595 0,0.1238 1.220391,0.25902 2.711979,0.30049 l 2.711979,0.0754 v 0.79375 0.79375 l -3.108854,0.0745 -3.108854,0.0745 v 10.13232 10.13233 l 1.785937,0.31966 c 1.166656,0.20882 3.025199,0.91376 5.359827,2.03296 4.593309,2.202 6.808923,2.6249 10.346769,1.97493 z m 26.30285,-28.37931 c -0.522414,-0.9095 -1.332981,-2.33684 -1.801259,-3.17186 -0.468279,-0.83502 -0.930773,-1.51963 -1.027765,-1.52135 -0.169326,-0.003 -3.660109,5.91541 -3.660109,6.2055 0,0.0778 1.67377,0.14136 3.719488,0.14136 h 3.719489 z m -3.8433,-10.38489 v -2.24896 h -17.197917 -17.197916 v 2.24896 2.24895 h 17.197916 17.197917 z"
         id="path12904" /><path
         style="fill:#6e6b64"
         d="m -68.329793,791.96672 -0.773398,-0.77339 v -24.46071 -24.46071 l 2.703186,-4.59766 2.703186,-4.59767 0.146648,-3.4841 c 0.122425,-2.90859 0.228985,-3.57508 0.645113,-4.03489 0.495774,-0.54783 0.596575,-0.5508 18.6727,-0.5508 18.076126,0 18.176927,0.003 18.672701,0.5508 0.416128,0.45981 0.522688,1.1263 0.645112,4.03489 l 0.146649,3.4841 2.703186,4.59767 2.703186,4.59766 v 18.06872 c 0,9.93779 -0.07227,18.25704 -0.160599,18.48723 -0.224954,0.58622 -1.351969,0.52374 -1.682176,-0.0933 -0.180812,-0.33785 -0.273892,-6.40721 -0.273892,-17.85937 v -17.34761 h -4.630208 -4.630209 v 23.54792 23.54792 h 4.630209 4.630208 V 786.787 c 0,-3.49817 0.04719,-3.88366 0.535231,-4.37169 0.425111,-0.42511 0.642854,-0.47763 1.058333,-0.25528 0.488716,0.26156 0.523103,0.56766 0.523103,4.65663 v 4.37667 l -0.773398,0.77339 -0.773397,0.7734 h -23.324039 -23.324038 z m 35.474519,-13.48102 v -12.13776 l -0.826823,-0.16537 c -1.435676,-0.28713 -4.807786,-0.17344 -6.25099,0.21076 -0.764099,0.20341 -2.392,0.91201 -3.617557,1.57465 -3.56087,1.92533 -5.104878,2.35672 -8.486922,2.37121 -3.510813,0.015 -5.09679,-0.39773 -8.466666,-2.20355 -2.381746,-1.2763 -4.714756,-2.11843 -5.868856,-2.11843 h -0.613436 v 12.30312 12.30313 h 17.065625 17.065625 z m -16.351044,-10.37861 c 0.771147,-0.16025 2.904374,-1.03981 4.740504,-1.95456 3.924758,-1.95531 5.954549,-2.41343 9.559442,-2.15755 l 2.315681,0.16437 v -10.31586 -10.31587 h -12.40302 c -10.99387,0 -12.442532,-0.0476 -12.750803,-0.41905 -0.252154,-0.30383 -0.271433,-0.54027 -0.07011,-0.8599 0.249071,-0.39544 1.405595,-0.45748 11.229448,-0.60238 6.02348,-0.0888 11.725687,-0.17818 12.671572,-0.19851 l 1.719792,-0.037 1.389683,-2.44733 c 0.764326,-1.34603 1.756419,-3.0724 2.204652,-3.83639 l 0.814969,-1.38906 h -17.049277 -17.049277 l -2.154854,3.7344 c -1.18517,2.05392 -2.154854,3.8357 -2.154854,3.9595 0,0.1238 1.218994,0.25902 2.708876,0.30049 2.362674,0.0658 2.720519,0.1362 2.799974,0.55113 0.19881,1.03824 -0.38965,1.24406 -3.556872,1.24406 h -3.010311 v 10.16163 10.16163 l 1.374134,0.189 c 1.934472,0.26605 3.649396,0.90122 6.698153,2.48084 1.453836,0.75326 3.179119,1.47085 3.833963,1.59466 1.740912,0.32914 4.532958,0.32536 6.138539,-0.008 z m 26.934377,-26.66186 c 0,-0.231 -3.332726,-6.08993 -3.661385,-6.4367 -0.135594,-0.14307 -3.553147,5.40983 -3.967434,6.44635 -0.04851,0.12136 1.648133,0.22066 3.770312,0.22066 2.122179,0 3.858507,-0.10364 3.858507,-0.23031 z m -4.7625,-12.07281 v -2.24896 h -17.197917 -17.197916 v 2.24896 2.24895 h 17.197916 17.197917 z"
         id="path12903" /><path
         style="fill:#2e7283"
         d="m -67.751151,792.37089 c -1.380126,-0.76494 -1.332605,0.14848 -1.342664,-25.80792 l -0.0094,-24.19278 2.910417,-4.99871 2.910417,-4.99871 v -3.27111 c 0,-3.08034 0.03429,-3.29513 0.588038,-3.68299 0.518132,-0.36292 2.712884,-0.41188 18.461961,-0.41188 15.749078,0 17.94383,0.049 18.461962,0.41188 0.553744,0.38786 0.588038,0.60265 0.588038,3.68299 v 3.27111 l 2.910417,4.99871 2.910417,4.99871 v 18.14111 c 0,19.37406 0.02941,18.93236 -1.244061,18.68717 -0.451485,-0.0869 -0.479197,-0.99825 -0.543739,-17.88122 l -0.06801,-17.78963 h -4.760638 -4.760638 v 23.68632 23.68631 l 4.696355,-0.0723 4.696354,-0.0722 0.132291,-4.23334 c 0.131797,-4.21748 0.134656,-4.23366 0.763829,-4.32262 0.347345,-0.0491 0.732475,0.0699 0.855844,0.26458 0.123369,0.19463 0.226131,2.11596 0.228359,4.26962 0.0044,4.28737 -0.208682,5.1273 -1.443764,5.69004 -1.064663,0.48509 -46.062629,0.43416 -46.941811,-0.0531 z m 34.895877,-13.88519 v -12.13776 l -0.826823,-0.16537 c -1.435676,-0.28713 -4.807786,-0.17344 -6.25099,0.21076 -0.764099,0.20341 -2.392,0.91201 -3.617557,1.57465 -3.56087,1.92533 -5.104878,2.35672 -8.486922,2.37121 -3.510813,0.015 -5.09679,-0.39773 -8.466666,-2.20355 -2.381746,-1.2763 -4.714756,-2.11843 -5.868856,-2.11843 h -0.613436 v 12.30312 12.30313 h 17.065625 17.065625 z m -15.592293,-10.5062 c 0.790396,-0.23043 2.508647,-0.9924 3.818334,-1.69328 3.532299,-1.89029 4.944757,-2.24559 8.797396,-2.213 l 3.241146,0.0274 v -10.28651 -10.28652 h -12.284226 c -10.814701,0 -12.333964,-0.0497 -12.7,-0.41577 -0.499013,-0.49901 -0.516701,-0.70038 -0.09827,-1.11881 0.233051,-0.23305 2.467439,-0.31771 8.400521,-0.31831 4.445661,-4.4e-4 10.117118,-0.078 12.603237,-0.17228 l 4.520216,-0.17147 1.367383,-2.40741 c 0.752061,-1.32407 1.73412,-3.03248 2.182353,-3.79647 l 0.814969,-1.38906 h -17.054518 -17.054519 l -2.149612,3.72741 c -1.182287,2.05008 -2.149613,3.83185 -2.149613,3.9595 0,0.12764 1.218994,0.26601 2.708876,0.30748 2.362674,0.0658 2.720519,0.1362 2.799974,0.55113 0.19881,1.03824 -0.38965,1.24406 -3.556872,1.24406 h -3.010311 v 10.18142 10.18142 l 0.595312,0.10876 c 0.327422,0.0598 1.279112,0.23423 2.114867,0.38757 0.874837,0.16051 2.783215,0.91932 4.497917,1.78845 1.638099,0.8303 3.514143,1.65955 4.168987,1.84277 1.726369,0.48303 5.708347,0.46237 7.426457,-0.0385 z m 26.35793,-26.5024 c -0.06243,-0.10914 -0.912048,-1.59605 -1.88804,-3.30425 -0.975991,-1.70819 -1.863153,-3.16058 -1.97147,-3.22752 -0.179084,-0.11068 -3.995711,6.15256 -3.995711,6.55712 0,0.0952 1.792965,0.17309 3.984365,0.17309 2.191401,0 3.933286,-0.0893 3.870856,-0.19844 z m -4.944804,-12.10468 v -2.24896 h -17.197917 -17.197916 v 2.24896 2.24895 h 17.197916 17.197917 z"
         id="path12902" /><path
         style="fill:#296979"
         d="m -67.751151,792.37089 c -1.380126,-0.76494 -1.332605,0.14848 -1.342664,-25.80792 l -0.0094,-24.19278 2.910417,-4.99871 2.910417,-4.99871 v -3.27111 c 0,-3.08034 0.03429,-3.29513 0.588038,-3.68299 0.518132,-0.36292 2.712884,-0.41188 18.461961,-0.41188 15.749078,0 17.94383,0.049 18.461962,0.41188 0.553744,0.38786 0.588038,0.60265 0.588038,3.68299 v 3.27111 l 2.910417,4.99871 2.910417,4.99871 v 18.14111 c 0,19.37406 0.02941,18.93236 -1.244061,18.68717 -0.451485,-0.0869 -0.479197,-0.99825 -0.543739,-17.88122 l -0.06801,-17.78963 h -4.760638 -4.760638 v 23.68632 23.68631 l 4.696355,-0.0723 4.696354,-0.0722 0.132291,-4.23334 c 0.131797,-4.21748 0.134656,-4.23366 0.763829,-4.32262 0.347345,-0.0491 0.732475,0.0699 0.855844,0.26458 0.123369,0.19463 0.226131,2.11596 0.228359,4.26962 0.0044,4.28737 -0.208682,5.1273 -1.443764,5.69004 -1.064663,0.48509 -46.062629,0.43416 -46.941811,-0.0531 z m 34.895877,-13.88741 v -12.13997 l -0.595313,-0.15954 c -0.991643,-0.26575 -5.287463,-0.18292 -6.416146,0.12371 -0.582083,0.15813 -2.313006,0.92071 -3.846494,1.69461 -3.713853,1.87426 -5.216675,2.28276 -8.398007,2.28276 -3.419612,0 -4.560325,-0.30721 -8.657582,-2.3316 -2.56983,-1.26971 -3.824282,-1.73874 -4.960937,-1.85486 l -1.521354,-0.15542 v 12.16376 c 0,6.69006 0.07937,12.24312 0.176388,12.34014 0.09701,0.097 7.836077,0.17639 17.197917,0.17639 h 17.021528 z M -48.447567,767.9795 c 0.790396,-0.23043 2.508647,-0.9924 3.818334,-1.69328 3.532299,-1.89029 4.944757,-2.24559 8.797396,-2.213 l 3.241146,0.0274 v -10.28651 -10.28652 h -12.284226 c -10.814701,0 -12.333964,-0.0497 -12.7,-0.41577 -0.228676,-0.22868 -0.415774,-0.50252 -0.415774,-0.60854 0,-0.77721 0.801613,-0.82777 13.122805,-0.82777 h 12.487804 l 1.972956,-3.37344 c 1.085126,-1.85539 2.11349,-3.64133 2.285254,-3.96875 l 0.312299,-0.59531 h -17.041988 -17.041988 l -2.149612,3.72741 c -1.182287,2.05008 -2.149613,3.83185 -2.149613,3.9595 0,0.12764 1.218994,0.26601 2.708876,0.30748 2.362674,0.0658 2.720519,0.1362 2.799974,0.55113 0.19881,1.03824 -0.38965,1.24406 -3.556872,1.24406 h -3.010311 v 10.18142 10.18142 l 0.595312,0.10876 c 0.327422,0.0598 1.279112,0.23423 2.114867,0.38757 0.874837,0.16051 2.783215,0.91932 4.497917,1.78845 1.638099,0.8303 3.514143,1.65955 4.168987,1.84277 1.726369,0.48303 5.708347,0.46237 7.426457,-0.0385 z m 26.35793,-26.5024 c -0.06243,-0.10914 -0.912048,-1.59605 -1.88804,-3.30425 -0.975991,-1.70819 -1.863153,-3.16058 -1.97147,-3.22752 -0.179084,-0.11068 -3.995711,6.15256 -3.995711,6.55712 0,0.0952 1.792965,0.17309 3.984365,0.17309 2.191401,0 3.933286,-0.0893 3.870856,-0.19844 z m -4.944804,-12.10468 v -2.24896 h -17.197917 -17.197916 v 2.24896 2.24895 h 17.197916 17.197917 z"
         id="path12901" /><path
         style="fill:#000000"
         d="m -67.751151,792.37089 c -1.380098,-0.76493 -1.332605,0.14751 -1.342664,-25.79524 l -0.0094,-24.18009 2.910417,-5.01239 2.910417,-5.01239 v -3.27012 c 0,-3.07931 0.03431,-3.29415 0.588038,-3.68199 0.518132,-0.36292 2.712884,-0.41188 18.461961,-0.41188 15.749078,0 17.94383,0.049 18.461962,0.41188 0.553727,0.38784 0.588038,0.60268 0.588038,3.68199 v 3.27012 l 2.910417,5.01239 2.910417,5.01239 v 18.12843 c 0,19.36041 0.02936,18.91967 -1.244061,18.67448 -0.451485,-0.0869 -0.479197,-0.99825 -0.543739,-17.88122 l -0.06801,-17.78963 h -4.760638 -4.760638 v 23.68632 23.68631 l 4.696355,-0.0723 4.696354,-0.0722 0.132291,-4.23017 c 0.118887,-3.80153 0.180497,-4.23941 0.608023,-4.32133 1.093128,-0.20946 1.244061,0.336 1.244061,4.49599 0,4.32242 -0.212051,5.16074 -1.447816,5.72379 -1.064663,0.48509 -46.062629,0.43416 -46.941811,-0.0531 z m 35.16046,-13.76815 c 0,-11.47395 -0.03058,-12.29395 -0.463021,-12.41637 -1.244838,-0.35242 -3.827834,-0.43853 -5.490104,-0.18304 -1.370508,0.21065 -2.746436,0.72565 -5.291667,1.98061 -3.863203,1.90482 -5.22893,2.2666 -8.556392,2.2666 -3.046751,0 -4.664177,-0.45482 -8.425296,-2.36918 -2.074946,-1.05612 -3.637202,-1.66813 -4.644504,-1.81948 -0.834823,-0.12543 -1.578964,-0.16695 -1.653646,-0.0923 -0.203662,0.20367 -0.163729,24.53771 0.0406,24.74204 0.09701,0.097 7.895608,0.17639 17.330209,0.17639 h 17.153819 z m -15.856876,-10.62276 c 0.790396,-0.23017 2.410141,-0.94017 3.599433,-1.5778 3.69719,-1.9822 5.014878,-2.32502 8.884006,-2.31134 l 3.373437,0.0119 V 753.8152 743.52762 l -12.236979,-0.004 c -6.730339,-0.002 -12.396224,-0.10499 -12.590857,-0.22836 -0.194633,-0.12337 -0.313696,-0.5085 -0.264584,-0.85584 l 0.08929,-0.63154 12.680254,-0.13229 12.680254,-0.13229 2.188767,-3.70417 c 1.203822,-2.03729 2.194973,-3.79433 2.202559,-3.90453 0.0076,-0.1102 -7.678855,-0.16974 -17.080977,-0.13229 l -17.094768,0.0681 -2.219002,3.83646 -2.219001,3.83646 2.683427,0.13229 c 2.118879,0.10446 2.741699,0.22504 2.960406,0.57313 0.200513,0.31914 0.180966,0.55654 -0.0708,0.8599 -0.280031,0.33742 -0.934233,0.41905 -3.358095,0.41905 h -3.010311 v 10.18142 10.18142 l 0.595312,0.10876 c 0.327422,0.0598 1.278812,0.23416 2.1142,0.38743 0.889611,0.16321 2.837622,0.94456 4.701924,1.88594 1.75067,0.88401 3.627014,1.712 4.169654,1.84 1.675379,0.39517 5.661334,0.32198 7.22245,-0.13261 z m 26.366008,-26.50288 c -0.817908,-1.53943 -3.735303,-6.45002 -3.888065,-6.54443 -0.179589,-0.11099 -3.975234,6.17516 -3.975234,6.58358 0,0.0876 1.792965,0.15929 3.984365,0.15929 2.191401,0 3.936921,-0.0893 3.878934,-0.19844 z m -4.952882,-12.10468 v -2.51355 h -17.197917 -17.197916 v 2.51355 2.51354 h 17.197916 17.197917 z"
         id="path12900" /></g></g></svg>
