<?xml version="1.0" encoding="UTF-8" standalone="no"?>
<!-- Created with Inkscape (http://www.inkscape.org/) -->

<svg
   width="61.426037mm"
   height="63.500004mm"
   viewBox="0 0 61.426037 63.500004"
   version="1.1"
   id="svg1"
   xml:space="preserve"
   xmlns="http://www.w3.org/2000/svg"
   xmlns:svg="http://www.w3.org/2000/svg"><defs
     id="defs1" /><g
     id="layer1"
     transform="translate(-78.811411,-923.67502)"><g
       id="g12914"
       transform="translate(107.16083,57.99917)"><path
         style="fill:#fdd138"
         d="m -25.419235,928.5602 c -0.641352,-0.33859 -1.523281,-1.12253 -1.959844,-1.74208 -0.709867,-1.00742 -0.803383,-1.37203 -0.884906,-3.45019 -0.0665,-1.6953 0.01621,-2.53135 0.305838,-3.09143 0.342397,-0.66213 0.345837,-0.83767 0.02501,-1.27642 -0.476763,-0.65202 -0.476763,-2.08332 0,-3.00528 0.31959,-0.61802 0.31959,-0.79099 0,-1.22806 -0.467911,-0.63991 -0.464992,-2.19014 0.0057,-3.04013 0.306256,-0.55302 0.30075,-0.73702 -0.0375,-1.25326 -0.279906,-0.42719 -0.34618,-0.93669 -0.225431,-1.73307 0.09407,-0.62039 0.155574,-1.42565 0.136686,-1.78945 -0.01889,-0.3638 -0.0857,-5.89927 -0.148471,-12.30103 -0.07977,-8.13504 -0.02614,-11.85198 0.178091,-12.34505 0.160721,-0.38802 1.591977,-1.79115 3.180569,-3.11807 l 2.888349,-2.41259 v -1.25215 c 0,-0.96561 -0.121096,-1.32778 -0.529167,-1.58262 -0.4748,-0.29652 -0.529167,-0.61702 -0.529167,-3.1195 0,-4.56806 0.592461,-5.14399 5.291667,-5.14399 4.699207,0 5.291667,0.57593 5.291667,5.14399 0,2.50248 -0.05437,2.82298 -0.529167,3.1195 -0.408071,0.25484 -0.529166,0.61701 -0.529166,1.58262 v 1.25215 l 2.888349,2.41259 c 1.5885916,1.32692 3.0198474,2.73005 3.1805681,3.11807 0.2392536,0.57761 0.2659701,13.97606 0.049276,24.71223 -0.00808,0.40018 -0.014686,1.32291 -0.014686,2.05052 0,0.7276 0,1.6801 0,2.11666 0,0.43657 0,1.38907 0,2.11667 0,0.7276 0,1.6801 0,2.11667 0,0.43656 0,1.38906 0,2.11666 0,1.54504 0.0076,2.16429 0.068711,5.60031 0.043566,2.44945 0.011929,2.60521 -0.7482605,3.68385 -0.4365625,0.61944 -1.3184922,1.40329 -1.9598446,1.74188 -1.129539,0.59633 -1.370836,0.61563 -7.697448,0.61563 -6.326612,0 -6.567908,-0.0193 -7.697448,-0.61563 z m 23.2833342,0 c -0.6413516,-0.33859 -1.5232814,-1.12253 -1.9598439,-1.74208 -0.7098668,-1.00742 -0.8033834,-1.37203 -0.8849065,-3.45019 -0.066504,-1.6953 0.016208,-2.53135 0.3058379,-3.09143 0.3423979,-0.66213 0.3458375,-0.83767 0.025011,-1.27642 -0.2045911,-0.2798 -0.3719838,-0.9086 -0.3719838,-1.39733 0,-0.48874 0.1673927,-1.21232 0.3719838,-1.60795 0.3195895,-0.61802 0.3195895,-0.79099 0,-1.22806 -0.2045911,-0.27979 -0.3719838,-0.90859 -0.3719838,-1.39733 0,-0.48873 0.1673927,-1.21231 0.3719838,-1.60795 0.3195895,-0.61801 0.3195895,-0.79099 0,-1.22805 -0.2045911,-0.2798 -0.3719838,-0.90859 -0.3719838,-1.39733 0,-0.48874 0.1673927,-1.21231 0.3719838,-1.60795 0.3195895,-0.61802 0.3195895,-0.79099 0,-1.22805 -0.4767636,-0.65202 -0.4767636,-2.08332 0,-3.00528 0.3195895,-0.61802 0.3195895,-0.79099 0,-1.22806 -0.4679116,-0.63991 -0.4649923,-2.19014 0.00572,-3.04013 0.3062558,-0.55302 0.3007499,-0.73702 -0.037502,-1.25326 -0.2799056,-0.42719 -0.3461791,-0.93669 -0.2254307,-1.73307 0.094065,-0.62039 0.1589499,-1.42565 0.1441875,-1.78945 -0.3044988,-7.50401 -0.2576498,-9.67774 0.2254214,-10.45926 0.4105489,-0.66419 1.6828727,-1.346 7.4060313,-3.96875 l 6.9103218,-3.16678 0.00796,-1.19313 c 0.00609,-0.91206 -0.1166898,-1.27097 -0.5212023,-1.52359 -0.4747998,-0.29652 -0.5291667,-0.61702 -0.5291667,-3.1195 0,-4.56806 0.5924605,-5.14399 5.291667,-5.14399 4.699207,0 5.291667,0.57593 5.291667,5.14399 0,2.50248 -0.05437,2.82298 -0.529167,3.1195 -0.404512,0.25262 -0.52729,0.61153 -0.521202,1.52359 l 0.008,1.19313 6.910321,3.16678 c 5.723159,2.62275 6.995483,3.30456 7.406032,3.96875 0.447774,0.72442 0.483939,1.23692 0.373986,5.29988 -0.12815,4.73536 -0.136093,5.16005 -0.136093,7.27605 0,0.7276 0,1.6801 0,2.11666 0,0.43657 0,1.38907 0,2.11667 0,0.7276 0,1.6801 0,2.11667 0,0.43656 0,1.38906 0,2.11666 0,0.72761 0,1.68011 0,2.11667 0,0.43656 0,1.38906 0,2.11667 0,0.7276 0,1.6801 0,2.11666 0,0.43657 0,1.38907 0,2.11667 0,0.7276 0,1.6801 0,2.11667 0,0.43656 0,1.38906 0,2.11666 0,1.54504 0.0076,2.16429 0.06871,5.60031 0.04357,2.44945 0.01193,2.60521 -0.748261,3.68385 -0.436562,0.61944 -1.318492,1.40329 -1.959844,1.74188 l -1.166093,0.61563 H 14.028214 -0.96980695 Z"
         id="path12916" /><path
         style="fill:#e89e25"
         d="m -25.419235,928.5602 c -0.641352,-0.33859 -1.523281,-1.12253 -1.959844,-1.74208 -0.709867,-1.00742 -0.803383,-1.37203 -0.884906,-3.45019 -0.0665,-1.6953 0.01621,-2.53135 0.305838,-3.09143 0.342397,-0.66213 0.345837,-0.83767 0.02501,-1.27642 -0.476763,-0.65202 -0.476763,-2.08332 0,-3.00528 0.31959,-0.61802 0.31959,-0.79099 0,-1.22806 -0.467911,-0.63991 -0.464992,-2.19014 0.0057,-3.04013 0.306256,-0.55302 0.30075,-0.73702 -0.0375,-1.25326 -0.279906,-0.42719 -0.34618,-0.93669 -0.225431,-1.73307 0.09407,-0.62039 0.155574,-1.42565 0.136686,-1.78945 -0.01889,-0.3638 -0.0857,-5.89927 -0.148471,-12.30103 -0.07977,-8.13504 -0.02614,-11.85198 0.178091,-12.34505 0.160721,-0.38802 1.591977,-1.79115 3.180569,-3.11807 l 2.888349,-2.41259 v -1.25215 c 0,-0.96561 -0.121096,-1.32778 -0.529167,-1.58262 -0.4748,-0.29652 -0.529167,-0.61702 -0.529167,-3.1195 0,-4.56806 0.592461,-5.14399 5.291667,-5.14399 4.699207,0 5.291667,0.57593 5.291667,5.14399 0,2.50248 -0.05437,2.82298 -0.529167,3.1195 -0.408071,0.25484 -0.529166,0.61701 -0.529166,1.58262 v 1.25215 l 2.888349,2.41259 c 1.5885916,1.32692 3.0198474,2.73005 3.1805681,3.11807 0.2392536,0.57761 0.2659701,13.97606 0.049276,24.71223 -0.00808,0.40018 -0.014686,1.32291 -0.014686,2.05052 0,0.7276 0,1.6801 0,2.11666 0,0.43657 0,1.38907 0,2.11667 0,0.7276 0,1.6801 0,2.11667 0,0.43656 0,1.38906 0,2.11666 0,1.54504 0.0076,2.16429 0.068711,5.60031 0.043566,2.44945 0.011929,2.60521 -0.7482605,3.68385 -0.4365625,0.61944 -1.3184922,1.40329 -1.9598446,1.74188 -1.129539,0.59633 -1.370836,0.61563 -7.697448,0.61563 -6.326612,0 -6.567908,-0.0193 -7.697448,-0.61563 z m 14.022666,-1.8467 c 1.328478,-0.46549 1.9098695,-1.42304 2.0692002,-3.40796 0.2180729,-2.71673 0.6071987,-2.59638 -8.3944182,-2.59638 -9.001617,0 -8.612491,-0.12035 -8.394418,2.59638 0.159331,1.98492 0.740722,2.94247 2.0692,3.40796 0.585321,0.20509 2.802639,0.3158 6.325218,0.3158 3.522579,0 5.739897,-0.11071 6.325218,-0.3158 z m 1.7256753,-8.53678 c 0.5221765,-0.52217 0.5221765,-0.76294 0,-1.28512 -0.3587653,-0.35876 -1.4626533,-0.41577 -8.0508933,-0.41577 -6.58824,0 -7.692127,0.057 -8.050893,0.41577 -0.228676,0.22868 -0.415774,0.51783 -0.415774,0.64256 0,0.12474 0.187098,0.41389 0.415774,0.64256 0.358766,0.35877 1.462653,0.41578 8.050893,0.41578 6.58824,0 7.692128,-0.057 8.0508933,-0.41578 z m 0,-4.23333 c 0.5221765,-0.52218 0.5221765,-0.76294 0,-1.28512 -0.3587653,-0.35877 -1.4626533,-0.41577 -8.0508933,-0.41577 -6.58824,0 -7.692127,0.057 -8.050893,0.41577 -0.228676,0.22868 -0.415774,0.51783 -0.415774,0.64256 0,0.12473 0.187098,0.41388 0.415774,0.64256 0.358766,0.35876 1.462653,0.41577 8.050893,0.41577 6.58824,0 7.692128,-0.057 8.0508933,-0.41577 z m 0,-4.23333 c 0.5221765,-0.52218 0.5221765,-0.76295 0,-1.28512 -0.3587653,-0.35877 -1.4626533,-0.41578 -8.0508933,-0.41578 -6.58824,0 -7.692127,0.057 -8.050893,0.41578 -0.228676,0.22867 -0.415774,0.51782 -0.415774,0.64256 0,0.12473 0.187098,0.41388 0.415774,0.64256 0.358766,0.35876 1.462653,0.41577 8.050893,0.41577 6.58824,0 7.692128,-0.057 8.0508933,-0.41577 z m 0,-4.23334 c 0.2286756,-0.22867 0.4157738,-0.70492 0.4157738,-1.05833 v -0.64256 h -8.4666671 -8.466667 v 0.64256 c 0,1.44391 0.173453,1.47411 8.466667,1.47411 6.58824,0 7.692128,-0.057 8.0508933,-0.41578 z m -6.5000093,-8.69463 c 0.599386,-0.59939 0.423388,-1.61315 -0.50433,-2.90497 -0.479421,-0.66759 -0.95037,-1.21379 -1.046554,-1.21379 -0.207489,0 -1.702369,2.0755 -1.905667,2.64583 -0.221429,0.62121 0.245891,1.57493 0.907256,1.85155 0.740937,0.30991 2.056091,0.11458 2.549295,-0.37862 z m 6.9157831,-12.68841 c 0,-0.79977 -0.3720377,-1.20983 -3.3522691,-3.69481 l -2.426227,-2.02304 h -2.688171 -2.688171 l -2.426227,2.02304 c -2.980231,2.48498 -3.352269,2.89504 -3.352269,3.69481 v 0.63215 h 8.466667 8.4666671 z m -6.3500001,-8.89285 v -1.05833 h -2.116667 -2.116667 v 1.05833 1.05833 h 2.116667 2.116667 z m 13.4692192,53.35937 c -0.6413516,-0.33859 -1.5232814,-1.12253 -1.9598439,-1.74208 -0.7098668,-1.00742 -0.8033834,-1.37203 -0.8849065,-3.45019 -0.066504,-1.6953 0.016208,-2.53135 0.3058379,-3.09143 0.3423979,-0.66213 0.3458375,-0.83767 0.025011,-1.27642 -0.2045911,-0.2798 -0.3719838,-0.9086 -0.3719838,-1.39733 0,-0.48874 0.1673927,-1.21232 0.3719838,-1.60795 0.3195895,-0.61802 0.3195895,-0.79099 0,-1.22806 -0.2045911,-0.27979 -0.3719838,-0.90859 -0.3719838,-1.39733 0,-0.48873 0.1673927,-1.21231 0.3719838,-1.60795 0.3195895,-0.61801 0.3195895,-0.79099 0,-1.22805 -0.2045911,-0.2798 -0.3719838,-0.90859 -0.3719838,-1.39733 0,-0.48874 0.1673927,-1.21231 0.3719838,-1.60795 0.3195895,-0.61802 0.3195895,-0.79099 0,-1.22805 -0.4767636,-0.65202 -0.4767636,-2.08332 0,-3.00528 0.3195895,-0.61802 0.3195895,-0.79099 0,-1.22806 -0.4679116,-0.63991 -0.4649923,-2.19014 0.00572,-3.04013 0.3062558,-0.55302 0.3007499,-0.73702 -0.037502,-1.25326 -0.2799056,-0.42719 -0.3461791,-0.93669 -0.2254307,-1.73307 0.094065,-0.62039 0.1589499,-1.42565 0.1441875,-1.78945 -0.3044988,-7.50401 -0.2576498,-9.67774 0.2254214,-10.45926 0.4105489,-0.66419 1.6828727,-1.346 7.4060313,-3.96875 l 6.9103218,-3.16678 0.00796,-1.19313 c 0.00609,-0.91206 -0.1166898,-1.27097 -0.5212023,-1.52359 -0.4747998,-0.29652 -0.5291667,-0.61702 -0.5291667,-3.1195 0,-4.56806 0.5924605,-5.14399 5.291667,-5.14399 4.699207,0 5.291667,0.57593 5.291667,5.14399 0,2.50248 -0.05437,2.82298 -0.529167,3.1195 -0.404512,0.25262 -0.52729,0.61153 -0.521202,1.52359 l 0.008,1.19313 6.910321,3.16678 c 5.723159,2.62275 6.995483,3.30456 7.406032,3.96875 0.447774,0.72442 0.483939,1.23692 0.373986,5.29988 -0.12815,4.73536 -0.136093,5.16005 -0.136093,7.27605 0,0.7276 0,1.6801 0,2.11666 0,0.43657 0,1.38907 0,2.11667 0,0.7276 0,1.6801 0,2.11667 0,0.43656 0,1.38906 0,2.11666 0,0.72761 0,1.68011 0,2.11667 0,0.43656 0,1.38906 0,2.11667 0,0.7276 0,1.6801 0,2.11666 0,0.43657 0,1.38907 0,2.11667 0,0.7276 0,1.6801 0,2.11667 0,0.43656 0,1.38906 0,2.11666 0,1.54504 0.0076,2.16429 0.06871,5.60031 0.04357,2.44945 0.01193,2.60521 -0.748261,3.68385 -0.436562,0.61944 -1.318492,1.40329 -1.959844,1.74188 l -1.166093,0.61563 H 14.028214 -0.96980695 Z M 28.8201,926.7135 c 1.328477,-0.46549 1.909869,-1.42304 2.069199,-3.40796 0.227167,-2.83002 1.744485,-2.59638 -16.861085,-2.59638 -18.6055697,0 -17.0882515,-0.23364 -16.8610848,2.59638 0.1593307,1.98492 0.7407222,2.94247 2.06919977,3.40796 1.28165151,0.44908 28.30211903,0.44908 29.58377103,0 z m 1.725674,-8.53678 c 0.228676,-0.22867 0.415774,-0.51782 0.415774,-0.64256 0,-0.12473 -0.187098,-0.41388 -0.415774,-0.64256 -0.368867,-0.36886 -2.23235,-0.41577 -16.51756,-0.41577 -14.28520947,0 -16.1486929,0.0469 -16.5175598,0.41577 -0.2286756,0.22868 -0.4157739,0.51783 -0.4157739,0.64256 0,0.12474 0.1870983,0.41389 0.4157739,0.64256 0.3688669,0.36887 2.23235033,0.41578 16.5175598,0.41578 14.28521,0 16.148693,-0.0469 16.51756,-0.41578 z m 0,-4.23333 c 0.228676,-0.22868 0.415774,-0.51783 0.415774,-0.64256 0,-0.12473 -0.187098,-0.41388 -0.415774,-0.64256 -0.368867,-0.36887 -2.23235,-0.41577 -16.51756,-0.41577 -14.28520947,0 -16.1486929,0.0469 -16.5175598,0.41577 -0.2286756,0.22868 -0.4157739,0.51783 -0.4157739,0.64256 0,0.12473 0.1870983,0.41388 0.4157739,0.64256 0.3688669,0.36887 2.23235033,0.41577 16.5175598,0.41577 14.28521,0 16.148693,-0.0469 16.51756,-0.41577 z M -0.78845292,909.0675 c 0,-0.9442 -0.0692956,-1.05834 -0.64255958,-1.05834 -0.6283147,0 -1.4741072,0.60724 -1.4741072,1.05834 0,0.45109 0.8457925,1.05833 1.4741072,1.05833 0.57326394,0 0.64255958,-0.11413 0.64255958,-1.05833 z m 31.33422692,0.64256 c 0.228676,-0.22868 0.415774,-0.51783 0.415774,-0.64256 0,-0.4511 -0.845792,-1.05834 -1.474107,-1.05834 -0.573264,0 -0.64256,0.11414 -0.64256,1.05834 0,0.9442 0.0693,1.05833 0.64256,1.05833 0.353408,0 0.829658,-0.1871 1.058333,-0.41577 z m -31.33422692,-4.8759 c 0,-0.9442 -0.0692956,-1.05833 -0.64255958,-1.05833 -0.6283147,0 -1.4741072,0.60724 -1.4741072,1.05833 0,0.4511 0.8457925,1.05834 1.4741072,1.05834 0.57326394,0 0.64255958,-0.11414 0.64255958,-1.05834 z m 16.36755092,0.4146 c 0.599387,-0.59939 0.423388,-1.61315 -0.50433,-2.90498 -0.479421,-0.66758 -0.95037,-1.21378 -1.046554,-1.21378 -0.207489,0 -1.702369,2.07549 -1.905667,2.64583 -0.221429,0.6212 0.245891,1.57492 0.907256,1.85155 0.740937,0.30991 2.056092,0.11458 2.549295,-0.37862 z m 14.966676,0.22796 c 0.228676,-0.22867 0.415774,-0.51782 0.415774,-0.64256 0,-0.45109 -0.845792,-1.05833 -1.474107,-1.05833 -0.573264,0 -0.64256,0.11413 -0.64256,1.05833 0,0.9442 0.0693,1.05834 0.64256,1.05834 0.353408,0 0.829658,-0.1871 1.058333,-0.41578 z m -31.33422692,-4.87589 c 0,-0.9442 -0.0692956,-1.05833 -0.64255958,-1.05833 -0.6283147,0 -1.4741072,0.60723 -1.4741072,1.05833 0,0.4511 0.8457925,1.05833 1.4741072,1.05833 0.57326394,0 0.64255958,-0.11413 0.64255958,-1.05833 z m 31.33422692,0.64256 c 0.228676,-0.22868 0.415774,-0.51783 0.415774,-0.64256 0,-0.4511 -0.845792,-1.05833 -1.474107,-1.05833 -0.573264,0 -0.64256,0.11413 -0.64256,1.05833 0,0.9442 0.0693,1.05833 0.64256,1.05833 0.353408,0 0.829658,-0.1871 1.058333,-0.41577 z M -0.78845292,896.3675 c 0,-0.9442 -0.0692956,-1.05834 -0.64255958,-1.05834 -0.6283147,0 -1.4741072,0.60724 -1.4741072,1.05834 0,0.45109 0.8457925,1.05833 1.4741072,1.05833 0.57326394,0 0.64255958,-0.11413 0.64255958,-1.05833 z m 31.33422692,0.64256 c 0.228676,-0.22868 0.415774,-0.51783 0.415774,-0.64256 0,-0.4511 -0.845792,-1.05834 -1.474107,-1.05834 -0.573264,0 -0.64256,0.11414 -0.64256,1.05834 0,0.9442 0.0693,1.05833 0.64256,1.05833 0.353408,0 0.829658,-0.1871 1.058333,-0.41577 z m 0,-4.23334 c 0.324689,-0.32469 0.415774,-1.01878 0.415774,-3.16828 v -2.75251 l -4.167187,-0.0729 -4.167188,-0.0729 v -0.92604 -0.92604 l 3.789228,-0.13229 3.789228,-0.13229 -6.73348,-3.10886 -6.733481,-3.10885 H 14.047859 11.35705 l -6.7594821,3.10885 -6.7594817,3.10886 11.2039183,0.13229 11.2039185,0.13229 v 0.92604 0.92604 l -11.5755214,0.0689 -11.5755213,0.0689 v 2.75644 c 0,2.15309 0.09101,2.84746 0.4157739,3.17222 0.3688669,0.36887 2.23235033,0.41578 16.5175598,0.41578 14.28521,0 16.148693,-0.0469 16.51756,-0.41578 z M 16.144881,875.20083 v -1.05833 h -2.116667 -2.116666 v 1.05833 1.05833 h 2.116666 2.116667 z"
         id="path12915" /><path
         style="fill:#020101"
         d="m -25.421549,928.43914 c -1.967495,-1.02783 -2.88426,-2.75995 -2.881942,-5.44509 9.69e-4,-1.12235 0.155555,-2.18308 0.381185,-2.61562 0.329683,-0.632 0.329683,-0.8232 0,-1.4552 -0.208755,-0.40019 -0.379555,-1.02526 -0.379555,-1.38907 0,-0.3638 0.1708,-0.98888 0.379555,-1.38906 0.329683,-0.632 0.329683,-0.82321 0,-1.45521 -0.208755,-0.40018 -0.379555,-1.02526 -0.379555,-1.38906 0,-0.3638 0.1708,-0.98888 0.379555,-1.38906 0.329683,-0.632 0.329683,-0.82321 0,-1.45521 -0.482284,-0.92454 -0.482284,-1.85359 0,-2.77813 0.329683,-0.632 0.329683,-0.8232 0,-1.4552 -0.584164,-1.11984 -0.562396,-22.76927 0.0241,-23.97096 0.223803,-0.45855 1.650299,-1.84576 3.16999,-3.08269 l 2.763074,-2.24896 0.005,-1.32542 c 0.004,-1.06006 -0.105411,-1.39437 -0.546527,-1.66985 -0.515879,-0.32218 -0.545813,-0.53982 -0.46302,-3.36655 0.08824,-3.01276 0.09119,-3.02478 0.953499,-3.88639 l 0.864984,-0.86429 h 3.429407 3.429407 l 0.864984,0.86429 c 0.86231,0.86161 0.865258,0.87363 0.9535,3.88639 0.08279,2.82673 0.05286,3.04437 -0.463021,3.36655 -0.443442,0.27693 -0.548866,0.6042 -0.537911,1.66985 l 0.01363,1.32542 2.759881,2.24896 c 1.5179345,1.23693 2.940553,2.62414 3.1613744,3.08269 0.5814697,1.20748 0.598342,22.85974 0.018679,23.97096 -0.3296836,0.632 -0.3296836,0.8232 0,1.4552 0.2087549,0.40019 0.3795544,1.02526 0.3795544,1.38907 0,0.3638 -0.1707995,0.98888 -0.3795544,1.38906 -0.3296836,0.632 -0.3296836,0.82321 0,1.45521 0.4822839,0.92453 0.4822839,1.85359 0,2.77812 -0.3296836,0.632 -0.3296836,0.82321 0,1.45521 0.2087549,0.40018 0.3795544,1.02526 0.3795544,1.38906 0,0.36381 -0.1707995,0.98888 -0.3795544,1.38907 -0.3296836,0.632 -0.3296836,0.8232 0,1.4552 0.2256303,0.43254 0.3802154,1.49327 0.3811844,2.61562 0.00232,2.68514 -0.9144463,4.41726 -2.8819408,5.44509 l -1.410189,0.73669 h -6.289574 -6.289574 z m 14.56839,-1.81271 c 1.1504754,-0.67961 1.5980391,-1.68508 1.5980391,-3.59007 0,-0.96338 -0.1367458,-1.82894 -0.3175,-2.0097 -0.4535161,-0.45351 -15.8448181,-0.45351 -16.2983341,0 -0.479896,0.4799 -0.40213,3.55863 0.111867,4.42876 0.89717,1.51879 1.248865,1.58901 7.996477,1.5967 5.251709,0.006 6.286609,-0.0578 6.909451,-0.42569 z m 1.4356793,-8.62925 c 0.2128691,-0.3376 0.2128701,-0.58843 3.6e-6,-0.92604 -0.2656958,-0.42139 -1.0000689,-0.46932 -8.1688129,-0.53315 -8.105221,-0.0722 -8.602165,-0.0158 -8.602165,0.97565 0,1.04762 0.348808,1.08904 8.56081,1.01651 7.208257,-0.0637 7.9443957,-0.11146 8.2101643,-0.53297 z m 0,-4.23333 c 0.2128691,-0.33761 0.2128701,-0.58843 3.6e-6,-0.92604 -0.2656958,-0.4214 -1.0000689,-0.46933 -8.1688129,-0.53316 -8.105221,-0.0722 -8.602165,-0.0158 -8.602165,0.97566 0,1.04762 0.348808,1.08904 8.56081,1.0165 7.208257,-0.0637 7.9443957,-0.11145 8.2101643,-0.53296 z m 0,-4.23333 c 0.2128691,-0.33761 0.2128701,-0.58844 3.6e-6,-0.92604 -0.2656958,-0.4214 -1.0000689,-0.46933 -8.1688129,-0.53316 -8.105221,-0.0722 -8.602165,-0.0158 -8.602165,0.97566 0,1.04762 0.348808,1.08903 8.56081,1.0165 7.208257,-0.0637 7.9443957,-0.11146 8.2101643,-0.53296 z M -9.5726199,905.575 c 0.174625,-0.17463 0.3175,-0.65088 0.3175,-1.05834 v -0.74083 h -8.4666671 -8.466667 v 0.74083 c 0,0.40746 0.142875,0.88371 0.3175,1.05834 0.453516,0.45351 15.844818,0.45351 16.2983341,0 z m 0.3175,-11.32417 v -7.40833 h -8.4666671 -8.466667 v 7.40833 7.40833 h 8.466667 8.4666671 z m -10.6880821,4.692 c -1.347888,-0.77275 -2.078724,-2.10515 -1.933072,-3.52421 0.141699,-1.38053 3.408279,-6.45946 4.154487,-6.45946 0.746208,0 4.012789,5.07893 4.154487,6.45946 0.224934,2.19147 -1.717144,4.11517 -4.154487,4.11517 -0.748066,0 -1.573772,-0.21966 -2.221415,-0.59096 z m 3.725717,-2.09229 c 0.336801,-0.31641 0.612365,-0.82139 0.612365,-1.12219 0,-0.56269 -1.758959,-3.3296 -2.116667,-3.3296 -0.344479,0 -2.116667,2.75668 -2.116667,3.29253 0,1.53239 2.404404,2.30217 3.620969,1.15926 z m 6.9129829,-12.97633 c -0.069713,-0.71607 -0.5213996,-1.22144 -2.8377439,-3.175 l -2.754833,-2.32338 h -2.824708 -2.824707 l -2.754834,2.32338 c -2.316344,1.95356 -2.768031,2.45893 -2.837744,3.175 l -0.08291,0.85162 h 8.500194 8.5001943 z m -6.3006179,-8.67338 v -1.05833 h -2.116667 -2.116667 v 1.05833 1.05833 h 2.116667 2.116667 z m 1.058333,-4.97417 c 0,-1.04657 -0.13281,-1.93197 -0.3175,-2.11666 -0.432454,-0.43246 -5.282545,-0.43246 -5.715,0 -0.18469,0.18469 -0.3175,1.07009 -0.3175,2.11666 v 1.79917 h 3.175 3.175 z m 12.4085719,58.21248 c -1.9674949,-1.02783 -2.8842595,-2.75995 -2.8819413,-5.44509 9.69e-4,-1.12235 0.1555541,-2.18308 0.3811844,-2.61562 0.3296836,-0.632 0.3296836,-0.8232 0,-1.4552 -0.2087549,-0.40019 -0.3795544,-1.02526 -0.3795544,-1.38907 0,-0.3638 0.1707995,-0.98888 0.3795544,-1.38906 0.3296836,-0.632 0.3296836,-0.82321 0,-1.45521 -0.4822839,-0.92453 -0.4822839,-1.85359 0,-2.77812 0.3296836,-0.632 0.3296836,-0.82321 0,-1.45521 -0.2087549,-0.40018 -0.3795544,-1.02526 -0.3795544,-1.38906 0,-0.36381 0.1707995,-0.98888 0.3795544,-1.38907 0.3296836,-0.632 0.3296836,-0.8232 0,-1.4552 -0.4822839,-0.92454 -0.4822839,-1.85359 0,-2.77813 0.3296836,-0.632 0.3296836,-0.82321 0,-1.45521 -0.4822839,-0.92453 -0.4822839,-1.85359 0,-2.77812 0.3296836,-0.632 0.3296836,-0.82321 0,-1.45521 -0.4816054,-0.92324 -0.4823898,-1.85339 -0.00234,-2.77362 0.3286284,-0.62996 0.3260693,-0.82562 -0.019868,-1.51907 -0.3153951,-0.63222 -0.3797238,-1.66642 -0.3126995,-5.02722 l 0.084384,-4.23125 0.79375,-0.75655 c 0.4540916,-0.43281 3.59593222,-2.04084 7.3421878,-3.75781 L 9.79488,876.68979 v -1.21 c 0,-0.93982 -0.1231552,-1.28692 -0.5515363,-1.55444 -0.5158793,-0.32218 -0.5458137,-0.53982 -0.4630208,-3.36655 0.088242,-3.01276 0.09119,-3.02478 0.9534994,-3.88639 l 0.8649837,-0.86429 h 3.429407 3.429407 l 0.864984,0.86429 c 0.86231,0.86161 0.865258,0.87363 0.9535,3.88639 0.08279,2.82673 0.05286,3.04437 -0.463021,3.36655 -0.427701,0.2671 -0.551536,0.61471 -0.551536,1.54817 v 1.20374 l 6.548437,2.99802 c 3.865969,1.76993 6.873586,3.31182 7.342188,3.76407 l 0.79375,0.76605 0.08438,4.23125 c 0.06702,3.3608 0.0027,4.395 -0.312699,5.02722 -0.345938,0.69345 -0.348497,0.88911 -0.01987,1.51907 0.48005,0.92023 0.479266,1.85038 -0.0023,2.77362 -0.329684,0.632 -0.329684,0.82321 0,1.45521 0.482283,0.92453 0.482283,1.85359 0,2.77812 -0.329684,0.632 -0.329684,0.82321 0,1.45521 0.482283,0.92454 0.482283,1.85359 0,2.77813 -0.329684,0.632 -0.329684,0.8232 0,1.4552 0.208754,0.40019 0.379554,1.02526 0.379554,1.38907 0,0.3638 -0.1708,0.98888 -0.379554,1.38906 -0.329684,0.632 -0.329684,0.82321 0,1.45521 0.208754,0.40018 0.379554,1.02526 0.379554,1.38906 0,0.3638 -0.1708,0.98888 -0.379554,1.38906 -0.329684,0.632 -0.329684,0.82321 0,1.45521 0.208754,0.40018 0.379554,1.02526 0.379554,1.38906 0,0.36381 -0.1708,0.98888 -0.379554,1.38907 -0.329684,0.632 -0.329684,0.8232 0,1.4552 0.22563,0.43254 0.380215,1.49327 0.381184,2.61562 0.0023,2.68514 -0.914446,4.41726 -2.881941,5.44509 l -1.410189,0.73669 H 14.028214 -0.72802649 Z m 31.5017241,-1.81271 c 1.150475,-0.67961 1.598039,-1.68508 1.598039,-3.59007 0,-0.96338 -0.136746,-1.82894 -0.3175,-2.0097 -0.458719,-0.45872 -32.7729479,-0.45872 -33.2316677,0 -0.4798965,0.4799 -0.4021302,3.55863 0.1118669,4.42876 0.9716427,1.64486 0.3954705,1.58898 16.4631438,1.5967 13.088962,0.006 14.721323,-0.0389 15.376118,-0.42569 z m 1.43559,-8.62925 c 0.21299,-0.33769 0.21299,-0.58834 1e-6,-0.92604 -0.272216,-0.4316 -1.401269,-0.46765 -16.637839,-0.5312 -11.8531825,-0.0494 -16.4448301,0.014 -16.7060931,0.23084 -0.4460319,0.37017 -0.465308,1.0817 -0.040805,1.5062 0.2441992,0.2442 4.180855,0.30343 16.7060921,0.25135 15.275465,-0.0635 16.406413,-0.0995 16.678644,-0.53115 z m 0,-4.23333 c 0.21299,-0.3377 0.21299,-0.58835 1e-6,-0.92604 -0.272216,-0.4316 -1.401269,-0.46765 -16.637839,-0.5312 -11.8531825,-0.0494 -16.4448301,0.014 -16.7060931,0.23083 -0.4460319,0.37018 -0.465308,1.0817 -0.040805,1.50621 0.2441992,0.24419 4.180855,0.30342 16.7060921,0.25135 15.275465,-0.0635 16.406413,-0.0995 16.678644,-0.53115 z M -0.78845292,909.0675 c 0,-0.98274 -0.0529167,-1.05834 -0.74083338,-1.05834 -0.8283401,0 -1.3758334,0.42115 -1.3758334,1.05834 0,0.63718 0.5474933,1.05833 1.3758334,1.05833 0.68791671,0 0.74083338,-0.0756 0.74083338,-1.05833 z m 27.51666792,-6.35 v -7.40834 H 14.028214 1.3282138 v 7.40834 7.40833 H 14.028214 26.728215 Z m -14.921416,4.692 c -1.347888,-0.77276 -2.0787241,-2.10516 -1.9330714,-3.52421 0.1416984,-1.38053 3.4082794,-6.45946 4.1544864,-6.45946 0.746208,0 4.012789,5.07893 4.154487,6.45946 0.224934,2.19147 -1.717143,4.11517 -4.154487,4.11517 -0.748066,0 -1.573772,-0.21966 -2.221415,-0.59096 z m 3.725717,-2.09229 c 0.336801,-0.31641 0.612365,-0.82139 0.612365,-1.12219 0,-0.56269 -1.758959,-3.32961 -2.116667,-3.32961 -0.344479,0 -2.116666,2.75669 -2.116666,3.29253 0,1.53239 2.404403,2.30217 3.620968,1.15927 z m 15.268704,4.21331 c 0.422371,-0.67457 -0.109062,-1.37107 -1.123126,-1.47197 -0.813351,-0.0809 -0.833213,-0.0569 -0.833213,1.00895 0,1.06583 0.01986,1.08988 0.833213,1.00895 0.458267,-0.0456 0.963674,-0.29127 1.123126,-0.54593 z m -31.58967292,-4.69636 c 0,-0.98273 -0.0529167,-1.05833 -0.74083338,-1.05833 -0.8283401,0 -1.3758334,0.42115 -1.3758334,1.05833 0,0.63719 0.5474933,1.05834 1.3758334,1.05834 0.68791671,0 0.74083338,-0.0756 0.74083338,-1.05834 z M 30.80122,905.29718 c 0.422371,-0.67457 -0.109062,-1.37106 -1.123126,-1.47197 -0.813351,-0.0809 -0.833213,-0.0569 -0.833213,1.00895 0,1.06584 0.01986,1.08989 0.833213,1.00895 0.458267,-0.0456 0.963674,-0.29126 1.123126,-0.54593 z m -31.58967292,-4.69635 c 0,-0.98274 -0.0529167,-1.05833 -0.74083338,-1.05833 -0.8283401,0 -1.3758334,0.42115 -1.3758334,1.05833 0,0.63718 0.5474933,1.05833 1.3758334,1.05833 0.68791671,0 0.74083338,-0.0756 0.74083338,-1.05833 z M 30.80122,901.06385 c 0.422371,-0.67457 -0.109062,-1.37107 -1.123126,-1.47197 -0.813351,-0.0809 -0.833213,-0.0569 -0.833213,1.00895 0,1.06583 0.01986,1.08988 0.833213,1.00895 0.458267,-0.0456 0.963674,-0.29127 1.123126,-0.54593 z M -0.78845292,896.3675 c 0,-0.98274 -0.0529167,-1.05834 -0.74083338,-1.05834 -0.8283401,0 -1.3758334,0.42115 -1.3758334,1.05834 0,0.63718 0.5474933,1.05833 1.3758334,1.05833 0.68791671,0 0.74083338,-0.0756 0.74083338,-1.05833 z M 30.80122,896.83052 c 0.422371,-0.67457 -0.109062,-1.37107 -1.123126,-1.47197 -0.813351,-0.0809 -0.833213,-0.0569 -0.833213,1.00895 0,1.06583 0.01986,1.08988 0.833213,1.00895 0.458267,-0.0456 0.963674,-0.29127 1.123126,-0.54593 z M 30.644048,892.875 c 0.207652,-0.20766 0.3175,-1.30375 0.3175,-3.16811 v -2.85061 l -4.006447,-0.073 c -3.478942,-0.0634 -4.044851,-0.134 -4.298126,-0.53606 -0.212354,-0.33709 -0.212443,-0.58894 -3.29e-4,-0.92604 0.24827,-0.39455 0.848664,-0.48258 4.060462,-0.59531 l 3.769111,-0.13229 -6.727253,-3.10886 -6.727254,-3.10885 h -2.969623 -2.969623 l -6.7594815,3.10885 -6.7594817,3.10886 11.1752059,0.13229 c 10.2704943,0.12158 11.1988403,0.16978 11.4671483,0.59531 0.212875,0.33762 0.212858,0.58843 -6e-5,0.92604 -0.269612,0.42752 -1.167276,0.46831 -11.7064598,0.53198 l -11.4144569,0.069 v 2.85469 c 0,1.86753 0.1097917,2.96448 0.3175,3.17219 0.4587198,0.45872 32.7729487,0.45872 33.2316677,0 z M 16.144881,875.20083 v -1.05833 h -2.116667 -2.116666 v 1.05833 1.05833 h 2.116666 2.116667 z m 1.058333,-4.97417 c 0,-1.04657 -0.13281,-1.93197 -0.3175,-2.11666 -0.432454,-0.43246 -5.282545,-0.43246 -5.715,0 -0.184689,0.18469 -0.3175,1.07009 -0.3175,2.11666 v 1.79917 h 3.175 3.175 z"
         id="path12914" /></g></g></svg>
