<?xml version="1.0" encoding="UTF-8" standalone="no"?>
<!-- Created with Inkscape (http://www.inkscape.org/) -->

<svg
   width="21.075262mm"
   height="18.540342mm"
   viewBox="0 0 21.075262 18.540342"
   version="1.1"
   id="svg1"
   xml:space="preserve"
   xmlns="http://www.w3.org/2000/svg"
   xmlns:svg="http://www.w3.org/2000/svg"><defs
     id="defs1" /><g
     id="layer1"
     transform="translate(-316.93137,-1229.3106)"><g
       id="g13056"
       transform="translate(44.597964,-8.1880998)"><path
         style="fill:#fcf2f2"
         d="m 272.74067,1255.7536 c -0.15666,-0.1567 -0.28483,-0.6505 -0.28483,-1.0974 v -0.8126 l 4.68316,-8.0705 4.68316,-8.0705 h 1.05216 1.05215 l 4.70377,8.1175 4.70378,8.1174 -0.13335,0.9391 -0.13335,0.9392 -10.02092,0.1113 -10.02091,0.1113 z m 10.71554,-1.648 0.65865,-0.2527 v -0.7373 -0.7372 l -0.62459,-0.5184 -0.62459,-0.5183 -0.62459,0.5183 -0.62459,0.5184 v 0.7471 0.7471 l 0.52049,0.21 c 0.28627,0.1155 0.55201,0.2248 0.59053,0.2429 0.0385,0.018 0.36644,-0.081 0.72869,-0.2199 z m 0.65865,-8.6997 v -4.7885 h -1.24918 -1.24918 v 4.7885 4.7885 h 1.24918 1.24918 z"
         id="path13080" /><path
         style="fill:#f9e6e6"
         d="m 272.74067,1255.7536 c -0.15666,-0.1567 -0.2742,-0.6752 -0.26121,-1.1523 l 0.0236,-0.8675 4.50573,-7.6914 4.50572,-7.6914 0.67558,-0.4262 0.67557,-0.4261 0.67584,0.4263 0.67584,0.4263 4.55363,7.829 4.55362,7.829 -0.12865,0.9032 -0.12864,0.9033 -10.02092,0.1113 -10.02091,0.1113 z m 11.29018,-2.4726 0.1242,-0.8693 -0.64469,-0.535 -0.64468,-0.535 -0.62459,0.5183 -0.62459,0.5184 v 0.7124 c 0,0.9718 0.43123,1.3255 1.44024,1.181 l 0.84992,-0.1216 z m 0.084,-7.8751 v -4.7885 h -1.24918 -1.24918 v 4.7885 4.7885 h 1.24918 1.24918 z"
         id="path13079" /><path
         style="fill:#f6d6d7"
         d="m 272.74067,1255.7536 c -0.15666,-0.1567 -0.27009,-0.6752 -0.25208,-1.1523 l 0.0328,-0.8675 4.65215,-7.9115 4.65215,-7.9115 h 1.0405 1.04051 l 4.66569,7.9115 4.6657,7.9115 -0.0854,1.041 -0.0854,1.041 -10.02092,0.1113 -10.02091,0.1113 z m 11.29261,-2.6953 0.12663,-1.0919 -0.64712,-0.2483 -0.64711,-0.2483 -0.62459,0.2396 -0.62459,0.2397 v 0.927 c 0,1.1833 0.3764,1.548 1.44024,1.3957 l 0.84992,-0.1216 z m 0.0816,-7.4442 v -4.9967 h -1.24918 -1.24918 v 4.9967 4.9967 h 1.24918 1.24918 z"
         id="path13078" /><path
         style="fill:#f4c9ca"
         d="m 272.74067,1255.7536 c -0.15666,-0.1567 -0.28483,-0.6019 -0.28483,-0.9895 v -0.7046 l 4.69804,-8.0743 4.69804,-8.0744 h 1.01932 1.01932 l 4.71076,8.0971 4.71075,8.0971 -0.12237,0.8554 -0.12238,0.8554 -10.02092,0.1113 -10.02091,0.1113 z m 11.29261,-2.6953 0.12663,-1.0919 -0.64712,-0.2483 -0.64711,-0.2483 -0.62459,0.2396 -0.62459,0.2397 v 0.927 c 0,1.1833 0.3764,1.548 1.44024,1.3957 l 0.84992,-0.1216 z m 0.0816,-7.4442 v -4.9967 h -1.24918 -1.24918 v 4.9967 4.9967 h 1.24918 1.24918 z"
         id="path13077" /><path
         style="fill:#f3c3c4"
         d="m 272.74067,1255.7536 c -0.15666,-0.1567 -0.28483,-0.5897 -0.28483,-0.9624 v -0.6775 l 4.70359,-8.1014 4.70358,-8.1015 h 1.01785 1.01785 l 4.69963,8.1197 4.69963,8.1197 -0.11533,0.8328 -0.11532,0.8328 -10.02092,0.1113 -10.02091,0.1113 z m 11.29261,-2.6953 0.12663,-1.0919 -0.64712,-0.2483 -0.64711,-0.2483 -0.62459,0.2396 -0.62459,0.2397 v 0.927 c 0,1.1833 0.3764,1.548 1.44024,1.3957 l 0.84992,-0.1216 z m 0.0816,-7.6524 v -5.2049 h -1.24918 -1.24918 v 5.2049 5.2049 h 1.24918 1.24918 z"
         id="path13076" /><path
         style="fill:#f3c2c3"
         d="m 272.74067,1255.7536 c -0.15666,-0.1567 -0.28483,-0.5897 -0.28483,-0.9624 v -0.6775 l 4.70359,-8.1014 4.70358,-8.1015 h 1.00267 1.00266 l 4.71687,8.1197 4.71686,8.1197 -0.11738,0.8328 -0.11737,0.8328 -10.02092,0.1113 -10.02091,0.1113 z m 11.29261,-2.6953 0.12663,-1.0919 -0.64712,-0.2483 -0.64711,-0.2483 -0.62459,0.2396 -0.62459,0.2397 v 0.927 c 0,1.1833 0.3764,1.548 1.44024,1.3957 l 0.84992,-0.1216 z m 0.0816,-7.6788 v -5.2313 l -1.35328,0.1305 -1.35328,0.1305 -0.11897,4.5536 c -0.0654,2.5044 -0.0245,4.7998 0.091,5.1008 l 0.21,0.5472 h 1.26225 1.26225 z"
         id="path13075" /><path
         style="fill:#f1b9b9"
         d="m 272.74067,1255.7536 c -0.15666,-0.1567 -0.28481,-0.5815 -0.28478,-0.9441 l 4e-5,-0.6593 4.70352,-8.1197 4.70353,-8.1197 h 1.0027 1.0027 l 4.71222,8.1197 4.71221,8.1197 -0.11275,0.8328 -0.11274,0.8328 -10.02092,0.1113 -10.02091,0.1113 z m 11.29261,-2.6953 0.12663,-1.0919 -0.64712,-0.2483 -0.64711,-0.2483 -0.62459,0.2396 -0.62459,0.2397 v 0.927 c 0,1.1833 0.3764,1.548 1.44024,1.3957 l 0.84992,-0.1216 z m 0.28977,-7.6524 v -4.9967 h -1.45737 -1.45738 l -0.11897,4.5536 c -0.0654,2.5044 -0.0199,4.8118 0.10124,5.1274 l 0.2202,0.5738 1.35614,-0.1307 1.35614,-0.1307 z"
         id="path13074" /><path
         style="fill:#eea9aa"
         d="m 272.74067,1255.7536 c -0.15666,-0.1567 -0.28148,-0.5815 -0.27739,-0.9441 l 0.007,-0.6593 4.70014,-8.1197 4.70014,-8.1197 h 0.99467 0.99467 l 4.70876,8.1197 4.70875,8.1197 -0.10527,0.8328 -0.10527,0.8328 -10.02092,0.1113 -10.02091,0.1113 z m 11.31819,-2.1132 0.40178,-0.7179 -0.39574,-0.7394 -0.39574,-0.7395 h -0.79744 -0.79745 l -0.40178,0.718 -0.40177,0.7179 0.39573,0.7394 0.39574,0.7395 h 0.79745 0.79744 z m 0.26419,-8.2345 v -4.9967 h -1.45737 -1.45738 l -0.11897,4.5536 c -0.0654,2.5044 -0.0199,4.8118 0.10124,5.1274 l 0.2202,0.5738 1.35614,-0.1307 1.35614,-0.1307 z"
         id="path13073" /><path
         style="fill:#ed9fa1"
         d="m 272.74067,1255.7536 c -0.15666,-0.1567 -0.28191,-0.5815 -0.27834,-0.9441 l 0.006,-0.6593 4.72442,-8.1197 4.72441,-8.1197 h 0.94804 0.94803 l 4.73305,8.1197 4.73306,8.1197 -0.10625,0.8328 -0.10625,0.8328 -10.02092,0.1113 -10.02091,0.1113 z m 11.3521,-1.9932 0.49627,-0.598 -0.45994,-0.8594 -0.45994,-0.8594 h -0.80348 -0.80349 l -0.45994,0.8594 -0.45994,0.8594 0.49628,0.598 0.49627,0.598 h 0.73082 0.73081 z m 0.3472,-8.2504 -0.11692,-5.1008 h -1.45737 -1.45738 l -0.11691,5.1008 -0.11692,5.1008 h 1.69121 1.6912 z"
         id="path13072" /><path
         style="fill:#eb9798"
         d="m 272.74079,1255.7537 c -0.65324,-0.6532 -0.0388,-1.9903 4.46847,-9.7232 l 4.73269,-8.1197 h 0.92484 0.92485 l 4.80852,8.2799 4.80852,8.2799 -0.42397,0.6726 -0.42397,0.6726 -9.7675,0.1114 -9.7675,0.1115 z m 11.35198,-1.9933 0.49627,-0.598 -0.45994,-0.8594 -0.45994,-0.8594 h -0.80348 -0.80349 l -0.45994,0.8594 -0.45994,0.8594 0.49628,0.598 0.49627,0.598 h 0.73082 0.73081 z m 0.3472,-8.2504 -0.11692,-5.1008 h -1.45737 -1.45738 l -0.11691,5.1008 -0.11692,5.1008 h 1.69121 1.6912 z"
         id="path13071" /><path
         style="fill:#e88687"
         d="m 272.86825,1255.3946 -0.53485,-0.6445 0.44621,-0.9245 c 0.24541,-0.5086 2.4062,-4.2974 4.80174,-8.4197 l 4.35554,-7.4951 h 0.92583 0.92584 l 4.79993,8.296 4.79993,8.2959 -0.41383,0.6565 -0.41382,0.6566 -9.57884,0.1116 -9.57883,0.1116 z m 11.27557,-1.6957 0.54734,-0.6595 -0.43763,-0.6938 -0.43763,-0.6938 h -0.95022 -0.95022 l -0.43763,0.6938 -0.43763,0.6938 0.54733,0.6595 0.54733,0.6595 h 0.73082 0.73081 z m 0.38743,-8.293 v -5.2049 h -1.66557 -1.66558 v 5.2049 5.2049 h 1.66558 1.66557 z"
         id="path13070" /><path
         style="fill:#e57778"
         d="m 272.96296,1255.5317 c -0.27891,-0.2789 -0.50712,-0.6671 -0.50712,-0.8626 0,-0.1956 2.16995,-4.093 4.82211,-8.661 l 4.82211,-8.3055 h 0.76562 0.76561 l 4.87776,8.4013 4.87776,8.4013 -0.41302,0.6553 -0.41302,0.6553 -9.54534,0.1115 -9.54534,0.1116 z m 11.18086,-1.8328 0.54734,-0.6595 -0.43763,-0.6938 -0.43763,-0.6938 h -0.95022 -0.95022 l -0.43763,0.6938 -0.43763,0.6938 0.54733,0.6595 0.54733,0.6595 h 0.73082 0.73081 z m 0.38743,-8.293 v -5.2049 h -1.66557 -1.66558 v 5.2049 5.2049 h 1.66558 1.66557 z"
         id="path13069" /><path
         style="fill:#e26768"
         d="m 272.87026,1255.397 -0.53284,-0.6421 0.37151,-0.7586 c 0.20432,-0.4173 2.33896,-4.1561 4.74363,-8.3085 l 4.37213,-7.5498 0.5205,-0.2046 c 0.28627,-0.1126 0.75471,-0.1111 1.04098,0 l 0.52049,0.2078 4.73338,8.1911 4.73339,8.1911 -0.40633,0.6446 -0.40633,0.6447 -9.57884,0.1116 -9.57883,0.1116 z m 11.27356,-1.6981 0.54734,-0.6595 -0.43763,-0.6938 -0.43763,-0.6938 h -0.95022 -0.95022 l -0.43763,0.6938 -0.43763,0.6938 0.54733,0.6595 0.54733,0.6595 h 0.73082 0.73081 z m 0.38743,-8.293 v -5.2049 h -1.66557 -1.66558 v 5.2049 5.2049 h 1.66558 1.66557 z"
         id="path13068" /><path
         style="fill:#e15f61"
         d="m 272.89011,1255.4209 c -0.28215,-0.34 -0.44844,-0.788 -0.36954,-0.9956 0.0789,-0.2076 2.20462,-3.954 4.7238,-8.3252 l 4.58032,-7.9478 0.5205,-0.2118 c 0.28627,-0.1164 0.75471,-0.1155 1.04098,0 l 0.52049,0.2138 4.72495,8.1984 4.72495,8.1984 -0.3979,0.6313 -0.39789,0.6313 -9.57884,0.1116 -9.57883,0.1116 z m 11.00761,-1.3213 0.67513,-0.6751 -0.1249,-0.6335 c -0.0687,-0.3484 -0.45281,-0.84 -0.85358,-1.0924 l -0.72869,-0.4589 -0.72869,0.4589 c -0.40078,0.2524 -0.78489,0.744 -0.85359,1.0924 l -0.12489,0.6335 0.67513,0.6751 c 0.37132,0.3714 0.83574,0.6752 1.03204,0.6752 0.1963,0 0.66071,-0.3038 1.03204,-0.6752 z m 0.63353,-8.6937 v -5.2049 h -1.66557 -1.66558 v 5.2049 5.2049 h 1.66558 1.66557 z"
         id="path13067" /><path
         style="fill:#e05658"
         d="m 272.89011,1255.4209 c -0.28215,-0.34 -0.44844,-0.7823 -0.36954,-0.9831 0.0789,-0.2007 2.20462,-3.9469 4.7238,-8.3249 l 4.58032,-7.96 0.5205,-0.212 c 0.28627,-0.1167 0.75471,-0.1157 1.04098,0 l 0.52049,0.2144 4.72017,8.2045 4.72018,8.2046 -0.39312,0.6246 -0.39312,0.6246 -9.57884,0.1116 -9.57883,0.1116 z m 11.00761,-1.3213 0.67513,-0.6751 -0.1249,-0.6335 c -0.0687,-0.3484 -0.45281,-0.84 -0.85358,-1.0924 l -0.72869,-0.4589 -0.72869,0.4589 c -0.40078,0.2524 -0.78489,0.744 -0.85359,1.0924 l -0.12489,0.6335 0.67513,0.6751 c 0.37132,0.3714 0.83574,0.6752 1.03204,0.6752 0.1963,0 0.66071,-0.3038 1.03204,-0.6752 z m 0.63353,-8.6937 v -5.2049 h -1.66557 -1.66558 v 5.2049 5.2049 h 1.66558 1.66557 z"
         id="path13066" /><path
         style="fill:#df5556"
         d="m 272.86505,1255.3907 -0.52556,-0.6333 4.47212,-7.7987 c 2.45966,-4.2893 4.81784,-8.158 5.24039,-8.5972 l 0.76827,-0.7985 0.63539,0.5273 c 0.56874,0.472 7.36775,11.8724 9.16114,15.3611 l 0.71103,1.3832 -0.49354,0.5947 -0.49353,0.5946 h -9.47508 -9.47508 z m 11.03267,-1.2911 0.67513,-0.6751 -0.1249,-0.6335 c -0.0687,-0.3484 -0.45281,-0.84 -0.85358,-1.0924 l -0.72869,-0.4589 -0.72869,0.4589 c -0.40078,0.2524 -0.78489,0.744 -0.85359,1.0924 l -0.12489,0.6335 0.67513,0.6751 c 0.37132,0.3714 0.83574,0.6752 1.03204,0.6752 0.1963,0 0.66071,-0.3038 1.03204,-0.6752 z m 0.63353,-8.6937 v -5.2049 h -1.66557 -1.66558 v 5.2049 5.2049 h 1.66558 1.66557 z"
         id="path13065" /><path
         style="fill:#dc4446"
         d="m 272.86505,1255.3907 -0.52556,-0.6333 4.47212,-7.7987 c 2.45966,-4.2893 4.82806,-8.1682 5.26309,-8.6199 l 0.79098,-0.8212 0.79097,0.8212 c 0.43504,0.4517 2.80343,4.3306 5.26309,8.6199 l 4.47212,7.7987 -0.52555,0.6333 -0.52555,0.6332 h -9.47508 -9.47508 z m 11.03267,-1.2911 0.67513,-0.6751 -0.1249,-0.6335 c -0.0687,-0.3484 -0.45281,-0.84 -0.85358,-1.0924 l -0.72869,-0.4589 -0.72869,0.4589 c -0.40078,0.2524 -0.78489,0.744 -0.85359,1.0924 l -0.12489,0.6335 0.67513,0.6751 c 0.37132,0.3714 0.83574,0.6752 1.03204,0.6752 0.1963,0 0.66071,-0.3038 1.03204,-0.6752 z m 0.63353,-8.6937 v -5.2049 h -1.66557 -1.66558 v 5.2049 5.2049 h 1.66558 1.66557 z"
         id="path13064" /><path
         style="fill:#db3e40"
         d="m 272.89432,1255.426 -0.49627,-0.598 0.50185,-0.9635 c 1.71309,-3.2889 8.5573,-14.8437 9.19633,-15.5257 l 0.76945,-0.8212 0.7866,0.8212 c 0.43264,0.4517 2.8,4.3319 5.26081,8.6227 l 4.4742,7.8014 -0.52327,0.6305 -0.52326,0.6305 h -9.47508 -9.47508 z m 10.97803,-1.1992 0.74946,-0.5481 -0.14938,-0.7606 -0.14938,-0.7606 -0.72868,-0.4589 -0.72869,-0.4589 -0.72869,0.4589 -0.72869,0.4589 -0.14938,0.7606 -0.14937,0.7606 0.74945,0.5481 c 0.4122,0.3014 0.8652,0.548 1.00668,0.548 0.14147,0 0.59447,-0.2466 1.00667,-0.548 z m 0.6589,-8.8209 v -5.2049 h -1.66557 -1.66558 v 5.2049 5.2049 h 1.66558 1.66557 z"
         id="path13063" /><path
         style="fill:#d93537"
         d="m 272.88737,1255.4176 c -0.27677,-0.3335 -0.42243,-0.7551 -0.32369,-0.9369 2.32115,-4.2734 9.30859,-16.0556 9.72847,-16.404 l 0.57353,-0.476 0.57352,0.476 c 0.41989,0.3484 7.40733,12.1306 9.72847,16.404 0.0987,0.1818 -0.0469,0.6034 -0.32369,0.9369 l -0.50322,0.6063 h -9.47508 -9.47508 z m 10.98498,-1.1908 0.74946,-0.5481 -0.14938,-0.7606 -0.14938,-0.7606 -0.72868,-0.4589 -0.72869,-0.4589 -0.72869,0.4589 -0.72869,0.4589 -0.14938,0.7606 -0.14937,0.7606 0.74945,0.5481 c 0.4122,0.3014 0.8652,0.548 1.00668,0.548 0.14147,0 0.59447,-0.2466 1.00667,-0.548 z m 0.6589,-8.8209 v -5.2049 h -1.66557 -1.66558 v 5.2049 5.2049 h 1.66558 1.66557 z"
         id="path13062" /><path
         style="fill:#d82f31"
         d="m 273.10156,1255.361 -0.66295,-0.6629 1.33929,-2.356 c 4.02407,-7.0786 7.96468,-13.6731 8.49127,-14.2099 l 0.59981,-0.6113 0.7675,0.8195 c 0.5697,0.6084 6.26027,10.2533 9.4923,16.0885 0.0849,0.1533 -0.14178,0.5749 -0.50377,0.9369 l -0.65816,0.6581 h -9.10117 -9.10117 z m 10.78692,-1.146 0.76557,-0.5598 -0.27753,-1.1058 -0.27753,-1.1058 h -1.23331 -1.23332 l -0.27753,1.1058 -0.27753,1.1058 0.76558,0.5598 c 0.42106,0.3079 0.88132,0.5598 1.0228,0.5598 0.14147,0 0.60173,-0.2519 1.0228,-0.5598 z m 0.64277,-8.8091 v -5.2049 h -1.66557 -1.66558 v 5.2049 5.2049 h 1.66558 1.66557 z"
         id="path13061" /><path
         style="fill:#d62527"
         d="m 273.111,1255.3704 -0.65351,-0.6535 0.38241,-0.7145 c 1.71781,-3.2097 8.95019,-15.3866 9.42499,-15.8685 l 0.60079,-0.6097 0.60079,0.6097 c 0.47479,0.4819 7.70718,12.6588 9.42498,15.8685 l 0.38241,0.7145 -0.65351,0.6535 -0.6535,0.6535 h -9.10117 -9.10117 z m 10.77748,-1.1554 0.76557,-0.5598 -0.27753,-1.1058 -0.27753,-1.1058 h -1.23331 -1.23332 l -0.26262,1.0464 -0.26263,1.0464 0.51387,0.6192 c 0.63672,0.7672 1.27658,0.7839 2.2675,0.059 z m 0.64277,-8.8091 v -5.2049 h -1.66557 -1.66558 v 5.2049 5.2049 h 1.66558 1.66557 z"
         id="path13060" /><path
         style="fill:#d51f21"
         d="m 273.111,1255.3704 -0.65351,-0.6535 0.38185,-0.6997 c 0.21001,-0.3849 2.34762,-4.0726 4.75023,-8.1949 l 4.36838,-7.4951 h 0.90773 0.90772 l 4.36839,7.4951 c 2.40261,4.1223 4.54021,7.81 4.75023,8.1949 l 0.38184,0.6997 -0.65351,0.6535 -0.6535,0.6535 h -9.10117 -9.10117 z m 10.98484,-1.1973 0.49934,-0.6017 -0.13606,-0.9598 -0.13607,-0.9598 h -1.45737 -1.45738 l -0.13606,0.9598 -0.13606,0.9598 0.49934,0.6017 0.49934,0.6017 h 0.73082 0.73081 z m 0.43541,-8.7672 v -5.2049 h -1.66557 -1.66558 v 5.2049 5.2049 h 1.66558 1.66557 z"
         id="path13059" /><path
         style="fill:#d4191b"
         d="m 273.39273,1255.7482 -0.5205,-0.21 v -0.7648 -0.7648 l 4.62573,-7.9448 4.62573,-7.9448 h 0.7537 0.7537 l 4.61401,7.9464 4.61402,7.9464 v 0.7533 0.7534 l -0.65865,0.2527 -0.65864,0.2527 -8.81431,-0.033 c -4.84786,-0.018 -9.04852,-0.1274 -9.33479,-0.2429 z m 10.70311,-1.5751 0.49934,-0.6017 -0.13606,-0.9598 -0.13607,-0.9598 h -1.45737 -1.45738 l -0.13606,0.9598 -0.13606,0.9598 0.49934,0.6017 0.49934,0.6017 h 0.73082 0.73081 z m 0.43541,-8.7672 v -5.2049 h -1.66557 -1.66558 v 5.2049 5.2049 h 1.66558 1.66557 z"
         id="path13058" /><path
         style="fill:#d41719"
         d="m 273.39273,1255.7482 -0.5205,-0.21 v -0.7308 -0.7308 l 4.62756,-7.9788 4.62756,-7.9788 h 0.74424 0.74424 l 4.62164,7.9704 4.62165,7.9704 v 0.7294 0.7293 l -0.65865,0.2527 -0.65864,0.2527 -8.81431,-0.033 c -4.84786,-0.018 -9.04852,-0.1274 -9.33479,-0.2429 z m 10.63885,-1.4731 0.49967,-0.4997 v -0.943 -0.9431 l -0.83279,-0.4457 -0.83278,-0.4457 -0.83279,0.4457 -0.83279,0.4457 v 0.9431 0.943 l 0.49968,0.4997 c 0.27481,0.2748 0.79947,0.4997 1.1659,0.4997 0.36642,0 0.89108,-0.2249 1.1659,-0.4997 z m 0.49967,-8.8692 v -5.2049 h -1.66557 -1.66558 v 5.2049 5.2049 h 1.66558 1.66557 z"
         id="path13057" /></g><path
       style="fill:#ffffff;fill-opacity:1;stroke-width:0.424898;stroke-miterlimit:9"
       d="m 1233.0811,4676.1229 v -18.0043 h 4.649 4.649 v 18.0043 18.0042 h -4.649 -4.649 z"
       id="path13081"
       transform="scale(0.26458333)" /><path
       style="fill:#ffffff;fill-opacity:1;stroke-width:0.424898;stroke-miterlimit:9"
       d="m 1235.7015,4709.5337 c -1.9099,-0.5008 -2.6225,-1.9309 -2.6173,-5.2517 v -1.9557 l 1.5892,-1.3102 1.5892,-1.3102 h 1.4084 1.4084 l 1.5215,1.2662 c 0.8368,0.6965 1.5487,1.3932 1.582,1.5482 0.033,0.1551 -0.074,1.4664 -0.2393,2.9141 -0.3912,3.4352 -0.5025,3.6263 -2.2687,3.8946 -1.8013,0.2737 -3.3852,0.3523 -3.9765,0.1972 z"
       id="path13082"
       transform="scale(0.26458333)" /></g></svg>
