<?xml version="1.0" encoding="UTF-8" standalone="no"?>
<!-- Created with Inkscape (http://www.inkscape.org/) -->

<svg
   width="67.702263mm"
   height="55.573338mm"
   viewBox="0 0 67.702263 55.573338"
   version="1.1"
   id="svg1"
   xml:space="preserve"
   xmlns="http://www.w3.org/2000/svg"
   xmlns:svg="http://www.w3.org/2000/svg"><defs
     id="defs1" /><g
     id="layer1"
     transform="translate(-120.57925,-206.30766)"><g
       id="g12865"
       transform="translate(92.690822,6.9538066)"><path
         style="fill:#fdc276"
         d="m 37.019256,254.302 c -1.589988,-0.75166 -2.562116,-1.73926 -3.285884,-3.33817 -0.517145,-1.14244 -0.539188,-1.68885 -0.544764,-13.50369 l -0.0058,-12.31307 -1.335827,-1.31297 c -5.229264,-5.1398 -5.281781,-11.83392 -0.132765,-16.92339 3.810306,-3.76624 9.539872,-6.3027 16.388916,-7.25532 3.305376,-0.45973 24.303954,-0.37194 27.535528,0.11512 11.236727,1.69361 19.426933,7.72808 19.924345,14.68007 0.246158,3.44038 -1.153977,6.76558 -4.006335,9.5147 l -1.223864,1.17956 -0.0026,12.31419 -0.0026,12.31418 -0.625409,1.32292 c -0.751668,1.58998 -1.739265,2.56211 -3.338171,3.28588 -1.168868,0.5291 -1.618512,0.53901 -24.606249,0.54218 l -23.415625,0.003 z"
         id="path12870" /><path
         style="fill:#dba866"
         d="m 37.019256,254.302 c -1.589988,-0.75166 -2.562116,-1.73926 -3.285884,-3.33817 -0.517145,-1.14244 -0.539188,-1.68885 -0.544764,-13.50369 l -0.0058,-12.31307 -1.335827,-1.31297 c -5.229264,-5.1398 -5.281781,-11.83392 -0.132765,-16.92339 3.810306,-3.76624 9.539872,-6.3027 16.388916,-7.25532 3.305376,-0.45973 24.303954,-0.37194 27.535528,0.11512 11.236727,1.69361 19.426933,7.72808 19.924345,14.68007 0.246158,3.44038 -1.153977,6.76558 -4.006335,9.5147 l -1.223864,1.17956 -0.0026,12.31419 -0.0026,12.31418 -0.625409,1.32292 c -0.751668,1.58998 -1.739265,2.56211 -3.338171,3.28588 -1.168868,0.5291 -1.618512,0.53901 -24.606249,0.54218 l -23.415625,0.003 z m 31.872928,-2.68607 c 0.504174,-0.29619 1.159018,-0.95104 1.455208,-1.45521 0.516288,-0.87882 0.543993,-1.44664 0.670821,-13.74897 l 0.132292,-12.83229 1.659769,-1.56747 c 3.888944,-3.67268 4.377535,-7.99072 1.356859,-11.99157 -3.586737,-4.7506 -11.653682,-7.77368 -20.743711,-7.77368 -9.09003,0 -17.156975,3.02308 -20.743711,7.77368 -3.038777,4.02483 -2.542976,8.24859 1.417081,12.0722 l 1.731839,1.67216 0.0015,12.21047 c 9.24e-4,7.64447 0.104468,12.58131 0.2769,13.20221 0.151483,0.54546 0.537772,1.29448 0.85842,1.66448 1.224542,1.41302 1.503188,1.4357 16.854871,1.37161 13.704513,-0.0572 14.184394,-0.0762 15.071887,-0.59762 z M 52.49738,241.968 c -0.291041,-0.29104 -0.529166,-0.74884 -0.529166,-1.01733 0,-0.62553 0.812696,-1.36392 1.50118,-1.36392 0.628513,0 1.409236,0.78109 1.409236,1.4099 0,0.54987 -0.92194,1.50052 -1.455208,1.50052 -0.218281,0 -0.635,-0.23813 -0.926042,-0.52917 z m -7.350302,-3.58747 c -1.353954,-0.94834 -1.070809,-1.32973 7.019573,-9.45513 4.183724,-4.20183 7.890732,-7.75184 8.237796,-7.88891 0.88274,-0.34863 1.882516,0.33282 1.882516,1.28312 0,0.58108 -1.425855,2.13549 -7.739062,8.43679 -4.256484,4.24846 -7.980839,7.79444 -8.276344,7.87995 -0.297476,0.0861 -0.799365,-0.0281 -1.124479,-0.25582 z m 11.583636,0.22885 c -0.522569,-0.18676 -1.058334,-0.87762 -1.058334,-1.36471 0,-0.21387 1.452416,-1.85799 3.227591,-3.6536 3.286213,-3.32403 4.073387,-3.79542 4.921576,-2.94724 0.848189,0.84819 0.376797,1.63537 -2.94724,4.92158 -1.795607,1.77517 -3.373185,3.21819 -3.505729,3.2067 -0.132544,-0.0115 -0.419583,-0.0847 -0.637864,-0.16273 z M 43.025297,228.9505 c -0.849328,-0.84933 -0.37745,-1.63472 2.971233,-4.9453 2.82771,-2.79553 3.374787,-3.22569 3.902604,-3.06858 0.702254,0.20904 1.27533,0.844 1.27533,1.41304 0,0.21388 -1.452416,1.85799 -3.227591,3.6536 -3.286213,3.32404 -4.073387,3.79543 -4.921576,2.94724 z m 9.34944,-9.46142 c -0.979632,-1.08248 0.271856,-2.77052 1.60402,-2.16355 1.331517,0.60668 0.901799,2.68205 -0.555335,2.68205 -0.318694,0 -0.790603,-0.23332 -1.048685,-0.5185 z"
         id="path12869" /><path
         style="fill:#fca630"
         d="m 37.43876,254.47827 c -1.561929,-0.55168 -3.26923,-2.3003 -3.817763,-3.91016 -0.382582,-1.12281 -0.438199,-2.81213 -0.438199,-13.30988 v -12.02384 l -1.623327,-1.73534 c -1.027563,-1.09847 -1.974312,-2.47028 -2.579687,-3.73788 -0.89517,-1.87442 -0.955691,-2.16337 -0.94588,-4.51609 0.0093,-2.24031 0.09847,-2.70048 0.819877,-4.23333 2.441467,-5.18759 8.328536,-9.00427 16.823369,-10.90685 2.224521,-0.49822 3.533447,-0.56063 13.96398,-0.66582 7.459068,-0.0752 12.509792,-0.0118 14.352168,0.18028 6.937213,0.72318 13.129581,3.204 17.209118,6.89439 5.539412,5.01101 5.829962,11.55877 0.753706,16.9853 l -1.623326,1.73534 v 12.02384 c 0,13.63911 -0.01159,13.73112 -1.977412,15.69694 -2.07598,2.07598 -0.7663,1.98005 -26.710866,1.95653 -20.155004,-0.0183 -23.183916,-0.0725 -24.205758,-0.43343 z m 31.625673,-2.86933 c 0.401752,-0.30003 0.97594,-0.8742 1.275973,-1.27592 0.53098,-0.71095 0.547476,-1.07357 0.619099,-13.60969 l 0.07358,-12.87929 1.543626,-1.46889 c 1.941145,-1.84717 2.841962,-3.26735 3.36333,-5.30245 1.218546,-4.75645 -2.319918,-9.46121 -9.402046,-12.50102 -13.951082,-5.98811 -34.304066,-0.43072 -35.871702,9.79479 -0.21562,1.40646 0.416588,3.93613 1.355364,5.42324 0.387663,0.6141 1.40282,1.78072 2.255905,2.59249 l 1.551065,1.47594 v 12.47729 c 0,8.19575 0.09684,12.73287 0.282208,13.22212 0.155214,0.40965 0.542167,1.0279 0.859896,1.37387 1.24604,1.35682 1.102735,1.34586 16.764214,1.28229 14.284971,-0.058 14.614739,-0.071 15.329484,-0.60477 z m -16.222924,-9.39871 c -1.111404,-0.41114 -0.991524,-2.11776 0.174763,-2.48793 1.119725,-0.35538 2.173731,0.90493 1.620811,1.93807 -0.328203,0.61326 -1.037243,0.83038 -1.795574,0.54986 z m -8.007736,-4.19359 c -0.150641,-0.28147 -0.273892,-0.66917 -0.273892,-0.86154 0,-0.19238 3.552612,-3.90091 7.894694,-8.24119 7.122054,-7.11908 7.969617,-7.8828 8.660234,-7.80355 0.560077,0.0643 0.834751,0.2858 1.023414,0.82538 0.249666,0.71406 0.0056,0.98989 -7.666392,8.66511 -6.507262,6.50997 -8.053008,7.92757 -8.644217,7.92757 -0.441003,0 -0.826069,-0.19829 -0.993841,-0.51178 z m 11.279731,-0.0345 c -0.210447,-0.30045 -0.3258,-0.7636 -0.25634,-1.02922 0.208505,-0.79732 6.276911,-6.62658 6.89844,-6.62658 0.712416,0 1.383443,0.67703 1.383443,1.39582 0,0.36768 -1.087304,1.65156 -3.121004,3.68526 -3.322171,3.32218 -4.09634,3.72859 -4.904539,2.57472 z m -12.989933,-9.1299 c -0.84788,-0.84788 -0.483081,-1.477 2.70523,-4.66531 2.413077,-2.41308 3.279884,-3.121 3.821455,-3.121 0.80537,0 1.528878,0.85103 1.339424,1.5755 -0.06946,0.26562 -1.525849,1.86526 -3.236419,3.55476 -3.166011,3.12702 -3.796824,3.48891 -4.62969,2.65605 z m 9.373809,-9.37381 c -0.618638,-0.61864 -0.662578,-1.03933 -0.177803,-1.7023 0.697303,-0.95362 2.559053,-0.35209 2.559053,0.82683 0,0.47171 -0.966512,1.40463 -1.455208,1.40463 -0.218281,0 -0.635,-0.23812 -0.926042,-0.52916 z"
         id="path12868" /><path
         style="fill:#9c6d2d"
         d="m 37.43876,254.47827 c -1.561929,-0.55168 -3.26923,-2.3003 -3.817763,-3.91016 -0.382582,-1.12281 -0.438199,-2.81213 -0.438199,-13.30988 v -12.02384 l -1.623327,-1.73534 c -1.027563,-1.09847 -1.974312,-2.47028 -2.579687,-3.73788 -0.89517,-1.87442 -0.955691,-2.16337 -0.94588,-4.51609 0.0093,-2.24031 0.09847,-2.70048 0.819877,-4.23333 2.441467,-5.18759 8.328536,-9.00427 16.823369,-10.90685 2.224521,-0.49822 3.533447,-0.56063 13.96398,-0.66582 7.459068,-0.0752 12.509792,-0.0118 14.352168,0.18028 6.937213,0.72318 13.129581,3.204 17.209118,6.89439 5.539412,5.01101 5.829962,11.55877 0.753706,16.9853 l -1.623326,1.73534 v 12.02384 c 0,13.63911 -0.01159,13.73112 -1.977412,15.69694 -2.07598,2.07598 -0.7663,1.98005 -26.710866,1.95653 -20.155004,-0.0183 -23.183916,-0.0725 -24.205758,-0.43343 z m 31.625673,-2.86933 c 0.401752,-0.30003 0.97594,-0.8742 1.275973,-1.27592 0.53098,-0.71095 0.547476,-1.07357 0.619099,-13.60969 l 0.07358,-12.87929 1.543626,-1.46889 c 1.941145,-1.84717 2.841962,-3.26735 3.36333,-5.30245 1.218546,-4.75645 -2.319918,-9.46121 -9.402046,-12.50102 -13.951082,-5.98811 -34.304066,-0.43072 -35.871702,9.79479 -0.21562,1.40646 0.416588,3.93613 1.355364,5.42324 0.387663,0.6141 1.40282,1.78072 2.255905,2.59249 l 1.551065,1.47594 v 12.47729 c 0,8.19575 0.09684,12.73287 0.282208,13.22212 0.155214,0.40965 0.542167,1.0279 0.859896,1.37387 1.24604,1.35682 1.102735,1.34586 16.764214,1.28229 14.284971,-0.058 14.614739,-0.071 15.329484,-0.60477 z m -16.222924,-9.39871 c -1.111404,-0.41114 -0.991524,-2.11776 0.174763,-2.48793 1.119725,-0.35538 2.173731,0.90493 1.620811,1.93807 -0.328203,0.61326 -1.037243,0.83038 -1.795574,0.54986 z m -8.007736,-4.19359 c -0.150641,-0.28147 -0.273892,-0.66917 -0.273892,-0.86154 0,-0.19238 3.552612,-3.90091 7.894694,-8.24119 7.122054,-7.11908 7.969617,-7.8828 8.660234,-7.80355 0.560077,0.0643 0.834751,0.2858 1.023414,0.82538 0.249666,0.71406 0.0056,0.98989 -7.666392,8.66511 -6.507262,6.50997 -8.053008,7.92757 -8.644217,7.92757 -0.441003,0 -0.826069,-0.19829 -0.993841,-0.51178 z m 11.279731,-0.0345 c -0.210447,-0.30045 -0.3258,-0.7636 -0.25634,-1.02922 0.208505,-0.79732 6.276911,-6.62658 6.89844,-6.62658 0.712416,0 1.383443,0.67703 1.383443,1.39582 0,0.36768 -1.087304,1.65156 -3.121004,3.68526 -3.322171,3.32218 -4.09634,3.72859 -4.904539,2.57472 z m -12.989933,-9.1299 c -0.84788,-0.84788 -0.483081,-1.477 2.70523,-4.66531 2.413077,-2.41308 3.279884,-3.121 3.821455,-3.121 0.80537,0 1.528878,0.85103 1.339424,1.5755 -0.06946,0.26562 -1.525849,1.86526 -3.236419,3.55476 -3.166011,3.12702 -3.796824,3.48891 -4.62969,2.65605 z m 9.373809,-9.37381 c -0.618638,-0.61864 -0.662578,-1.03933 -0.177803,-1.7023 0.697303,-0.95362 2.559053,-0.35209 2.559053,0.82683 0,0.47171 -0.966512,1.40463 -1.455208,1.40463 -0.218281,0 -0.635,-0.23812 -0.926042,-0.52916 z m 33.236308,32.13052 c 0.401474,-0.30003 0.975435,-0.87417 1.275468,-1.27587 0.530941,-0.71085 0.547511,-1.07443 0.620243,-13.60969 l 0.07473,-12.87934 1.831437,-1.85208 c 2.347237,-2.3737 3.257774,-4.25576 3.252749,-6.72335 -0.0021,-1.02551 -0.185293,-2.17418 -0.444945,-2.78974 -0.722037,-1.71175 -2.423796,-3.73935 -4.190086,-4.99238 -4.576262,-3.24645 -9.981056,-4.92891 -17.13507,-5.33399 l -3.042708,-0.17229 1.94699,1.08286 c 4.00696,2.22854 6.487542,4.60023 8.036894,7.6841 0.811948,1.61612 0.864032,1.88761 0.864032,4.50379 0,2.62529 -0.05071,2.88699 -0.889464,4.59045 -0.521907,1.05996 -1.587924,2.54685 -2.579688,3.59817 l -1.690223,1.79172 -0.0058,12.27096 c -0.0055,11.65355 -0.03214,12.32898 -0.529167,13.42432 -0.287846,0.63436 -0.523356,1.20782 -0.523356,1.27436 0,0.0666 2.789555,0.0833 6.199011,0.0373 5.776457,-0.078 6.248768,-0.12093 6.928964,-0.62926 z m -5.666725,-2.28552 c -0.236574,-0.23658 -0.3175,-3.07043 -0.3175,-11.11818 v -10.80068 l 1.28981,-1.64797 c 2.27759,-2.91003 3.512702,-5.91814 3.881419,-9.45317 0.207085,-1.98541 0.443609,-2.38125 1.422834,-2.38125 1.046072,0 1.343959,0.468 1.338842,2.10344 -0.01082,3.45908 -1.637025,7.84059 -4.075614,10.98102 l -1.211458,1.56011 v 10.21959 c 0,7.59579 -0.08152,10.3011 -0.3175,10.53709 -0.174625,0.17462 -0.627062,0.3175 -1.005417,0.3175 -0.378354,0 -0.830791,-0.14288 -1.005416,-0.3175 z"
         id="path12867" /><path
         style="fill:#030301"
         d="m 37.995565,254.54415 c -1.480935,-0.46604 -2.729375,-1.33408 -3.467027,-2.41061 -1.285405,-1.87593 -1.34574,-2.55761 -1.34574,-15.20454 v -11.83407 l -1.536162,-1.59448 c -2.821996,-2.92912 -4.078001,-6.45081 -3.494892,-9.79927 0.463621,-2.66231 1.445177,-4.39856 3.83886,-6.79047 2.554977,-2.55309 5.11128,-4.06654 9.233605,-5.46676 5.445193,-1.84954 6.412247,-1.94157 20.401296,-1.94157 11.901996,0 12.563242,0.0259 15.415379,0.60395 3.150657,0.63855 6.765389,1.81013 8.868946,2.87454 6.804061,3.44288 10.393988,8.70445 9.484797,13.90136 -0.399755,2.28499 -1.693398,4.7164 -3.51581,6.60799 l -1.526302,1.58424 -0.076,12.34938 c -0.07332,11.91327 -0.09566,12.39141 -0.632446,13.53999 -0.70652,1.51176 -1.768264,2.5735 -3.280018,3.28002 -1.178638,0.55084 -1.422373,0.55696 -24.209374,0.6078 -18.750426,0.0418 -23.230204,-0.0152 -24.159107,-0.3075 z m 30.887174,-2.72083 c 0.498978,-0.25444 1.153822,-0.7986 1.455208,-1.20926 0.532183,-0.72512 0.551787,-1.12215 0.680266,-13.77745 l 0.132292,-13.03081 1.610859,-1.49112 c 2.859161,-2.64663 4.118582,-6.1073 3.309956,-9.09518 -0.443141,-1.63741 -2.242402,-4.14983 -3.944742,-5.50828 -9.475464,-7.56132 -27.930848,-7.56132 -37.406313,0 -1.702339,1.35845 -3.5016,3.87087 -3.944741,5.50828 -0.808626,2.98788 0.450795,6.44855 3.309956,9.09518 l 1.610859,1.49112 0.132292,13.03081 c 0.128479,12.6553 0.148082,13.05233 0.680266,13.77745 1.25569,1.71095 0.860303,1.67187 16.914525,1.67187 13.33189,0 14.628154,-0.0388 15.459317,-0.46261 z m -16.332442,-9.90824 c -0.174625,-0.17462 -0.3175,-0.56753 -0.3175,-0.87312 0,-0.3056 0.142875,-0.6985 0.3175,-0.87313 0.174625,-0.17462 0.567531,-0.3175 0.873125,-0.3175 0.305594,0 0.6985,0.14288 0.873125,0.3175 0.174625,0.17463 0.3175,0.56753 0.3175,0.87313 0,0.30559 -0.142875,0.6985 -0.3175,0.87312 -0.174625,0.17463 -0.567531,0.3175 -0.873125,0.3175 -0.305594,0 -0.6985,-0.14287 -0.873125,-0.3175 z m -7.549292,-3.93295 c -0.210448,-0.30045 -0.32705,-0.75882 -0.259117,-1.0186 0.06793,-0.25978 3.601541,-3.94301 7.852461,-8.18497 5.339567,-5.3283 7.905146,-7.71264 8.298902,-7.71264 0.682874,0 1.384106,0.90562 1.211705,1.56489 -0.06793,0.25977 -3.601541,3.94301 -7.852461,8.18496 -5.339568,5.32831 -7.905146,7.71265 -8.298902,7.71265 -0.313476,0 -0.742141,-0.24583 -0.952588,-0.54629 z m 11.253459,0.22879 c -0.741724,-0.74173 -0.288161,-1.45841 2.947239,-4.657 1.795607,-1.77517 3.402951,-3.22759 3.571875,-3.22759 0.168925,0 0.54526,0.23813 0.836302,0.52917 0.291042,0.29104 0.529167,0.66738 0.529167,0.8363 0,0.16893 -1.452416,1.77627 -3.227591,3.57188 -3.198585,3.2354 -3.915269,3.68896 -4.656992,2.94724 z m -13.0175,-9.47209 c -0.291042,-0.29104 -0.529167,-0.66737 -0.529167,-0.8363 0,-0.16892 1.452416,-1.77627 3.227591,-3.57187 3.198585,-3.2354 3.915269,-3.68897 4.656992,-2.94724 0.741724,0.74172 0.288161,1.45841 -2.947239,4.65699 -1.795607,1.77518 -3.402951,3.22759 -3.571875,3.22759 -0.168925,0 -0.54526,-0.23812 -0.836302,-0.52917 z m 9.313333,-9.31333 c -0.174625,-0.17462 -0.3175,-0.56753 -0.3175,-0.87312 0,-0.3056 0.142875,-0.6985 0.3175,-0.87313 0.174625,-0.17462 0.567531,-0.3175 0.873125,-0.3175 0.305594,0 0.6985,0.14288 0.873125,0.3175 0.174625,0.17463 0.3175,0.56753 0.3175,0.87313 0,0.30559 -0.142875,0.6985 -0.3175,0.87312 -0.174625,0.17463 -0.567531,0.3175 -0.873125,0.3175 -0.305594,0 -0.6985,-0.14287 -0.873125,-0.3175 z m 33.4504,32.13886 c 1.701652,-1.2138 1.686266,-1.07698 1.686266,-14.99443 V 223.9758 l 1.687731,-1.59625 c 3.266258,-3.0892 4.328464,-6.5265 3.06322,-9.91259 -0.471582,-1.26207 -1.014321,-2.00461 -2.647536,-3.6222 -1.746958,-1.73025 -2.503407,-2.25219 -5.055446,-3.4882 -4.584165,-2.22022 -9.521907,-3.33605 -14.775052,-3.33887 l -2.513542,-10e-4 1.64697,0.77914 c 2.462587,1.16501 4.531798,2.665 6.334067,4.59163 1.868187,1.99709 2.887166,3.90801 3.317319,6.22104 0.604678,3.25149 -0.704666,6.95202 -3.498739,9.8883 l -1.562525,1.64206 -0.07584,12.44964 c -0.07558,12.40776 -0.07788,12.45347 -0.683273,13.58734 l -0.607436,1.13771 6.428269,-0.0794 c 6.160412,-0.0761 6.46274,-0.10396 7.255545,-0.66947 z m -5.813352,-2.4073 c -0.392126,-0.43329 -0.437882,-1.59223 -0.437882,-11.09089 v -10.60704 l 1.211574,-1.41067 c 2.253321,-2.6236 4.080092,-7.22705 4.080092,-10.28179 0,-1.61027 1.292507,-2.3722 2.242808,-1.32213 0.403354,0.4457 0.445345,0.80037 0.286097,2.41649 -0.346896,3.52044 -1.67582,6.86674 -3.95557,9.96032 l -1.219168,1.65439 v 10.1447 c 0,9.49201 -0.03113,10.17289 -0.483854,10.58259 -0.628884,0.56914 -1.180753,0.55442 -1.724097,-0.046 z"
         id="path12866" /></g></g></svg>
