<?xml version="1.0" encoding="UTF-8" standalone="no"?>
<!-- Created with Inkscape (http://www.inkscape.org/) -->

<svg
   width="67.760071mm"
   height="36.465797mm"
   viewBox="0 0 67.760071 36.465797"
   version="1.1"
   id="svg1"
   xml:space="preserve"
   xmlns="http://www.w3.org/2000/svg"
   xmlns:svg="http://www.w3.org/2000/svg"><defs
     id="defs1" /><g
     id="layer1"
     transform="translate(-148.58663,-460.04912)"><g
       id="g12875"
       transform="translate(106.39679,37.598312)"><path
         style="fill:#76b7e9"
         d="m 44.117084,458.73101 c -0.322455,-0.0624 -0.888002,-0.47205 -1.256771,-0.91031 l -0.670489,-0.79683 v -16.37969 -16.3797 l 0.772006,-0.86407 0.772007,-0.86407 32.575231,-0.0702 c 22.387433,-0.0483 32.737682,0.0167 33.094652,0.20775 0.50824,0.272 0.51943,0.65947 0.51943,17.98645 0,17.23705 -0.0136,17.71576 -0.51177,17.98236 -0.34368,0.18393 -9.859583,0.27389 -28.971875,0.27389 -28.107321,0 -28.466658,-0.007 -28.989266,-0.52916 -0.291041,-0.29105 -0.778277,-0.52917 -1.082746,-0.52917 -0.304469,0 -0.856307,0.23812 -1.226307,0.52917 -0.542478,0.42671 -1.037209,0.52219 -2.555273,0.49313 -1.035402,-0.0198 -2.146375,-0.0871 -2.468829,-0.14951 z"
         id="path12881" /><path
         style="fill:#fdd220"
         d="m 42.963221,457.87857 -0.773397,-0.7734 V 440.6603 424.21543 l 0.773397,-0.7734 0.773397,-0.77339 h 32.932667 c 29.786205,0 32.948015,0.04 33.093265,0.41851 0.20984,0.54682 0.20984,34.59948 0,35.1463 -0.1451,0.37812 -2.96633,0.41852 -29.227145,0.41852 -28.795758,0 -29.069186,-0.005 -29.349749,-0.52917 -0.163906,-0.30626 -0.553991,-0.52916 -0.926042,-0.52916 -0.372051,0 -0.762135,0.2229 -0.926041,0.52916 -0.254338,0.47524 -0.553991,0.52917 -2.940078,0.52917 -2.58377,0 -2.678158,-0.0213 -3.430274,-0.7734 z m 18.252715,-5.09298 c -1.088396,-0.53864 -2.336276,-1.48643 -3.483545,-2.64583 l -1.787638,-1.80654 h -3.570174 -3.570173 v 1.79321 c 0,1.92515 0.393147,2.82277 1.417373,3.2361 0.311851,0.12585 3.294691,0.23636 6.628532,0.24559 l 6.06153,0.0168 z m 29.392633,-1.80654 v -2.64583 h -5.676073 -5.676074 l -0.807743,1.00513 c -0.990822,1.23294 -3.098955,2.86529 -4.738723,3.66923 l -1.225344,0.60076 9.061978,0.008 9.061979,0.008 z m -4.823903,-17.4625 c 0.288322,-0.46167 0.617016,-0.52916 2.577187,-0.52916 h 2.246716 v -4.10105 -4.10104 H 69.706487 48.804406 v 4.10104 4.10105 h 3.348464 3.348464 l 1.877056,-1.92529 c 3.160156,-3.24136 5.998033,-4.49505 10.211431,-4.5111 4.271893,-0.0163 7.347795,1.32553 10.310224,4.49767 l 1.810545,1.93872 h 1.874872 c 1.588328,0 1.925381,0.0809 2.205343,0.52916 0.188384,0.30165 0.617016,0.52917 0.996931,0.52917 0.379915,0 0.808546,-0.22752 0.99693,-0.52917 z"
         id="path12880" /><path
         style="fill:#3997df"
         d="m 42.963221,457.87857 -0.773397,-0.7734 V 440.6603 424.21543 l 0.773397,-0.7734 0.773397,-0.77339 h 32.932667 c 29.786205,0 32.948015,0.04 33.093265,0.41851 0.20984,0.54682 0.20984,34.59948 0,35.1463 -0.1451,0.37812 -2.96633,0.41852 -29.227145,0.41852 -28.795758,0 -29.069186,-0.005 -29.349749,-0.52917 -0.163906,-0.30626 -0.553991,-0.52916 -0.926042,-0.52916 -0.372051,0 -0.762135,0.2229 -0.926041,0.52916 -0.254338,0.47524 -0.553991,0.52917 -2.940078,0.52917 -2.58377,0 -2.678158,-0.0213 -3.430274,-0.7734 z m 18.252715,-5.09298 c -1.088396,-0.53864 -2.336276,-1.48643 -3.483545,-2.64583 l -1.787638,-1.80654 h -3.570174 -3.570173 v 1.79321 c 0,1.92515 0.393147,2.82277 1.417373,3.2361 0.311851,0.12585 3.294691,0.23636 6.628532,0.24559 l 6.06153,0.0168 z m 29.392633,-1.80654 v -2.64583 h -5.676073 -5.676074 l -0.807743,1.00513 c -0.990822,1.23294 -3.098955,2.86529 -4.738723,3.66923 l -1.225344,0.60076 9.061978,0.008 9.061979,0.008 z m -19.715887,0.74583 c 1.893355,-0.48559 3.679915,-1.58241 5.296096,-3.25142 0.873125,-0.90167 1.847564,-1.77834 2.165419,-1.94815 0.390256,-0.2085 2.473712,-0.30876 6.416145,-0.30876 h 5.838227 v -5.54595 -5.54595 l -2.287147,-0.0764 c -1.836291,-0.0614 -2.344546,-0.16772 -2.578334,-0.53947 -0.211861,-0.33688 -0.211861,-0.58916 0,-0.92604 0.233788,-0.37175 0.742043,-0.47809 2.578334,-0.53947 l 2.287147,-0.0764 v -4.09074 -4.09074 H 69.706487 48.804406 v 4.10104 4.10105 h 3.348464 3.348464 l 1.877056,-1.92529 c 3.160156,-3.24136 5.998033,-4.49505 10.211431,-4.5111 4.271893,-0.0163 7.347795,1.32553 10.310224,4.49767 l 1.810545,1.93872 h 1.844718 c 2.011406,0 2.544299,0.3061 2.392843,1.3745 -0.08143,0.57445 -0.216135,0.61438 -2.318991,0.68752 -1.266278,0.044 -2.549798,-0.0538 -2.965572,-0.22598 -0.403171,-0.167 -1.204443,-0.92801 -1.780605,-1.69113 -1.264367,-1.67464 -3.301639,-3.07722 -5.603274,-3.85762 -1.427869,-0.48414 -2.119525,-0.55889 -4.248704,-0.45918 -3.615993,0.16934 -5.379801,1.02691 -8.315526,4.04303 l -2.185671,2.24552 h -3.862701 -3.862701 v 5.55625 5.55625 l 3.902604,0.009 c 2.575302,0.006 4.084771,0.11867 4.438222,0.33073 0.294589,0.17674 1.178671,1.00978 1.964626,1.85118 3.012388,3.22493 7.364669,4.45016 11.782824,3.31704 z m -20.649419,-7.43991 c -0.07262,-0.18924 -0.09865,-1.94541 -0.05784,-3.9026 l 0.07419,-3.55853 1.812988,-0.0789 c 2.058669,-0.0895 2.910306,0.28558 3.191439,1.4057 0.104052,0.41458 0.02067,1.00439 -0.206316,1.45939 -0.326579,0.65464 -0.327983,0.80758 -0.0098,1.07161 0.222157,0.18438 0.371104,0.80744 0.371104,1.55239 0,1.87737 -0.677364,2.39497 -3.134211,2.39497 -1.323017,0 -1.950032,-0.10567 -2.041515,-0.34408 z m 3.27426,-2.2356 c 0.07724,-0.80105 0.02744,-0.8599 -0.727604,-0.8599 -0.752787,0 -0.810513,0.0672 -0.810513,0.94362 0,0.8733 0.05421,0.93737 0.727604,0.85989 0.606281,-0.0698 0.741429,-0.2271 0.810513,-0.94361 z m -0.131892,-2.81203 c 0.176564,-0.46012 -0.306883,-0.95829 -0.929975,-0.95829 -0.331611,0 -0.47625,0.20089 -0.47625,0.66146 0,0.52128 0.134179,0.66146 0.633151,0.66146 0.348233,0 0.696116,-0.16409 0.773074,-0.36463 z m 3.47654,4.74228 c -0.61728,-0.61728 -0.649432,-0.80644 -0.649432,-3.82084 0,-1.94258 0.108345,-3.23838 0.279621,-3.34423 0.153791,-0.0951 0.57051,-0.0998 0.926041,-0.0106 0.636551,0.15976 0.646421,0.20673 0.646421,3.07592 0,2.45345 0.06837,2.93991 0.432838,3.07977 1.009208,0.38727 1.28331,-0.23973 1.363049,-3.11797 0.04185,-1.51069 0.181964,-2.85258 0.311358,-2.98198 0.129394,-0.12939 0.551498,-0.15589 0.938009,-0.0589 l 0.702748,0.17638 -0.08806,3.18797 c -0.08611,3.11736 -0.104508,3.20211 -0.830422,3.82592 -1.059315,0.91032 -3.11622,0.90446 -4.032167,-0.0115 z m 7.476603,0.48519 c -0.103695,-0.10369 -0.188536,-1.53791 -0.188536,-3.18715 v -2.99861 h -0.910427 c -1.023475,0 -1.317922,-0.28964 -1.074412,-1.05687 0.159288,-0.50187 0.392095,-0.52045 5.771765,-0.46065 l 5.605781,0.0623 v 0.66146 c 0,0.55287 -0.141171,0.67507 -0.859895,0.74437 l -0.859896,0.0829 v 2.73972 c 0,3.26794 -0.09138,3.57675 -1.058333,3.57675 -0.966958,0 -1.058334,-0.30881 -1.058334,-3.57675 v -2.73972 l -0.859895,-0.0829 c -0.472943,-0.0456 -1.302707,-0.041 -1.843921,0.0102 l -0.984024,0.0932 -0.07431,3.08184 c -0.07426,3.08004 -0.0747,3.08189 -0.745668,3.16013 -0.369248,0.0431 -0.756202,-0.007 -0.859896,-0.11024 z m 9.98157,-0.17984 c -0.07262,-0.18924 -0.09865,-1.94541 -0.05784,-3.9026 l 0.07419,-3.55853 h 2.38125 2.38125 l 0.08372,0.72761 c 0.08319,0.72299 0.07354,0.7276 -1.521354,0.7276 h -1.605074 v 0.79375 c 0,0.69805 0.09179,0.79375 0.761353,0.79375 0.881312,0 1.437409,0.53654 1.199279,1.15709 -0.107627,0.28047 -0.4779,0.43041 -1.062898,0.43041 -0.817719,0 -0.897734,0.0696 -0.897734,0.78055 0,0.76464 0.031,0.78216 1.521354,0.85989 1.440207,0.0751 1.525819,0.11816 1.605074,0.80696 l 0.08372,0.7276 h -2.407128 c -1.731432,0 -2.444191,-0.0966 -2.539163,-0.34408 z m 5.563049,0.0177 c -0.07636,-0.19898 -0.105448,-1.96313 -0.06464,-3.92032 l 0.07419,-3.55853 1.576475,-0.081 c 1.914863,-0.0984 2.641121,0.0653 3.325046,0.74918 0.701008,0.70101 0.694952,2.34843 -0.01194,3.24709 l -0.534373,0.67934 0.573455,1.18035 c 0.66516,1.3691 0.526654,2.03024 -0.425321,2.03024 -0.552419,0 -0.800194,-0.26008 -1.386338,-1.45521 -0.910762,-1.857 -1.345287,-1.87683 -1.449535,-0.0661 -0.07463,1.29633 -0.128647,1.39466 -0.809081,1.47293 -0.437106,0.0503 -0.78471,-0.061 -0.867943,-0.27794 z m 3.538429,-4.93538 c 0.09953,-0.70396 -0.319338,-1.07812 -1.213773,-1.08421 -0.506743,-0.003 -0.595313,0.13622 -0.595313,0.93876 0,0.90429 0.03512,0.93942 0.859896,0.85989 0.67545,-0.0651 0.879049,-0.21837 0.94919,-0.71444 z"
         id="path12879" /><path
         style="fill:#e9bb04"
         d="m 42.963221,457.87857 -0.773397,-0.7734 V 440.6603 424.21543 l 0.773397,-0.7734 0.773397,-0.77339 h 32.932667 c 29.786205,0 32.948015,0.04 33.093265,0.41851 0.20984,0.54682 0.20984,34.59948 0,35.1463 -0.1451,0.37812 -2.96633,0.41852 -29.227145,0.41852 H 51.468857 l -0.309113,-0.57759 c -0.263182,-0.49175 -0.220894,-0.64902 0.284585,-1.05833 0.561633,-0.45478 1.635348,-0.48075 19.87897,-0.48075 h 19.28527 v -4.10104 -4.10104 h -5.624433 -5.624433 l -1.453171,1.49295 c -5.812108,5.9712 -14.432919,6.11185 -20.136474,0.32853 L 55.9737,448.33322 H 50.140095 44.30649 v 4.10104 4.10104 l 1.918229,0.004 c 2.965017,0.006 3.739186,0.4061 3.098596,1.60305 -0.241706,0.45163 -0.577017,0.51 -2.92982,0.51 -2.58377,0 -2.678158,-0.0213 -3.430274,-0.7734 z m 56.376597,-8.72996 c 0,-4.06268 0.07227,-7.57503 0.160599,-7.80521 0.189275,-0.49324 1.184953,-0.55463 1.638563,-0.10101 0.23199,0.23198 0.3175,2.33421 0.3175,7.8052 v 7.48771 h 3.175 3.175 v -15.07721 -15.07722 l -3.10885,3.20008 -3.10885,3.20008 -0.1323,3.05183 c -0.10953,2.52677 -0.21195,3.10192 -0.59531,3.34297 -0.33689,0.21183 -0.58915,0.21175 -0.92604,-3.1e-4 -0.386938,-0.24356 -0.475248,-0.76888 -0.537431,-3.19698 l -0.07441,-2.90553 -3.153405,-3.28396 -3.153405,-3.28396 -0.03696,13.09688 c -0.02033,7.20328 -0.06505,13.96008 -0.0994,15.0151 l -0.06244,1.91823 h 3.261065 3.261065 z m -28.447136,2.57627 c 1.893355,-0.48559 3.679915,-1.58241 5.296096,-3.25142 0.873125,-0.90167 1.847564,-1.77834 2.165419,-1.94815 0.390256,-0.2085 2.473712,-0.30876 6.416145,-0.30876 h 5.838227 v -5.54595 -5.54595 l -2.287147,-0.0764 c -1.836291,-0.0614 -2.344546,-0.16772 -2.578334,-0.53947 -0.211861,-0.33688 -0.211861,-0.58916 0,-0.92604 0.233788,-0.37175 0.742043,-0.47809 2.578334,-0.53947 l 2.287147,-0.0764 v -4.09074 -4.09074 H 67.457529 44.30649 v 4.10104 4.10105 h 5.775981 5.77598 l 0.861068,-1.19902 c 0.93853,-1.30688 2.925928,-2.90372 4.76041,-3.82492 2.038822,-1.0238 3.744181,-1.40525 6.242184,-1.39624 4.197224,0.0152 7.644934,1.59563 10.461929,4.7959 l 1.429745,1.62428 h 1.89312 c 2.06228,0 2.593679,0.29919 2.441244,1.3745 -0.08143,0.57445 -0.216135,0.61438 -2.318991,0.68752 -1.266278,0.044 -2.549798,-0.0538 -2.965572,-0.22598 -0.403171,-0.167 -1.204443,-0.92801 -1.780605,-1.69113 -1.264367,-1.67464 -3.301639,-3.07722 -5.603274,-3.85762 -1.427869,-0.48414 -2.119525,-0.55889 -4.248704,-0.45918 -3.615993,0.16934 -5.379801,1.02691 -8.315526,4.04303 l -2.185671,2.24552 h -3.862701 -3.862701 v 5.55625 5.55625 l 3.902604,0.009 c 2.575302,0.006 4.084771,0.11867 4.438222,0.33073 0.294589,0.17674 1.178671,1.00978 1.964626,1.85118 3.012388,3.22493 7.364669,4.45016 11.782824,3.31704 z m -20.649419,-7.43991 c -0.07262,-0.18924 -0.09865,-1.94541 -0.05784,-3.9026 l 0.07419,-3.55853 1.812988,-0.0789 c 2.058669,-0.0895 2.910306,0.28558 3.191439,1.4057 0.104052,0.41458 0.02067,1.00439 -0.206316,1.45939 -0.326579,0.65464 -0.327983,0.80758 -0.0098,1.07161 0.222157,0.18438 0.371104,0.80744 0.371104,1.55239 0,1.87737 -0.677364,2.39497 -3.134211,2.39497 -1.323017,0 -1.950032,-0.10567 -2.041515,-0.34408 z m 3.27426,-2.2356 c 0.07724,-0.80105 0.02744,-0.8599 -0.727604,-0.8599 -0.752787,0 -0.810513,0.0672 -0.810513,0.94362 0,0.8733 0.05421,0.93737 0.727604,0.85989 0.606281,-0.0698 0.741429,-0.2271 0.810513,-0.94361 z m -0.131892,-2.81203 c 0.176564,-0.46012 -0.306883,-0.95829 -0.929975,-0.95829 -0.331611,0 -0.47625,0.20089 -0.47625,0.66146 0,0.52128 0.134179,0.66146 0.633151,0.66146 0.348233,0 0.696116,-0.16409 0.773074,-0.36463 z m 3.47654,4.74228 c -0.61728,-0.61728 -0.649432,-0.80644 -0.649432,-3.82084 0,-1.94258 0.108345,-3.23838 0.279621,-3.34423 0.153791,-0.0951 0.57051,-0.0998 0.926041,-0.0106 0.636551,0.15976 0.646421,0.20673 0.646421,3.07592 0,2.45345 0.06837,2.93991 0.432838,3.07977 1.009208,0.38727 1.28331,-0.23973 1.363049,-3.11797 0.04185,-1.51069 0.181964,-2.85258 0.311358,-2.98198 0.129394,-0.12939 0.551498,-0.15589 0.938009,-0.0589 l 0.702748,0.17638 -0.08806,3.18797 c -0.08611,3.11736 -0.104508,3.20211 -0.830422,3.82592 -1.059315,0.91032 -3.11622,0.90446 -4.032167,-0.0115 z m 7.476603,0.48519 c -0.103695,-0.10369 -0.188536,-1.53791 -0.188536,-3.18715 v -2.99861 h -0.910427 c -1.023475,0 -1.317922,-0.28964 -1.074412,-1.05687 0.159288,-0.50187 0.392095,-0.52045 5.771765,-0.46065 l 5.605781,0.0623 v 0.66146 c 0,0.55287 -0.141171,0.67507 -0.859895,0.74437 l -0.859896,0.0829 v 2.73972 c 0,3.26794 -0.09138,3.57675 -1.058333,3.57675 -0.966958,0 -1.058334,-0.30881 -1.058334,-3.57675 v -2.73972 l -0.859895,-0.0829 c -0.472943,-0.0456 -1.302707,-0.041 -1.843921,0.0102 l -0.984024,0.0932 -0.07431,3.08184 c -0.07426,3.08004 -0.0747,3.08189 -0.745668,3.16013 -0.369248,0.0431 -0.756202,-0.007 -0.859896,-0.11024 z m 9.98157,-0.17984 c -0.07262,-0.18924 -0.09865,-1.94541 -0.05784,-3.9026 l 0.07419,-3.55853 h 2.38125 2.38125 l 0.08372,0.72761 c 0.08319,0.72299 0.07354,0.7276 -1.521354,0.7276 h -1.605074 v 0.79375 c 0,0.69805 0.09179,0.79375 0.761353,0.79375 0.881312,0 1.437409,0.53654 1.199279,1.15709 -0.107627,0.28047 -0.4779,0.43041 -1.062898,0.43041 -0.817719,0 -0.897734,0.0696 -0.897734,0.78055 0,0.76464 0.031,0.78216 1.521354,0.85989 1.440207,0.0751 1.525819,0.11816 1.605074,0.80696 l 0.08372,0.7276 h -2.407128 c -1.731432,0 -2.444191,-0.0966 -2.539163,-0.34408 z m 5.563049,0.0177 c -0.07636,-0.19898 -0.105448,-1.96313 -0.06464,-3.92032 l 0.07419,-3.55853 1.576475,-0.081 c 1.914863,-0.0984 2.641121,0.0653 3.325046,0.74918 0.701008,0.70101 0.694952,2.34843 -0.01194,3.24709 l -0.534373,0.67934 0.573455,1.18035 c 0.66516,1.3691 0.526654,2.03024 -0.425321,2.03024 -0.552419,0 -0.800194,-0.26008 -1.386338,-1.45521 -0.910762,-1.857 -1.345287,-1.87683 -1.449535,-0.0661 -0.07463,1.29633 -0.128647,1.39466 -0.809081,1.47293 -0.437106,0.0503 -0.78471,-0.061 -0.867943,-0.27794 z m 3.538429,-4.93538 c 0.09953,-0.70396 -0.319338,-1.07812 -1.213773,-1.08421 -0.506743,-0.003 -0.595313,0.13622 -0.595313,0.93876 0,0.90429 0.03512,0.93942 0.859896,0.85989 0.67545,-0.0651 0.879049,-0.21837 0.94919,-0.71444 z m 20.019438,-11.60544 2.82751,-2.97657 h -5.90192 -5.901931 l 1.311203,1.38907 c 3.499238,3.70702 4.492508,4.69478 4.657938,4.63212 0.0988,-0.0374 1.45207,-1.40752 3.0072,-3.04462 z"
         id="path12878" /><path
         style="fill:#2d6c9d"
         d="m 42.963221,457.87857 -0.773397,-0.7734 V 440.6603 424.21543 l 0.773397,-0.7734 0.773397,-0.77339 h 32.932667 c 29.786205,0 32.948015,0.04 33.093265,0.41851 0.20984,0.54682 0.20984,34.59948 0,35.1463 -0.1451,0.37812 -2.96633,0.41852 -29.227145,0.41852 H 51.468857 l -0.309113,-0.57759 c -0.263182,-0.49175 -0.220894,-0.64902 0.284585,-1.05833 0.561633,-0.45478 1.635348,-0.48075 19.87897,-0.48075 h 19.28527 v -4.10104 -4.10104 h -5.624433 -5.624433 l -1.453171,1.49295 c -5.812108,5.9712 -14.432919,6.11185 -20.136474,0.32853 L 55.9737,448.33322 H 50.140095 44.30649 v 4.10104 4.10104 l 1.918229,0.004 c 2.965017,0.006 3.739186,0.4061 3.098596,1.60305 -0.241706,0.45163 -0.577017,0.51 -2.92982,0.51 -2.58377,0 -2.678158,-0.0213 -3.430274,-0.7734 z m 56.376597,-8.72996 c 0,-4.06268 0.07227,-7.57503 0.160599,-7.80521 0.189275,-0.49324 1.184953,-0.55463 1.638563,-0.10101 0.23199,0.23198 0.3175,2.33421 0.3175,7.8052 v 7.48771 h 3.175 3.175 v -15.07721 -15.07722 l -3.10885,3.20008 -3.10885,3.20008 -0.1323,3.05183 c -0.10953,2.52677 -0.21195,3.10192 -0.59531,3.34297 -0.33689,0.21183 -0.58915,0.21175 -0.92604,-3.1e-4 -0.386938,-0.24356 -0.475248,-0.76888 -0.537431,-3.19698 l -0.07441,-2.90553 -3.153405,-3.28396 -3.153405,-3.28396 -0.03696,13.09688 c -0.02033,7.20328 -0.06505,13.96008 -0.0994,15.0151 l -0.06244,1.91823 h 3.261065 3.261065 z m -28.716539,2.74778 c 2.303592,-0.60001 3.859529,-1.55755 5.951663,-3.66271 l 1.873167,-1.88484 6.212521,-0.0797 6.212522,-0.0797 v -5.54266 -5.54266 H 88.48623 c -2.281663,0 -2.400055,-0.0288 -2.684733,-0.65362 -0.520907,-1.14327 0.0453,-1.46304 2.59051,-1.46304 h 2.216562 v -4.10105 -4.10104 H 67.457529 44.30649 v 4.10104 4.10105 h 5.775981 5.77598 l 0.861068,-1.19902 c 0.93853,-1.30688 2.925928,-2.90372 4.76041,-3.82492 2.038822,-1.0238 3.744181,-1.40525 6.242184,-1.39624 4.163564,0.015 7.598703,1.57444 10.398874,4.72065 l 1.394854,1.56723 2.013278,0.1323 c 2.205115,0.14489 2.885837,0.59446 2.303601,1.52135 -0.221661,0.35287 -0.723553,0.48196 -2.109779,0.54264 -1.00041,0.0438 -2.100489,0.009 -2.444619,-0.0774 -0.34413,-0.0864 -1.596777,-1.14463 -2.783659,-2.35168 -2.352316,-2.39228 -3.936875,-3.31495 -6.647081,-3.87052 -4.160392,-0.85284 -9.334174,1.14284 -11.648141,4.49304 -1.210933,1.75321 -1.678401,1.85925 -8.195912,1.85925 H 44.30649 v 5.55625 5.55625 h 5.970518 c 4.009671,0 6.16032,0.1005 6.548437,0.30601 0.317855,0.16831 1.351825,1.09104 2.29771,2.05052 3.206466,3.25256 7.266863,4.42593 11.500124,3.32331 z m -20.165227,-7.42887 c -0.240776,-0.10713 -0.330729,-1.11012 -0.330729,-3.68767 0,-3.35564 0.0298,-3.55646 0.570715,-3.84595 0.753342,-0.40318 3.357395,-0.0966 3.982211,0.46889 0.5748,0.52019 0.626757,2.00878 0.08889,2.54665 -0.337304,0.33731 -0.320833,0.44358 0.132292,0.85366 0.677371,0.61301 0.688092,2.23382 0.02023,3.05859 -0.41997,0.51864 -0.780085,0.62497 -2.315104,0.68357 -0.999776,0.0382 -1.966602,0.003 -2.148503,-0.0777 z m 3.26565,-2.09086 c 0.218069,-0.86886 -0.320241,-1.5004 -1.192482,-1.399 -0.582223,0.0677 -0.696335,0.22728 -0.766223,1.07171 -0.08071,0.9752 -0.06608,0.99218 0.854855,0.99218 0.780068,0 0.964917,-0.11134 1.10385,-0.66489 z m -0.424176,-2.90361 c 0.50492,-0.60839 0.121064,-1.194 -0.78265,-1.194 -0.663858,0 -0.802053,0.10638 -0.802053,0.61736 0,0.33955 0.07937,0.69674 0.176388,0.79375 0.308007,0.30801 1.069996,0.19054 1.408315,-0.21711 z m 3.787863,4.51804 C 56.351695,443.35885 56.34503,443.325 56.34503,440.22078 v -3.13235 l 0.727605,-0.0837 0.727604,-0.0837 0.0041,2.72955 c 0.0022,1.50126 0.09152,2.86053 0.198438,3.02061 0.297863,0.446 0.93767,0.58944 1.451156,0.32534 0.398342,-0.20487 0.463021,-0.6434 0.463021,-3.13925 v -2.9011 h 0.79375 0.79375 v 3.02106 c 0,1.66159 -0.07396,3.21381 -0.164354,3.44937 -0.473692,1.23442 -3.071815,1.57931 -4.252662,0.56452 z m 7.393578,0.46578 c -0.237148,-0.0979 -0.330729,-0.98646 -0.330729,-3.14039 v -3.0039 l -0.857729,-0.0829 c -0.925468,-0.0895 -1.34736,-0.88712 -0.689658,-1.30392 0.64385,-0.40803 4.618769,-0.28098 4.984174,0.15931 0.535496,0.64523 0.118847,1.19399 -0.906545,1.19399 h -0.925949 l -0.07454,3.10566 c -0.07648,3.18648 -0.193785,3.48704 -1.199022,3.07216 z m 5.677653,0.007 c -0.103152,-0.10315 -0.187549,-1.53692 -0.187549,-3.18616 v -2.99861 h -0.926042 c -0.800348,0 -0.926041,-0.0859 -0.926041,-0.63315 0,-0.82192 0.405572,-0.95435 2.922746,-0.95435 1.71929,0 2.127556,0.0813 2.323858,0.46302 0.379055,0.73701 0.07078,1.12448 -0.894632,1.12448 h -0.895596 l -0.07454,3.10886 c -0.06952,2.89948 -0.110912,3.11406 -0.614597,3.18616 -0.297029,0.0425 -0.624451,-0.007 -0.727604,-0.11025 z m 4.231691,-0.002 c -0.102249,-0.10225 -0.185907,-1.81905 -0.185907,-3.81512 0,-4.1703 -0.155975,-3.94865 2.778124,-3.94784 1.800905,4.9e-4 2.342734,0.23383 2.206189,0.95008 -0.07884,0.41357 -0.375915,0.51081 -1.761617,0.57664 l -1.666779,0.0792 0.08194,0.84686 c 0.07452,0.77017 0.171793,0.8543 1.074124,0.92898 0.765421,0.0634 0.992188,0.19576 0.992188,0.57934 0,0.38358 -0.226767,0.51599 -0.992188,0.57934 -0.902331,0.0747 -0.999607,0.15882 -1.074124,0.92898 l -0.08194,0.84686 1.669437,0.0792 c 1.583229,0.0751 1.669437,0.11334 1.669437,0.74064 0,0.64807 -0.0458,0.66299 -2.261488,0.73713 -1.243818,0.0416 -2.345146,-0.008 -2.447396,-0.11025 z m 5.811314,-0.01 c -0.09701,-0.097 -0.176389,-1.81539 -0.176389,-3.81862 0,-3.47215 0.02605,-3.65051 0.55778,-3.81928 0.876967,-0.27834 3.336354,0.12843 3.993411,0.66048 0.820755,0.66461 0.829923,2.41946 0.01689,3.23249 l -0.57927,0.57927 0.698641,1.28364 c 0.640585,1.17696 0.663443,1.31883 0.275071,1.7072 -0.63603,0.63603 -1.177686,0.26283 -1.973454,-1.35971 -0.933254,-1.90287 -1.401566,-1.91529 -1.401566,-0.0372 0,1.05707 -0.108472,1.46853 -0.418514,1.5875 -0.537995,0.20645 -0.774115,0.2027 -0.992597,-0.0158 z m 3.33003,-4.81311 c 0.204053,-0.7803 -0.281392,-1.3605 -1.138316,-1.3605 -0.715729,0 -0.780603,0.077 -0.780603,0.92604 0,0.87587 0.04851,0.92605 0.895183,0.92605 0.649856,0 0.930413,-0.13472 1.023736,-0.49159 z m 19.909605,-11.87768 2.82751,-2.97657 h -5.90192 -5.901931 l 1.311203,1.38907 c 3.499238,3.70702 4.492508,4.69478 4.657938,4.63212 0.0988,-0.0374 1.45207,-1.40752 3.0072,-3.04462 z"
         id="path12877" /><path
         style="fill:#040504"
         d="m 43.541863,458.28768 c -1.353634,-0.76084 -1.332621,-0.48619 -1.342664,-17.54878 -0.0069,-11.80352 0.07249,-16.10836 0.306718,-16.62245 0.693172,-1.52135 -1.047755,-1.44781 34.278264,-1.44781 24.928089,0 32.577969,0.074 32.821469,0.3175 0.45901,0.45901 0.45901,34.88932 0,35.34833 -0.24305,0.24305 -7.06011,0.3175 -29.071767,0.3175 -30.7932,0 -29.550025,0.0528 -29.300323,-1.24406 0.08704,-0.45203 1.059162,-0.47911 19.509839,-0.54361 13.809821,-0.0483 19.52099,-0.15315 19.773996,-0.36312 0.268782,-0.22307 0.355757,-1.25761 0.355757,-4.23161 v -3.93635 h -5.811709 -5.811709 l -1.795061,1.78594 c -2.842447,2.828 -5.779258,4.02607 -9.882976,4.03175 -3.918859,0.005 -6.581443,-1.09546 -9.612104,-3.97429 l -1.940617,-1.8434 h -5.988534 -5.988535 v 3.93635 c 0,2.9068 0.08995,4.01101 0.343915,4.22178 0.189153,0.15698 1.350012,0.32039 2.579687,0.36313 l 2.235772,0.0777 v 0.79375 0.79375 l -2.513541,0.0617 c -1.715812,0.0421 -2.714228,-0.0511 -3.145877,-0.29371 z m 55.797955,-9.12831 c 0,-8.17548 0.05329,-8.50516 1.310222,-8.10622 0.52263,0.16587 0.54186,0.36244 0.54186,5.53746 0,2.95102 0.0774,6.45534 0.17191,7.78738 l 0.17191,2.4219 h 3.09576 3.09576 l 0.17192,-2.4219 c 0.26803,-3.77609 0.20712,-28.00519 -0.0704,-28.00519 -0.13328,0 -1.67987,1.51805 -3.43688,3.37344 l -3.19456,3.37344 -0.003,2.95873 c -0.003,2.74824 -0.0413,2.97097 -0.54457,3.13071 -1.077866,0.3421 -1.309254,-0.25396 -1.323683,-3.40986 l -0.01346,-2.94417 -3.29257,-3.43958 -3.29257,-3.43958 -0.0013,15.41198 -0.0013,15.41198 h 3.307291 3.307292 z m -28.716539,2.73702 c 2.303592,-0.60001 3.859529,-1.55755 5.951663,-3.66271 l 1.873167,-1.88484 6.212521,-0.0797 6.212522,-0.0797 v -5.54266 -5.54266 h -2.371941 c -2.071437,0 -2.40652,-0.0646 -2.644884,-0.51 -0.64059,-1.19695 0.133579,-1.59747 3.098596,-1.60305 l 1.918229,-0.004 v -3.81482 c 0,-2.09815 -0.07227,-4.00315 -0.160599,-4.23334 -0.144737,-0.37717 -2.426177,-0.41851 -23.098123,-0.41851 -17.487518,0 -23.012962,0.0754 -23.255023,0.3175 -0.218341,0.21834 -0.3175,1.54046 -0.3175,4.23333 v 3.91584 h 5.825587 5.825588 l 2.045766,-2.05248 c 2.965697,-2.97543 6.036948,-4.29752 9.983265,-4.29752 3.900366,0 7.140838,1.42422 10.079139,4.4299 l 1.877056,1.9201 h 1.479156 c 0.813536,0 1.784564,0.11611 2.157839,0.25803 0.722482,0.27469 0.894338,1.00798 0.361183,1.54113 -0.411174,0.41118 -4.023138,0.4194 -4.793123,0.0109 -0.317855,-0.16863 -1.470887,-1.22233 -2.562293,-2.34157 -2.169135,-2.22445 -3.795801,-3.15523 -6.473488,-3.70413 -4.160392,-0.85284 -9.334174,1.14284 -11.648141,4.49304 -1.210933,1.75321 -1.678401,1.85925 -8.195912,1.85925 H 44.30649 v 5.55625 5.55625 h 5.970518 c 4.009671,0 6.16032,0.1005 6.548437,0.30601 0.317855,0.16831 1.351825,1.09104 2.29771,2.05052 3.206466,3.25256 7.266863,4.42593 11.500124,3.32331 z m -20.165227,-7.42887 c -0.240776,-0.10713 -0.330729,-1.11012 -0.330729,-3.68767 0,-3.35564 0.0298,-3.55646 0.570715,-3.84595 0.753342,-0.40318 3.357395,-0.0966 3.982211,0.46889 0.5748,0.52019 0.626757,2.00878 0.08889,2.54665 -0.337304,0.33731 -0.320833,0.44358 0.132292,0.85366 0.677371,0.61301 0.688092,2.23382 0.02023,3.05859 -0.41997,0.51864 -0.780085,0.62497 -2.315104,0.68357 -0.999776,0.0382 -1.966602,0.003 -2.148503,-0.0777 z m 3.26565,-2.09086 c 0.218069,-0.86886 -0.320241,-1.5004 -1.192482,-1.399 -0.582223,0.0677 -0.696335,0.22728 -0.766223,1.07171 -0.08071,0.9752 -0.06608,0.99218 0.854855,0.99218 0.780068,0 0.964917,-0.11134 1.10385,-0.66489 z m -0.424176,-2.90361 c 0.50492,-0.60839 0.121064,-1.194 -0.78265,-1.194 -0.663858,0 -0.802053,0.10638 -0.802053,0.61736 0,0.33955 0.07937,0.69674 0.176388,0.79375 0.308007,0.30801 1.069996,0.19054 1.408315,-0.21711 z m 3.787863,4.51804 C 56.351695,443.35885 56.34503,443.325 56.34503,440.22078 v -3.13235 l 0.727605,-0.0837 0.727604,-0.0837 0.0041,2.72955 c 0.0022,1.50126 0.09152,2.86053 0.198438,3.02061 0.297863,0.446 0.93767,0.58944 1.451156,0.32534 0.398342,-0.20487 0.463021,-0.6434 0.463021,-3.13925 v -2.9011 h 0.79375 0.79375 v 3.02106 c 0,1.66159 -0.07396,3.21381 -0.164354,3.44937 -0.473692,1.23442 -3.071815,1.57931 -4.252662,0.56452 z m 7.393578,0.46578 c -0.237148,-0.0979 -0.330729,-0.98646 -0.330729,-3.14039 v -3.0039 l -0.857729,-0.0829 c -0.925468,-0.0895 -1.34736,-0.88712 -0.689658,-1.30392 0.64385,-0.40803 4.618769,-0.28098 4.984174,0.15931 0.535496,0.64523 0.118847,1.19399 -0.906545,1.19399 h -0.925949 l -0.07454,3.10566 c -0.07648,3.18648 -0.193785,3.48704 -1.199022,3.07216 z m 5.677653,0.007 c -0.103152,-0.10315 -0.187549,-1.53692 -0.187549,-3.18616 v -2.99861 h -0.926042 c -0.800348,0 -0.926041,-0.0859 -0.926041,-0.63315 0,-0.82192 0.405572,-0.95435 2.922746,-0.95435 1.71929,0 2.127556,0.0813 2.323858,0.46302 0.379055,0.73701 0.07078,1.12448 -0.894632,1.12448 h -0.895596 l -0.07454,3.10886 c -0.06952,2.89948 -0.110912,3.11406 -0.614597,3.18616 -0.297029,0.0425 -0.624451,-0.007 -0.727604,-0.11025 z m 4.231691,-0.002 c -0.102249,-0.10225 -0.185907,-1.81905 -0.185907,-3.81512 0,-4.1703 -0.155975,-3.94865 2.778124,-3.94784 1.800905,4.9e-4 2.342734,0.23383 2.206189,0.95008 -0.07884,0.41357 -0.375915,0.51081 -1.761617,0.57664 l -1.666779,0.0792 0.08194,0.84686 c 0.07452,0.77017 0.171793,0.8543 1.074124,0.92898 0.765421,0.0634 0.992188,0.19576 0.992188,0.57934 0,0.38358 -0.226767,0.51599 -0.992188,0.57934 -0.902331,0.0747 -0.999607,0.15882 -1.074124,0.92898 l -0.08194,0.84686 1.669437,0.0792 c 1.583229,0.0751 1.669437,0.11334 1.669437,0.74064 0,0.64807 -0.0458,0.66299 -2.261488,0.73713 -1.243818,0.0416 -2.345146,-0.008 -2.447396,-0.11025 z m 5.811314,-0.01 c -0.09701,-0.097 -0.176389,-1.81539 -0.176389,-3.81862 0,-3.47215 0.02605,-3.65051 0.55778,-3.81928 0.876967,-0.27834 3.336354,0.12843 3.993411,0.66048 0.820755,0.66461 0.829923,2.41946 0.01689,3.23249 l -0.57927,0.57927 0.698641,1.28364 c 0.640585,1.17696 0.663443,1.31883 0.275071,1.7072 -0.63603,0.63603 -1.177686,0.26283 -1.973454,-1.35971 -0.933254,-1.90287 -1.401566,-1.91529 -1.401566,-0.0372 0,1.05707 -0.108472,1.46853 -0.418514,1.5875 -0.537995,0.20645 -0.774115,0.2027 -0.992597,-0.0158 z m 3.33003,-4.81311 c 0.204053,-0.7803 -0.281392,-1.3605 -1.138316,-1.3605 -0.715729,0 -0.780603,0.077 -0.780603,0.92604 0,0.87587 0.04851,0.92605 0.895183,0.92605 0.649856,0 0.930413,-0.13472 1.023736,-0.49159 z M 100.53191,424.5818 c -3.31796,-0.0392 -6.090154,-0.0137 -6.160434,0.0566 -0.07028,0.0703 1.227205,1.55969 2.8833,3.3098 l 3.011084,3.18202 3.14935,-3.23859 3.14934,-3.23859 z"
         id="path12876" /></g></g></svg>
