<?xml version="1.0" encoding="UTF-8" standalone="no"?>
<!-- Created with Inkscape (http://www.inkscape.org/) -->

<svg
   width="21.075262mm"
   height="18.522902mm"
   viewBox="0 0 21.075262 18.522902"
   version="1.1"
   id="svg1"
   xml:space="preserve"
   xmlns="http://www.w3.org/2000/svg"
   xmlns:svg="http://www.w3.org/2000/svg"><defs
     id="defs1" /><g
     id="layer1"
     transform="translate(-342.85401,-1298.3863)"><g
       id="g13108"
       transform="translate(30.273417,35.396139)"><path
         style="fill:#e6e7e8"
         d="m 312.98786,1281.2262 c -0.15666,-0.1566 -0.28483,-0.6371 -0.28483,-1.0677 v -0.783 l 4.68443,-8.0955 4.68443,-8.0954 h 1.04098 1.04098 l 4.71154,8.1301 4.71154,8.1302 -0.13121,0.9228 -0.13121,0.9228 -10.02091,0.1113 -10.02092,0.1114 z m 12.37513,-1.5226 0.74372,-0.5438 -0.19103,-1.0177 -0.19104,-1.0176 -0.0567,1.1451 -0.0567,1.145 h -0.38169 c -0.20994,0 -0.47621,-0.2342 -0.59172,-0.5205 l -0.21002,-0.5204 -0.0329,0.7286 -0.0329,0.7287 h -1.24918 -1.24918 l -0.0329,-0.7287 -0.0329,-0.7286 -0.21002,0.5204 c -0.11551,0.2863 -0.38179,0.5205 -0.59172,0.5205 h -0.38169 l -0.0567,-1.145 -0.0567,-1.1451 -0.19104,1.0176 -0.19103,1.0177 0.74372,0.5438 0.74372,0.5438 h 1.5064 1.5064 z m -6.10176,-2.8207 -0.72869,-0.4244 -0.0727,-1.9572 -0.0727,-1.9572 -0.1609,1.8005 -0.16089,1.8004 0.49282,0.5939 c 0.27105,0.3266 0.7041,0.5881 0.96233,0.5811 l 0.46951,-0.013 z m 4.35131,-0.05 -0.49967,-0.4997 -0.49967,0.4997 -0.49967,0.4997 h 0.99934 0.99934 z m 4.05512,-0.094 0.49282,-0.5939 -0.16089,-1.8004 -0.1609,-1.8005 -0.0727,1.9572 -0.0727,1.9572 -0.72869,0.4244 -0.72869,0.4244 0.46951,0.013 c 0.25823,0.01 0.69127,-0.2545 0.96233,-0.5811 z m -5.66011,-0.9677 0.19301,-0.3123 h -1.16966 -1.16965 l 0.193,0.3123 c 0.10616,0.1718 0.54565,0.3123 0.97665,0.3123 0.431,0 0.87049,-0.1405 0.97665,-0.3123 z m 4.17259,-0.014 0.20166,-0.3263 -1.11398,0.014 -1.11397,0.014 v -0.8328 -0.8328 l 1.14031,0.016 1.1403,0.016 -0.36738,-0.3674 -0.36739,-0.3674 -0.72829,0.1432 c -0.40056,0.079 -0.92488,0.4553 -1.16516,0.8369 l -0.43688,0.6938 0.54733,0.6595 0.54733,0.6595 h 0.75723 c 0.41647,0 0.84797,-0.1468 0.95889,-0.3263 z m -4.17259,-2.2762 c -0.10616,-0.1717 -0.54565,-0.3123 -0.97665,-0.3123 -0.431,0 -0.87049,0.1406 -0.97665,0.3123 l -0.193,0.3123 h 1.16965 1.16966 z m -2.89974,-1.7913 0.24798,-0.6462 -0.41162,0.2544 c -0.2264,0.1399 -0.41163,0.4307 -0.41163,0.6462 0,0.599 0.29846,0.467 0.57527,-0.2544 z m 7.54024,-1.0237 c -0.65594,-0.6846 -1.32889,-1.2448 -1.49544,-1.2448 -0.16655,0 0.29011,0.6124 1.01479,1.3608 0.72468,0.7485 1.39763,1.3087 1.49544,1.2449 0.0978,-0.064 -0.35884,-0.6762 -1.01479,-1.3609 z m -3.74338,-1.2822 1.66558,-0.2748 -1.48189,-0.052 -1.48189,-0.052 -0.80828,0.6555 -0.80827,0.6554 0.62459,-0.3285 c 0.34352,-0.1808 1.3741,-0.4523 2.29016,-0.6034 z"
         id="path13136" /><path
         style="fill:#d6d7d9"
         d="m 312.98786,1281.2262 c -0.15666,-0.1566 -0.27009,-0.6752 -0.25207,-1.1523 l 0.0327,-0.8675 4.65215,-7.9114 4.65215,-7.9115 h 1.04051 1.0405 l 4.6657,7.9115 4.66569,7.9114 -0.0854,1.041 -0.0854,1.041 -10.02091,0.1113 -10.02092,0.1114 z m 12.23435,-1.4098 0.80541,-0.4311 v -0.9276 -0.9276 l 0.93689,-0.411 0.93688,-0.411 0.12763,-1.7613 0.12763,-1.7612 -0.65485,-1.38 -0.65485,-1.38 -1.2026,-0.7104 -1.2026,-0.7104 h -1.30971 -1.30971 l -1.22145,0.6316 -1.22146,0.6317 -0.63163,1.2214 -0.63164,1.2215 v 1.8848 1.8849 l 1.04098,0.6821 1.04099,0.682 v 0.7642 0.7643 l 0.72868,0.4244 0.72869,0.4244 1.38066,0.013 1.38065,0.013 z m -3.39139,-0.7774 -0.0329,-0.6653 -0.21002,0.5204 c -0.11551,0.2863 -0.38179,0.5205 -0.59172,0.5205 h -0.38169 v -0.9741 -0.9742 l -1.04098,-0.4743 -1.04099,-0.4743 v -2.1325 -2.1325 l 1.41574,-1.4158 1.41574,-1.4157 h 1.70064 1.70064 l 1.31979,1.1792 1.31979,1.1793 0.19497,2.3511 0.19498,2.3511 -1.0918,0.4151 -1.0918,0.4151 v 1.0512 1.0513 h -0.38169 c -0.20994,0 -0.47621,-0.2342 -0.59172,-0.5205 l -0.21002,-0.5204 -0.0329,0.7008 -0.0329,0.7008 -1.24918,-0.035 -1.24918,-0.035 z m 1.78172,-2.206 -0.49967,-0.4997 -0.49967,0.4997 -0.49967,0.4997 h 0.99934 0.99934 z m -1.30349,-1.409 0.54733,-0.6595 -0.43763,-0.6938 -0.43763,-0.6938 h -0.95022 -0.95022 l -0.43763,0.6938 -0.43763,0.6938 0.54733,0.6595 0.54734,0.6595 h 0.73081 0.73082 z m -2.37628,-0.3803 -0.26163,-0.6818 0.42746,-0.4274 0.42745,-0.4275 0.77292,0.1489 0.77292,0.1488 v 0.8271 0.8271 l -0.93875,0.1333 -0.93875,0.1333 z m 6.51957,0.1029 0.45401,-0.9369 -0.61612,0.7653 -0.61612,0.7653 -0.76013,-0.1464 -0.76013,-0.1464 v -0.8271 -0.8271 l 1.14031,0.016 1.1403,0.016 -0.36738,-0.3674 -0.36739,-0.3674 -0.72829,0.1432 c -0.40056,0.079 -0.92488,0.4553 -1.16516,0.8369 l -0.43688,0.6938 0.54733,0.6595 0.54733,0.6595 h 0.76715 0.76715 z"
         id="path13135" /><path
         style="fill:#c5c7ca"
         d="m 312.98786,1281.2262 c -0.15666,-0.1566 -0.28483,-0.6019 -0.28483,-0.9894 v -0.7046 l 4.69804,-8.0744 4.69804,-8.0743 h 1.01932 1.01933 l 4.71075,8.0971 4.71076,8.097 -0.12238,0.8554 -0.12238,0.8554 -10.02091,0.1113 -10.02092,0.1114 z m 12.23435,-1.4098 0.80541,-0.4311 v -0.7702 -0.7703 l 1.04099,-0.682 1.04098,-0.6821 v -1.8849 -1.8848 l -0.63164,-1.2215 -0.63164,-1.2214 -1.22145,-0.6317 -1.22145,-0.6316 h -1.29054 -1.29054 l -1.22145,0.6316 -1.22146,0.6317 -0.63163,1.2214 -0.63164,1.2215 v 1.8848 1.8849 l 1.04098,0.6821 1.04099,0.682 v 0.9626 0.9626 l 0.72868,0.1904 c 0.40078,0.1047 1.34999,0.2122 2.10935,0.2387 l 1.38065,0.048 z m -3.39139,-0.7141 -0.0329,-0.7286 -0.21002,0.5204 c -0.11551,0.2863 -0.38179,0.5205 -0.59172,0.5205 h -0.38169 v -1.2202 -1.2202 l -0.93689,-0.1331 -0.93688,-0.133 -0.12653,-2.2053 -0.12652,-2.2053 1.43816,-1.4381 1.43817,-1.4382 h 1.70064 1.70064 l 1.34724,1.2037 1.34723,1.2038 0.0126,2.4397 0.0126,2.4397 -0.93688,0.133 -0.93689,0.1331 v 1.2202 1.2202 h -0.38169 c -0.20994,0 -0.47621,-0.2342 -0.59172,-0.5205 l -0.21002,-0.5204 -0.0329,0.7286 c -0.0383,0.849 -0.49212,0.9357 -1.19877,0.2291 l -0.49967,-0.4997 v 0.4997 0.4996 h -0.4164 -0.41639 z m 1.72044,-1.9778 c -0.0326,-0.6181 -0.96421,-0.5045 -1.18033,0.1438 l -0.18676,0.5603 0.69454,-0.1439 0.69454,-0.1438 z m -1.24221,-1.7005 0.54733,-0.6595 -0.43763,-0.6938 -0.43763,-0.6938 h -0.95022 -0.95022 l -0.43763,0.6938 -0.43763,0.6938 0.54733,0.6595 0.54734,0.6595 h 0.73081 0.73082 z m -2.3691,-0.3616 -0.23202,-0.6046 0.26967,-0.4363 0.26966,-0.4364 h 0.78364 c 0.431,0 0.889,0.1705 1.01776,0.3788 l 0.23412,0.3789 -0.25409,0.6621 -0.2541,0.6622 h -0.80131 -0.8013 z m 6.64559,0.1191 0.43477,-0.6938 -0.54733,-0.6595 -0.54733,-0.6595 h -0.96194 -0.96193 l -0.27066,0.8528 -0.27066,0.8528 0.51846,0.6247 0.51845,0.6247 0.8267,-0.1242 0.8267,-0.1242 z m -2.48165,-0.1191 -0.23203,-0.6046 0.26967,-0.4363 0.26967,-0.4364 h 0.76366 0.76366 l 0.19141,0.5205 c 0.10528,0.2863 0.10971,0.7547 0.01,1.041 l -0.18156,0.5205 h -0.81115 -0.81116 z"
         id="path13134" /><path
         style="fill:#bec0c4"
         d="m 312.98786,1281.2262 c -0.15666,-0.1566 -0.28483,-0.5897 -0.28483,-0.9623 v -0.6776 l 4.70359,-8.1014 4.70358,-8.1014 h 1.00267 1.00267 l 4.71686,8.1197 4.71686,8.1196 -0.11737,0.8328 -0.11738,0.8328 -10.02091,0.1113 -10.02092,0.1114 z m 12.23435,-1.4098 0.80541,-0.4311 v -0.7702 -0.7703 l 1.04099,-0.682 1.04098,-0.6821 v -1.8849 -1.8848 l -0.63164,-1.2215 -0.63164,-1.2214 -1.22145,-0.6317 -1.22145,-0.6316 h -1.29054 -1.29054 l -1.22145,0.6316 -1.22146,0.6317 -0.63163,1.2214 -0.63164,1.2215 v 1.8848 1.8849 l 1.04098,0.6821 1.04099,0.682 v 0.9584 0.9584 l 0.52049,0.2101 c 0.28627,0.1155 1.23547,0.2248 2.10934,0.2429 l 1.58885,0.033 z m -3.39139,-0.7141 -0.0329,-0.7286 -0.21002,0.5204 c -0.11551,0.2863 -0.38179,0.5205 -0.59172,0.5205 h -0.38169 v -1.2202 -1.2202 l -0.93689,-0.1331 -0.93688,-0.133 0.0126,-2.4397 0.0126,-2.4397 1.34723,-1.2038 1.34723,-1.2037 h 1.21551 c 0.66853,0 1.69606,0.1827 2.2834,0.406 l 1.0679,0.406 0.83142,1.3637 0.83142,1.3636 0.002,1.3193 c 8.6e-4,0.7255 -0.11218,1.6156 -0.25119,1.9778 l -0.25275,0.6587 h -0.78823 -0.78824 v 1.2492 1.2491 h -0.38169 c -0.20994,0 -0.47621,-0.2342 -0.59172,-0.5205 l -0.21002,-0.5204 -0.0329,0.7286 -0.0329,0.7287 h -0.3957 c -0.21764,0 -0.5867,-0.3279 -0.82013,-0.7287 l -0.42442,-0.7286 -0.0127,0.7286 -0.0127,0.7287 h -0.4164 -0.41639 z m 2.01074,-1.8737 -0.1735,-0.5205 h -0.55519 -0.55519 l -0.1735,0.5205 -0.1735,0.5205 h 0.90219 0.90219 z m -1.57806,-1.7497 0.50178,-0.6046 -0.27066,-0.8528 -0.27066,-0.8528 h -1.19306 -1.19306 l -0.27066,0.8528 -0.27066,0.8528 0.50179,0.6046 0.50178,0.6046 h 0.73081 0.73082 z m -2.23038,-0.474 -0.2541,-0.6621 0.23412,-0.3789 c 0.12877,-0.2083 0.57777,-0.3788 0.99779,-0.3788 h 0.76366 l 0.19141,0.5205 c 0.10527,0.2863 0.10971,0.7547 0.01,1.041 l -0.18156,0.5205 h -0.75354 -0.75354 z m 6.55242,0.1766 0.43477,-0.6938 -0.54733,-0.6595 -0.54733,-0.6595 h -0.96194 -0.96193 l -0.27066,0.8528 -0.27066,0.8528 0.51846,0.6247 0.51845,0.6247 0.8267,-0.1242 0.8267,-0.1242 z m -2.48165,-0.1191 -0.23203,-0.6046 0.26967,-0.4363 0.26967,-0.4364 h 0.76366 0.76366 l 0.19141,0.5205 c 0.10528,0.2863 0.10971,0.7547 0.01,1.041 l -0.18156,0.5205 h -0.81115 -0.81116 z"
         id="path13133" /><path
         style="fill:#bbbec2"
         d="m 312.98786,1281.2262 c -0.15666,-0.1566 -0.28481,-0.5815 -0.28478,-0.9441 l 4e-5,-0.6593 4.70353,-8.1196 4.70352,-8.1197 h 1.00268 1.00269 l 4.71686,8.1197 4.71686,8.1196 -0.11737,0.8328 -0.11738,0.8328 -10.02091,0.1113 -10.02092,0.1114 z m 12.10288,-1.2412 0.93688,-0.2511 v -0.9445 -0.9446 l 1.04099,-0.682 1.04098,-0.6821 v -1.8849 -1.8848 l -0.63164,-1.2215 -0.63164,-1.2214 -1.22145,-0.6317 -1.22145,-0.6316 h -1.29054 -1.29054 l -1.22145,0.6316 -1.22146,0.6317 -0.63163,1.2214 -0.63164,1.2215 0.006,1.7903 c 0.007,1.9838 0.26737,2.5545 1.34691,2.9528 l 0.72869,0.2688 v 1.0194 1.0193 l 0.52049,0.2101 c 0.74479,0.3005 3.27168,0.3082 4.37213,0.013 z m -3.25992,-0.8827 -0.0329,-0.7286 -0.21002,0.5204 c -0.11551,0.2863 -0.38179,0.5205 -0.59172,0.5205 h -0.38169 v -1.2202 -1.2202 l -0.93689,-0.1331 -0.93688,-0.133 0.0105,-2.3954 0.0105,-2.3953 1.05283,-1.0528 1.05283,-1.0528 1.43499,-0.229 1.435,-0.2289 1.14489,0.4397 1.14489,0.4396 0.83142,1.3637 0.83142,1.3636 0.002,1.3193 c 8.6e-4,0.7255 -0.11218,1.6156 -0.25119,1.9778 l -0.25275,0.6587 h -0.78823 -0.78824 v 1.2492 1.2491 h -0.41639 -0.4164 l -0.0127,-0.5205 -0.0127,-0.5204 -0.46301,0.7976 -0.463,0.7976 -0.56532,-0.7731 -0.56531,-0.7731 v 0.7042 0.7041 h -0.4164 -0.41639 z m 2.01074,-1.8737 -0.1735,-0.5205 h -0.55519 -0.55519 l -0.1735,0.5205 -0.1735,0.5205 h 0.90219 0.90219 z m -1.57806,-1.7497 0.50178,-0.6046 -0.27066,-0.8528 -0.27066,-0.8528 h -1.19306 -1.19306 l -0.27066,0.8528 -0.27066,0.8528 0.50179,0.6046 0.50178,0.6046 h 0.73081 0.73082 z m -2.16769,-0.3323 c -0.10528,-0.2863 -0.10971,-0.7547 -0.01,-1.041 l 0.18155,-0.5205 h 0.75354 0.75354 l 0.19141,0.5205 c 0.10527,0.2863 0.10971,0.7547 0.01,1.041 l -0.18156,0.5205 h -0.75354 -0.75354 z m 6.37717,0.2774 0.54733,-0.6595 -0.43424,-0.6938 -0.43425,-0.6938 -1.04989,-0.1266 -1.04989,-0.1266 -0.27083,0.7058 -0.27083,0.7057 0.2457,0.7742 0.2457,0.7741 h 0.96193 0.96194 z m -2.36909,-0.3616 -0.23203,-0.6046 0.26967,-0.4363 0.26967,-0.4364 h 0.76366 0.76366 l 0.22021,0.5739 0.22021,0.5738 -0.46713,0.4672 c -0.25693,0.2569 -0.71661,0.4671 -1.02152,0.4671 h -0.55438 z"
         id="path13132" /><path
         style="fill:#b3b6ba"
         d="m 312.98786,1281.2262 c -0.15666,-0.1566 -0.28481,-0.5815 -0.28478,-0.9441 l 4e-5,-0.6593 4.70353,-8.1196 4.70352,-8.1197 h 1.0027 1.0027 l 4.71222,8.1197 4.71222,8.1196 -0.11275,0.8328 -0.11275,0.8328 -10.02091,0.1113 -10.02092,0.1114 z m 12.38112,-1.2315 0.65864,-0.2528 v -0.9485 -0.9486 l 1.04099,-0.682 1.04098,-0.6821 v -1.8849 -1.8848 l -0.63164,-1.2215 -0.63164,-1.2214 -1.22145,-0.6317 -1.22145,-0.6316 h -1.29054 -1.29054 l -1.22145,0.6316 -1.22146,0.6317 -0.63163,1.2214 -0.63164,1.2215 0.006,1.7903 c 0.007,1.9838 0.26737,2.5545 1.34691,2.9528 l 0.72869,0.2688 v 1.0194 1.0193 l 0.52049,0.2101 c 0.75297,0.3038 3.87827,0.3193 4.65037,0.023 z m -3.53816,-0.8924 -0.0329,-0.7286 -0.21002,0.5204 c -0.11551,0.2863 -0.38179,0.5205 -0.59172,0.5205 h -0.38169 v -1.2202 -1.2202 l -0.93689,-0.1331 -0.93688,-0.133 0.009,-2.3707 0.009,-2.3707 0.9941,-1.0582 0.9941,-1.0582 1.39772,-0.2622 1.39772,-0.2622 1.29149,0.535 1.29149,0.5349 0.78198,1.2824 0.78198,1.2823 0.002,1.3193 c 8.6e-4,0.7255 -0.11218,1.6156 -0.25119,1.9778 l -0.25275,0.6587 h -0.78823 -0.78824 v 1.2492 1.2491 h -0.41639 -0.4164 l -0.0127,-0.5205 -0.0127,-0.5204 -0.44068,0.7577 -0.44068,0.7577 -0.5744,-0.7577 -0.5744,-0.7577 -0.0132,0.7286 -0.0132,0.7287 h -0.4164 -0.41639 z m 2.01074,-1.8737 -0.1735,-0.5205 h -0.55519 -0.55519 l -0.1735,0.5205 -0.1735,0.5205 h 0.90219 0.90219 z m -1.57806,-1.7497 0.50178,-0.6046 -0.27066,-0.8528 -0.27066,-0.8528 h -1.19306 -1.19306 l -0.27066,0.8528 -0.27066,0.8528 0.50179,0.6046 0.50178,0.6046 h 0.73081 0.73082 z m -2.16769,-0.3323 c -0.10528,-0.2863 -0.10971,-0.7547 -0.01,-1.041 l 0.18155,-0.5205 h 0.75354 0.75354 l 0.19141,0.5205 c 0.10527,0.2863 0.10971,0.7547 0.01,1.041 l -0.18156,0.5205 h -0.75354 -0.75354 z m 6.37717,0.2774 0.54733,-0.6595 -0.43477,-0.6938 -0.43477,-0.6938 -0.94239,-0.1393 -0.94238,-0.1394 -0.42116,0.4212 -0.42116,0.4211 0.26892,1.0715 0.26892,1.0715 h 0.98207 0.98206 z m -2.36909,-0.3616 -0.23203,-0.6046 0.26967,-0.4363 0.26967,-0.4364 h 0.76366 0.76366 l 0.22021,0.5739 0.22021,0.5738 -0.46713,0.4672 c -0.25693,0.2569 -0.71661,0.4671 -1.02152,0.4671 h -0.55438 z"
         id="path13131" /><path
         style="fill:#a9adb2"
         d="m 312.98786,1281.2262 c -0.15666,-0.1566 -0.28148,-0.5815 -0.27738,-0.9441 l 0.007,-0.6593 4.70014,-8.1196 4.70014,-8.1197 h 0.99467 0.99467 l 4.70876,8.1197 4.70876,8.1196 -0.10528,0.8328 -0.10527,0.8328 -10.02091,0.1113 -10.02092,0.1114 z m 12.38112,-1.2315 0.65864,-0.2528 v -0.9485 -0.9486 l 1.04099,-0.682 1.04098,-0.6821 v -1.8849 -1.8848 l -0.63164,-1.2215 -0.63164,-1.2214 -1.31113,-0.678 -1.31113,-0.678 -1.85378,0.2089 -1.85378,0.2089 -1.0376,1.0376 -1.0376,1.0376 -0.21393,1.898 -0.21393,1.898 0.255,1.0161 0.255,1.016 0.83734,0.2189 0.83735,0.219 v 1.0453 1.0452 l 0.52049,0.2101 c 0.75297,0.3038 3.87827,0.3193 4.65037,0.023 z m -3.53816,-0.8924 -0.0329,-0.7286 -0.21002,0.5204 c -0.11551,0.2863 -0.38179,0.5205 -0.59172,0.5205 h -0.38169 v -1.2202 -1.2202 l -0.93689,-0.1331 -0.93688,-0.133 -0.12324,-1.8879 -0.12324,-1.8879 0.97003,-1.4433 0.97003,-1.4432 1.55258,-0.387 1.55258,-0.387 1.43345,0.6836 1.43345,0.6836 0.66705,1.2899 0.66705,1.2899 -0.12774,1.5365 -0.12774,1.5364 -0.93688,0.411 -0.93689,0.4111 v 1.1504 1.1504 h -0.41639 -0.4164 l -0.0127,-0.5205 -0.0127,-0.5204 -0.44068,0.7577 -0.44068,0.7577 -0.5744,-0.7577 -0.5744,-0.7577 -0.0132,0.7286 -0.0132,0.7287 h -0.4164 -0.41639 z m 2.01074,-1.8737 -0.1735,-0.5205 h -0.55519 -0.55519 l -0.1735,0.5205 -0.1735,0.5205 h 0.90219 0.90219 z m -1.57806,-1.7497 0.50178,-0.6046 -0.27066,-0.8528 -0.27066,-0.8528 h -1.19306 -1.19306 l -0.27066,0.8528 -0.27066,0.8528 0.50179,0.6046 0.50178,0.6046 h 0.73081 0.73082 z m -2.16769,-0.3323 c -0.10528,-0.2863 -0.10971,-0.7547 -0.01,-1.041 l 0.18155,-0.5205 h 0.75354 0.75354 l 0.19141,0.5205 c 0.10527,0.2863 0.10971,0.7547 0.01,1.041 l -0.18156,0.5205 h -0.75354 -0.75354 z m 6.33162,0.3323 0.50178,-0.6046 -0.27065,-0.8528 -0.27066,-0.8528 h -1.19655 -1.19655 l -0.27197,0.4401 -0.27197,0.4401 0.25533,1.0173 0.25533,1.0173 h 0.98207 0.98206 z m -2.22253,-0.4535 -0.26195,-0.6826 0.23413,-0.3789 c 0.12876,-0.2083 0.61085,-0.3788 1.07129,-0.3788 h 0.83717 l -0.13305,0.9327 -0.13306,0.9326 -0.6763,0.1288 -0.67629,0.1288 z"
         id="path13130" /><path
         style="fill:#a4a7ac"
         d="m 312.98786,1281.2262 c -0.15666,-0.1566 -0.28318,-0.5815 -0.28116,-0.9441 l 0.004,-0.6593 4.72319,-8.1196 4.7232,-8.1197 h 0.95207 0.95207 l 4.73306,8.1197 4.73305,8.1196 -0.10625,0.8328 -0.10625,0.8328 -10.02091,0.1113 -10.02092,0.1114 z m 12.38112,-1.2315 0.65864,-0.2528 v -1.0095 -1.0095 l 0.72869,-0.2688 c 1.07954,-0.3983 1.33984,-0.969 1.3469,-2.9528 l 0.006,-1.7903 -0.63164,-1.2215 -0.63164,-1.2214 -1.22145,-0.6317 -1.22145,-0.6316 h -1.7279 -1.72789 l -1.41573,1.4157 -1.41574,1.4158 v 2.5489 2.5489 l 1.04098,0.4743 1.04099,0.4743 v 0.9395 0.9394 l 0.52049,0.2101 c 0.75297,0.3038 3.87827,0.3193 4.65037,0.023 z m -3.40282,-0.7883 -0.49354,-0.8327 -0.0127,0.5204 -0.0127,0.5205 h -0.4164 -0.41639 v -1.2491 -1.2492 h -0.78824 -0.78824 l -0.25274,-0.6587 c -0.13901,-0.3622 -0.25275,-1.2714 -0.25275,-2.0204 v -1.3617 l 0.95089,-1.4149 0.95089,-1.4148 1.55258,-0.387 1.55258,-0.387 1.43345,0.6836 1.43345,0.6836 0.66705,1.2899 0.66705,1.2899 -0.12774,1.5365 -0.12774,1.5364 -0.93688,0.411 -0.93689,0.4111 v 1.1504 1.1504 h -0.41639 -0.4164 v -0.4959 -0.496 l -0.61134,0.8083 -0.61135,0.8082 -0.0132,-0.7287 -0.0132,-0.7286 h -0.38586 c -0.21222,0 -0.45287,0.3279 -0.53478,0.7286 l -0.14891,0.7287 z m 1.8754,-1.9778 -0.1735,-0.5205 h -0.55519 -0.55519 l -0.1735,0.5205 -0.1735,0.5205 h 0.90219 0.90219 z m -1.57806,-1.7497 0.50178,-0.6046 -0.27066,-0.8528 -0.27066,-0.8528 h -1.17657 -1.17657 l -0.26219,0.6833 -0.26219,0.6832 0.2457,0.7742 0.2457,0.7741 h 0.96194 0.96194 z m -1.94957,-0.2789 -0.46713,-0.4672 0.22021,-0.5738 0.2202,-0.5739 h 0.74369 0.74369 l 0.22021,0.5739 0.2202,0.5738 -0.46713,0.4672 c -0.25692,0.2569 -0.57956,0.4671 -0.71697,0.4671 -0.13741,0 -0.46004,-0.2102 -0.71697,-0.4671 z m 6.1135,0.2789 0.50178,-0.6046 -0.27819,-0.8765 -0.27818,-0.8765 -1.31428,0.1278 -1.31428,0.1278 -0.14272,0.753 c -0.0785,0.4142 -0.0391,1.0232 0.0876,1.3533 l 0.23034,0.6003 h 1.00307 1.00306 z m -2.22253,-0.4535 -0.26195,-0.6826 0.23413,-0.3789 c 0.12876,-0.2083 0.61085,-0.3788 1.07129,-0.3788 h 0.83717 l -0.13305,0.9327 -0.13306,0.9326 -0.6763,0.1288 -0.67629,0.1288 z"
         id="path13129" /><path
         style="fill:#9da1a6"
         d="m 312.98786,1281.2262 c -0.15666,-0.1566 -0.28191,-0.5815 -0.27834,-0.9441 l 0.006,-0.6593 4.72442,-8.1196 4.72441,-8.1197 h 0.94804 0.94803 l 4.73306,8.1197 4.73305,8.1196 -0.10625,0.8328 -0.10625,0.8328 -10.02091,0.1113 -10.02092,0.1114 z m 12.38112,-1.2315 0.65864,-0.2528 v -0.9964 -0.9964 h 0.38665 c 0.21266,0 0.68111,-0.2945 1.04099,-0.6544 l 0.65433,-0.6543 v -1.8647 -1.8647 l -0.63164,-1.2215 -0.63164,-1.2214 -1.22145,-0.6317 -1.22145,-0.6316 h -1.7279 -1.72789 l -1.41573,1.4157 -1.41574,1.4158 v 2.5489 2.5489 l 1.04098,0.4743 1.04099,0.4743 v 0.9395 0.9394 l 0.52049,0.2101 c 0.75297,0.3038 3.87827,0.3193 4.65037,0.023 z m -3.40282,-0.7883 -0.49354,-0.8327 -0.0127,0.5204 -0.0127,0.5205 h -0.4164 -0.41639 v -1.2491 -1.2492 h -0.78824 -0.78824 l -0.25274,-0.6587 c -0.13901,-0.3622 -0.25275,-1.2147 -0.25275,-1.8944 v -1.2358 l 0.63164,-1.2215 0.63164,-1.2214 1.22145,-0.6317 c 0.6718,-0.3474 1.65236,-0.6309 2.17902,-0.63 h 0.95756 l 1.3306,0.8113 1.3306,0.8113 0.47928,1.5997 0.47927,1.5997 -0.1443,1.0227 -0.1443,1.0227 -0.93688,0.411 -0.93689,0.4111 v 1.1504 1.1504 h -0.41639 -0.4164 v -0.4959 -0.496 l -0.61134,0.8083 -0.61135,0.8082 -0.0132,-0.7287 -0.0132,-0.7286 h -0.38586 c -0.21222,0 -0.45287,0.3279 -0.53478,0.7286 l -0.14891,0.7287 z m 1.8754,-1.9778 -0.1735,-0.5205 h -0.55519 -0.55519 l -0.1735,0.5205 -0.1735,0.5205 h 0.90219 0.90219 z m -1.3719,-1.9192 0.2457,-0.7742 -0.26219,-0.6832 -0.26219,-0.6833 h -1.16008 -1.16008 l -0.26219,0.6833 -0.26219,0.6832 0.2457,0.7742 0.2457,0.7741 h 1.19306 1.19306 z m -2.15573,-0.1094 -0.46713,-0.4672 0.22021,-0.5738 0.2202,-0.5739 h 0.74369 0.74369 l 0.22021,0.5739 0.2202,0.5738 -0.46713,0.4672 c -0.25692,0.2569 -0.57956,0.4671 -0.71697,0.4671 -0.13741,0 -0.46004,-0.2102 -0.71697,-0.4671 z m 6.1135,0.2789 0.50178,-0.6046 -0.25639,-0.8078 -0.25638,-0.8078 -0.75986,-0.1988 -0.75985,-0.1987 -0.68374,0.3827 -0.68373,0.3826 v 0.9509 c 0,1.1895 0.31019,1.5061 1.47579,1.5061 h 0.9206 z m -2.18266,-0.3496 -0.22206,-0.5787 0.33584,-0.5434 0.33584,-0.5434 0.69739,0.2676 0.69739,0.2676 -0.13965,0.7252 -0.13966,0.7251 -0.67151,0.1294 -0.67151,0.1293 z"
         id="path13128" /><path
         style="fill:#989ca2"
         d="m 312.98786,1281.2262 c -0.15666,-0.1566 -0.28252,-0.5815 -0.2797,-0.9441 l 0.005,-0.6593 4.73952,-8.1196 4.73952,-8.1197 h 0.92055 0.92055 l 4.74817,8.1197 4.74818,8.1196 -0.10763,0.8328 -0.10763,0.8328 -10.02091,0.1113 -10.02092,0.1114 z m 12.38112,-1.2315 0.65864,-0.2528 v -0.9964 -0.9964 h 0.38665 c 0.21266,0 0.68111,-0.2945 1.04099,-0.6544 l 0.65433,-0.6543 v -1.8647 -1.8647 l -0.62221,-1.2032 c -0.34222,-0.6618 -1.03973,-1.4957 -1.55003,-1.8531 l -0.92781,-0.6499 h -2.03096 -2.03096 l -1.41573,1.4157 -1.41574,1.4158 v 2.5489 2.5489 l 1.04098,0.4743 1.04099,0.4743 v 0.9395 0.9394 l 0.52049,0.2101 c 0.75297,0.3038 3.87827,0.3193 4.65037,0.023 z m -3.40282,-0.7883 -0.49354,-0.8327 -0.0127,0.5204 -0.0127,0.5205 h -0.4164 -0.41639 v -1.2491 -1.2492 h -0.78824 -0.78824 l -0.25274,-0.6587 c -0.13901,-0.3622 -0.25275,-1.2147 -0.25275,-1.8944 v -1.2358 l 0.63164,-1.2215 0.63164,-1.2214 1.22145,-0.6317 c 0.6718,-0.3474 1.65236,-0.6309 2.17902,-0.63 h 0.95756 l 1.3306,0.8113 1.3306,0.8113 0.47928,1.5997 0.47927,1.5997 -0.1443,1.0227 -0.1443,1.0227 -0.93688,0.411 -0.93689,0.4111 v 0.9176 0.9177 l -0.41639,0.2573 -0.4164,0.2574 v -0.5206 -0.5205 l -0.61134,0.8083 -0.61135,0.8082 -0.0132,-0.7287 -0.0132,-0.7286 h -0.38586 c -0.21222,0 -0.45287,0.3279 -0.53478,0.7286 l -0.14891,0.7287 z m 1.8754,-1.9778 -0.1735,-0.5205 h -0.55519 -0.55519 l -0.1735,0.5205 -0.1735,0.5205 h 0.90219 0.90219 z m -1.3719,-1.9192 0.2457,-0.7742 -0.24983,-0.651 c -0.13741,-0.3581 -0.52999,-0.7586 -0.8724,-0.89 l -0.62256,-0.2389 -0.80262,0.4296 -0.80262,0.4295 v 0.5759 c 0,0.3168 0.11373,0.8723 0.25274,1.2345 l 0.25275,0.6587 h 1.17657 1.17657 z m -2.15052,-0.1042 -0.47234,-0.4724 0.22021,-0.5738 0.2202,-0.5739 h 0.8172 0.8172 l -0.13306,0.9043 -0.13306,0.9043 -0.43201,0.1419 c -0.2376,0.078 -0.64456,-0.071 -0.90434,-0.3304 z m 6.10829,0.2737 0.50178,-0.6046 -0.25639,-0.8078 -0.25638,-0.8078 -0.75986,-0.1988 -0.75985,-0.1987 -0.68374,0.3827 -0.68373,0.3826 v 0.9509 c 0,1.1895 0.31019,1.5061 1.47579,1.5061 h 0.9206 z m -2.18266,-0.3496 -0.22206,-0.5787 0.33584,-0.5434 0.33584,-0.5434 0.69739,0.2676 0.69739,0.2676 -0.13965,0.7252 -0.13966,0.7251 -0.67151,0.1294 -0.67151,0.1293 z"
         id="path13127" /><path
         style="fill:#878b92"
         d="m 313.21016,1281.0044 c -0.27892,-0.2789 -0.50246,-0.7039 -0.49676,-0.9444 0.006,-0.2404 2.14007,-4.091 4.74305,-8.5568 l 4.73269,-8.1197 h 0.92485 0.92484 l 4.80852,8.2799 4.80852,8.2798 -0.42396,0.6726 -0.42395,0.6726 -9.54534,0.1116 -9.54534,0.1115 z m 12.15882,-1.0097 0.65864,-0.2528 v -0.9964 -0.9964 h 0.38665 c 0.21266,0 0.68111,-0.2945 1.04099,-0.6544 l 0.65433,-0.6543 v -1.8647 -1.8647 l -0.62221,-1.2032 c -0.34222,-0.6618 -1.03973,-1.4957 -1.55003,-1.8531 l -0.92781,-0.6499 h -2.03096 -2.03096 l -1.41573,1.4157 -1.41574,1.4158 v 2.5489 2.5489 l 1.04098,0.4743 1.04099,0.4743 v 0.9395 0.9394 l 0.52049,0.2101 c 0.75297,0.3038 3.87827,0.3193 4.65037,0.023 z m -3.40282,-0.7883 -0.49354,-0.8327 -0.0127,0.5204 -0.0127,0.5205 h -0.4164 -0.41639 v -1.1504 -1.1504 l -0.93689,-0.4111 -0.93688,-0.411 -0.12774,-1.5364 -0.12774,-1.5365 0.65528,-1.2672 0.65528,-1.2671 1.22145,-0.6317 c 0.6718,-0.3474 1.65236,-0.6309 2.17902,-0.63 h 0.95756 l 1.3306,0.8113 1.3306,0.8113 0.47928,1.5997 0.47927,1.5997 -0.1443,1.0227 -0.1443,1.0227 -0.93688,0.411 -0.93689,0.4111 v 0.9176 0.9177 l -0.41639,0.2573 -0.4164,0.2574 -0.0132,-0.5451 -0.0132,-0.545 -0.61135,0.8082 -0.61135,0.8083 v -0.7042 -0.7041 h -0.38586 c -0.21222,0 -0.45287,0.3279 -0.53478,0.7286 l -0.14891,0.7287 z m 1.8754,-1.9778 -0.1735,-0.5205 h -0.55519 -0.55519 l -0.1735,0.5205 -0.1735,0.5205 h 0.90219 0.90219 z m -1.29981,-2.2509 0.27753,-1.1058 -0.76558,-0.5598 c -0.42107,-0.3078 -0.88133,-0.5598 -1.0228,-0.5598 -0.14147,0 -0.60173,0.252 -1.0228,0.5598 l -0.76557,0.5598 0.27753,1.1058 0.27753,1.1058 h 1.23331 1.23332 z m -2.05736,0.4205 c -0.15745,-0.1575 -0.28627,-0.6436 -0.28627,-1.0802 v -0.7939 l 0.72868,0.1403 0.72869,0.1403 v 0.7924 0.7924 l -0.44242,0.1475 c -0.24333,0.081 -0.57124,0.019 -0.72868,-0.1388 z m 6.14921,-0.089 0.24569,-0.7742 -0.24983,-0.651 c -0.13741,-0.3581 -0.52999,-0.7586 -0.87239,-0.89 l -0.62256,-0.2389 -0.80262,0.4296 -0.80263,0.4295 v 0.957 c 0,1.2412 0.30578,1.5121 1.70692,1.5121 h 1.15172 z m -2.18524,-0.1629 -0.45507,-0.5483 0.35055,-0.5672 0.35055,-0.5672 0.69739,0.2676 0.69739,0.2676 -0.13487,0.6954 c -0.0742,0.3825 -0.34097,0.7641 -0.59287,0.848 l -0.458,0.1524 z"
         id="path13126" /><path
         style="fill:#82868d"
         d="m 313.11545,1280.8672 -0.53485,-0.6444 0.4462,-0.9246 c 0.24542,-0.5085 2.40487,-4.2973 4.79878,-8.4196 l 4.35257,-7.4951 0.83925,-0.1272 0.83924,-0.1273 4.89275,8.418 4.89274,8.418 -0.41708,0.6617 -0.41709,0.6617 -9.57883,0.1116 -9.57883,0.1117 z m 12.25353,-0.8725 0.65864,-0.2528 v -0.9296 -0.9296 l 1.04099,-0.4743 1.04098,-0.4743 v -2.5489 -2.5489 l -1.41574,-1.4158 -1.41573,-1.4157 h -2.16525 -2.16525 l -1.41573,1.4157 -1.41574,1.4158 v 2.5489 2.5489 l 1.04098,0.4743 1.04099,0.4743 v 0.9395 0.9394 l 0.52049,0.2101 c 0.75297,0.3038 3.87827,0.3193 4.65037,0.023 z m -3.40282,-0.7883 -0.49354,-0.8327 -0.0127,0.545 -0.0127,0.5451 -0.4164,-0.2574 -0.41639,-0.2573 v -0.9177 -0.9176 l -0.93689,-0.4111 -0.93688,-0.411 -0.12774,-1.5364 -0.12774,-1.5365 0.65528,-1.2672 0.65528,-1.2671 1.22145,-0.6317 c 0.6718,-0.3474 1.65236,-0.6309 2.17902,-0.63 h 0.95756 l 1.32773,0.8096 1.32772,0.8095 0.36877,1.375 c 0.20282,0.7562 0.35485,1.9371 0.33785,2.6241 l -0.0309,1.2492 -0.93688,0.411 -0.93689,0.4111 v 0.9176 0.9177 l -0.41639,0.2573 -0.4164,0.2574 v -0.441 c 0,-0.7248 -0.75667,-0.4986 -0.96215,0.2877 l -0.19042,0.7287 -0.0483,-0.7287 -0.0483,-0.7286 h -0.38586 c -0.21222,0 -0.45287,0.3279 -0.53478,0.7286 l -0.14891,0.7287 z m 1.8754,-1.9778 -0.1735,-0.5205 h -0.55519 -0.55519 l -0.1735,0.5205 -0.1735,0.5205 h 0.90219 0.90219 z m -1.22423,-2.4704 0.12906,-1.1171 -0.85775,-0.459 -0.85774,-0.4591 -0.83278,0.4457 -0.83279,0.4457 v 0.957 c 0,0.5263 0.1338,1.0907 0.29733,1.2542 l 0.29733,0.2974 1.26414,-0.1239 1.26415,-0.1238 z m -2.27938,0.2563 -0.25041,-0.6526 0.47168,-0.4716 0.47168,-0.4717 0.47169,0.4717 0.47168,0.4716 -0.25042,0.6526 c -0.13773,0.3589 -0.44956,0.6526 -0.69295,0.6526 -0.24339,0 -0.55522,-0.2937 -0.69295,-0.6526 z m 6.29565,0.2949 0.24569,-0.7742 -0.24983,-0.651 c -0.13741,-0.3581 -0.52999,-0.7586 -0.87239,-0.89 l -0.62256,-0.2389 -0.80262,0.4296 -0.80263,0.4295 v 0.957 c 0,1.2412 0.30578,1.5121 1.70692,1.5121 h 1.15172 z m -2.18524,-0.1629 -0.45507,-0.5483 0.35055,-0.5672 0.35055,-0.5672 0.69739,0.2676 0.69739,0.2676 -0.13487,0.6954 c -0.0742,0.3825 -0.34097,0.7641 -0.59287,0.848 l -0.458,0.1524 z"
         id="path13125" /><path
         style="fill:#7d828a"
         d="m 313.21016,1281.0044 c -0.27892,-0.2789 -0.50713,-0.6671 -0.50713,-0.8627 0,-0.1955 2.16995,-4.093 4.82211,-8.661 l 4.82211,-8.3054 h 0.76562 0.76562 l 4.87776,8.4013 4.87776,8.4013 -0.41303,0.6552 -0.41302,0.6553 -9.54534,0.1116 -9.54534,0.1115 z m 12.15882,-1.0097 0.65864,-0.2528 v -0.9296 -0.9296 l 1.04099,-0.4743 1.04098,-0.4743 v -2.5489 -2.5489 l -1.41574,-1.4158 -1.41573,-1.4157 h -2.16525 -2.16525 l -1.41573,1.4157 -1.41574,1.4158 v 2.5489 2.5489 l 1.04098,0.4743 1.04099,0.4743 v 0.9395 0.9394 l 0.52049,0.2101 c 0.75297,0.3038 3.87827,0.3193 4.65037,0.023 z m -3.40282,-0.7883 -0.49354,-0.8327 -0.0127,0.545 -0.0127,0.5451 -0.4164,-0.2574 -0.41639,-0.2573 v -0.9177 -0.9176 l -0.93689,-0.4111 -0.93688,-0.411 -0.1443,-1.0227 -0.14431,-1.0227 0.47928,-1.5997 0.47928,-1.5997 1.3306,-0.8113 1.3306,-0.8113 h 1.04098 1.04098 l 1.36374,0.8315 1.36374,0.8314 0.27399,1.3531 c 0.15069,0.7442 0.28652,1.9152 0.30183,2.6022 l 0.0279,1.2492 -0.93688,0.411 -0.93689,0.4111 v 0.9176 0.9177 l -0.41639,0.2573 -0.4164,0.2574 v -0.441 c 0,-0.7248 -0.75667,-0.4986 -0.96215,0.2877 l -0.19042,0.7287 -0.0483,-0.7287 -0.0483,-0.7286 h -0.38586 c -0.21222,0 -0.45287,0.3279 -0.53478,0.7286 l -0.14891,0.7287 z m 1.8754,-1.9778 -0.1735,-0.5205 h -0.55519 -0.55519 l -0.1735,0.5205 -0.1735,0.5205 h 0.90219 0.90219 z m -1.22423,-2.5153 0.12906,-1.0722 -0.85775,-0.459 -0.85774,-0.4591 -0.83278,0.4457 -0.83279,0.4457 v 1.0057 1.0056 l 0.70433,0.3942 0.70434,0.3941 0.85714,-0.3142 0.85714,-0.3143 z m -2.27938,0.3012 -0.25041,-0.6526 0.47168,-0.4716 0.47168,-0.4717 0.47169,0.4717 0.47168,0.4716 -0.25042,0.6526 c -0.13773,0.3589 -0.44956,0.6526 -0.69295,0.6526 -0.24339,0 -0.55522,-0.2937 -0.69295,-0.6526 z m 6.30991,0.2499 0.23143,-0.7292 -0.24983,-0.651 c -0.13741,-0.3581 -0.52999,-0.7586 -0.87239,-0.89 l -0.62256,-0.2389 -0.80262,0.4296 -0.80263,0.4295 v 1.0057 1.0056 l 0.68373,0.3827 0.68374,0.3826 0.75985,-0.1987 0.75986,-0.1987 z m -2.1995,-0.1179 -0.45507,-0.5483 0.35055,-0.5672 0.35055,-0.5672 0.69739,0.2676 0.69739,0.2676 -0.13487,0.6954 c -0.0742,0.3825 -0.34097,0.7641 -0.59287,0.848 l -0.458,0.1524 z"
         id="path13124" /><path
         style="fill:#767b83"
         d="m 313.21016,1281.0044 c -0.27892,-0.2789 -0.50713,-0.6671 -0.50713,-0.8627 0,-0.1955 2.16995,-4.093 4.82211,-8.661 l 4.82211,-8.3054 h 0.76562 0.76562 l 4.87776,8.4013 4.87776,8.4013 -0.41303,0.6552 -0.41302,0.6553 -9.54534,0.1116 -9.54534,0.1115 z m 12.15882,-1.0097 0.65864,-0.2528 v -0.9296 -0.9296 l 1.04099,-0.4743 1.04098,-0.4743 v -2.5007 -2.5007 l -1.14508,-1.2779 -1.14508,-1.2778 -1.45738,-0.3219 -1.45738,-0.3218 -1.31875,0.3469 -1.31876,0.3469 -1.0755,1.2782 -1.07551,1.2782 v 2.4185 2.4185 l 1.04098,0.6821 1.04099,0.6821 v 0.7884 0.7885 l 0.52049,0.2101 c 0.75297,0.3038 3.87827,0.3193 4.65037,0.023 z m -3.40282,-0.7883 -0.49354,-0.8327 -0.0127,0.545 -0.0127,0.5451 -0.4164,-0.2574 -0.41639,-0.2573 v -0.9177 -0.9176 l -0.93689,-0.4111 -0.93688,-0.411 -0.12733,-1.3111 -0.12733,-1.311 0.61502,-1.472 0.61502,-1.4719 1.33256,-0.6891 1.33257,-0.6891 1.45332,0.2726 1.45331,0.2727 0.99446,0.9944 0.99446,0.9945 v 2.3481 2.348 l -0.83278,0.2178 -0.83279,0.2178 v 0.9679 0.9678 l -0.41639,0.2573 -0.4164,0.2574 v -0.441 c 0,-0.7248 -0.75667,-0.4986 -0.96215,0.2877 l -0.19042,0.7287 -0.0483,-0.7287 -0.0483,-0.7286 h -0.38586 c -0.21222,0 -0.45287,0.3279 -0.53478,0.7286 l -0.14891,0.7287 z m 1.8754,-1.9778 -0.1735,-0.5205 h -0.55519 -0.55519 l -0.1735,0.5205 -0.1735,0.5205 h 0.90219 0.90219 z m -1.9505,-1.1598 0.80542,-0.431 v -1.0117 -1.0117 l -0.83279,-0.4457 -0.83279,-0.4457 -0.83278,0.4457 -0.83279,0.4457 v 1.0057 1.0056 l 0.72869,0.4244 c 0.91423,0.5325 0.83849,0.5317 1.79704,0.019 z m -1.55311,-1.0543 -0.25041,-0.6526 0.47168,-0.4716 0.47168,-0.4717 0.47169,0.4717 0.47168,0.4716 -0.25042,0.6526 c -0.13773,0.3589 -0.44956,0.6526 -0.69295,0.6526 -0.24339,0 -0.55522,-0.2937 -0.69295,-0.6526 z m 5.86813,0.8311 0.65433,-0.6544 v -0.7884 -0.7884 l -0.83279,-0.4457 -0.83278,-0.4457 -0.83279,0.4457 -0.83279,0.4457 v 1.0057 1.0056 l 0.72869,0.4244 c 0.98742,0.5752 1.18967,0.5539 1.94813,-0.2045 z m -1.79818,-0.7478 -0.47251,-0.5694 0.64737,-0.5373 0.64737,-0.5372 0.45404,0.454 0.45403,0.454 -0.25042,0.6526 c -0.30842,0.8038 -0.85634,0.8346 -1.47988,0.083 z"
         id="path13123" /><path
         style="fill:#686e77"
         d="m 313.21016,1281.0044 c -0.27892,-0.2789 -0.50713,-0.6581 -0.50713,-0.8425 0,-0.1845 2.17393,-4.0819 4.83096,-8.661 l 4.83095,-8.3256 h 0.74793 0.74793 l 4.88049,8.411 4.88049,8.411 -0.40691,0.6455 -0.40691,0.6456 -9.54534,0.1116 -9.54534,0.1115 z m 11.88058,-0.9602 0.93688,-0.2693 v -0.9461 -0.9461 l 1.04099,-0.4743 1.04098,-0.4743 v -2.4753 -2.4753 l -1.06775,-1.269 -1.06774,-1.2689 -1.43062,-0.3951 -1.43061,-0.395 -1.43061,0.395 -1.43062,0.3951 -1.06774,1.2689 -1.06775,1.269 v 2.4794 2.4795 l 0.6401,0.2456 0.6401,0.2457 0.5749,1.3759 0.5749,1.3759 1.17926,0.1714 c 1.24419,0.1808 1.84156,0.1253 3.36533,-0.3127 z m -2.97554,-0.8378 -0.34847,-0.8327 -0.19528,0.523 -0.19528,0.5231 -0.38083,-0.2353 -0.38083,-0.2354 v -0.9177 -0.9176 l -0.93689,-0.4111 -0.93688,-0.411 -0.12733,-1.3111 -0.12733,-1.311 0.63283,-1.5146 0.63284,-1.5146 1.55644,-0.6503 1.55645,-0.6503 1.53553,0.46 1.53553,0.4601 0.67055,1.0234 0.67055,1.0233 v 2.1356 2.1356 l -0.83278,0.2178 -0.83279,0.2178 v 0.9679 0.9678 l -0.41639,0.2573 -0.4164,0.2574 v -0.441 c 0,-0.7248 -0.75667,-0.4986 -0.96215,0.2877 l -0.19042,0.7287 -0.0483,-0.7287 -0.0483,-0.7286 h -0.38586 c -0.21222,0 -0.45198,0.3279 -0.53279,0.7286 l -0.14694,0.7287 z m 1.72636,-1.9778 -0.1735,-0.5205 h -0.55519 -0.55519 l -0.1735,0.5205 -0.1735,0.5205 h 0.90219 0.90219 z m -1.9505,-1.1598 0.80542,-0.431 v -1.0117 -1.0117 l -0.83279,-0.4457 -0.83279,-0.4457 -0.83278,0.4457 -0.83279,0.4457 v 1.0057 1.0056 l 0.72869,0.4244 c 0.91423,0.5325 0.83849,0.5317 1.79704,0.019 z m -1.55311,-1.0543 -0.25041,-0.6526 0.47168,-0.4716 0.47168,-0.4717 0.47169,0.4717 0.47168,0.4716 -0.25042,0.6526 c -0.13773,0.3589 -0.44956,0.6526 -0.69295,0.6526 -0.24339,0 -0.55522,-0.2937 -0.69295,-0.6526 z m 5.86813,0.8311 0.65433,-0.6544 v -0.7884 -0.7884 l -0.83279,-0.4457 -0.83278,-0.4457 -0.83279,0.4457 -0.83279,0.4457 v 1.0057 1.0056 l 0.72869,0.4244 c 0.98742,0.5752 1.18967,0.5539 1.94813,-0.2045 z m -1.70419,-0.8311 -0.25042,-0.6526 0.47168,-0.4716 0.47169,-0.4717 0.47168,0.4717 0.47168,0.4716 -0.25042,0.6526 c -0.13773,0.3589 -0.44955,0.6526 -0.69294,0.6526 -0.2434,0 -0.55522,-0.2937 -0.69295,-0.6526 z"
         id="path13122" /><path
         style="fill:#5d636c"
         d="m 313.1373,1280.8935 c -0.28215,-0.3399 -0.44844,-0.7844 -0.36953,-0.9877 0.0789,-0.2033 2.20461,-3.9526 4.72379,-8.3319 l 4.58033,-7.9623 0.52049,-0.2051 c 0.28627,-0.1128 0.75471,-0.1118 1.04098,0 l 0.52049,0.2073 4.72166,8.2101 4.72166,8.2102 -0.39461,0.626 -0.3946,0.6261 -9.57883,0.1116 -9.57883,0.1117 z m 12.36983,-0.876 0.52049,-0.1603 v -0.9872 -0.9873 l 1.04099,-0.4743 1.04098,-0.4743 v -2.4753 -2.4753 l -1.06775,-1.269 -1.06774,-1.2689 -1.43062,-0.3951 -1.43061,-0.395 -1.43061,0.395 -1.43062,0.3951 -1.06774,1.2689 -1.06775,1.269 v 2.4794 2.4795 l 0.6401,0.2456 0.6401,0.2457 0.5749,1.3759 0.5749,1.3759 1.17926,0.166 c 1.11436,0.1569 2.62014,0.024 3.78172,-0.334 z m -3.17875,-0.707 -0.0483,-0.7286 h -0.41639 c -0.22902,0 -0.41639,0.1984 -0.41639,0.4409 v 0.441 l -0.4164,-0.2574 -0.41639,-0.2573 v -0.9177 -0.9176 l -0.93689,-0.4111 -0.93688,-0.411 0.0756,-1.952 0.0756,-1.952 0.47841,-0.8939 0.47841,-0.8939 1.467,-0.613 1.46699,-0.6129 1.17568,0.2582 1.17569,0.2582 1.07134,1.0714 1.07135,1.0713 v 2.2724 2.2723 l -0.83278,0.2178 -0.83279,0.2178 v 0.9679 0.9678 l -0.41639,0.2573 -0.4164,0.2574 v -0.441 c 0,-0.7248 -0.75667,-0.4986 -0.96215,0.2877 l -0.19042,0.7287 -0.0483,-0.7287 -0.0483,-0.7286 h -0.38586 c -0.21222,0 -0.47155,0.3279 -0.57629,0.7286 l -0.19042,0.7287 z m 1.51337,-2.0819 c -0.0953,-0.2863 -0.48568,-0.5811 -0.86748,-0.6551 l -0.69419,-0.1347 v 0.6551 0.6552 h 0.86749 0.86749 z m -1.95069,-1.1598 0.80542,-0.431 v -1.0117 -1.0117 l -0.83279,-0.4457 -0.83279,-0.4457 -0.83278,0.4457 -0.83279,0.4457 v 1.0057 1.0056 l 0.72869,0.4244 c 0.91423,0.5325 0.83849,0.5317 1.79704,0.019 z m -1.55311,-1.0543 -0.25041,-0.6526 0.47168,-0.4716 0.47168,-0.4717 0.47169,0.4717 0.47168,0.4716 -0.25042,0.6526 c -0.13773,0.3589 -0.44956,0.6526 -0.69295,0.6526 -0.24339,0 -0.55522,-0.2937 -0.69295,-0.6526 z m 5.71705,1.0543 0.80541,-0.431 v -1.0353 -1.0352 l -1.02865,-0.4687 -1.02865,-0.4687 -0.63693,0.5286 -0.63692,0.5286 v 0.9693 0.9693 l 0.72869,0.4244 c 0.91423,0.5325 0.8385,0.5317 1.79705,0.019 z m -1.55311,-1.0543 -0.25042,-0.6526 0.47168,-0.4716 0.47169,-0.4717 0.47168,0.4717 0.47168,0.4716 -0.25042,0.6526 c -0.13773,0.3589 -0.44955,0.6526 -0.69294,0.6526 -0.2434,0 -0.55522,-0.2937 -0.69295,-0.6526 z"
         id="path13121" /><path
         style="fill:#535963"
         d="m 313.1373,1280.8935 c -0.28215,-0.3399 -0.44844,-0.7823 -0.36953,-0.983 0.0789,-0.2007 2.20461,-3.9469 4.72379,-8.3249 l 4.58033,-7.96 0.52049,-0.2121 c 0.28627,-0.1166 0.75471,-0.1156 1.04098,0 l 0.52049,0.2143 4.72018,8.2046 4.72017,8.2045 -0.39312,0.6246 -0.39312,0.6246 -9.57883,0.1116 -9.57883,0.1117 z m 12.36983,-0.876 0.52049,-0.1603 v -0.9872 -0.9873 l 1.04099,-0.4743 1.04098,-0.4743 v -2.4753 -2.4753 l -1.06775,-1.269 -1.06774,-1.2689 -1.43062,-0.3951 -1.43061,-0.395 -1.3842,0.3822 -1.3842,0.3822 -0.98939,1.0532 -0.98939,1.0531 -0.26084,2.3697 -0.26083,2.3697 0.96885,0.9689 c 0.53287,0.5328 0.96885,1.2184 0.96885,1.5235 0,1.4997 2.88535,2.1345 5.72541,1.2595 z m -3.39212,-1.0193 -0.33959,-1.0409 -0.19558,0.7337 -0.19557,0.7338 -0.38488,-0.2378 -0.38488,-0.2379 v -0.9678 -0.9679 l -0.83279,-0.2178 -0.83279,-0.2178 v -2.1356 -2.1356 l 0.6587,-1.0052 0.6587,-1.0053 1.38134,-0.4559 1.38135,-0.4559 1.06737,0.2679 1.06736,0.2679 1.05653,1.0565 1.05652,1.0565 v 2.2724 2.2723 l -0.83278,0.2178 -0.83279,0.2178 v 0.9679 0.9678 l -0.41639,0.2573 -0.4164,0.2574 v -0.441 c 0,-0.7248 -0.75667,-0.4986 -0.96215,0.2877 l -0.19042,0.7287 -0.0483,-0.7287 -0.0483,-0.7286 h -0.38586 c -0.21222,0 -0.45402,0.3279 -0.53733,0.7286 l -0.15147,0.7287 z m 1.72674,-1.7696 c -0.0953,-0.2863 -0.48568,-0.5811 -0.86748,-0.6551 l -0.69419,-0.1347 v 0.6551 0.6552 h 0.86749 0.86749 z m -1.8099,-1.2725 0.74372,-0.5439 -0.14365,-0.9751 -0.14364,-0.9751 -0.72869,-0.4568 -0.72869,-0.4568 -0.72869,0.4568 -0.72868,0.4568 -0.14365,0.9751 -0.14364,0.9751 0.74372,0.5439 c 0.40904,0.2991 0.85947,0.5438 1.00094,0.5438 0.14147,0 0.5919,-0.2447 1.00095,-0.5438 z m -1.6939,-0.9416 -0.25041,-0.6526 0.47168,-0.4716 0.47168,-0.4717 0.47169,0.4717 0.47168,0.4716 -0.25042,0.6526 c -0.13773,0.3589 -0.44956,0.6526 -0.69295,0.6526 -0.24339,0 -0.55522,-0.2937 -0.69295,-0.6526 z m 5.71705,1.0543 0.80541,-0.431 v -1.0353 -1.0352 l -1.02865,-0.4687 -1.02865,-0.4687 -0.63693,0.5286 -0.63692,0.5286 v 0.9693 0.9693 l 0.72869,0.4244 c 0.91423,0.5325 0.8385,0.5317 1.79705,0.019 z m -1.55311,-1.0543 -0.25042,-0.6526 0.47168,-0.4716 0.47169,-0.4717 0.47168,0.4717 0.47168,0.4716 -0.25042,0.6526 c -0.13773,0.3589 -0.44955,0.6526 -0.69294,0.6526 -0.2434,0 -0.55522,-0.2937 -0.69295,-0.6526 z"
         id="path13120" /><path
         style="fill:#4f5660"
         d="m 313.1373,1280.8935 c -0.28215,-0.3399 -0.44844,-0.7823 -0.36953,-0.983 0.0789,-0.2007 2.20461,-3.9469 4.72379,-8.3249 l 4.58033,-7.96 0.52049,-0.2121 c 0.28627,-0.1166 0.75471,-0.1156 1.04098,0 l 0.52049,0.2143 4.72018,8.2046 4.72017,8.2045 -0.39312,0.6246 -0.39312,0.6246 -9.57883,0.1116 -9.57883,0.1117 z m 11.69645,-0.6461 h 0.81997 l 0.58783,-1.4069 0.58783,-1.4068 0.64011,-0.2457 0.6401,-0.2456 v -2.4795 -2.4794 l -1.06775,-1.269 -1.06774,-1.2689 -1.43062,-0.3951 -1.43061,-0.395 -1.3842,0.3822 -1.3842,0.3822 -0.98939,1.0532 -0.98939,1.0531 -0.26084,2.3697 -0.26083,2.3697 0.96885,0.9689 c 0.53287,0.5328 0.96885,1.2184 0.96885,1.5235 0,1.0555 2.20273,2.0373 3.6775,1.6392 0.305,-0.082 0.92354,-0.1498 1.37453,-0.1498 z m -2.71874,-1.2492 -0.33959,-1.0409 -0.19558,0.7337 -0.19557,0.7338 -0.38488,-0.2378 -0.38488,-0.2379 v -0.9678 -0.9679 l -0.83279,-0.2178 -0.83279,-0.2178 v -2.2506 -2.2506 l 0.87278,-0.9368 c 0.48002,-0.5153 1.36275,-1.1231 1.96161,-1.3508 l 1.08885,-0.414 1.05723,0.261 1.05724,0.261 1.14508,1.0892 1.14508,1.0892 v 2.2512 2.2512 l -0.78811,0.2061 -0.78811,0.2061 -0.28815,1.3164 -0.28815,1.3164 -0.33739,-0.8328 -0.33739,-0.8327 -0.43372,1.0409 -0.43373,1.041 -0.0264,-0.7287 -0.0264,-0.7286 h -0.38586 c -0.21222,0 -0.45402,0.3279 -0.53733,0.7286 l -0.15147,0.7287 z m 1.83065,-1.8737 v -0.6246 h -0.80822 c -0.44451,0 -0.90786,0.1612 -1.02966,0.3583 l -0.22145,0.3583 0.26627,0.2663 c 0.14646,0.1464 0.6098,0.2663 1.02967,0.2663 h 0.76339 z m -1.91381,-1.1684 0.74372,-0.5439 -0.14365,-0.9751 -0.14364,-0.9751 -0.72869,-0.4568 -0.72869,-0.4568 -0.72869,0.4568 -0.72868,0.4568 -0.14365,0.9751 -0.14364,0.9751 0.74372,0.5439 c 0.40904,0.2991 0.85947,0.5438 1.00094,0.5438 0.14147,0 0.5919,-0.2447 1.00095,-0.5438 z m -1.6939,-0.9416 -0.25041,-0.6526 0.47168,-0.4716 0.47168,-0.4717 0.47169,0.4717 0.47168,0.4716 -0.25042,0.6526 c -0.13773,0.3589 -0.44956,0.6526 -0.69295,0.6526 -0.24339,0 -0.55522,-0.2937 -0.69295,-0.6526 z m 5.85783,0.9416 0.74372,-0.5439 -0.14364,-0.9751 -0.14365,-0.9751 -0.72869,-0.4568 -0.72868,-0.4568 -0.72869,0.4568 -0.72869,0.4568 -0.14364,0.9751 -0.14365,0.9751 0.74372,0.5439 c 0.40905,0.2991 0.85947,0.5438 1.00095,0.5438 0.14147,0 0.59189,-0.2447 1.00094,-0.5438 z m -1.69389,-0.9416 -0.25042,-0.6526 0.47168,-0.4716 0.47169,-0.4717 0.47168,0.4717 0.47168,0.4716 -0.25042,0.6526 c -0.13773,0.3589 -0.44955,0.6526 -0.69294,0.6526 -0.2434,0 -0.55522,-0.2937 -0.69295,-0.6526 z"
         id="path13119" /><path
         style="fill:#4b525c"
         d="m 313.11224,1280.8634 -0.52556,-0.6333 4.47212,-7.7987 c 2.45967,-4.2893 4.81784,-8.1581 5.24039,-8.5972 l 0.76827,-0.7986 0.61754,0.5125 c 0.51514,0.4276 7.77221,12.6159 9.40094,15.7891 l 0.49456,0.9635 -0.49628,0.5979 -0.49627,0.598 h -9.47508 -9.47508 z m 11.77923,-0.6103 0.73761,-0.01 0.50516,-1.1451 c 0.27783,-0.6298 0.83595,-1.3899 1.24025,-1.6891 l 0.7351,-0.5441 v -2.4428 -2.4428 l -1.06775,-1.269 -1.06774,-1.2689 -1.43062,-0.3951 -1.43061,-0.395 -1.43061,0.395 -1.43062,0.3951 -1.06774,1.2689 -1.06775,1.269 v 1.3913 c 0,0.7653 -0.11054,1.6795 -0.24564,2.0315 l -0.24564,0.6402 1.07842,1.0784 c 0.59314,0.5931 1.07843,1.328 1.07843,1.6331 0,1.0807 1.91651,1.9817 3.53935,1.6639 0.45803,-0.09 1.16471,-0.1657 1.5704,-0.1688 z m -2.77646,-1.2549 -0.33959,-1.0409 -0.19558,0.7337 -0.19557,0.7338 -0.38488,-0.2378 -0.38488,-0.2379 v -0.9678 -0.9679 l -0.83279,-0.2178 -0.83279,-0.2178 v -2.2506 -2.2506 l 0.87278,-0.9368 c 0.48002,-0.5153 1.32314,-1.1081 1.87359,-1.3173 l 1.00082,-0.3806 1.25751,0.2515 1.25751,0.2515 1.03283,1.2275 1.03283,1.2274 v 2.089 2.089 l -0.809,0.2116 -0.809,0.2116 -0.29092,1.3109 -0.29091,1.3109 -0.28885,-0.8143 -0.28885,-0.8143 -0.47234,0.8143 -0.47234,0.8143 -0.0127,-0.5205 c -0.0192,-0.7883 -0.76311,-0.6228 -0.93585,0.2082 l -0.15147,0.7287 z m 1.83065,-1.8292 v -0.58 l -0.59415,-0.228 -0.59415,-0.228 -0.44322,0.534 -0.44323,0.5341 0.27399,0.274 c 0.15069,0.1507 0.6175,0.274 1.03737,0.274 h 0.76339 z m -1.91381,-1.2129 0.74372,-0.5439 -0.14365,-0.9751 -0.14364,-0.9751 -0.72869,-0.4568 -0.72869,-0.4568 -0.72869,0.4568 -0.72868,0.4568 -0.14365,0.9751 -0.14364,0.9751 0.74372,0.5439 c 0.40904,0.2991 0.85947,0.5438 1.00094,0.5438 0.14147,0 0.5919,-0.2447 1.00095,-0.5438 z m -1.6939,-0.9416 -0.25041,-0.6526 0.47168,-0.4716 0.47168,-0.4717 0.47169,0.4717 0.47168,0.4716 -0.25042,0.6526 c -0.13773,0.3589 -0.44956,0.6526 -0.69295,0.6526 -0.24339,0 -0.55522,-0.2937 -0.69295,-0.6526 z m 5.85783,0.9416 0.74372,-0.5439 -0.14364,-0.9751 -0.14365,-0.9751 -0.72869,-0.4568 -0.72868,-0.4568 -0.72869,0.4568 -0.72869,0.4568 -0.14364,0.9751 -0.14365,0.9751 0.74372,0.5439 c 0.40905,0.2991 0.85947,0.5438 1.00095,0.5438 0.14147,0 0.59189,-0.2447 1.00094,-0.5438 z m -1.69389,-0.9416 -0.25042,-0.6526 0.47168,-0.4716 0.47169,-0.4717 0.47168,0.4717 0.47168,0.4716 -0.25042,0.6526 c -0.13773,0.3589 -0.44955,0.6526 -0.69294,0.6526 -0.2434,0 -0.55522,-0.2937 -0.69295,-0.6526 z"
         id="path13118" /><path
         style="fill:#424954"
         d="m 313.11224,1280.8634 -0.52556,-0.6333 4.47212,-7.7987 c 2.45967,-4.2893 4.82806,-8.1683 5.26309,-8.62 l 0.79098,-0.8212 0.79097,0.8212 c 0.43504,0.4517 2.80343,4.3307 5.2631,8.62 l 4.47211,7.7987 -0.52555,0.6333 -0.52555,0.6332 h -9.47508 -9.47508 z m 11.77923,-0.6103 0.73761,-0.01 0.50516,-1.1451 c 0.27783,-0.6298 0.83595,-1.3899 1.24025,-1.6891 l 0.7351,-0.5441 v -2.4428 -2.4428 l -1.07138,-1.2733 -1.07138,-1.2733 -1.6596,-0.4469 -1.6596,-0.4468 -1.51018,0.7513 -1.51018,0.7513 -0.7547,1.041 -0.75469,1.041 -0.18643,2.0194 -0.18642,2.0194 1.01835,1.0184 c 0.56009,0.5601 1.01834,1.2679 1.01834,1.573 0,1.0807 1.91651,1.9817 3.53935,1.6639 0.45803,-0.09 1.16471,-0.1657 1.5704,-0.1688 z m -3.97771,-1.0944 c -0.16459,-0.1646 -0.29925,-0.7146 -0.29925,-1.2223 v -0.923 l -0.83279,-0.2178 -0.83279,-0.2178 v -2.2723 -2.2724 l 1.09777,-1.0977 1.09776,-1.0978 0.88011,-0.065 c 0.48406,-0.036 1.34855,-0.029 1.92109,0.014 l 1.04098,0.079 1.14508,1.2418 1.14508,1.2418 v 2.1144 2.1143 l -0.83351,0.218 -0.83352,0.218 -0.37811,1.3045 -0.37811,1.3045 -0.0508,-0.8328 -0.0508,-0.8327 -0.56929,0.7507 -0.5693,0.7508 -0.21855,-0.5426 -0.21855,-0.5425 -0.39015,0.5554 -0.39014,0.5554 -0.31084,-0.7636 -0.31084,-0.7636 -0.28064,0.7503 -0.28065,0.7503 z m 3.0319,-1.9897 v -0.58 l -0.57385,-0.2202 -0.57385,-0.2202 -0.46714,0.4671 c -0.25692,0.2569 -0.46713,0.617 -0.46713,0.8002 v 0.3332 h 1.04098 1.04099 z m -1.91381,-1.2129 0.74372,-0.5439 -0.14365,-0.9751 -0.14364,-0.9751 -0.72869,-0.4568 -0.72869,-0.4568 -0.72869,0.4568 -0.72868,0.4568 -0.14365,0.9751 -0.14364,0.9751 0.74372,0.5439 c 0.40904,0.2991 0.85947,0.5438 1.00094,0.5438 0.14147,0 0.5919,-0.2447 1.00095,-0.5438 z m -1.6939,-0.9416 -0.25041,-0.6526 0.47168,-0.4716 0.47168,-0.4717 0.47169,0.4717 0.47168,0.4716 -0.25042,0.6526 c -0.13773,0.3589 -0.44956,0.6526 -0.69295,0.6526 -0.24339,0 -0.55522,-0.2937 -0.69295,-0.6526 z m 5.85783,0.9416 0.74372,-0.5439 -0.14364,-0.9751 -0.14365,-0.9751 -0.72869,-0.4568 -0.72868,-0.4568 -0.72869,0.4568 -0.72869,0.4568 -0.13606,0.9173 -0.13607,0.9172 0.49935,0.6017 c 0.61885,0.7457 1.26744,0.7625 2.2311,0.058 z m -1.69389,-0.9416 -0.25042,-0.6526 0.47168,-0.4716 0.47169,-0.4717 0.47168,0.4717 0.47168,0.4716 -0.25042,0.6526 c -0.13773,0.3589 -0.44955,0.6526 -0.69294,0.6526 -0.2434,0 -0.55522,-0.2937 -0.69295,-0.6526 z"
         id="path13117" /><path
         style="fill:#3a424d"
         d="m 313.11452,1280.8661 -0.52327,-0.6305 4.47421,-7.8015 c 2.46081,-4.2908 4.82817,-8.171 5.2608,-8.6227 l 0.78661,-0.8212 0.78661,0.8212 c 0.43263,0.4517 2.79999,4.3319 5.2608,8.6227 l 4.4742,7.8015 -0.52326,0.6305 -0.52327,0.6305 h -9.47508 -9.47508 z m 12.809,-1.1233 c 0.28628,-0.2366 0.5205,-0.7369 0.5205,-1.1118 v -0.6816 l 0.83278,-0.5201 0.83279,-0.5201 v -2.4387 -2.4386 l -0.9027,-1.1476 -0.9027,-1.1476 -1.4094,-0.5889 -1.4094,-0.5889 -1.45305,0.2726 -1.45306,0.2726 -1.23157,1.2316 -1.23156,1.2315 -0.0593,0.9049 c -0.0326,0.4976 -0.11094,1.5377 -0.17406,2.3112 l -0.11476,1.4063 1.00684,1.0069 c 0.55377,0.5537 1.00685,1.2564 1.00685,1.5615 0,0.6744 0.75377,1.3249 1.87377,1.6171 1.09291,0.2851 3.60889,-0.088 4.26803,-0.6323 z m -5.00976,-0.5841 c -0.16459,-0.1646 -0.29925,-0.7146 -0.29925,-1.2223 v -0.923 l -0.83279,-0.2178 -0.83279,-0.2178 v -2.2512 -2.2512 l 1.22714,-1.1757 1.22713,-1.1757 h 1.76406 1.76405 l 1.17275,1.3126 1.17274,1.3125 v 2.0857 2.0857 l -1.04098,0.3958 -1.04098,0.3958 -0.0293,1.1553 -0.0293,1.1554 -0.34243,-0.8328 -0.34243,-0.8327 -0.30214,0.7409 -0.30213,0.7409 -0.56211,-0.7409 -0.5621,-0.7409 -0.0259,0.8327 -0.0259,0.8328 -0.47234,-0.8143 -0.47234,-0.8143 -0.25673,0.7319 -0.25673,0.7318 z m 3.0319,-2.0097 c 0,-0.33 -0.19559,-0.7208 -0.43464,-0.8686 l -0.43463,-0.2686 -0.60635,0.5032 c -0.33349,0.2768 -0.60635,0.6677 -0.60635,0.8687 v 0.3654 h 1.04098 1.04099 z m -1.6846,-1.2508 0.49934,-0.6017 -0.13606,-0.9172 -0.13606,-0.9173 -0.72869,-0.4568 -0.72869,-0.4568 -0.72869,0.4568 -0.72868,0.4568 -0.13607,0.9173 -0.13606,0.9172 0.49934,0.6017 0.49935,0.6017 h 0.73081 0.73082 z m -1.92311,-0.8837 -0.25041,-0.6526 0.47168,-0.4716 0.47168,-0.4717 0.47169,0.4717 0.47168,0.4716 -0.25042,0.6526 c -0.13773,0.3589 -0.44956,0.6526 -0.69295,0.6526 -0.24339,0 -0.55522,-0.2937 -0.69295,-0.6526 z m 5.85783,0.9416 0.74372,-0.5439 -0.14364,-0.9751 -0.14365,-0.9751 -0.72869,-0.4568 -0.72868,-0.4568 -0.72869,0.4568 -0.72869,0.4568 -0.13606,0.9173 -0.13607,0.9172 0.49935,0.6017 c 0.61885,0.7457 1.26744,0.7625 2.2311,0.058 z m -1.69659,-0.9486 -0.24772,-0.6456 0.4354,-0.4354 0.4354,-0.4354 0.45268,0.2798 c 0.24897,0.1539 0.45267,0.5297 0.45267,0.8352 v 0.5555 l -0.64035,0.2457 -0.64035,0.2458 z"
         id="path13116" /><path
         style="fill:#343c47"
         d="m 313.13456,1280.8903 c -0.27677,-0.3335 -0.42243,-0.7551 -0.32369,-0.9369 2.37823,-4.3785 9.31441,-16.0605 9.75118,-16.4229 l 0.59623,-0.4949 0.7639,0.7986 c 0.42015,0.4391 2.77729,4.3091 5.2381,8.5999 l 4.4742,7.8015 -0.52326,0.6305 -0.52327,0.6305 h -9.47508 -9.47508 z m 12.78896,-1.1475 c 0.28628,-0.2366 0.5205,-0.6797 0.5205,-0.9848 0,-0.3051 0.43598,-0.9907 0.96885,-1.5235 l 0.96885,-0.9689 -0.25967,-2.359 -0.25966,-2.3591 -0.81328,-0.9124 c -0.44731,-0.5019 -1.43214,-1.1743 -2.1885,-1.4943 l -1.37522,-0.5819 -1.45305,0.2726 -1.45306,0.2726 -1.17451,1.1745 -1.17451,1.1745 -0.26525,1.3263 c -0.14589,0.7294 -0.26526,1.7798 -0.26526,2.3341 v 1.0078 l 1.04099,1.041 c 0.57254,0.5726 1.04098,1.2906 1.04098,1.5957 0,0.6744 0.75377,1.3249 1.87377,1.6171 1.09291,0.2851 3.60889,-0.088 4.26803,-0.6323 z m -5.00976,-0.5841 c -0.16459,-0.1646 -0.29925,-0.7146 -0.29925,-1.2223 v -0.923 l -0.83279,-0.2178 -0.83279,-0.2178 v -2.2512 -2.2512 l 1.14509,-1.0624 1.14508,-1.0624 1.00249,-0.2429 1.0025,-0.2429 1.33735,0.5588 1.33734,0.5588 0.67901,0.9694 0.67901,0.9694 v 1.9997 1.9996 l -1.04098,0.3958 -1.04098,0.3958 -0.0293,1.1553 -0.0293,1.1554 -0.31851,-0.8143 -0.31852,-0.8143 -0.47234,0.8143 -0.47234,0.8143 -0.0127,-0.7287 -0.0127,-0.7286 h -0.41639 -0.41639 l -0.0127,0.7286 -0.0127,0.7287 -0.47234,-0.8143 -0.47234,-0.8143 -0.25673,0.7319 -0.25673,0.7318 z m 3.0319,-2.0097 c 0,-0.33 -0.19559,-0.7208 -0.43464,-0.8686 l -0.43463,-0.2686 -0.60635,0.5032 c -0.33349,0.2768 -0.60635,0.6677 -0.60635,0.8687 v 0.3654 h 1.04098 1.04099 z m -1.6846,-1.2508 0.49934,-0.6017 -0.13606,-0.9172 -0.13606,-0.9173 -0.72869,-0.4568 -0.72869,-0.4568 -0.72869,0.4568 -0.72868,0.4568 -0.13607,0.9173 -0.13606,0.9172 0.49934,0.6017 0.49935,0.6017 h 0.73081 0.73082 z m -1.98368,-1.3762 0.14034,-0.7287 h 0.61318 0.61319 l 0.14033,0.7287 0.14033,0.7287 h -0.89385 -0.89385 z m 5.77762,1.5468 0.80541,-0.431 v -0.9754 -0.9753 l -0.60459,-0.5018 -0.60458,-0.5017 -0.69894,0.1385 -0.69895,0.1384 -0.56473,0.8521 -0.56474,0.8521 0.6427,0.9176 c 0.71938,1.0271 1.11948,1.1121 2.28842,0.4865 z m -1.55581,-1.0613 -0.24772,-0.6456 0.4354,-0.4354 0.4354,-0.4354 0.45268,0.2798 c 0.24897,0.1539 0.45267,0.5297 0.45267,0.8352 v 0.5555 l -0.64035,0.2457 -0.64035,0.2458 z"
         id="path13115" /><path
         style="fill:#2d3441"
         d="m 313.13456,1280.8903 c -0.27677,-0.3335 -0.42367,-0.7551 -0.32644,-0.9369 1.91272,-3.5763 8.97222,-15.5329 9.51719,-16.1192 l 0.74215,-0.7986 0.59623,0.4949 c 0.43676,0.3624 7.37295,12.0444 9.75118,16.4229 0.0987,0.1818 -0.0469,0.6034 -0.3237,0.9369 l -0.50322,0.6063 h -9.47508 -9.47508 z m 12.78896,-1.1475 c 0.28628,-0.2366 0.5205,-0.6797 0.5205,-0.9848 0,-0.3051 0.48529,-1.04 1.07842,-1.6331 l 1.07843,-1.0784 -0.24564,-0.6402 c -0.1351,-0.352 -0.24564,-1.2833 -0.24564,-2.0695 v -1.4295 l -1.38727,-1.5137 -1.38727,-1.5138 -1.88053,-0.042 -1.88053,-0.042 -1.10158,0.5894 c -0.60587,0.3241 -1.39371,1.0352 -1.75075,1.5801 l -0.64917,0.9908 -0.24023,2.0284 -0.24023,2.0283 1.09485,1.0949 c 0.60216,0.6021 1.09484,1.3444 1.09484,1.6495 0,0.6744 0.75377,1.3249 1.87377,1.6171 1.09291,0.2851 3.60889,-0.088 4.26803,-0.6323 z m -3.80832,-0.9528 -0.34847,-0.8327 -0.19528,0.523 -0.19528,0.5231 -0.38083,-0.2353 c -0.20946,-0.1295 -0.38083,-0.5772 -0.38083,-0.995 v -0.7597 l -0.83279,-0.2178 -0.83279,-0.2178 v -2.089 -2.089 l 1.078,-1.2811 1.078,-1.2811 h 1.86879 1.86878 l 1.21715,1.2171 1.21715,1.2172 v 2.1243 2.1243 l -1.04098,0.3958 -1.04098,0.3958 -0.0293,1.1553 -0.0293,1.1554 -0.31851,-0.8143 -0.31852,-0.8143 -0.47234,0.8143 -0.47234,0.8143 -0.0127,-0.7287 -0.0127,-0.7286 h -0.38586 c -0.21222,0 -0.45198,0.3279 -0.53279,0.7286 l -0.14694,0.7287 z m 2.24685,-1.4063 c 0,-0.201 -0.28107,-0.5987 -0.62459,-0.8838 l -0.62459,-0.5184 -0.62459,0.5184 c -0.34353,0.2851 -0.62459,0.6828 -0.62459,0.8838 v 0.3654 h 1.24918 1.24918 z m -2.10099,-1.4855 0.49934,-0.6017 -0.13606,-0.9172 -0.13606,-0.9173 -0.72869,-0.4568 -0.72869,-0.4568 -0.72869,0.4568 -0.72868,0.4568 -0.13607,0.9173 -0.13606,0.9172 0.49934,0.6017 0.49935,0.6017 h 0.73081 0.73082 z m -1.98368,-1.3762 0.14034,-0.7287 h 0.61318 0.61319 l 0.14033,0.7287 0.14033,0.7287 h -0.89385 -0.89385 z m 6.08336,1.4782 0.49967,-0.4997 v -0.9067 -0.9067 l -0.60459,-0.5018 -0.60458,-0.5017 -0.69894,0.1385 -0.69895,0.1384 -0.56473,0.8521 -0.56474,0.8521 0.6427,0.9176 0.64269,0.9176 h 0.7259 c 0.39924,0 0.95075,-0.2249 1.22557,-0.4997 z m -1.91942,-1.4782 0.14033,-0.7287 h 0.61319 0.61318 l 0.14033,0.7287 0.14034,0.7287 h -0.89385 -0.89385 z"
         id="path13114" /><path
         style="fill:#29313e"
         d="m 313.34875,1280.8337 -0.66294,-0.663 1.33928,-2.3559 c 4.02407,-7.0787 7.96468,-13.6732 8.49127,-14.2099 l 0.59981,-0.6114 0.7675,0.8196 c 0.56971,0.6084 6.26027,10.2533 9.49231,16.0885 0.0849,0.1533 -0.14179,0.5749 -0.50378,0.9368 l -0.65816,0.6582 h -9.10117 -9.10117 z m 12.55412,-1.0719 c 0.29763,-0.247 0.54115,-0.6987 0.54115,-1.0038 0,-0.3051 0.45825,-1.0129 1.01834,-1.573 l 1.01835,-1.0184 -0.18058,-1.9264 -0.18058,-1.9263 -0.59405,-1.1488 -0.59404,-1.1488 -1.12186,-0.6004 -1.12187,-0.6004 h -1.57486 -1.57487 l -1.08358,0.5799 c -0.59598,0.319 -1.37572,1.0258 -1.73276,1.5707 l -0.64917,0.9908 -0.24023,2.0284 -0.24023,2.0283 1.06155,1.0616 c 0.58385,0.5838 1.12503,1.3912 1.20263,1.7941 l 0.14109,0.7326 1.03729,0.5448 1.0373,0.5448 1.64491,-0.2403 c 0.9047,-0.1322 1.88843,-0.4424 2.18607,-0.6894 z m -3.78767,-0.9718 -0.34847,-0.8327 -0.19528,0.523 -0.19528,0.5231 -0.38083,-0.2353 c -0.20946,-0.1295 -0.38083,-0.5772 -0.38083,-0.995 v -0.7597 l -0.83279,-0.2178 -0.83279,-0.2178 v -2.1529 -2.153 l 1.21715,-1.2172 1.21716,-1.2171 h 1.72963 1.72963 l 1.21715,1.2171 1.21715,1.2172 v 2.1243 2.1243 l -1.04098,0.3958 -1.04098,0.3958 -0.0293,1.1553 -0.0293,1.1554 -0.31851,-0.8143 -0.31852,-0.8143 -0.47234,0.8143 -0.47234,0.8143 -0.0127,-0.7287 -0.0127,-0.7286 h -0.38586 c -0.21222,0 -0.45198,0.3279 -0.53279,0.7286 l -0.14694,0.7287 z m 2.24685,-1.4063 c 0,-0.201 -0.28107,-0.5987 -0.62459,-0.8838 l -0.62459,-0.5184 -0.62459,0.5184 c -0.34353,0.2851 -0.62459,0.6828 -0.62459,0.8838 v 0.3654 h 1.24918 1.24918 z m -2.10099,-1.4855 0.49934,-0.6017 -0.13606,-0.9172 -0.13606,-0.9173 -0.72869,-0.4568 -0.72869,-0.4568 -0.72869,0.4568 -0.72868,0.4568 -0.13607,0.9173 -0.13606,0.9172 0.49934,0.6017 0.49935,0.6017 h 0.73081 0.73082 z m -1.98368,-1.3762 0.14034,-0.7287 h 0.61318 0.61319 l 0.14033,0.7287 0.14033,0.7287 h -0.89385 -0.89385 z m 6.08336,1.4782 0.49967,-0.4997 v -0.9067 -0.9067 l -0.60459,-0.5018 -0.60458,-0.5017 -0.69894,0.1385 -0.69895,0.1384 -0.56473,0.8521 -0.56474,0.8521 0.6427,0.9176 0.64269,0.9176 h 0.7259 c 0.39924,0 0.95075,-0.2249 1.22557,-0.4997 z m -1.91942,-1.4782 0.14033,-0.7287 h 0.61319 0.61318 l 0.14033,0.7287 0.14034,0.7287 h -0.89385 -0.89385 z"
         id="path13113" /><path
         style="fill:#242c39"
         d="m 313.34875,1280.8337 -0.66294,-0.663 1.33928,-2.3559 c 4.02013,-7.0717 7.96441,-13.6729 8.48962,-14.2082 l 0.59816,-0.6098 0.59816,0.6098 c 0.52521,0.5353 4.46949,7.1365 8.48962,14.2082 l 1.33928,2.3559 -0.66294,0.663 -0.66295,0.6629 h -9.10117 -9.10117 z m 12.48701,-1.0162 c 0.33454,-0.2777 0.60826,-0.7798 0.60826,-1.1158 v -0.6109 l 0.87752,-0.7106 0.87753,-0.7106 0.17347,-1.4381 0.17346,-1.4382 -0.65614,-1.7359 -0.65614,-1.7359 -0.95856,-0.628 c -0.52722,-0.3455 -1.62357,-0.7529 -2.43634,-0.9054 l -1.47777,-0.2772 -1.47348,0.6992 -1.47347,0.6992 -0.67081,1.0238 -0.6708,1.0238 -0.24023,2.0284 -0.24023,2.0283 1.06155,1.0616 c 0.58385,0.5838 1.12503,1.3912 1.20263,1.7941 l 0.14109,0.7326 1.03729,0.5473 1.0373,0.5472 1.5778,-0.187 1.57781,-0.1871 z m -3.66914,-0.9497 -0.29705,-0.7551 -0.41933,0.2591 -0.41934,0.2592 v -0.6595 -0.6594 l -1.04098,-0.3958 -1.04099,-0.3958 v -2.1243 -2.1243 l 1.21715,-1.2172 1.21716,-1.2171 h 1.72963 1.72963 l 1.21715,1.2171 1.21715,1.2172 v 2.1243 2.1243 l -1.04098,0.3958 -1.04098,0.3958 -0.0483,1.1553 -0.0483,1.1554 -0.19042,-0.7287 c -0.10474,-0.4007 -0.35033,-0.7286 -0.54576,-0.7286 -0.19543,0 -0.44102,0.3279 -0.54576,0.7286 l -0.19042,0.7287 -0.0483,-0.7287 -0.0483,-0.7286 h -0.38586 c -0.21222,0 -0.45198,0.3279 -0.53279,0.7286 l -0.14694,0.7287 z m 2.19543,-1.4841 c 0,-0.201 -0.28107,-0.5987 -0.62459,-0.8838 l -0.62459,-0.5184 -0.62459,0.5184 c -0.34353,0.2851 -0.62459,0.6828 -0.62459,0.8838 v 0.3654 h 1.24918 1.24918 z m -2.10099,-1.4855 0.49934,-0.6017 -0.13606,-0.9172 -0.13606,-0.9173 -0.72869,-0.4568 -0.72869,-0.4568 -0.72869,0.4568 -0.72868,0.4568 -0.13607,0.9173 -0.13606,0.9172 0.49934,0.6017 0.49935,0.6017 h 0.73081 0.73082 z m -1.98368,-1.3762 0.14034,-0.7287 h 0.61318 0.61319 l 0.14033,0.7287 0.14033,0.7287 h -0.89385 -0.89385 z m 6.08336,1.4782 0.49967,-0.4997 v -0.9067 -0.9067 l -0.61918,-0.5139 -0.61919,-0.5139 -0.99663,0.2502 -0.99664,0.2501 -0.21192,0.8104 -0.21193,0.8104 0.60218,0.8598 0.60217,0.8597 h 0.7259 c 0.39924,0 0.95075,-0.2249 1.22557,-0.4997 z m -1.99869,-1.3047 c 0,-0.3053 0.11201,-0.6672 0.24891,-0.8041 l 0.2489,-0.2489 0.58388,0.2241 0.58388,0.224 v 0.5801 0.58 h -0.83278 -0.83279 z"
         id="path13112" /><path
         style="fill:#1c2431"
         d="m 313.35354,1280.8384 c -0.36199,-0.3619 -0.58649,-0.7835 -0.49889,-0.9368 4.64573,-8.1303 9.21261,-15.8298 9.66513,-16.295 l 0.59309,-0.6098 0.60079,0.6098 c 0.47479,0.4818 7.70718,12.6587 9.42499,15.8685 l 0.3824,0.7145 -0.6535,0.6535 -0.65351,0.6535 h -9.10117 -9.10117 z m 12.48222,-1.0209 c 0.33454,-0.2777 0.60826,-0.7544 0.60826,-1.0595 0,-0.3051 0.49268,-1.0474 1.09484,-1.6495 l 1.09485,-1.0949 -0.24023,-2.0283 -0.24023,-2.0284 -0.6708,-1.0238 -0.67081,-1.0238 -1.39182,-0.6604 c -1.71695,-0.8148 -2.75876,-0.8309 -4.5781,-0.071 l -1.41162,0.5898 -0.67035,1.0231 -0.67036,1.0231 -0.24868,2.0997 -0.24868,2.0997 1.06155,1.0616 c 0.58385,0.5838 1.12503,1.3912 1.20263,1.7941 l 0.14109,0.7326 1.03729,0.5473 1.0373,0.5472 1.5778,-0.187 1.57781,-0.1871 z m -3.66914,-0.9497 -0.29705,-0.7551 -0.41933,0.2591 -0.41934,0.2592 v -0.6595 -0.6594 l -1.04098,-0.3958 -1.04099,-0.3958 v -2.1243 -2.1243 l 1.21715,-1.2172 1.21716,-1.2171 h 1.72963 1.72963 l 1.21715,1.2171 1.21715,1.2172 v 2.1061 2.106 l -1.04098,0.2613 -1.04098,0.2613 -0.0483,1.3081 -0.0483,1.3081 -0.19042,-0.7287 c -0.10474,-0.4007 -0.35033,-0.7286 -0.54576,-0.7286 -0.19543,0 -0.44102,0.3279 -0.54576,0.7286 l -0.19042,0.7287 -0.0483,-0.7287 -0.0483,-0.7286 h -0.38586 c -0.21222,0 -0.45198,0.3279 -0.53279,0.7286 l -0.14694,0.7287 z m 2.19543,-1.4841 c 0,-0.201 -0.28107,-0.5987 -0.62459,-0.8838 l -0.62459,-0.5184 -0.62459,0.5184 c -0.34353,0.2851 -0.62459,0.6828 -0.62459,0.8838 v 0.3654 h 1.24918 1.24918 z m -2.10099,-1.4855 0.49934,-0.6017 -0.13606,-0.9172 -0.13606,-0.9173 -0.72869,-0.4568 -0.72869,-0.4568 -0.72869,0.4568 -0.72868,0.4568 -0.13607,0.9173 -0.13606,0.9172 0.49934,0.6017 0.49935,0.6017 h 0.73081 0.73082 z m -2.06294,-1.2027 c 0,-0.3053 0.112,-0.6672 0.2489,-0.8041 l 0.24891,-0.2489 0.58388,0.2241 0.58388,0.224 v 0.5801 0.58 h -0.83279 -0.83278 z m 6.16262,1.3047 0.49967,-0.4997 v -0.9067 -0.9067 l -0.61918,-0.5139 -0.61919,-0.5139 -1.00046,0.2511 -1.00046,0.2511 -0.26357,0.6869 -0.26357,0.6869 0.64363,0.9823 0.64364,0.9823 h 0.73991 c 0.40695,0 0.96476,-0.2249 1.23958,-0.4997 z m -1.99869,-1.3047 c 0,-0.3053 0.11201,-0.6672 0.24891,-0.8041 l 0.2489,-0.2489 0.58388,0.2241 0.58388,0.224 v 0.5801 0.58 h -0.83278 -0.83279 z"
         id="path13111" /><path
         style="fill:#17202e"
         d="m 313.35819,1280.8431 -0.65351,-0.6535 0.38185,-0.6998 c 0.21002,-0.3849 2.34762,-4.0725 4.75023,-8.1948 l 4.36838,-7.4951 h 0.90773 0.90773 l 4.36838,7.4951 c 2.40261,4.1223 4.54021,7.8099 4.75023,8.1948 l 0.38184,0.6998 -0.6535,0.6535 -0.65351,0.6535 h -9.10117 -9.10117 z m 12.47757,-1.0256 c 0.33454,-0.2777 0.60826,-0.7544 0.60826,-1.0595 0,-0.3051 0.49268,-1.0474 1.09484,-1.6495 l 1.09485,-1.0949 -0.24419,-2.0617 -0.24418,-2.0618 -0.87157,-1.224 -0.87158,-1.224 -1.68401,-0.5046 -1.68402,-0.5045 -1.6926,0.5982 -1.69259,0.5982 -0.79691,1.077 -0.7969,1.0771 -0.22916,1.7084 -0.22915,1.7085 0.26062,1.0384 0.26061,1.0384 0.83182,0.264 0.83182,0.264 v 0.9782 0.9782 l 1.14508,0.4393 1.14509,0.4392 1.5778,-0.1589 1.57781,-0.1589 z m -3.50738,-0.9679 -0.0483,-0.7732 -0.62459,0.2396 -0.62459,0.2397 v -0.7746 -0.7745 l -1.04098,-0.2613 -1.04099,-0.2613 v -0.9175 -0.9175 l 0.64821,0.9254 0.6482,0.9255 h 0.78556 0.78557 l 0.57086,-0.815 0.57087,-0.8151 0.69785,0.8151 0.69785,0.815 h 0.75358 c 0.41447,0 0.97844,-0.2249 1.25326,-0.4997 l 0.49967,-0.4997 v -0.8744 -0.8744 l -0.49967,-0.4997 c -0.27482,-0.2748 -0.82965,-0.4997 -1.23296,-0.4997 h -0.73329 l -0.84901,0.9113 -0.849,0.9113 v -0.675 -0.675 l -0.83279,-0.2644 -0.83279,-0.2643 -0.80602,0.2558 -0.80602,0.2559 -0.18666,0.7091 -0.18666,0.7091 -0.0483,-1.1771 -0.0483,-1.1771 1.21715,-1.2172 1.21716,-1.2171 h 1.72963 1.72963 l 1.21715,1.2171 1.21715,1.2172 v 2.1061 2.106 l -1.04098,0.2613 -1.04098,0.2613 -0.0329,1.0999 -0.0329,1.0999 -0.21002,-0.5205 c -0.30242,-0.7494 -0.88106,-0.6402 -1.10278,0.2082 l -0.19042,0.7287 -0.0483,-0.7287 -0.0483,-0.7286 h -0.38586 c -0.21222,0 -0.47155,0.3279 -0.57629,0.7286 l -0.19042,0.7287 z m 2.03367,-1.4659 c 0,-0.201 -0.28107,-0.5987 -0.62459,-0.8838 l -0.62459,-0.5184 -0.62459,0.5184 c -0.34353,0.2851 -0.62459,0.6828 -0.62459,0.8838 v 0.3654 h 1.24918 1.24918 z m -4.16393,-2.7576 v -0.6246 h 0.83278 0.83279 v 0.6246 0.6246 h -0.83279 -0.83278 z m 4.16393,0 v -0.6246 h 0.83279 0.83278 v 0.6246 0.6246 h -0.83278 -0.83279 z"
         id="path13110" /><path
         style="fill:#121b29"
         d="m 313.63992,1281.2208 -0.52049,-0.21 v -0.7632 -0.7632 l 4.61401,-7.9463 4.61402,-7.9464 h 0.76713 0.76713 l 4.61229,7.9307 4.6123,7.9308 v 0.769 0.7689 l -0.65864,0.2528 -0.65865,0.2527 -8.8143,-0.033 c -4.84787,-0.018 -9.04853,-0.1274 -9.3348,-0.2429 z m 11.55123,-1.0941 1.03729,-0.5248 0.14109,-0.7326 c 0.0776,-0.4029 0.61878,-1.2103 1.20263,-1.7941 l 1.06155,-1.0616 -0.25407,-2.1452 -0.25407,-2.1452 -0.7744,-1.0469 -0.7744,-1.0469 -1.73195,-0.6118 -1.73195,-0.6117 -1.73195,0.6117 -1.73195,0.6118 -0.79691,1.077 -0.7969,1.0771 -0.22916,1.7084 -0.22915,1.7085 0.26062,1.0384 0.26061,1.0384 0.83182,0.264 0.83182,0.264 v 1.0263 1.0264 l 0.93689,0.3765 c 0.51528,0.2072 1.49901,0.3857 2.18606,0.3969 l 1.24918,0.02 z m -2.86277,-1.2771 -0.0483,-0.7732 -0.62459,0.2396 -0.62459,0.2397 v -0.7746 -0.7745 l -1.04098,-0.2613 -1.04099,-0.2613 v -0.9175 -0.9175 l 0.64821,0.9254 0.6482,0.9255 h 0.78556 0.78557 l 0.57086,-0.815 0.57087,-0.8151 0.69785,0.8151 0.69785,0.815 h 0.75358 c 0.41447,0 0.97844,-0.2249 1.25326,-0.4997 l 0.49967,-0.4997 v -0.8744 -0.8744 l -0.49967,-0.4997 -0.49967,-0.4997 h -0.90692 -0.90692 l -0.65354,0.9369 -0.65353,0.9369 -0.0218,-0.7006 -0.0218,-0.7006 -0.83279,-0.2644 -0.83279,-0.2643 -0.80602,0.2558 -0.80602,0.2559 -0.18666,0.7091 -0.18666,0.7091 -0.0483,-1.1771 -0.0483,-1.1771 1.21715,-1.2172 1.21716,-1.2171 h 1.72963 1.72963 l 1.21715,1.2171 1.21715,1.2172 v 2.1061 2.106 l -1.04098,0.2613 -1.04098,0.2613 -0.0329,1.0999 -0.0329,1.0999 -0.21002,-0.5205 c -0.30242,-0.7494 -0.88106,-0.6402 -1.10278,0.2082 l -0.19042,0.7287 -0.0483,-0.7287 -0.0483,-0.7286 h -0.38586 c -0.21222,0 -0.47155,0.3279 -0.57629,0.7286 l -0.19042,0.7287 z m 2.03367,-1.4659 c 0,-0.201 -0.28107,-0.5987 -0.62459,-0.8838 l -0.62459,-0.5184 -0.62459,0.5184 c -0.34353,0.2851 -0.62459,0.6828 -0.62459,0.8838 v 0.3654 h 1.24918 1.24918 z m -4.16393,-2.7576 v -0.6246 h 0.83278 0.83279 v 0.6246 0.6246 h -0.83279 -0.83278 z m 4.16393,0.031 v -0.6551 h 0.86749 0.86748 l -0.1733,0.5205 c -0.0953,0.2863 -0.48569,0.5811 -0.86749,0.6551 l -0.69418,0.1347 z"
         id="path13109" /><path
         style="fill:#0e1725"
         d="m 313.63992,1281.2208 -0.52049,-0.21 v -0.7391 -0.7392 l 4.62164,-7.9704 4.62165,-7.9704 h 0.75015 0.75015 l 4.62165,7.9704 4.62164,7.9704 v 0.7293 0.7293 l -0.65864,0.2528 -0.65865,0.2527 -8.8143,-0.033 c -4.84787,-0.018 -9.04853,-0.1274 -9.3348,-0.2429 z m 11.73601,-0.9631 1.06809,-0.4061 v -1.0512 -1.0513 h 0.38665 c 0.21266,0 0.6811,-0.2945 1.04098,-0.6544 l 0.65433,-0.6543 v -1.6492 -1.6492 l -0.59953,-1.4349 -0.59953,-1.4349 -1.37834,-0.8403 -1.37833,-0.8404 h -1.45738 -1.45738 l -1.37833,0.8404 -1.37834,0.8403 -0.59953,1.4349 -0.59954,1.4349 v 1.4981 1.4981 l 0.43105,0.8055 0.43104,0.8054 h 0.60994 0.60994 v 1.0544 1.0544 l 0.93689,0.3765 c 1.26344,0.5079 3.35533,0.5183 4.65732,0.023 z m -3.04755,-1.4081 -0.0483,-0.7732 -0.62459,0.2396 -0.62459,0.2397 v -0.7746 -0.7745 l -1.04098,-0.2613 -1.04099,-0.2613 v -0.6464 -0.6464 l 0.65434,0.6544 c 0.69773,0.6977 1.37268,0.809 2.43456,0.4015 l 0.65865,-0.2527 v -0.6586 -0.6585 l 0.849,0.9113 0.84901,0.9113 h 0.73329 c 0.40331,0 0.95814,-0.2249 1.23296,-0.4997 l 0.49967,-0.4997 v -1.1213 -1.1214 l -0.65865,-0.2527 c -0.36225,-0.139 -1.00876,-0.2528 -1.43668,-0.2528 h -0.77804 l -0.43709,0.7287 -0.43708,0.7287 -0.43708,-0.7287 -0.43709,-0.7287 h -1.2078 -1.2078 l -0.42442,0.7287 -0.42442,0.7287 -0.0127,-0.9689 -0.0127,-0.9689 1.21715,-1.2172 1.21716,-1.2171 h 1.72963 1.72963 l 1.24033,1.2403 1.24033,1.2403 -0.12728,1.9868 -0.12727,1.9867 -0.93689,0.411 -0.93688,0.4111 -0.0329,1.0463 -0.0329,1.0463 -0.21002,-0.5205 c -0.30242,-0.7494 -0.88106,-0.6402 -1.10278,0.2082 l -0.19042,0.7287 -0.0483,-0.7287 -0.0483,-0.7286 h -0.38586 c -0.21222,0 -0.47155,0.3279 -0.57629,0.7286 l -0.19042,0.7287 z m 2.03367,-1.4659 c 0,-0.201 -0.28107,-0.5987 -0.62459,-0.8838 l -0.62459,-0.5184 -0.62459,0.5184 c -0.34353,0.2851 -0.62459,0.6828 -0.62459,0.8838 v 0.3654 h 1.24918 1.24918 z m -4.16393,-2.7271 v -0.6551 h 0.86748 0.86749 l -0.1733,0.5205 c -0.0953,0.2863 -0.48569,0.5811 -0.86749,0.6551 l -0.69418,0.1347 z m 4.16393,-0.031 v -0.6856 l 0.72869,0.1403 0.72869,0.1403 -0.0821,0.4107 c -0.0452,0.2259 -0.37306,0.4713 -0.72869,0.5453 l -0.64658,0.1347 z"
         id="path13108" /></g><path
       style="fill:#f9f9f9;fill-opacity:1;stroke-width:0.0397468;stroke-miterlimit:9"
       d="m 352.97167,1315.5738 c -0.88067,-0.07 -1.30347,-0.1219 -1.39163,-0.1704 -0.0348,-0.019 -0.29633,-0.205 -0.58118,-0.4131 l -0.5179,-0.3784 v -0.244 c 0,-0.2369 0.003,-0.2631 0.12092,-0.894 0.0665,-0.3574 0.12528,-0.6549 0.13059,-0.6611 0.005,-0.01 0.0188,-0.01 0.0297,0 0.0148,0.01 0.032,0.2524 0.0669,0.9443 0.0259,0.5125 0.047,0.9621 0.0471,0.9991 l 2.1e-4,0.067 h 0.28149 c 0.19786,0 0.28713,0.01 0.30046,0.019 0.0148,0.015 0.0233,0.015 0.038,0 0.0274,-0.027 0.14946,-0.023 0.19508,0.01 l 0.039,0.026 v -0.1323 c 0,-0.1084 0.009,-0.1523 0.0458,-0.243 0.0581,-0.1422 0.15346,-0.3553 0.16346,-0.3653 0.004,0 0.0399,0.048 0.0793,0.1156 l 0.0715,0.1232 0.0175,0.3717 c 0.01,0.2043 0.0175,0.3983 0.0175,0.4309 l -5e-5,0.059 h 0.24482 c 0.27578,0 0.24371,-0.016 0.27083,0.1344 0.006,0.035 0.0143,0.051 0.018,0.036 0.008,-0.036 0.0169,-0.035 0.0517,0.01 l 0.0289,0.036 0.009,-0.04 c 0.005,-0.022 0.0148,-0.068 0.0217,-0.1028 l 0.0124,-0.063 h 0.5093 0.50929 l 0.003,0.067 c 0.003,0.126 0.0314,0.1763 0.0654,0.1155 0.0169,-0.03 0.0175,-0.03 0.0279,0 0.008,0.022 0.0153,0.011 0.0302,-0.048 0.0109,-0.043 0.0309,-0.091 0.0446,-0.1058 0.0233,-0.026 0.0278,-0.024 0.0713,0.036 0.0257,0.035 0.0516,0.063 0.058,0.063 0.006,0 0.0275,-0.028 0.0471,-0.063 l 0.0355,-0.063 h 0.22831 c 0.17158,0 0.22849,-0.01 0.22918,-0.02 0,-0.011 0.01,-0.2048 0.0209,-0.431 l 0.0201,-0.4111 0.0525,-0.087 c 0.11097,-0.1839 0.0925,-0.1782 0.14724,-0.046 0.0265,0.064 0.072,0.1544 0.10097,0.2002 0.048,0.076 0.0529,0.095 0.0546,0.2135 0.003,0.1513 0.0164,0.2347 0.035,0.2053 0.0265,-0.042 0.0422,-0.016 0.0422,0.07 0,0.1041 0.014,0.1 0.0482,-0.015 0.022,-0.074 0.0289,-0.082 0.0695,-0.082 0.0405,0 0.0483,0.01 0.0774,0.091 0.0262,0.073 0.0392,0.091 0.0671,0.091 0.0291,0 0.0364,-0.012 0.0456,-0.073 0.0185,-0.1234 0.004,-0.1166 0.24734,-0.1166 0.12083,0 0.21986,0 0.22008,0 1.8e-4,0 0.0243,-0.4831 0.0539,-1.0686 0.0294,-0.5856 0.0576,-1.0688 0.0625,-1.0737 0.014,-0.014 0.0154,-0.01 0.15883,0.7636 0.13007,0.699 0.13552,0.7374 0.1346,0.9488 v 0.2204 l -0.41254,0.3004 c -0.27107,0.1975 -0.48633,0.3407 -0.62767,0.4177 l -0.21511,0.1171 -0.24511,0.036 c -0.40198,0.058 -0.81899,0.088 -1.29675,0.093 -0.24789,0 -0.48628,0 -0.52977,0 z"
       id="path13137" /><path
       style="fill:#f9f9f9;fill-opacity:1;stroke-width:0.0281054;stroke-miterlimit:9"
       d="m 352.63443,1312.7157 c 0,-0.026 0.0619,-0.1652 0.10266,-0.2299 0.0557,-0.089 0.18804,-0.214 0.28014,-0.2655 0.31911,-0.1785 0.67273,-0.1105 0.76938,0.1478 0.0201,0.054 0.0434,0.2302 0.0441,0.3346 l 1.8e-4,0.025 h -0.59825 c -0.42074,0 -0.59825,0 -0.59825,-0.012 z"
       id="path13138" /><path
       style="fill:#f9f9f9;fill-opacity:1;stroke-width:0.0281054;stroke-miterlimit:9"
       d="m 354.88336,1311.4466 c -0.0762,-0.01 -0.15068,-0.019 -0.1656,-0.024 -0.0164,-0.01 -0.15952,-0.1686 -0.36108,-0.4114 l -0.33395,-0.4024 -0.0839,-0.3354 c -0.0866,-0.3465 -0.0876,-0.3546 -0.055,-0.4581 0.0183,-0.058 0.1677,-0.303 0.26631,-0.4365 0.2015,-0.2729 0.56269,-0.5507 0.87725,-0.6748 0.0611,-0.024 0.11716,-0.036 0.20685,-0.044 0.11628,-0.011 0.14711,-0.01 0.56285,0.042 l 0.43984,0.053 0.23106,0.2311 0.23106,0.231 -0.16769,-10e-5 c -0.0922,-1e-4 -0.17468,0 -0.18322,-0.01 -0.013,-0.01 -0.0132,-0.024 -0.003,-0.095 0.007,-0.047 0.0127,-0.098 0.0127,-0.113 v -0.027 h -0.36092 -0.36092 l -0.0777,-0.078 c -0.0427,-0.043 -0.083,-0.078 -0.0895,-0.078 -0.006,0 -0.0468,0.035 -0.0894,0.078 -0.0427,0.043 -0.0843,0.078 -0.0923,0.078 -0.008,0 -0.0797,-0.025 -0.1593,-0.056 -0.0796,-0.031 -0.14933,-0.056 -0.15502,-0.056 -0.006,0 -0.0265,0.025 -0.0462,0.056 l -0.0359,0.056 h -0.1034 -0.1034 l -0.0657,0.1062 -0.0657,0.1062 h -0.0645 -0.0646 v 0.1042 0.1041 l -0.13978,0.2261 c -0.0769,0.1243 -0.1397,0.2322 -0.13965,0.2397 8e-5,0.01 0.063,0.1765 0.13978,0.3756 l 0.13965,0.3619 v 0.1323 0.1322 h 0.052 0.052 l 0.0389,0.1035 0.0389,0.1034 h 0.056 c 0.0393,0 0.06,0.01 0.0696,0.019 0.0127,0.017 0.0198,0.017 0.10744,0 0.10428,-0.021 0.31213,-0.025 0.33023,-0.01 0.008,0.01 0.0212,0.01 0.0421,0 0.0167,-0.01 0.1098,-0.012 0.20674,-0.012 0.15073,0 0.20201,0.01 0.35396,0.034 l 0.1777,0.034 0.0283,-0.034 c 0.0283,-0.034 0.0285,-0.034 0.14213,-0.034 l 0.11382,10e-5 0.0217,-0.059 c 0.0119,-0.032 0.0303,-0.085 0.0408,-0.1174 l 0.0193,-0.059 h 0.12769 c 0.0702,0 0.12758,0 0.12745,0.01 -1.4e-4,0 -0.0417,0.091 -0.0922,0.1929 -0.0781,0.1567 -0.0988,0.1892 -0.13676,0.2153 -0.0419,0.029 -0.0823,0.036 -0.63738,0.1202 -0.32597,0.049 -0.61278,0.089 -0.63738,0.088 -0.0246,0 -0.10705,-0.01 -0.1832,-0.016 z"
       id="path13139" /><path
       style="fill:#f9f9f9;fill-opacity:1;stroke-width:0.0281054;stroke-miterlimit:9"
       d="m 356.55471,1312.6957 c -0.003,-0.01 0.13565,-0.092 0.30877,-0.1929 l 0.31477,-0.1832 0.14587,-0.01 0.14586,-0.01 0.0318,-0.085 0.0318,-0.085 0.11391,-0.016 0.11392,-0.016 0.006,-0.055 0.006,-0.055 0.14814,-0.056 c 0.1393,-0.053 0.14816,-0.058 0.14816,-0.086 0,-0.016 -0.0151,-0.2103 -0.0334,-0.4305 l -0.0334,-0.4005 0.0548,-1.4686 c 0.0301,-0.8077 0.0566,-1.4704 0.0588,-1.4726 0.003,0 0.0464,0.4718 0.0982,1.0532 l 0.0942,1.0573 -0.0542,0.7564 c -0.0541,0.7552 -0.0542,0.7565 -0.0888,0.8532 -0.0307,0.085 -0.0487,0.1137 -0.15587,0.2437 -0.0904,0.1097 -0.14015,0.1596 -0.19568,0.1964 -0.0427,0.028 -0.27662,0.1378 -0.54766,0.2566 l -0.47318,0.2073 h -0.11602 c -0.0638,0 -0.11872,0 -0.12203,-0.01 z"
       id="path13140" /><path
       style="fill:#f9f9f9;fill-opacity:1;stroke-width:0.0281054;stroke-miterlimit:9"
       d="m 350.78936,1311.4085 c -0.2041,-0.055 -0.34155,-0.1204 -0.4154,-0.1979 -0.0358,-0.038 -0.22198,-0.3256 -0.22198,-0.3435 0,0 0.0471,-0.01 0.10467,-0.01 h 0.10467 l 0.0478,0.1258 c 0.0265,0.069 0.0509,0.1289 0.0547,0.1328 0.004,0 0.0899,0 0.19132,-0.019 0.17529,-0.025 0.21529,-0.026 0.80008,-0.027 h 0.61552 l 0.0331,-0.092 0.0331,-0.092 0.0894,-0.013 c 0.0492,-0.01 0.12306,-0.013 0.16426,-0.014 h 0.0749 l -0.0954,0.1538 c -0.11436,0.1843 -0.16285,0.2367 -0.26654,0.2882 l -0.0786,0.039 -0.52557,0.05 c -0.28906,0.028 -0.54065,0.05 -0.55912,0.049 -0.0185,0 -0.0864,-0.015 -0.15094,-0.033 z"
       id="path13141" /><path
       style="fill:#f9f9f9;fill-opacity:1;stroke-width:0.0281054;stroke-miterlimit:9"
       d="m 350.15198,1309.1777 c 0,-0.022 0.20021,-0.3255 0.23537,-0.3572 l 0.0442,-0.04 h 0.87215 0.87214 l 0.0441,0.04 c 0.0387,0.035 0.23556,0.3333 0.23556,0.3569 0,0.013 -0.25662,0 -0.27022,-0.014 -0.008,-0.01 -0.007,-0.037 0,-0.092 0.007,-0.045 0.01,-0.084 0.007,-0.087 -0.003,0 -0.16825,-0.01 -0.36656,-0.011 h -0.36055 l -0.081,-0.08 -0.0811,-0.08 -0.0779,0.077 -0.0779,0.077 -0.17396,-0.032 -0.17394,-0.032 -0.0332,0.032 -0.0332,0.032 -0.10969,-0.019 c -0.0603,-0.011 -0.12076,-0.022 -0.13431,-0.026 -0.0235,-0.01 -0.0246,0 -0.0246,0.069 0,0.065 -0.005,0.083 -0.0363,0.1352 l -0.0364,0.06 h -0.1202 c -0.0661,10e-5 -0.1202,0 -0.1202,-0.01 z"
       id="path13142" /><path
       style="fill:#f9f9f9;fill-opacity:1;stroke-width:0.0281054;stroke-miterlimit:9"
       d="m 349.66644,1312.6974 c -0.0119,0 -0.19296,-0.1183 -0.40256,-0.2561 l -0.38108,-0.2506 -0.11184,-0.1355 c -0.0615,-0.074 -0.118,-0.1462 -0.12557,-0.1592 -0.0241,-0.042 -0.0895,-0.2543 -0.11893,-0.3871 -0.0371,-0.1672 -0.0695,-0.3948 -0.09,-0.6318 l -0.0164,-0.19 0.11679,-1.3073 c 0.0642,-0.719 0.1174,-1.3179 0.11816,-1.3307 0.003,-0.035 0.14251,3.6628 0.1433,3.7733 v 0.095 l 0.0999,0.044 0.0999,0.044 0.007,0.052 0.007,0.052 0.11337,0.015 0.11338,0.015 0.0326,0.087 0.0326,0.087 h 0.13978 0.13975 l 0.32232,0.1873 c 0.23066,0.134 0.31686,0.1895 0.30326,0.1949 -0.0214,0.01 -0.51051,0.01 -0.54369,0 z"
       id="path13143" /><path
       style="fill:#f9f9f9;fill-opacity:1;stroke-width:0.0281054;stroke-miterlimit:9"
       d="m 348.82263,1307.5108 c -0.0265,-0.1772 -0.0265,-0.1765 0.11327,-0.447 0.11687,-0.2262 0.13023,-0.2471 0.1883,-0.2938 0.0577,-0.046 0.48181,-0.3159 0.48829,-0.3103 0.003,0 -0.0286,0.085 -0.0671,0.1852 l -0.07,0.1827 -0.21804,0.1952 -0.21807,0.1953 -0.008,0.1013 -0.008,0.1014 -0.0867,0.087 c -0.0477,0.048 -0.09,0.087 -0.094,0.087 -0.004,0 -0.013,-0.038 -0.0198,-0.084 z"
       id="path13144" /><path
       style="fill:#f9f9f9;fill-opacity:1;stroke-width:0.0281054;stroke-miterlimit:9"
       d="m 350.35364,1305.6455 c 0.009,-0.01 0.26821,-0.219 0.57603,-0.4681 0.35787,-0.2897 0.58968,-0.4694 0.64296,-0.4985 l 0.0833,-0.046 0.79954,-0.09 0.79952,-0.09 0.63738,0.022 c 0.35057,0.012 0.69022,0.025 0.7548,0.03 l 0.11743,0.01 -0.42493,0.071 c -0.2337,0.039 -0.45765,0.075 -0.49762,0.081 -0.04,0.01 -0.18908,0.031 -0.33132,0.055 -0.24944,0.044 -0.26069,0.045 -0.31617,0.028 -0.0566,-0.017 -0.0589,-0.016 -0.13949,0.017 l -0.0819,0.034 -0.15872,-0.03 -0.1587,-0.03 -0.0724,0.036 -0.0724,0.036 h -0.43828 -0.43831 l -0.1905,0.1887 c -0.18812,0.1863 -0.19121,0.1887 -0.24873,0.196 -0.032,0 -0.0611,0.012 -0.0646,0.017 -0.003,0.01 -0.0282,0.013 -0.055,0.017 -0.0402,0.01 -0.06,0.019 -0.11435,0.074 -0.0722,0.074 -0.11555,0.1 -0.19976,0.1203 -0.037,0.01 -0.0653,0.025 -0.0839,0.046 -0.0153,0.018 -0.095,0.068 -0.1769,0.111 -0.15094,0.079 -0.17655,0.09 -0.14711,0.063 z"
       id="path13145" /><path
       style="fill:#f9f9f9;fill-opacity:1;stroke-width:0.0281054;stroke-miterlimit:9"
       d="m 357.79222,1307.3712 -0.0587,-0.034 v -0.06 -0.06 l -0.25437,-0.227 c -0.13994,-0.1249 -0.25768,-0.2318 -0.26168,-0.2376 -0.004,-0.01 -0.0188,-0.069 -0.0326,-0.1403 -0.0159,-0.081 -0.0321,-0.1347 -0.0431,-0.143 -0.01,-0.01 -0.0893,-0.057 -0.17685,-0.1103 l -0.15917,-0.097 -0.063,-0.1175 -0.063,-0.1174 -0.0909,-0.042 -0.0909,-0.042 -0.0939,-0.1549 c -0.0516,-0.085 -0.0954,-0.1568 -0.0973,-0.1591 -0.003,0 -0.12512,-0.051 -0.27393,-0.1076 l -0.27056,-0.1035 -0.0826,-0.1048 c -0.20172,-0.2559 -0.31552,-0.4581 -0.27271,-0.4845 0.0159,-0.01 0.42736,0.2366 0.52433,0.3141 0.43725,0.3495 1.09654,1.0091 1.54852,1.5491 0.0948,0.1133 0.11965,0.1523 0.18844,0.2963 0.16343,0.3421 0.19783,0.4175 0.19042,0.4174 -0.004,-10e-5 -0.034,-0.015 -0.0663,-0.034 z"
       id="path13146" /></g></svg>
