<?xml version="1.0" encoding="UTF-8" standalone="no"?>
<!-- Created with Inkscape (http://www.inkscape.org/) -->

<svg
   width="35.960789mm"
   height="67.805099mm"
   viewBox="0 0 35.960789 67.805099"
   version="1.1"
   id="svg1"
   xml:space="preserve"
   xmlns="http://www.w3.org/2000/svg"
   xmlns:svg="http://www.w3.org/2000/svg"><defs
     id="defs1" /><g
     id="layer1"
     transform="translate(-26.140767,-1031.3862)"><g
       id="g12919"
       transform="translate(105.29737,12.08515)"><path
         style="fill:#e4f5fc"
         d="m -76.415133,1086.5167 c -1.237295,-0.6531 -2.477713,-2.3247 -2.699581,-3.6379 -0.09224,-0.546 0.136174,-3.7708 0.507583,-7.1664 0.371409,-3.3955 0.67529,-6.2789 0.67529,-6.4075 0,-0.1286 0.297656,-0.4926 0.661458,-0.8089 0.777856,-0.6764 0.902635,-2.156 0.243262,-2.8846 -0.38244,-0.4225 -0.303507,-1.5215 0.923143,-12.8531 0.737737,-6.815 1.461072,-12.8194 1.607411,-13.343 0.146339,-0.5236 0.569678,-1.2797 0.940753,-1.6801 0.599812,-0.6472 0.643256,-0.8232 0.391492,-1.586 -0.405449,-1.2286 0.145938,-2.7605 1.24156,-3.4496 0.72348,-0.455 0.851218,-0.6928 0.859896,-1.6009 0.0091,-0.9473 -0.07899,-1.1001 -0.788186,-1.3678 -1.156464,-0.4365 -1.689605,-1.8623 -1.491557,-3.9888 0.199576,-2.1429 0.88996,-3.6732 2.160415,-4.7886 1.798735,-1.5793 2.051256,-1.6206 9.919103,-1.6206 7.867846,0 8.120367,0.041 9.919102,1.6206 2.620523,2.3008 3.045689,7.8803 0.668859,8.7774 -0.709193,0.2677 -0.79724,0.4205 -0.788186,1.3678 0.0087,0.9081 0.136415,1.1459 0.859895,1.6009 1.078365,0.6782 1.586034,2.0827 1.225201,3.3895 -0.225607,0.8171 -0.177397,1.0147 0.399507,1.6371 0.846384,0.9133 1.104604,1.7959 1.460656,4.9923 0.249365,2.2387 0.233182,2.7047 -0.112247,3.2319 -0.544776,0.8314 -0.545525,2.7513 -0.0011,2.7513 0.221401,0 0.515195,0.2679 0.652874,0.5953 0.413348,0.983 3.759305,32.4438 3.569798,33.5655 -0.229281,1.3571 -1.474277,3.012 -2.759049,3.6674 -1.018012,0.5194 -1.498293,0.536 -15.150942,0.5247 -13.55018,-0.011 -14.138446,-0.032 -15.096436,-0.5379 z"
         id="path12931" /><path
         style="fill:#d2edfb"
         d="m -76.261871,1086.5515 c -1.316904,-0.5979 -2.616055,-2.2712 -2.853214,-3.6749 -0.09244,-0.5471 0.135971,-3.7467 0.507584,-7.11 0.371613,-3.3634 0.67566,-6.2458 0.67566,-6.4054 0,-0.1596 0.297656,-0.5489 0.661458,-0.8652 0.777792,-0.6763 0.90265,-2.1559 0.243398,-2.8844 -0.382259,-0.4224 -0.303084,-1.5231 0.924531,-12.8531 0.738425,-6.8152 1.461699,-12.8196 1.607275,-13.3432 0.145576,-0.5236 0.565981,-1.2772 0.934234,-1.6745 0.590773,-0.6375 0.639364,-0.8318 0.412982,-1.6517 -0.378913,-1.3723 0.143839,-2.7108 1.36814,-3.5031 0.84556,-0.5471 0.991732,-0.7831 0.991732,-1.601 0,-0.854 -0.09442,-0.9871 -0.859896,-1.2125 -1.304958,-0.3841 -1.855581,-1.6511 -1.687461,-3.8827 0.168095,-2.2314 0.848206,-3.7905 2.153254,-4.9363 1.798735,-1.5793 2.051256,-1.6206 9.919103,-1.6206 7.867846,0 8.120367,0.041 9.919102,1.6206 1.305048,1.1458 1.985159,2.7049 2.153254,4.9363 0.16812,2.2316 -0.382502,3.4986 -1.687461,3.8827 -0.773184,0.2277 -0.859896,0.3537 -0.859896,1.25 0,0.8285 0.127442,1.0627 0.75446,1.387 1.389461,0.7185 2.010672,2.2119 1.575582,3.7876 -0.188488,0.6827 -0.184553,1.0048 0.01308,1.0707 0.77258,0.2575 1.440959,2.0466 1.783111,4.7729 0.45035,3.5885 0.456337,3.383 -0.114767,3.9387 -0.595532,0.5795 -0.498683,2.7223 0.123039,2.7223 0.206116,0 0.487503,0.2679 0.625303,0.5953 0.410095,0.9744 3.756187,32.4609 3.568009,33.5747 -0.227856,1.3487 -1.47588,3.0044 -2.75748,3.6582 -1.01719,0.5189 -1.505019,0.5362 -15.01865,0.5305 -13.154241,-0.01 -14.03182,-0.035 -15.075466,-0.5089 z m 6.796696,-30.3828 c 0,-0.778 1.896853,-17.115 2.008083,-17.295 0.0769,-0.1244 -0.760182,-0.2262 -1.860176,-0.2262 -2.2778,0 -2.919495,0.3844 -3.177186,1.9035 -0.11991,0.7068 -1.733221,15.3354 -1.733221,15.7159 0,0.059 1.071563,0.1077 2.38125,0.1077 1.309688,0 2.38125,-0.093 2.38125,-0.2059 z"
         id="path12930" /><path
         style="fill:#b0e2f8"
         d="m -76.282363,1086.5108 c -1.325464,-0.6604 -1.981573,-1.4244 -2.588915,-3.0147 -0.422682,-1.1067 -0.410552,-1.4493 0.272603,-7.6987 0.393231,-3.5972 0.774667,-6.696 0.847634,-6.8861 0.07297,-0.1902 0.353238,-0.4157 0.622825,-0.5013 0.707521,-0.2246 0.832882,-2.2271 0.173792,-2.7762 -0.458763,-0.3822 -0.423832,-0.8932 0.877067,-12.8323 0.745173,-6.8388 1.464857,-12.8587 1.599298,-13.3775 0.134441,-0.5188 0.533638,-1.2149 0.887103,-1.547 0.567538,-0.5332 0.626005,-0.7652 0.500152,-1.9846 -0.174182,-1.6876 0.348148,-2.8589 1.502902,-3.37 0.703812,-0.3116 0.799811,-0.4853 0.799811,-1.447 0,-0.999 -0.0672,-1.1064 -0.781743,-1.2493 -1.266666,-0.2534 -1.737899,-1.2705 -1.694828,-3.6582 0.04447,-2.4654 0.695017,-4.0199 2.233243,-5.3366 1.619655,-1.3863 2.367361,-1.4984 10.000345,-1.4984 6.480466,0 6.992342,0.035 8.102133,0.5569 1.348695,0.6339 2.660877,2.0078 3.238814,3.391 0.216847,0.5189 0.410312,1.842 0.429922,2.9401 0.04163,2.3313 -0.439418,3.3538 -1.696143,3.6052 -0.714541,0.1429 -0.781744,0.2503 -0.781744,1.2493 0,0.9617 0.096,1.1354 0.799811,1.447 1.155863,0.5116 1.677109,1.6821 1.50249,3.374 -0.120005,1.1628 -0.05756,1.4621 0.389394,1.8666 0.863849,0.7817 1.020108,1.2743 1.415478,4.4614 0.389023,3.136 0.348053,3.6897 -0.291171,3.935 -0.7086,0.2719 -0.360732,2.4276 0.432365,2.6793 0.267886,0.085 0.544171,0.3569 0.613966,0.6041 0.06979,0.2472 0.926335,7.7835 1.903422,16.7473 l 1.776522,16.2978 -0.675798,1.4762 c -0.487541,1.0649 -0.990127,1.6841 -1.804174,2.223 l -1.128377,0.7469 -14.174776,0.07 c -13.993017,0.069 -14.189249,0.062 -15.303423,-0.4927 z m 6.915093,-31.2607 c 0.08689,-0.6185 0.52282,-4.5086 0.968727,-8.6447 0.445906,-4.1361 0.871607,-7.6187 0.946002,-7.739 0.07439,-0.1204 -0.751542,-0.2189 -1.835416,-0.2189 -3.20326,0 -2.991343,-0.473 -4.036185,9.0097 -0.488196,4.4308 -0.891207,8.2048 -0.89558,8.3867 -0.0058,0.2403 0.634437,0.3307 2.343256,0.3307 h 2.351208 z m 14.071805,0.5292 c -0.07033,-0.3274 -0.504939,-4.1077 -0.965799,-8.4005 -0.607783,-5.6615 -0.948661,-7.9324 -1.241093,-8.2683 -0.344345,-0.3954 -0.893025,-0.463 -3.760734,-0.463 -2.86771,0 -3.41639,0.068 -3.760735,0.463 -0.292432,0.3359 -0.63331,2.6068 -1.241093,8.2683 -0.46086,4.2928 -0.895469,8.0731 -0.965799,8.4005 l -0.127872,0.5953 h 6.095499 6.095498 z"
         id="path12929" /><path
         style="fill:#8d9ba6"
         d="m -76.29213,1086.5023 c -0.626128,-0.3099 -1.432388,-0.9944 -1.791688,-1.5211 -1.217278,-1.7844 -1.253105,-2.4151 -0.516896,-9.0985 0.802416,-7.2845 0.797429,-7.2584 1.429349,-7.459 0.768003,-0.2438 0.953201,-2.2048 0.26114,-2.7652 -0.523153,-0.4236 -0.518417,-0.4967 0.816263,-12.5941 1.646836,-14.9267 1.502827,-14.021 2.390501,-15.0336 0.650683,-0.7423 0.720142,-0.9929 0.605135,-2.1837 -0.159343,-1.6499 0.372741,-2.8212 1.510424,-3.3247 0.709281,-0.314 0.799811,-0.4815 0.799811,-1.4801 0,-0.9201 -0.08972,-1.126 -0.490532,-1.126 -0.269792,0 -0.805573,-0.292 -1.190625,-0.6489 -0.650338,-0.6027 -0.700093,-0.8072 -0.700093,-2.8781 0,-3.3885 1.032392,-5.2526 3.561062,-6.4301 1.293906,-0.6026 1.543084,-0.6211 8.345188,-0.6211 6.802103,0 7.051282,0.018 8.345187,0.6211 2.52867,1.1775 3.561062,3.0416 3.561062,6.4301 0,2.0709 -0.04975,2.2754 -0.700093,2.8781 -0.385051,0.3569 -0.920833,0.6489 -1.190625,0.6489 -0.400813,0 -0.490532,0.2059 -0.490532,1.126 0,0.9986 0.09053,1.1661 0.799811,1.4801 1.155863,0.5116 1.677109,1.6821 1.50249,3.374 -0.120005,1.1628 -0.05756,1.4621 0.389394,1.8666 0.292776,0.2649 0.646828,0.6957 0.786784,0.9572 0.311219,0.5815 1.021745,6.4926 0.837986,6.9715 -0.07261,0.1892 -0.372418,0.4203 -0.666243,0.5136 -0.959591,0.3045 -1.302718,-0.4391 -1.66908,-3.6171 -0.430962,-3.7384 -0.608454,-3.9407 -3.457358,-3.9407 -1.44256,0 -1.916873,0.086 -1.831368,0.3307 0.06347,0.1819 0.479281,3.6645 0.924035,7.7391 0.444755,4.0746 0.878861,7.9143 0.964681,8.5328 l 0.156035,1.1245 h 2.387172 2.387171 l -0.15394,-1.1245 c -0.08467,-0.6185 -0.234953,-2.1987 -0.333969,-3.5117 -0.150965,-2.0019 -0.112611,-2.4432 0.237572,-2.7339 0.560549,-0.4652 1.469727,-0.1436 1.624836,0.5747 0.06861,0.3177 0.905196,7.7576 1.859089,16.533 1.362791,12.5371 1.677531,16.1648 1.469127,16.9333 -0.409903,1.5116 -1.466092,2.8506 -2.731824,3.4633 -1.126168,0.5452 -1.457403,0.5575 -15.02479,0.5572 -13.62206,-2e-4 -13.893846,-0.01 -15.011649,-0.5637 z m 6.932749,-31.1199 c 0.08377,-0.5457 0.514837,-4.3855 0.95793,-8.5328 0.443093,-4.1474 0.874533,-7.7655 0.958757,-8.0403 0.143184,-0.4673 0.02097,-0.4913 -1.881082,-0.3692 -3.154163,0.2024 -2.96594,-0.2256 -4.009292,9.1163 -0.48479,4.3407 -0.8844,8.1005 -0.888021,8.3552 -0.0058,0.4068 0.27958,0.463 2.351408,0.463 h 2.357994 z m 14.060075,0.1323 c -0.08008,-0.473 -0.503949,-4.1937 -0.941921,-8.2682 -0.437971,-4.0746 -0.858957,-7.6068 -0.935524,-7.8493 -0.214623,-0.6797 -1.562467,-1.0143 -4.08634,-1.0143 -2.523874,0 -3.871718,0.3346 -4.086341,1.0143 -0.07657,0.2425 -0.497553,3.7747 -0.935524,7.8493 -0.437972,4.0745 -0.861836,7.7952 -0.941921,8.2682 l -0.145609,0.8599 h 6.109395 6.109394 z"
         id="path12928" /><path
         style="fill:#788a96"
         d="m -75.815175,1086.6444 c -1.69691,-0.735 -2.932554,-2.237 -3.24449,-3.9438 -0.07979,-0.4365 0.175905,-3.6941 0.568202,-7.239 0.614842,-5.5559 0.783337,-6.4965 1.221058,-6.8166 0.279285,-0.2042 0.623162,-0.3328 0.764171,-0.2858 0.77861,0.2595 0.790441,1.0533 0.110015,7.381 -0.599163,5.572 -0.644024,6.5454 -0.335764,7.2854 0.477604,1.1465 1.80803,1.9218 3.299965,1.923 l 1.192531,10e-4 -0.08748,-1.1245 c -0.06904,-0.8874 1.78676,-19.0042 2.479894,-24.2094 l 0.14974,-1.1244 h -2.397462 c -1.318604,0 -2.398497,0.089 -2.399761,0.1984 -0.01829,1.5789 -0.855174,6.8225 -1.115216,6.9875 -0.978121,0.6207 -1.851372,-0.2177 -1.648224,-1.5825 0.07967,-0.5353 0.72346,-6.2857 1.430641,-12.7788 1.302719,-11.9611 1.456452,-12.7716 2.622413,-13.8268 0.415935,-0.3764 0.486121,-0.6108 0.291671,-0.9742 -0.714471,-1.335 0.191558,-3.6393 1.607635,-4.0888 0.411128,-0.1305 0.517546,-0.4054 0.517546,-1.337 0,-0.838 -0.107501,-1.1728 -0.376575,-1.1728 -0.207116,0 -0.75372,-0.3174 -1.214674,-0.7053 l -0.838099,-0.7052 0.09019,-2.4253 c 0.08008,-2.1532 0.180037,-2.5705 0.890939,-3.7196 0.495787,-0.8013 1.294001,-1.5992 2.095918,-2.0949 l 1.295173,-0.8008 h 7.582123 7.582122 l 1.295173,0.8008 c 0.801917,0.4957 1.600131,1.2936 2.095918,2.0949 0.710902,1.1491 0.810865,1.5664 0.89094,3.7196 l 0.0902,2.4253 -0.8381,0.7052 c -0.460954,0.3879 -1.007558,0.7053 -1.214674,0.7053 -0.269074,0 -0.376575,0.3348 -0.376575,1.1728 0,0.9316 0.106418,1.2065 0.517547,1.337 0.922229,0.2927 1.864061,1.6784 1.859652,2.736 -0.0022,0.5345 -0.113041,1.1441 -0.24625,1.3547 -0.172268,0.2723 -0.02152,0.6342 0.522084,1.2533 0.952603,1.0849 1.250127,2.1758 1.476175,5.4124 0.16609,2.378 0.142318,2.5697 -0.351485,2.834 -1.046188,0.5599 -1.402635,-0.1127 -1.719354,-3.2442 -0.38938,-3.85 -0.67588,-4.2037 -3.521407,-4.3474 -2.043141,-0.1032 -2.048877,-0.1016 -1.893291,0.5226 0.08583,0.3443 0.519311,4.0193 0.963285,8.1667 0.443975,4.1473 0.871775,7.9275 0.950666,8.4005 l 0.14344,0.8599 h 2.396799 2.396799 l -0.220324,-2.1828 c -0.359874,-3.5654 -0.299324,-4.9887 0.226429,-5.3226 1.160929,-0.7372 1.237091,-0.3271 3.130125,16.8529 1.765872,16.026 1.837134,17.2225 1.106174,18.5723 -0.461469,0.8521 -1.714496,1.921 -2.767628,2.3609 -1.455188,0.6079 -27.640669,0.5981 -29.046519,-0.011 z m 6.469241,-31.1297 c 0.07877,-0.473 0.503743,-4.1937 0.944385,-8.2682 0.440641,-4.0746 0.867298,-7.7358 0.948126,-8.136 l 0.14696,-0.7276 h -1.893458 c -1.714318,0 -1.96171,0.069 -2.614856,0.7276 -0.705179,0.7113 -0.740564,0.9031 -1.574009,8.5328 -0.468937,4.2929 -0.849525,8.0136 -0.845751,8.2683 0.006,0.406 0.298687,0.463 2.376123,0.463 h 2.369261 z m 14.168259,0.7549 c 0,-0.7276 -1.882815,-16.6006 -2.007739,-16.9261 -0.299774,-0.7812 -1.061195,-0.9606 -4.077677,-0.9606 -3.016483,0 -3.777904,0.1794 -4.077677,0.9606 -0.124924,0.3255 -2.00774,16.1985 -2.00774,16.9261 0,0.058 2.738437,0.105 6.085417,0.105 3.346979,0 6.085416,-0.047 6.085416,-0.105 z"
         id="path12927" /><path
         style="fill:#c07c4c"
         d="m -75.947466,1086.5646 c -1.487186,-0.6885 -2.528101,-1.8995 -2.910061,-3.3856 -0.280467,-1.0912 -0.227642,-2.1754 0.371347,-7.6221 0.38408,-3.4925 0.792019,-6.4988 0.906531,-6.6807 0.300063,-0.4767 1.487151,-0.4073 1.681148,0.098 0.09056,0.236 -0.146066,3.2884 -0.525828,6.7832 -0.596023,5.485 -0.642165,6.4698 -0.337307,7.1995 0.566721,1.3563 1.590207,1.9924 3.205924,1.9924 h 1.39435 l -0.127464,-0.9922 c -0.0701,-0.5457 0.477006,-6.4208 1.215802,-13.0559 0.738796,-6.635 1.343266,-12.1416 1.343266,-12.2369 0,-0.1566 -4.75936,-0.2637 -4.764799,-0.1072 -0.06249,1.7979 -0.87417,6.7446 -1.152324,7.0227 -0.411047,0.4111 -1.367683,0.2359 -1.561334,-0.2859 -0.190161,-0.5124 2.638065,-25.5553 2.979064,-26.3785 0.169734,-0.4098 0.592087,-1.0114 0.938562,-1.3369 0.483643,-0.4544 0.570878,-0.7022 0.375601,-1.0671 -0.47597,-0.8893 -0.289446,-2.2798 0.418726,-3.1214 0.370193,-0.44 0.905974,-0.8738 1.190625,-0.9642 0.411128,-0.1305 0.517546,-0.4054 0.517546,-1.337 0,-0.8916 -0.100065,-1.1728 -0.417228,-1.1728 -0.229475,0 -0.765256,-0.3481 -1.190625,-0.7734 -0.723955,-0.724 -0.773397,-0.9067 -0.773397,-2.8585 0,-2.4941 0.776983,-4.3556 2.30417,-5.5204 1.728476,-1.3184 2.338475,-1.4079 9.60208,-1.4079 7.263604,0 7.873604,0.09 9.602079,1.4079 1.527187,1.1648 2.30417,3.0263 2.30417,5.5204 0,1.9518 -0.04944,2.1345 -0.773397,2.8585 -0.425369,0.4253 -0.96115,0.7734 -1.190625,0.7734 -0.317163,0 -0.417228,0.2812 -0.417228,1.1728 0,0.9316 0.106418,1.2065 0.517547,1.337 1.416076,0.4495 2.322105,2.7538 1.607634,4.0888 -0.19445,0.3634 -0.124264,0.5978 0.291671,0.9742 0.891499,0.8068 1.245004,1.7463 1.538836,4.0896 0.408821,3.2604 0.366085,4.1466 -0.214971,4.4576 -0.984324,0.5268 -1.335782,-0.1639 -1.673018,-3.2878 -0.280988,-2.6028 -0.390722,-2.9873 -1.038302,-3.638 -0.655891,-0.659 -0.903209,-0.7276 -2.625227,-0.7276 -1.836618,0 -1.896369,0.02 -1.761137,0.5953 0.07699,0.3275 0.514,4.1077 0.971135,8.4006 0.457134,4.2928 0.885568,8.0731 0.952076,8.4005 0.114771,0.565 0.243724,0.5953 2.535125,0.5953 h 2.414203 l -0.170025,-1.7859 c -0.09351,-0.9823 -0.245698,-2.5769 -0.338188,-3.5436 -0.151264,-1.5809 -0.115078,-1.7859 0.360064,-2.0402 0.389517,-0.2085 0.650149,-0.1936 0.992517,0.057 0.39668,0.29 0.724425,2.7062 2.250706,16.5923 1.59398,14.5021 1.75116,16.3899 1.459114,17.525 -0.382369,1.4862 -1.423362,2.6972 -2.910385,3.3856 -0.986838,0.4569 -1.978833,0.49 -14.684374,0.49 -12.705542,0 -13.697537,-0.033 -14.684375,-0.49 z m 23.182669,-2.1758 c 0.45276,-0.4528 0.532902,-0.7713 0.416004,-1.6537 -0.07963,-0.601 -0.712427,-6.3018 -1.406205,-12.6683 l -1.261414,-11.5755 h -6.246679 -6.24668 l -1.261414,11.5755 c -0.693778,6.3665 -1.32657,12.0673 -1.406205,12.6683 -0.116897,0.8824 -0.03676,1.2009 0.416004,1.6537 0.546413,0.5464 0.764351,0.5608 8.498295,0.5608 7.733943,0 7.951881,-0.014 8.498294,-0.5608 z m -11.034579,-2.7104 c -0.08327,-0.217 -0.112215,-0.671 -0.06433,-1.009 0.07217,-0.5094 0.245559,-0.6146 1.013111,-0.6146 0.881944,0 0.926041,0.044 0.926041,0.926 0,0.8518 -0.0691,0.9327 -0.861715,1.0091 -0.577866,0.056 -0.911584,-0.047 -1.013111,-0.3115 z m 5.597892,-1.3779 c -0.228676,-0.2287 -0.415774,-0.5774 -0.415774,-0.7749 0,-0.1975 0.187098,-0.5461 0.415774,-0.7748 0.799151,-0.7992 1.965476,-0.3394 1.965476,0.7748 0,1.1142 -1.166325,1.574 -1.965476,0.7749 z m -7.361087,-4.6325 c -0.531508,-0.3096 -0.613397,-1.3101 -0.14552,-1.778 0.486071,-0.4861 1.4837,-0.3778 1.789857,0.1943 0.37211,0.6953 0.345674,0.9661 -0.141881,1.4537 -0.478329,0.4783 -0.849299,0.5104 -1.502456,0.13 z m 7.469131,-4.2222 c -0.607301,-1.1347 0.448102,-2.1901 1.582855,-1.5828 0.595957,0.3189 0.717529,1.3086 0.22166,1.8045 -0.495868,0.4959 -1.485568,0.3743 -1.804515,-0.2217 z m -6.819943,-2.7866 c -0.999273,-0.6999 -0.594796,-1.9659 0.628103,-1.9659 1.204205,0 1.531601,1.3293 0.496376,2.0154 -0.461367,0.3058 -0.627661,0.2985 -1.124479,-0.049 z m 4.761542,-4.4 c -0.438617,-0.4386 -0.397843,-1.4031 0.07594,-1.7963 0.530752,-0.4405 1.628017,-0.131 1.794657,0.5063 0.28904,1.1053 -1.09846,2.0621 -1.870596,1.29 z m -9.194488,-8.4799 c 0.07091,-0.3274 0.493802,-4.0481 0.939758,-8.2683 0.445956,-4.2201 0.875917,-8.0003 0.955468,-8.4005 l 0.14464,-0.7276 h -1.893458 c -1.739992,0 -1.956143,0.063 -2.666856,0.7734 -0.425369,0.4254 -0.773398,0.9363 -0.773398,1.1354 0,0.1991 -0.357187,3.6264 -0.79375,7.6162 -0.436562,3.9898 -0.79375,7.527 -0.79375,7.8605 0,0.5869 0.07571,0.6062 2.37621,0.6062 2.249627,0 2.383077,-0.032 2.505136,-0.5953 z m 14.168654,0.4783 c 0,-0.064 -0.414805,-3.9041 -0.92179,-8.5328 -0.83801,-7.6509 -0.972936,-8.4579 -1.48452,-8.8789 -0.465372,-0.3829 -1.101891,-0.463 -3.679106,-0.463 -2.577216,0 -3.213734,0.08 -3.679107,0.463 -0.511584,0.421 -0.64651,1.228 -1.48452,8.8789 -0.506984,4.6287 -0.92179,8.4685 -0.92179,8.5328 0,0.064 2.738437,0.117 6.085417,0.117 3.346979,0 6.085416,-0.053 6.085416,-0.117 z"
         id="path12926" /><path
         style="fill:#6a7a84"
         d="m -75.947466,1086.5646 c -1.487186,-0.6885 -2.528101,-1.8995 -2.910061,-3.3856 -0.280467,-1.0912 -0.227642,-2.1754 0.371347,-7.6221 0.38408,-3.4925 0.792019,-6.4988 0.906531,-6.6807 0.300063,-0.4767 1.487151,-0.4073 1.681148,0.098 0.09056,0.236 -0.146066,3.2884 -0.525828,6.7832 -0.596023,5.485 -0.642165,6.4698 -0.337307,7.1995 0.566721,1.3563 1.590207,1.9924 3.205924,1.9924 h 1.39435 l -0.127464,-0.9922 c -0.0701,-0.5457 0.477006,-6.4208 1.215802,-13.0559 0.738796,-6.635 1.343266,-12.1416 1.343266,-12.2369 0,-0.1566 -4.75936,-0.2637 -4.764799,-0.1072 -0.06249,1.7979 -0.87417,6.7446 -1.152324,7.0227 -0.411047,0.4111 -1.367683,0.2359 -1.561334,-0.2859 -0.190161,-0.5124 2.638065,-25.5553 2.979064,-26.3785 0.169734,-0.4098 0.592087,-1.0114 0.938562,-1.3369 0.483643,-0.4544 0.570878,-0.7022 0.375601,-1.0671 -0.47597,-0.8893 -0.289446,-2.2798 0.418726,-3.1214 0.370193,-0.44 0.905974,-0.8738 1.190625,-0.9642 0.411128,-0.1305 0.517546,-0.4054 0.517546,-1.337 0,-0.8916 -0.100065,-1.1728 -0.417228,-1.1728 -0.229475,0 -0.765256,-0.3481 -1.190625,-0.7734 -0.723955,-0.724 -0.773397,-0.9067 -0.773397,-2.8585 0,-2.4941 0.776983,-4.3556 2.30417,-5.5204 1.728476,-1.3184 2.338475,-1.4079 9.60208,-1.4079 7.263604,0 7.873604,0.09 9.602079,1.4079 1.527187,1.1648 2.30417,3.0263 2.30417,5.5204 0,1.9518 -0.04944,2.1345 -0.773397,2.8585 -0.425369,0.4253 -0.96115,0.7734 -1.190625,0.7734 -0.317163,0 -0.417228,0.2812 -0.417228,1.1728 0,0.9316 0.106418,1.2065 0.517547,1.337 1.416076,0.4495 2.322105,2.7538 1.607634,4.0888 -0.19445,0.3634 -0.124264,0.5978 0.291671,0.9742 0.891499,0.8068 1.245004,1.7463 1.538836,4.0896 0.408821,3.2604 0.366085,4.1466 -0.214971,4.4576 -0.984324,0.5268 -1.335782,-0.1639 -1.673018,-3.2878 -0.280988,-2.6028 -0.390722,-2.9873 -1.038302,-3.638 -0.655891,-0.659 -0.903209,-0.7276 -2.625227,-0.7276 -1.836618,0 -1.896369,0.02 -1.761137,0.5953 0.07699,0.3275 0.514,4.1077 0.971135,8.4006 0.457134,4.2928 0.885568,8.0731 0.952076,8.4005 0.114771,0.565 0.243724,0.5953 2.535125,0.5953 h 2.414203 l -0.170025,-1.7859 c -0.09351,-0.9823 -0.245698,-2.5769 -0.338188,-3.5436 -0.151264,-1.5809 -0.115078,-1.7859 0.360064,-2.0402 0.389517,-0.2085 0.650149,-0.1936 0.992517,0.057 0.39668,0.29 0.724425,2.7062 2.250706,16.5923 1.59398,14.5021 1.75116,16.3899 1.459114,17.525 -0.382369,1.4862 -1.423362,2.6972 -2.910385,3.3856 -0.986838,0.4569 -1.978833,0.49 -14.684374,0.49 -12.705542,0 -13.697537,-0.033 -14.684375,-0.49 z m 23.182669,-2.1758 c 0.45276,-0.4528 0.532902,-0.7713 0.416004,-1.6537 -0.07963,-0.601 -0.712427,-6.3018 -1.406205,-12.6683 l -1.261414,-11.5755 h -6.246679 -6.24668 l -1.261414,11.5755 c -0.693778,6.3665 -1.32657,12.0673 -1.406205,12.6683 -0.116897,0.8824 -0.03676,1.2009 0.416004,1.6537 0.546413,0.5464 0.764351,0.5608 8.498295,0.5608 7.733943,0 7.951881,-0.014 8.498294,-0.5608 z m -11.034579,-2.7104 c -0.08327,-0.217 -0.112215,-0.671 -0.06433,-1.009 0.07217,-0.5094 0.245559,-0.6146 1.013111,-0.6146 0.881944,0 0.926041,0.044 0.926041,0.926 0,0.8518 -0.0691,0.9327 -0.861715,1.0091 -0.577866,0.056 -0.911584,-0.047 -1.013111,-0.3115 z m 5.597892,-1.3779 c -0.228676,-0.2287 -0.415774,-0.5774 -0.415774,-0.7749 0,-0.1975 0.187098,-0.5461 0.415774,-0.7748 0.799151,-0.7992 1.965476,-0.3394 1.965476,0.7748 0,1.1142 -1.166325,1.574 -1.965476,0.7749 z m -7.361087,-4.6325 c -0.531508,-0.3096 -0.613397,-1.3101 -0.14552,-1.778 0.486071,-0.4861 1.4837,-0.3778 1.789857,0.1943 0.37211,0.6953 0.345674,0.9661 -0.141881,1.4537 -0.478329,0.4783 -0.849299,0.5104 -1.502456,0.13 z m 7.469131,-4.2222 c -0.607301,-1.1347 0.448102,-2.1901 1.582855,-1.5828 0.595957,0.3189 0.717529,1.3086 0.22166,1.8045 -0.495868,0.4959 -1.485568,0.3743 -1.804515,-0.2217 z m -6.819943,-2.7866 c -0.999273,-0.6999 -0.594796,-1.9659 0.628103,-1.9659 1.204205,0 1.531601,1.3293 0.496376,2.0154 -0.461367,0.3058 -0.627661,0.2985 -1.124479,-0.049 z m 4.761542,-4.4 c -0.438617,-0.4386 -0.397843,-1.4031 0.07594,-1.7963 0.530752,-0.4405 1.628017,-0.131 1.794657,0.5063 0.28904,1.1053 -1.09846,2.0621 -1.870596,1.29 z m -9.194488,-8.4799 c 0.07091,-0.3274 0.493802,-4.0481 0.939758,-8.2683 0.445956,-4.2201 0.875917,-8.0003 0.955468,-8.4005 l 0.14464,-0.7276 h -1.893458 c -1.739992,0 -1.956143,0.063 -2.666856,0.7734 -0.425369,0.4254 -0.773398,0.9363 -0.773398,1.1354 0,0.1991 -0.357187,3.6264 -0.79375,7.6162 -0.436562,3.9898 -0.79375,7.527 -0.79375,7.8605 0,0.5869 0.07571,0.6062 2.37621,0.6062 2.249627,0 2.383077,-0.032 2.505136,-0.5953 z m 14.168654,0.4783 c 0,-0.064 -0.414805,-3.9041 -0.92179,-8.5328 -0.83801,-7.6509 -0.972936,-8.4579 -1.48452,-8.8789 -0.465372,-0.3829 -1.101891,-0.463 -3.679106,-0.463 -2.577216,0 -3.213734,0.08 -3.679107,0.463 -0.511584,0.421 -0.64651,1.228 -1.48452,8.8789 -0.506984,4.6287 -0.92179,8.4685 -0.92179,8.5328 0,0.064 2.738437,0.117 6.085417,0.117 3.346979,0 6.085416,-0.053 6.085416,-0.117 z m 0.478993,-20.9835 -0.08212,-0.9922 -7.616553,-0.07 c -4.950415,-0.046 -7.798361,0.027 -8.135938,0.2077 -0.498222,0.2666 -0.710922,1.3025 -0.342995,1.6705 0.09701,0.097 3.795139,0.1764 8.218055,0.1764 h 8.041666 z m -9.474826,-6.9453 c 0.266605,-0.4982 0.553991,-0.5292 4.904101,-0.5292 h 4.620899 l -0.0058,-1.6537 c -0.004,-1.1311 -0.18441,-2.0298 -0.57107,-2.8442 l -0.56526,-1.1907 -0.156534,0.7655 c -0.367956,1.7993 -1.950668,1.5499 -2.089976,-0.3294 -0.08041,-1.0847 -0.09339,-1.0975 -1.109266,-1.0975 -1.015879,0 -1.028859,0.013 -1.109266,1.0975 -0.05126,0.6915 -0.25266,1.2049 -0.54438,1.3877 -0.752591,0.4717 -1.376217,-0.1169 -1.470421,-1.3877 -0.08041,-1.0847 -0.09339,-1.0975 -1.109266,-1.0975 -1.01588,0 -1.028859,0.013 -1.109266,1.0975 -0.157658,2.1268 -1.859855,2.0999 -2.01636,-0.032 l -0.08292,-1.1294 -0.969212,0.1573 c -1.162721,0.1887 -2.095434,0.8385 -2.899849,2.0205 -0.463081,0.6804 -0.595313,1.248 -0.595313,2.5553 v 1.6807 h 1.849842 c 1.563295,0 1.901032,0.082 2.180311,0.5292 0.245745,0.3935 0.617016,0.5291 1.448141,0.5291 0.846882,0 1.186286,-0.1282 1.400873,-0.5291 z"
         id="path12925" /><path
         style="fill:#b16c3b"
         d="m -75.947466,1086.5646 c -1.231832,-0.5703 -2.361206,-1.6978 -2.761293,-2.7567 -0.154779,-0.4097 -0.279234,-1.4217 -0.276567,-2.249 0.0061,-1.8779 1.17862,-12.3092 1.429251,-12.7147 0.272342,-0.4407 1.46822,-0.3632 1.64858,0.1069 0.08561,0.2231 -0.160469,3.2998 -0.546844,6.8372 -0.768127,7.0325 -0.748634,7.2915 0.636687,8.4571 0.678383,0.5709 1.105364,0.7042 2.255101,0.7042 h 1.418274 l -0.13495,-0.8599 c -0.07422,-0.473 0.469044,-6.2886 1.207259,-12.9236 0.738216,-6.635 1.34221,-12.2012 1.34221,-12.3692 0,-0.2084 -0.754143,-0.3056 -2.369261,-0.3056 h -2.369261 l -0.138786,0.8599 c -0.07633,0.4729 -0.265767,1.9909 -0.420968,3.3734 -0.304818,2.7152 -0.710193,3.5184 -1.519709,3.0114 -0.254689,-0.1595 -0.492945,-0.6891 -0.536637,-1.1929 -0.134064,-1.5458 2.563879,-25.0735 2.96391,-25.8471 0.202283,-0.3912 0.61427,-0.9343 0.915527,-1.2069 0.442886,-0.4008 0.493031,-0.5979 0.26195,-1.0297 -0.66135,-1.2357 0.32012,-3.6152 1.667583,-4.0429 0.657624,-0.2087 0.721864,-2.5002 0.07009,-2.5002 -0.229475,0 -0.779573,-0.3624 -1.22244,-0.8053 -0.796718,-0.7967 -0.803991,-0.8295 -0.689348,-3.1088 0.129744,-2.5796 0.496986,-3.5035 1.955632,-4.9201 1.633589,-1.5866 2.553804,-1.7492 9.898384,-1.7492 7.344579,0 8.264794,0.1626 9.898383,1.7492 1.429706,1.3885 1.821835,2.3503 1.955078,4.7954 0.135321,2.4832 -0.219473,3.3553 -1.554304,3.8206 -0.695255,0.2424 -0.774158,0.3868 -0.774158,1.4168 0,0.8817 0.112684,1.1827 0.487319,1.3016 1.347463,0.4277 2.328933,2.8072 1.667584,4.0429 -0.231082,0.4318 -0.180937,0.6289 0.261949,1.0297 0.301257,0.2726 0.718651,0.8262 0.927541,1.2301 0.432272,0.836 1.065472,6.2304 0.809591,6.8972 -0.171355,0.4466 -1.367214,0.6169 -1.606989,0.229 -0.07154,-0.1158 -0.276713,-1.5137 -0.455947,-3.1065 -0.291058,-2.5867 -0.403874,-2.9741 -1.055819,-3.626 -0.660215,-0.6603 -0.909945,-0.73 -2.614365,-0.73 h -1.884425 l 0.143634,0.8599 c 0.079,0.473 0.505825,4.2532 0.948501,8.4005 0.442677,4.1474 0.861955,7.8086 0.931729,8.136 0.120317,0.5646 0.251425,0.5953 2.541066,0.5953 h 2.414203 l -0.173991,-1.9182 c -0.0957,-1.0551 -0.247036,-2.6501 -0.336312,-3.5446 -0.144286,-1.4456 -0.103841,-1.6575 0.364031,-1.9079 1.310825,-0.7016 1.310988,-0.7007 3.124569,15.7151 1.754364,15.8798 1.900513,17.8351 1.426799,19.0889 -0.400087,1.0589 -1.529461,2.1864 -2.761293,2.7567 -0.986838,0.4569 -1.978833,0.49 -14.684374,0.49 -12.705542,0 -13.697537,-0.033 -14.684375,-0.49 z m 23.27535,-2.1354 c 0.452669,-0.5002 0.418346,-0.9997 -0.886241,-12.8984 -0.74643,-6.8079 -1.356604,-12.5269 -1.355941,-12.7088 9.32e-4,-0.2554 -1.444539,-0.3307 -6.348793,-0.3307 -4.882357,0 -6.35,0.076 -6.35,0.3286 0,0.1808 -0.610224,5.8997 -1.356052,12.7087 -1.303647,11.9016 -1.337849,12.4002 -0.885034,12.9005 0.448901,0.4961 0.852273,0.5205 8.591086,0.5205 7.738166,0 8.142216,-0.024 8.590975,-0.5204 z m -11.06042,-2.5664 c -0.09701,-0.097 -0.176389,-0.5115 -0.176389,-0.921 0,-0.5746 0.151794,-0.7827 0.664894,-0.9115 1.140201,-0.2862 1.93165,0.894 1.134273,1.6914 -0.342241,0.3422 -1.335296,0.4286 -1.622778,0.1411 z m 5.55316,-1.6304 c -0.240835,-0.2661 -0.437882,-0.6049 -0.437882,-0.7527 0,-0.3455 0.878877,-1.1447 1.258705,-1.1447 0.406864,0 1.122545,0.7591 1.122545,1.1906 0,0.4533 -0.723626,1.1907 -1.168517,1.1907 -0.185333,0 -0.534016,-0.2178 -0.774851,-0.4839 z m -7.430442,-4.6944 c -0.890728,-0.8907 -0.193193,-2.1662 1.018365,-1.8621 0.939808,0.2358 1.165389,1.1966 0.422244,1.7984 -0.723946,0.5862 -0.909847,0.5944 -1.440609,0.064 z m 7.672917,-3.9688 c -0.584948,-0.5849 -0.517457,-1.0929 0.208403,-1.5685 0.772,-0.5058 1.446039,-0.2773 1.656611,0.5617 0.301313,1.2005 -0.979736,1.8921 -1.865014,1.0068 z m -7.242024,-3.0767 c -0.711678,-0.7117 -0.157568,-1.7992 0.916733,-1.7992 0.784037,0 1.267022,0.8689 0.882434,1.5875 -0.314015,0.5868 -1.30724,0.7036 -1.799167,0.2117 z m 5.131901,-4.2614 c -0.992126,-0.7254 0.06253,-2.5248 1.099037,-1.875 0.651783,0.4086 0.748272,1.4544 0.172995,1.875 -0.259915,0.1901 -0.546122,0.3456 -0.636016,0.3456 -0.08989,0 -0.376101,-0.1555 -0.636016,-0.3456 z m -8.452318,-15.794 c 0.466145,-4.2929 0.923074,-8.3112 1.015397,-8.9297 l 0.167861,-1.1245 h -1.888648 c -1.734675,0 -1.951699,0.063 -2.662045,0.7734 -0.425369,0.4254 -0.77973,1.0505 -0.78747,1.3891 -0.0077,0.3386 -0.401729,4.0427 -0.875531,8.2314 l -0.861458,7.6157 2.522178,-0.075 2.522179,-0.075 z m 13.321338,7.7391 c -1.81e-4,-0.1092 -0.412276,-3.949 -0.915765,-8.5329 -0.835952,-7.6107 -0.96482,-8.3745 -1.484191,-8.7974 -0.469936,-0.3825 -1.110211,-0.463 -3.685131,-0.463 -2.574921,0 -3.215196,0.081 -3.685132,0.463 -0.519371,0.4229 -0.648239,1.1867 -1.48419,8.7974 -0.50349,4.5839 -0.915585,8.4237 -0.915766,8.5329 -1.81e-4,0.1091 2.738108,0.1984 6.085088,0.1984 3.346979,0 6.085268,-0.089 6.085087,-0.1984 z m 0.479322,-20.9021 -0.08212,-0.9922 -7.616553,-0.07 c -4.950415,-0.046 -7.798361,0.027 -8.135938,0.2077 -0.498222,0.2666 -0.710922,1.3025 -0.342995,1.6705 0.09701,0.097 3.795139,0.1764 8.218055,0.1764 h 8.041666 z m -9.474826,-6.9453 c 0.266605,-0.4982 0.553991,-0.5292 4.904101,-0.5292 h 4.620899 l -0.0058,-1.6537 c -0.004,-1.1311 -0.18441,-2.0298 -0.57107,-2.8442 l -0.56526,-1.1907 -0.156534,0.7655 c -0.367956,1.7993 -1.950668,1.5499 -2.089976,-0.3294 -0.08041,-1.0847 -0.09339,-1.0975 -1.109266,-1.0975 -1.015879,0 -1.028859,0.013 -1.109266,1.0975 -0.05126,0.6915 -0.25266,1.2049 -0.54438,1.3877 -0.752591,0.4717 -1.376217,-0.1169 -1.470421,-1.3877 -0.08041,-1.0847 -0.09339,-1.0975 -1.109266,-1.0975 -1.01588,0 -1.028859,0.013 -1.109266,1.0975 -0.157658,2.1268 -1.859855,2.0999 -2.01636,-0.032 l -0.08292,-1.1294 -0.969212,0.1573 c -1.162721,0.1887 -2.095434,0.8385 -2.899849,2.0205 -0.463081,0.6804 -0.595313,1.248 -0.595313,2.5553 v 1.6807 h 1.849842 c 1.563295,0 1.901032,0.082 2.180311,0.5292 0.245745,0.3935 0.617016,0.5291 1.448141,0.5291 0.846882,0 1.186286,-0.1282 1.400873,-0.5291 z"
         id="path12924" /><path
         style="fill:#576871"
         d="m -75.947466,1086.5646 c -1.231832,-0.5703 -2.361206,-1.6978 -2.761293,-2.7567 -0.154779,-0.4097 -0.279234,-1.4217 -0.276567,-2.249 0.0061,-1.8779 1.17862,-12.3092 1.429251,-12.7147 0.272342,-0.4407 1.46822,-0.3632 1.64858,0.1069 0.08561,0.2231 -0.160469,3.2998 -0.546844,6.8372 -0.768127,7.0325 -0.748634,7.2915 0.636687,8.4571 0.678383,0.5709 1.105364,0.7042 2.255101,0.7042 h 1.418274 l -0.13495,-0.8599 c -0.07422,-0.473 0.469044,-6.2886 1.207259,-12.9236 0.738216,-6.635 1.34221,-12.2012 1.34221,-12.3692 0,-0.2084 -0.754143,-0.3056 -2.369261,-0.3056 h -2.369261 l -0.138786,0.8599 c -0.07633,0.4729 -0.265767,1.9909 -0.420968,3.3734 -0.304818,2.7152 -0.710193,3.5184 -1.519709,3.0114 -0.254689,-0.1595 -0.492945,-0.6891 -0.536637,-1.1929 -0.134064,-1.5458 2.563879,-25.0735 2.96391,-25.8471 0.202283,-0.3912 0.61427,-0.9343 0.915527,-1.2069 0.442886,-0.4008 0.493031,-0.5979 0.26195,-1.0297 -0.66135,-1.2357 0.32012,-3.6152 1.667583,-4.0429 0.657624,-0.2087 0.721864,-2.5002 0.07009,-2.5002 -0.229475,0 -0.779573,-0.3624 -1.22244,-0.8053 -0.796718,-0.7967 -0.803991,-0.8295 -0.689348,-3.1088 0.129744,-2.5796 0.496986,-3.5035 1.955632,-4.9201 1.633589,-1.5866 2.553804,-1.7492 9.898384,-1.7492 7.344579,0 8.264794,0.1626 9.898383,1.7492 1.429706,1.3885 1.821835,2.3503 1.955078,4.7954 0.135321,2.4832 -0.219473,3.3553 -1.554304,3.8206 -0.695255,0.2424 -0.774158,0.3868 -0.774158,1.4168 0,0.8817 0.112684,1.1827 0.487319,1.3016 1.347463,0.4277 2.328933,2.8072 1.667584,4.0429 -0.231082,0.4318 -0.180937,0.6289 0.261949,1.0297 0.301257,0.2726 0.718651,0.8262 0.927541,1.2301 0.432272,0.836 1.065472,6.2304 0.809591,6.8972 -0.171355,0.4466 -1.367214,0.6169 -1.606989,0.229 -0.07154,-0.1158 -0.276713,-1.5137 -0.455947,-3.1065 -0.291058,-2.5867 -0.403874,-2.9741 -1.055819,-3.626 -0.660215,-0.6603 -0.909945,-0.73 -2.614365,-0.73 h -1.884425 l 0.143634,0.8599 c 0.079,0.473 0.505825,4.2532 0.948501,8.4005 0.442677,4.1474 0.861955,7.8086 0.931729,8.136 0.120317,0.5646 0.251425,0.5953 2.541066,0.5953 h 2.414203 l -0.173991,-1.9182 c -0.0957,-1.0551 -0.247036,-2.6501 -0.336312,-3.5446 -0.144286,-1.4456 -0.103841,-1.6575 0.364031,-1.9079 1.310825,-0.7016 1.310988,-0.7007 3.124569,15.7151 1.754364,15.8798 1.900513,17.8351 1.426799,19.0889 -0.400087,1.0589 -1.529461,2.1864 -2.761293,2.7567 -0.986838,0.4569 -1.978833,0.49 -14.684374,0.49 -12.705542,0 -13.697537,-0.033 -14.684375,-0.49 z m 23.27535,-2.1354 c 0.452669,-0.5002 0.418346,-0.9997 -0.886241,-12.8984 -0.74643,-6.8079 -1.356604,-12.5269 -1.355941,-12.7088 9.32e-4,-0.2554 -1.444539,-0.3307 -6.348793,-0.3307 -4.882357,0 -6.35,0.076 -6.35,0.3286 0,0.1808 -0.610224,5.8997 -1.356052,12.7087 -1.303647,11.9016 -1.337849,12.4002 -0.885034,12.9005 0.448901,0.4961 0.852273,0.5205 8.591086,0.5205 7.738166,0 8.142216,-0.024 8.590975,-0.5204 z m -11.06042,-2.5664 c -0.09701,-0.097 -0.176389,-0.5115 -0.176389,-0.921 0,-0.5746 0.151794,-0.7827 0.664894,-0.9115 1.140201,-0.2862 1.93165,0.894 1.134273,1.6914 -0.342241,0.3422 -1.335296,0.4286 -1.622778,0.1411 z m 5.55316,-1.6304 c -0.240835,-0.2661 -0.437882,-0.6049 -0.437882,-0.7527 0,-0.3455 0.878877,-1.1447 1.258705,-1.1447 0.406864,0 1.122545,0.7591 1.122545,1.1906 0,0.4533 -0.723626,1.1907 -1.168517,1.1907 -0.185333,0 -0.534016,-0.2178 -0.774851,-0.4839 z m -7.430442,-4.6944 c -0.890728,-0.8907 -0.193193,-2.1662 1.018365,-1.8621 0.939808,0.2358 1.165389,1.1966 0.422244,1.7984 -0.723946,0.5862 -0.909847,0.5944 -1.440609,0.064 z m 7.672917,-3.9688 c -0.584948,-0.5849 -0.517457,-1.0929 0.208403,-1.5685 0.772,-0.5058 1.446039,-0.2773 1.656611,0.5617 0.301313,1.2005 -0.979736,1.8921 -1.865014,1.0068 z m -7.242024,-3.0767 c -0.711678,-0.7117 -0.157568,-1.7992 0.916733,-1.7992 0.784037,0 1.267022,0.8689 0.882434,1.5875 -0.314015,0.5868 -1.30724,0.7036 -1.799167,0.2117 z m 5.131901,-4.2614 c -0.992126,-0.7254 0.06253,-2.5248 1.099037,-1.875 0.651783,0.4086 0.748272,1.4544 0.172995,1.875 -0.259915,0.1901 -0.546122,0.3456 -0.636016,0.3456 -0.08989,0 -0.376101,-0.1555 -0.636016,-0.3456 z m -8.452318,-15.794 c 0.466145,-4.2929 0.923074,-8.3112 1.015397,-8.9297 l 0.167861,-1.1245 h -1.888648 c -1.734675,0 -1.951699,0.063 -2.662045,0.7734 -0.425369,0.4254 -0.77973,1.0505 -0.78747,1.3891 -0.0077,0.3386 -0.401729,4.0427 -0.875531,8.2314 l -0.861458,7.6157 2.522178,-0.075 2.522179,-0.075 z m 13.321338,7.7391 c -1.81e-4,-0.1092 -0.412276,-3.949 -0.915765,-8.5329 -0.835952,-7.6107 -0.96482,-8.3745 -1.484191,-8.7974 -0.469936,-0.3825 -1.110211,-0.463 -3.685131,-0.463 -2.574921,0 -3.215196,0.081 -3.685132,0.463 -0.519371,0.4229 -0.648239,1.1867 -1.48419,8.7974 -0.50349,4.5839 -0.915585,8.4237 -0.915766,8.5329 -1.81e-4,0.1091 2.738108,0.1984 6.085088,0.1984 3.346979,0 6.085268,-0.089 6.085087,-0.1984 z m 3.663477,-20.6889 c 0.182457,-1.2926 -0.150637,-1.3377 -9.878509,-1.3377 -6.666386,0 -9.107605,0.083 -9.342139,0.3175 -0.344001,0.344 -0.428089,1.3358 -0.13786,1.626 0.0988,0.099 4.474348,0.1484 9.723437,0.1103 l 9.543798,-0.069 z m -12.4558,-7.1585 c 0.314903,-0.5043 0.617015,-0.5292 6.413644,-0.5292 h 6.083175 v -1.6807 c 0,-1.31 -0.132686,-1.8775 -0.601609,-2.5734 -0.779356,-1.1565 -2.187542,-2.0959 -3.141685,-2.0959 -0.697385,0 -0.754623,0.076 -0.754623,1.0054 0,1.5079 -0.824228,2.1013 -1.700893,1.2246 -0.228675,-0.2286 -0.415773,-0.8239 -0.415773,-1.3229 0,-0.8797 -0.03151,-0.9071 -1.043121,-0.9071 -1.033719,0 -1.043853,0.01 -1.124479,1.0975 -0.05126,0.6915 -0.25266,1.2049 -0.54438,1.3877 -0.752591,0.4717 -1.376217,-0.1169 -1.470421,-1.3877 -0.08063,-1.0876 -0.09076,-1.0975 -1.124479,-1.0975 -1.011609,0 -1.04312,0.027 -1.04312,0.9071 0,0.499 -0.187099,1.0943 -0.415774,1.3229 -0.876665,0.8767 -1.700893,0.2833 -1.700893,-1.2246 0,-0.9215 -0.06074,-1.005 -0.727604,-1.0011 -1.081862,0.01 -2.722583,1.0612 -3.279748,2.1082 -0.327408,0.6153 -0.490565,1.4733 -0.490565,2.5797 v 1.6578 h 1.849842 c 1.563295,0 1.901032,0.082 2.180311,0.5292 0.251269,0.4023 0.617016,0.5291 1.526097,0.5291 0.909082,0 1.274828,-0.1268 1.526098,-0.5291 z"
         id="path12923" /><path
         style="fill:#8a542e"
         d="m -75.641823,1086.6803 c -2.062201,-0.7353 -3.352827,-2.6515 -3.341469,-4.9613 0.0089,-1.8015 1.200412,-12.5079 1.434142,-12.886 0.261855,-0.4237 1.462132,-0.3498 1.634996,0.1007 0.08195,0.2136 -0.170334,3.2461 -0.560626,6.7389 -0.586261,5.2466 -0.654859,6.5165 -0.394606,7.3051 0.427458,1.2952 1.587599,1.9696 3.390338,1.9709 1.400138,10e-4 1.408977,0 1.252982,-0.7266 -0.08641,-0.4002 0.439528,-6.145 1.168742,-12.7662 0.729215,-6.6212 1.326232,-12.2513 1.326705,-12.5115 7.75e-4,-0.4256 -0.243864,-0.4653 -2.446535,-0.3968 l -2.447396,0.076 -0.34979,3.3073 c -0.258941,2.4483 -0.462318,3.3942 -0.783051,3.6416 -0.238293,0.1839 -0.548632,0.2959 -0.68964,0.2489 -0.825888,-0.2753 -0.797238,-1.0719 0.455986,-12.6787 1.502297,-13.9136 1.552677,-14.2136 2.570168,-15.3028 0.610911,-0.654 0.718641,-0.9305 0.512517,-1.3157 -0.657784,-1.2291 0.134063,-3.4066 1.458203,-4.0099 0.557658,-0.2541 0.662066,-0.4819 0.662066,-1.4447 0,-1.0006 -0.083,-1.164 -0.665643,-1.3102 -1.181975,-0.2967 -1.715607,-1.2987 -1.715607,-3.2215 0,-2.2406 0.405683,-3.5258 1.526117,-4.8348 1.81573,-2.1212 2.247889,-2.2261 9.586383,-2.3263 8.102625,-0.1105 8.831895,0.019 10.70512,1.9039 1.555938,1.5655 1.994879,2.7222 1.994879,5.2572 0,1.9228 -0.533632,2.9248 -1.715607,3.2215 -0.582643,0.1462 -0.665643,0.3096 -0.665643,1.3102 0,0.9628 0.104409,1.1906 0.662067,1.4447 1.324139,0.6033 2.115986,2.7808 1.458202,4.0099 -0.206123,0.3852 -0.09839,0.6617 0.512517,1.3157 0.921264,0.9862 1.318284,2.6334 1.406374,5.8348 l 0.06188,2.2489 -0.704892,0.082 c -0.845409,0.098 -0.894431,-0.027 -1.279483,-3.2566 -0.358145,-3.0038 -0.414958,-3.179 -1.241945,-3.8295 -0.542513,-0.4267 -1.073875,-0.5361 -2.605429,-0.5361 h -1.923929 l 0.235211,0.8599 c 0.129366,0.473 0.599002,4.3127 1.043635,8.5328 0.444633,4.2201 0.865694,7.9408 0.93569,8.2683 0.120296,0.5627 0.254988,0.5953 2.459377,0.5953 1.282662,0 2.390076,-0.058 2.46092,-0.1288 0.07084,-0.071 -0.03385,-1.6376 -0.232653,-3.4817 -0.198804,-1.844 -0.300192,-3.5125 -0.225307,-3.7076 0.155691,-0.4058 1.365466,-0.4826 1.600855,-0.1018 0.213132,0.3449 3.578992,31.0261 3.578992,32.624 0,2.2662 -1.545888,4.3634 -3.646238,4.9467 -1.601717,0.4449 -27.180806,0.3463 -28.459577,-0.1097 z m 22.994925,-2.2789 c 0.48621,-0.5373 0.470683,-0.7818 -0.776908,-12.237 -0.700168,-6.4288 -1.336907,-12.1353 -1.414975,-12.681 l -0.141942,-0.9921 h -6.282368 -6.282369 l -0.141942,0.9921 c -0.07807,0.5457 -0.714807,6.2522 -1.414975,12.681 -1.24759,11.4552 -1.263117,11.6997 -0.776908,12.237 0.481339,0.5319 0.738112,0.5482 8.616194,0.5482 7.878081,0 8.134854,-0.016 8.616193,-0.5482 z m -10.986895,-2.7464 c -0.702854,-0.8469 0.329468,-2.1478 1.246222,-1.5705 0.916075,0.5769 0.589711,1.9547 -0.46302,1.9547 -0.255406,0 -0.607846,-0.1729 -0.783202,-0.3842 z m 5.744139,-1.2245 c -0.642437,-0.3742 -0.589535,-1.48 0.08816,-1.8427 0.439712,-0.2353 0.653738,-0.2022 1.058333,0.164 0.634652,0.5744 0.640659,0.9679 0.0233,1.5266 -0.560501,0.5072 -0.560135,0.5072 -1.169793,0.1521 z m -7.849715,-5.1121 c -0.734318,-0.8848 0.574844,-2.194 1.459643,-1.4597 0.218655,0.1815 0.36177,0.6378 0.318032,1.0141 -0.05963,0.5129 -0.250667,0.704 -0.763628,0.7636 -0.376258,0.044 -0.832579,-0.099 -1.014047,-0.318 z m 7.927947,-3.7157 c -0.505533,-0.6091 -0.235353,-1.5892 0.465498,-1.6885 1.170261,-0.1659 1.760589,0.8532 0.958725,1.655 -0.518243,0.5183 -1.012257,0.5299 -1.424223,0.034 z m -7.411933,-3.306 c -0.56535,-1.0564 0.512043,-2.0201 1.534055,-1.3722 0.199883,0.1268 0.314187,0.5536 0.264583,0.9882 -0.06918,0.606 -0.234882,0.7821 -0.797141,0.847 -0.500041,0.058 -0.796011,-0.079 -1.001497,-0.463 z m 5.547764,-3.9277 c -0.90919,-0.3121 -1.070726,-1.4776 -0.264584,-1.909 0.739545,-0.3958 1.5875,0.099 1.5875,0.926 0,0.6947 -0.683382,1.2025 -1.322916,0.983 z m 12.828672,20.007 c 1.573108,-1.2374 1.573008,-1.2327 0.274101,-12.972 -0.648944,-5.8651 -1.250465,-11.1698 -1.336714,-11.7883 l -0.156816,-1.1244 h -2.365039 c -1.300771,0 -2.365038,0.091 -2.365038,0.2019 0,0.1111 0.603853,5.6178 1.341896,12.237 0.738043,6.6193 1.285154,12.4815 1.215802,13.0272 l -0.126094,0.9922 h 1.39435 c 1.029716,0 1.585042,-0.15 2.123552,-0.5736 z m -21.548607,-36.6158 c 0.524179,-4.8106 1.040753,-8.8885 1.147942,-9.0619 0.14376,-0.2326 -0.291831,-0.3154 -1.66036,-0.3154 -2.070995,0 -3.005602,0.3141 -3.433245,1.1537 -0.308571,0.6059 -2.159155,16.5648 -1.961306,16.9138 0.06488,0.1144 1.206058,0.174 2.535943,0.1323 l 2.417973,-0.076 z m 13.209818,8.2837 c -0.0044,-0.3275 -0.409475,-4.2222 -0.900125,-8.655 -0.822134,-7.4275 -0.937918,-8.0967 -1.476486,-8.5328 -0.862074,-0.698 -6.53947,-0.698 -7.401545,0 -0.538567,0.4361 -0.654352,1.1053 -1.476486,8.5328 -0.49065,4.4328 -0.895706,8.3275 -0.900124,8.655 l -0.008,0.5953 h 6.085417 6.085416 z m 3.671181,-20.5566 c 0.182457,-1.2926 -0.150637,-1.3377 -9.878509,-1.3377 -6.666386,0 -9.107605,0.083 -9.342139,0.3175 -0.344001,0.344 -0.428089,1.3358 -0.13786,1.626 0.0988,0.099 4.474348,0.1484 9.723437,0.1103 l 9.543798,-0.069 z m -12.4558,-7.1585 c 0.314903,-0.5043 0.617015,-0.5292 6.413644,-0.5292 h 6.083175 v -1.6807 c 0,-1.31 -0.132686,-1.8775 -0.601609,-2.5734 -0.779356,-1.1565 -2.187542,-2.0959 -3.141685,-2.0959 -0.697385,0 -0.754623,0.076 -0.754623,1.0054 0,1.5079 -0.824228,2.1013 -1.700893,1.2246 -0.228675,-0.2286 -0.415773,-0.8239 -0.415773,-1.3229 0,-0.8797 -0.03151,-0.9071 -1.043121,-0.9071 -1.033719,0 -1.043853,0.01 -1.124479,1.0975 -0.05126,0.6915 -0.25266,1.2049 -0.54438,1.3877 -0.752591,0.4717 -1.376217,-0.1169 -1.470421,-1.3877 -0.08063,-1.0876 -0.09076,-1.0975 -1.124479,-1.0975 -1.011609,0 -1.04312,0.027 -1.04312,0.9071 0,0.499 -0.187099,1.0943 -0.415774,1.3229 -0.876665,0.8767 -1.700893,0.2833 -1.700893,-1.2246 0,-0.9215 -0.06074,-1.005 -0.727604,-1.0011 -1.081862,0.01 -2.722583,1.0612 -3.279748,2.1082 -0.327408,0.6153 -0.490565,1.4733 -0.490565,2.5797 v 1.6578 h 1.849842 c 1.563295,0 1.901032,0.082 2.180311,0.5292 0.251269,0.4023 0.617016,0.5291 1.526097,0.5291 0.909082,0 1.274828,-0.1268 1.526098,-0.5291 z"
         id="path12922" /><path
         style="fill:#3b454b"
         d="m -75.641823,1086.6803 c -2.062201,-0.7353 -3.352827,-2.6515 -3.341469,-4.9613 0.0089,-1.8015 1.200412,-12.5079 1.434142,-12.886 0.261855,-0.4237 1.462132,-0.3498 1.634996,0.1007 0.08195,0.2136 -0.170334,3.2461 -0.560626,6.7389 -0.586261,5.2466 -0.654859,6.5165 -0.394606,7.3051 0.427458,1.2952 1.587599,1.9696 3.390338,1.9709 1.400138,10e-4 1.408977,0 1.252982,-0.7266 -0.08641,-0.4002 0.439528,-6.145 1.168742,-12.7662 0.729215,-6.6212 1.326232,-12.2513 1.326705,-12.5115 7.75e-4,-0.4256 -0.243864,-0.4653 -2.446535,-0.3968 l -2.447396,0.076 -0.34979,3.3073 c -0.258941,2.4483 -0.462318,3.3942 -0.783051,3.6416 -0.238293,0.1839 -0.548632,0.2959 -0.68964,0.2489 -0.825888,-0.2753 -0.797238,-1.0719 0.455986,-12.6787 1.502297,-13.9136 1.552677,-14.2136 2.570168,-15.3028 0.610911,-0.654 0.718641,-0.9305 0.512517,-1.3157 -0.657784,-1.2291 0.134063,-3.4066 1.458203,-4.0099 0.557658,-0.2541 0.662066,-0.4819 0.662066,-1.4447 0,-1.0006 -0.083,-1.164 -0.665643,-1.3102 -1.181975,-0.2967 -1.715607,-1.2987 -1.715607,-3.2215 0,-2.2406 0.405683,-3.5258 1.526117,-4.8348 1.81573,-2.1212 2.247889,-2.2261 9.586383,-2.3263 8.102625,-0.1105 8.831895,0.019 10.70512,1.9039 1.555938,1.5655 1.994879,2.7222 1.994879,5.2572 0,1.9228 -0.533632,2.9248 -1.715607,3.2215 -0.582643,0.1462 -0.665643,0.3096 -0.665643,1.3102 0,0.9628 0.104409,1.1906 0.662067,1.4447 1.324139,0.6033 2.115986,2.7808 1.458202,4.0099 -0.206123,0.3852 -0.09839,0.6617 0.512517,1.3157 0.921264,0.9862 1.318284,2.6334 1.406374,5.8348 l 0.06188,2.2489 -0.704892,0.082 c -0.845409,0.098 -0.894431,-0.027 -1.279483,-3.2566 -0.358145,-3.0038 -0.414958,-3.179 -1.241945,-3.8295 -0.542513,-0.4267 -1.073875,-0.5361 -2.605429,-0.5361 h -1.923929 l 0.235211,0.8599 c 0.129366,0.473 0.599002,4.3127 1.043635,8.5328 0.444633,4.2201 0.865694,7.9408 0.93569,8.2683 0.120296,0.5627 0.254988,0.5953 2.459377,0.5953 1.282662,0 2.390076,-0.058 2.46092,-0.1288 0.07084,-0.071 -0.03385,-1.6376 -0.232653,-3.4817 -0.198804,-1.844 -0.300192,-3.5125 -0.225307,-3.7076 0.155691,-0.4058 1.365466,-0.4826 1.600855,-0.1018 0.213132,0.3449 3.578992,31.0261 3.578992,32.624 0,2.2662 -1.545888,4.3634 -3.646238,4.9467 -1.601717,0.4449 -27.180806,0.3463 -28.459577,-0.1097 z m 22.994925,-2.2789 c 0.48621,-0.5373 0.470683,-0.7818 -0.776908,-12.237 -0.700168,-6.4288 -1.336907,-12.1353 -1.414975,-12.681 l -0.141942,-0.9921 h -6.282368 -6.282369 l -0.141942,0.9921 c -0.07807,0.5457 -0.714807,6.2522 -1.414975,12.681 -1.24759,11.4552 -1.263117,11.6997 -0.776908,12.237 0.481339,0.5319 0.738112,0.5482 8.616194,0.5482 7.878081,0 8.134854,-0.016 8.616193,-0.5482 z m -10.986895,-2.7464 c -0.702854,-0.8469 0.329468,-2.1478 1.246222,-1.5705 0.916075,0.5769 0.589711,1.9547 -0.46302,1.9547 -0.255406,0 -0.607846,-0.1729 -0.783202,-0.3842 z m 5.744139,-1.2245 c -0.642437,-0.3742 -0.589535,-1.48 0.08816,-1.8427 0.439712,-0.2353 0.653738,-0.2022 1.058333,0.164 0.634652,0.5744 0.640659,0.9679 0.0233,1.5266 -0.560501,0.5072 -0.560135,0.5072 -1.169793,0.1521 z m -7.849715,-5.1121 c -0.734318,-0.8848 0.574844,-2.194 1.459643,-1.4597 0.218655,0.1815 0.36177,0.6378 0.318032,1.0141 -0.05963,0.5129 -0.250667,0.704 -0.763628,0.7636 -0.376258,0.044 -0.832579,-0.099 -1.014047,-0.318 z m 7.927947,-3.7157 c -0.505533,-0.6091 -0.235353,-1.5892 0.465498,-1.6885 1.170261,-0.1659 1.760589,0.8532 0.958725,1.655 -0.518243,0.5183 -1.012257,0.5299 -1.424223,0.034 z m -7.411933,-3.306 c -0.56535,-1.0564 0.512043,-2.0201 1.534055,-1.3722 0.199883,0.1268 0.314187,0.5536 0.264583,0.9882 -0.06918,0.606 -0.234882,0.7821 -0.797141,0.847 -0.500041,0.058 -0.796011,-0.079 -1.001497,-0.463 z m 5.547764,-3.9277 c -0.90919,-0.3121 -1.070726,-1.4776 -0.264584,-1.909 0.739545,-0.3958 1.5875,0.099 1.5875,0.926 0,0.6947 -0.683382,1.2025 -1.322916,0.983 z m 12.828672,20.007 c 1.573108,-1.2374 1.573008,-1.2327 0.274101,-12.972 -0.648944,-5.8651 -1.250465,-11.1698 -1.336714,-11.7883 l -0.156816,-1.1244 h -2.365039 c -1.300771,0 -2.365038,0.091 -2.365038,0.2019 0,0.1111 0.603853,5.6178 1.341896,12.237 0.738043,6.6193 1.285154,12.4815 1.215802,13.0272 l -0.126094,0.9922 h 1.39435 c 1.029716,0 1.585042,-0.15 2.123552,-0.5736 z m -21.548607,-36.6158 c 0.524179,-4.8106 1.040753,-8.8885 1.147942,-9.0619 0.14376,-0.2326 -0.291831,-0.3154 -1.66036,-0.3154 -2.070995,0 -3.005602,0.3141 -3.433245,1.1537 -0.308571,0.6059 -2.159155,16.5648 -1.961306,16.9138 0.06488,0.1144 1.206058,0.174 2.535943,0.1323 l 2.417973,-0.076 z m 13.209818,8.2837 c -0.0044,-0.3275 -0.409475,-4.2222 -0.900125,-8.655 -0.822134,-7.4275 -0.937918,-8.0967 -1.476486,-8.5328 -0.862074,-0.698 -6.53947,-0.698 -7.401545,0 -0.538567,0.4361 -0.654352,1.1053 -1.476486,8.5328 -0.49065,4.4328 -0.895706,8.3275 -0.900124,8.655 l -0.008,0.5953 h 6.085417 6.085416 z m 3.467011,-20.0616 c 0.493815,-0.4938 0.510408,-0.6061 0.16626,-1.1245 -0.379016,-0.571 -0.461946,-0.5765 -9.654427,-0.6454 -8.168653,-0.061 -9.322007,-0.02 -9.69126,0.3496 -0.548102,0.5481 -0.528784,0.8009 0.110033,1.4397 0.508415,0.5084 0.881944,0.5291 9.525,0.5291 8.749071,0 9.01088,-0.015 9.544394,-0.5485 z m -2.136061,-5.0077 v -1.0583 h -4.740861 c -2.607473,0 -4.929191,-0.072 -5.159374,-0.1606 -0.509011,-0.1954 -0.551671,-1.2516 -0.0668,-1.654 0.227954,-0.1892 2.485655,-0.317 6.416146,-0.3632 l 6.064431,-0.071 -0.04383,-1.6236 c -0.02411,-0.893 -0.23067,-1.985 -0.459029,-2.4266 -0.556341,-1.0758 -1.805282,-1.9257 -3.081405,-2.0969 l -1.045944,-0.1403 v 1.0839 c 0,0.8008 -0.133658,1.1554 -0.511772,1.3577 -0.661871,0.3543 -0.697237,0.35 -1.189121,-0.1419 -0.228675,-0.2286 -0.415773,-0.8239 -0.415773,-1.3229 0,-0.8819 -0.0294,-0.9071 -1.058334,-0.9071 -1.028935,0 -1.058333,0.025 -1.058333,0.9071 0,0.8479 -0.542212,1.7387 -1.058333,1.7387 -0.516122,0 -1.058334,-0.8908 -1.058334,-1.7387 0,-0.8819 -0.0294,-0.9071 -1.058333,-0.9071 -1.023795,0 -1.058333,0.029 -1.058333,0.885 0,1.1706 -0.784315,1.9261 -1.56549,1.508 -0.416236,-0.2227 -0.551177,-0.5518 -0.551177,-1.344 0,-1.0137 -0.02988,-1.049 -0.886914,-1.049 -2.063847,0 -3.681409,1.9982 -3.719493,4.5949 l -0.0238,1.6228 1.852083,0.1323 c 2.046103,0.1461 2.513542,0.336 2.513542,1.021 0,0.6376 -0.519885,1.0957 -1.243542,1.0957 -0.533576,0 -0.608542,0.1303 -0.608542,1.0583 v 1.0583 h 7.408334 7.408333 z"
         id="path12921" /><path
         style="fill:#4f311b"
         d="m -75.286008,1086.7554 c -2.149952,-0.611 -3.686577,-2.6479 -3.698356,-4.9025 -0.0072,-1.3877 1.267691,-12.7489 1.466824,-13.0711 0.217499,-0.3519 1.067454,-0.2857 1.394731,0.1086 0.207396,0.2499 0.108159,1.9092 -0.359987,6.0193 -0.355472,3.1208 -0.647889,6.1505 -0.649815,6.7326 -0.0072,2.1674 1.599855,3.5719 4.087063,3.5719 0.659518,0 1.199123,-0.052 1.199123,-0.1151 0,-0.063 -0.110801,-0.4065 -0.246224,-0.7627 -0.171786,-0.4518 0.144569,-4.1965 1.046431,-12.3865 0.71096,-6.4564 1.333635,-12.1258 1.383721,-12.5987 l 0.09107,-0.8599 h -2.551185 -2.551185 l -0.321199,3.1088 c -0.17666,1.7099 -0.381961,3.3172 -0.456225,3.5719 -0.171123,0.5868 -1.379258,0.6184 -1.600497,0.042 -0.270286,-0.7044 2.551361,-25.5275 3.013322,-26.5094 0.224882,-0.478 0.621717,-1.0181 0.881855,-1.2003 0.413747,-0.2898 0.43597,-0.47 0.177461,-1.4385 -0.371337,-1.3912 0.186724,-2.7453 1.387261,-3.3662 0.713025,-0.3687 0.803733,-0.5488 0.803733,-1.5959 0,-1.0992 -0.06372,-1.2069 -0.927725,-1.5679 -1.201953,-0.5022 -1.533101,-1.3893 -1.388863,-3.7205 0.169756,-2.7436 1.283695,-4.5791 3.507213,-5.7789 1.011022,-0.5456 1.383599,-0.5711 8.334375,-0.5711 6.950775,0 7.323353,0.025 8.334374,0.5711 2.223518,1.1998 3.337457,3.0353 3.507213,5.7789 0.144238,2.3312 -0.18691,3.2183 -1.388863,3.7205 -0.864002,0.361 -0.927725,0.4687 -0.927725,1.5679 0,1.0471 0.09071,1.2272 0.803733,1.5959 1.200537,0.6209 1.758598,1.975 1.387261,3.3662 -0.258509,0.9685 -0.236285,1.1487 0.177461,1.4385 0.815868,0.5714 1.271526,1.9725 1.59979,4.9191 0.346075,3.1065 0.275413,3.6325 -0.487961,3.6325 -0.789736,0 -1.026158,-0.5103 -1.225653,-2.6458 -0.430807,-4.6115 -0.748795,-5.0271 -3.846672,-5.0271 -1.968255,0 -2.055907,0.026 -1.916574,0.5584 0.08031,0.3071 0.575176,4.385 1.099709,9.0619 l 0.953698,8.5037 2.590088,0.076 2.590088,0.076 -0.147058,-1.2665 c -0.08088,-0.6966 -0.260717,-2.248 -0.399635,-3.4476 -0.138917,-1.1995 -0.183746,-2.3604 -0.09962,-2.5796 0.160116,-0.4173 1.291713,-0.5545 1.520456,-0.1844 0.181117,0.2931 3.604421,31.4625 3.59716,32.7524 -0.0126,2.2376 -1.588061,4.2287 -3.830648,4.8413 -1.372155,0.3748 -26.588134,0.3578 -27.913541,-0.019 z m 22.225,-1.8822 c 0.534318,-0.2691 0.676423,-0.5607 0.739315,-1.5174 0.06598,-1.0036 -2.036891,-21.4389 -2.470166,-24.0046 l -0.145211,-0.8599 h -6.326021 -6.326022 l -0.143875,0.8599 c -0.44943,2.6861 -2.539712,22.9435 -2.473105,23.9674 0.121997,1.8754 0.180625,1.8878 8.943002,1.8878 5.534953,0 7.716561,-0.089 8.202083,-0.3332 z m -10.530417,-3.1515 c -0.476215,-0.4762 -0.382732,-1.2165 0.1925,-1.5244 0.98867,-0.5291 1.860946,0.3432 1.331826,1.3319 -0.307855,0.5752 -1.04811,0.6687 -1.524326,0.1925 z m 5.347161,-1.6337 c -0.317087,-0.8263 0.0037,-1.3561 0.821254,-1.3561 0.70153,0 0.790127,0.089 0.790127,0.7937 0,0.6697 -0.114014,0.8069 -0.729109,0.8776 -0.465293,0.054 -0.784528,-0.061 -0.882272,-0.3152 z m -7.408333,-4.7625 c -0.317088,-0.8263 0.0037,-1.3561 0.821254,-1.3561 0.70153,0 0.790127,0.089 0.790127,0.7937 0,0.6697 -0.114014,0.8069 -0.729109,0.8776 -0.465293,0.054 -0.784528,-0.06 -0.882272,-0.3152 z m 7.672916,-3.9688 c -0.317087,-0.8263 0.0037,-1.3561 0.821255,-1.3561 0.701529,0 0.790126,0.089 0.790126,0.7938 0,0.6696 -0.114013,0.8068 -0.729108,0.8776 -0.465293,0.053 -0.784529,-0.061 -0.882273,-0.3153 z m -6.921431,-2.7219 c -0.564929,-0.228 -0.403037,-1.6183 0.211134,-1.8132 1.009123,-0.3203 1.745116,0.9185 0.99272,1.6709 -0.33082,0.3308 -0.644664,0.3679 -1.203854,0.1423 z m 4.677948,-4.7418 c -0.467963,-0.5638 -0.01439,-1.2744 0.882276,-1.3822 0.498513,-0.06 0.725067,0.066 0.855069,0.4757 0.345977,1.0901 -1.001498,1.7932 -1.737345,0.9065 z m 13.410814,20.6638 c 0.358282,-0.2348 0.850716,-0.8448 1.094299,-1.3556 0.425523,-0.8923 0.391729,-1.3947 -0.862382,-12.8193 l -1.305259,-11.8906 h -2.455367 -2.455366 v 0.7548 c 0,0.4152 0.584573,6.0409 1.299051,12.5016 0.714478,6.4607 1.234056,12.152 1.154617,12.6473 l -0.144434,0.9006 1.51171,-0.156 c 0.83144,-0.086 1.80485,-0.3481 2.163131,-0.5828 z m -21.577476,-36.5166 c 0.518681,-4.6567 1.01355,-8.7345 1.099709,-9.062 0.152155,-0.5782 0.0999,-0.5953 -1.820347,-0.5953 -2.107506,0 -2.822659,0.2316 -3.264448,1.0571 -0.151817,0.2837 -0.628725,3.7635 -1.059795,7.733 -0.43107,3.9695 -0.853322,7.7276 -0.938338,8.3515 l -0.154574,1.1343 2.597368,-0.076 2.597368,-0.076 z m 13.198079,7.6068 c -0.0077,-0.5457 -0.400617,-4.4093 -0.873061,-8.5857 -0.704643,-6.2292 -0.947188,-7.691 -1.349852,-8.136 -0.445729,-0.4925 -0.799581,-0.5424 -3.848431,-0.5424 -3.048851,0 -3.402703,0.05 -3.848432,0.5424 -0.402663,0.445 -0.645208,1.9068 -1.349852,8.136 -0.472444,4.1764 -0.865321,8.04 -0.873061,8.5857 l -0.01407,0.9922 h 6.085417 6.085416 z m 3.47305,-19.6647 c 0.493815,-0.4938 0.510408,-0.6061 0.16626,-1.1245 -0.379016,-0.571 -0.461946,-0.5765 -9.654427,-0.6454 -8.168653,-0.061 -9.322007,-0.02 -9.69126,0.3496 -0.548102,0.5481 -0.528784,0.8009 0.110033,1.4397 0.508415,0.5084 0.881944,0.5291 9.525,0.5291 8.749071,0 9.01088,-0.015 9.544394,-0.5485 z m -2.136061,-5.0077 v -1.0583 h -4.740861 c -2.607473,0 -4.929191,-0.072 -5.159374,-0.1606 -0.509011,-0.1954 -0.551671,-1.2516 -0.0668,-1.654 0.227954,-0.1892 2.485655,-0.317 6.416146,-0.3632 l 6.064431,-0.071 -0.04383,-1.6236 c -0.02411,-0.893 -0.23067,-1.985 -0.459029,-2.4266 -0.556341,-1.0758 -1.805282,-1.9257 -3.081405,-2.0969 l -1.045944,-0.1403 v 1.0839 c 0,0.8008 -0.133658,1.1554 -0.511772,1.3577 -0.661871,0.3543 -0.697237,0.35 -1.189121,-0.1419 -0.228675,-0.2286 -0.415773,-0.8239 -0.415773,-1.3229 0,-0.8819 -0.0294,-0.9071 -1.058334,-0.9071 -1.028935,0 -1.058333,0.025 -1.058333,0.9071 0,0.8479 -0.542212,1.7387 -1.058333,1.7387 -0.516122,0 -1.058334,-0.8908 -1.058334,-1.7387 0,-0.8819 -0.0294,-0.9071 -1.058333,-0.9071 -1.023795,0 -1.058333,0.029 -1.058333,0.885 0,1.1706 -0.784315,1.9261 -1.56549,1.508 -0.416236,-0.2227 -0.551177,-0.5518 -0.551177,-1.344 0,-1.0137 -0.02988,-1.049 -0.886914,-1.049 -2.063847,0 -3.681409,1.9982 -3.719493,4.5949 l -0.0238,1.6228 1.852083,0.1323 c 2.046103,0.1461 2.513542,0.336 2.513542,1.021 0,0.6376 -0.519885,1.0957 -1.243542,1.0957 -0.533576,0 -0.608542,0.1303 -0.608542,1.0583 v 1.0583 h 7.408334 7.408333 z"
         id="path12920" /><path
         style="fill:#020202"
         d="m -75.403,1086.6715 c -0.573669,-0.2044 -1.347575,-0.5931 -1.719792,-0.8638 -0.918506,-0.668 -1.867383,-2.6052 -1.867383,-3.8124 0,-1.1506 1.267501,-12.6282 1.448777,-13.1191 0.160109,-0.4337 1.054365,-0.4246 1.418643,0.014 0.207535,0.2501 0.102592,1.9437 -0.381175,6.1516 -0.727543,6.3282 -0.717089,8.0219 0.05486,8.8884 0.710861,0.7978 2.00572,1.2837 3.42135,1.2837 1.14391,0 1.205148,-0.036 1.020279,-0.5953 -0.10817,-0.3275 -0.182759,-1.0121 -0.165754,-1.5214 0.03508,-1.0507 2.368026,-22.7613 2.565924,-23.8786 l 0.128865,-0.7276 h -2.604938 -2.604937 l -0.308254,2.9765 c -0.425622,4.1099 -0.442515,4.1672 -1.228861,4.1672 -0.365597,0 -0.73462,-0.1821 -0.820052,-0.4048 -0.250655,-0.6532 2.567351,-25.5631 2.983932,-26.3766 0.202762,-0.3959 0.60634,-0.9413 0.89684,-1.212 0.460138,-0.4287 0.489417,-0.6033 0.227271,-1.3553 -0.454513,-1.3038 0.08229,-2.8215 1.239419,-3.5042 0.831346,-0.4905 0.909893,-0.6441 0.909893,-1.7789 0,-1.1717 -0.04855,-1.2565 -0.85608,-1.4953 -1.227289,-0.3629 -1.569785,-1.2041 -1.44953,-3.5604 0.166865,-3.2695 1.686227,-5.3807 4.46657,-6.2063 1.974959,-0.5865 12.75312,-0.5865 14.72808,0 2.780343,0.8256 4.299704,2.9368 4.466569,6.2063 0.120255,2.3563 -0.222241,3.1975 -1.44953,3.5604 -0.807526,0.2388 -0.85608,0.3236 -0.85608,1.4953 0,1.1348 0.07855,1.2884 0.909893,1.7789 1.157133,0.6827 1.693932,2.2004 1.239419,3.5042 -0.262145,0.752 -0.232867,0.9266 0.227271,1.3553 0.926771,0.8634 1.258678,1.863 1.587797,4.7817 0.350152,3.1053 0.27989,3.6325 -0.484096,3.6325 -0.789736,0 -1.026158,-0.5103 -1.225653,-2.6458 -0.430807,-4.6115 -0.748795,-5.0271 -3.846672,-5.0271 -1.968255,0 -2.055907,0.026 -1.916574,0.5584 0.08031,0.3071 0.575176,4.385 1.099709,9.0619 l 0.953698,8.5037 2.579688,0.076 c 1.418828,0.042 2.578653,-0.018 2.577388,-0.1323 -0.0013,-0.1144 -0.174716,-1.6702 -0.385447,-3.4573 -0.210731,-1.7871 -0.313549,-3.4306 -0.228485,-3.6523 0.09673,-0.2521 0.413837,-0.3729 0.846535,-0.3226 0.843623,0.098 0.567864,-1.7227 2.700573,17.8311 1.512465,13.867 1.642278,15.4834 1.328015,16.5364 -0.458136,1.5351 -1.979107,2.981 -3.552551,3.3772 -1.901346,0.4787 -26.701554,0.3981 -28.075416,-0.091 z m 22.630656,-1.9528 c 0.435098,-0.3523 0.604288,-0.7536 0.585622,-1.3891 -0.03305,-1.1251 -2.432799,-23.4371 -2.607447,-24.243 l -0.129004,-0.5953 h -6.339918 -6.339919 l -0.129004,0.5953 c -0.174648,0.8059 -2.574395,23.1179 -2.607447,24.243 -0.01866,0.6355 0.150524,1.0368 0.585622,1.3891 0.567382,0.4594 1.184743,0.4955 8.490748,0.4955 7.306004,0 7.923365,-0.036 8.490747,-0.4955 z m -10.819081,-2.997 c -0.476742,-0.4768 -0.382509,-1.2166 0.194273,-1.5253 0.281475,-0.1506 0.570627,-0.2739 0.642559,-0.2739 0.219581,0 0.962335,0.8169 0.962335,1.0583 0,0.3398 -0.785245,1.0584 -1.156607,1.0584 -0.178783,0 -0.467935,-0.1429 -0.64256,-0.3175 z m 5.347161,-1.6337 c -0.317087,-0.8263 0.0037,-1.3561 0.821254,-1.3561 0.70153,0 0.790127,0.089 0.790127,0.7937 0,0.6697 -0.114014,0.8069 -0.729109,0.8776 -0.465293,0.054 -0.784528,-0.061 -0.882272,-0.3152 z m -7.415133,-4.7802 c -0.0805,-0.2098 -0.104899,-0.5968 -0.05422,-0.8599 0.128618,-0.6679 1.628228,-0.6702 1.756769,0 0.189817,0.9857 -1.354995,1.7684 -1.702551,0.8627 z m 7.659985,-4.0025 c -0.247056,-0.6438 0.258709,-1.3047 0.99849,-1.3047 0.526525,0 0.632622,0.1332 0.632622,0.7938 0,0.6696 -0.114013,0.8068 -0.729108,0.8776 -0.496459,0.057 -0.784278,-0.06 -0.902004,-0.3667 z m -6.9017,-2.6705 c -0.467748,-0.1888 -0.410841,-1.281 0.08832,-1.6953 0.824825,-0.6845 1.858431,0.6423 1.157898,1.4863 -0.324957,0.3916 -0.65608,0.4471 -1.246222,0.209 z m 4.677948,-4.7418 c -0.467963,-0.5638 -0.01439,-1.2744 0.882276,-1.3822 0.498513,-0.06 0.725067,0.066 0.855069,0.4757 0.345977,1.0901 -1.001498,1.7932 -1.737345,0.9065 z m 12.853402,20.9402 c 1.013062,-0.4233 1.976484,-1.7789 1.985693,-2.794 0.0033,-0.3638 -0.552747,-5.8109 -1.235662,-12.1047 l -1.241663,-11.4432 h -2.544636 -2.544637 l 1.36656,12.5015 c 0.751608,6.8759 1.30858,12.8885 1.237716,13.3615 -0.127747,0.8526 -0.119508,0.8599 0.968017,0.8599 0.603274,0 1.507149,-0.1715 2.008612,-0.381 z m -21.009423,-36.83 c 0.524534,-4.6769 1.019403,-8.7548 1.099709,-9.0619 0.138934,-0.5313 0.05019,-0.5584 -1.830988,-0.5584 -2.102599,0 -2.822811,0.2319 -3.260476,1.0497 -0.193246,0.361 -2.121318,15.9135 -2.121318,17.1112 0,0.063 1.160859,0.081 2.579688,0.039 l 2.579687,-0.076 z m 13.186389,7.6438 c -0.0083,-0.5457 -0.397854,-4.4056 -0.865638,-8.5775 -0.704316,-6.2815 -0.93617,-7.68 -1.348802,-8.136 -0.454885,-0.5026 -0.790738,-0.5506 -3.855855,-0.5506 -3.065117,0 -3.400971,0.048 -3.855855,0.5506 -0.412633,0.456 -0.644487,1.8545 -1.348803,8.136 -0.467784,4.1719 -0.857321,8.0318 -0.865637,8.5775 l -0.01512,0.9922 h 6.085417 6.085416 z m 3.568097,-19.5319 c 0.487556,-0.4876 0.513991,-0.7584 0.141882,-1.4537 -0.262952,-0.4914 -0.651889,-0.5118 -9.736667,-0.5118 -7.007158,0 -9.545166,0.082 -9.780274,0.3175 -0.439439,0.4394 -0.396899,1.1528 0.09827,1.648 0.362072,0.362 1.606971,0.4157 9.638393,0.4157 8.031421,0 9.27632,-0.054 9.638392,-0.4157 z m -2.016409,-5.0744 0.08136,-1.1244 h -4.859435 c -5.139094,0 -5.914171,-0.1639 -5.71357,-1.2082 0.09306,-0.4844 0.436305,-0.5187 6.444917,-0.6439 l 6.34662,-0.1323 0.08567,-1.3229 c 0.04712,-0.7276 -0.03905,-1.7431 -0.19149,-2.2565 -0.33526,-1.1292 -1.684269,-2.4584 -2.910228,-2.8674 -1.445754,-0.4824 -1.614164,-0.4067 -1.614164,0.7258 0,1.1094 -0.481361,1.7181 -1.24406,1.5733 -0.348199,-0.066 -0.511196,-0.4089 -0.608023,-1.2786 l -0.132292,-1.1883 h -1.190625 -1.190625 l -0.132291,1.1906 c -0.117593,1.0584 -0.205787,1.1906 -0.79375,1.1906 -0.587963,0 -0.676158,-0.1322 -0.79375,-1.1906 l -0.132292,-1.1906 h -1.190625 -1.190625 l -0.132292,1.1883 c -0.09683,0.8697 -0.259824,1.2124 -0.608023,1.2786 -0.762699,0.1448 -1.24406,-0.4639 -1.24406,-1.5733 0,-1.1232 -0.112545,-1.1754 -1.627596,-0.7546 -1.199136,0.3331 -2.781903,2.031 -3.005816,3.2246 -0.09097,0.4849 -0.127461,1.4147 -0.0811,2.0663 l 0.0843,1.1847 1.915089,0.078 c 1.556996,0.063 1.965052,0.171 2.182288,0.5769 0.3406,0.6364 -0.288141,1.3298 -1.205859,1.3298 -0.568608,0 -0.64256,0.1167 -0.64256,1.0142 0,0.5578 0.08119,1.0954 0.180428,1.1947 0.09923,0.099 3.522282,0.1488 7.60677,0.1102 l 7.426343,-0.07 z"
         id="path12919" /></g></g></svg>
