<?xml version="1.0" encoding="UTF-8" standalone="no"?>
<!-- Created with Inkscape (http://www.inkscape.org/) -->

<svg
   width="37.456951mm"
   height="67.766541mm"
   viewBox="0 0 37.456951 67.766541"
   version="1.1"
   id="svg1"
   xml:space="preserve"
   xmlns="http://www.w3.org/2000/svg"
   xmlns:svg="http://www.w3.org/2000/svg"><defs
     id="defs1" /><g
     id="layer1"
     transform="translate(107.11181,-1152.3867)"><g
       id="g12931"
       transform="translate(82.514099,4.9027522)"><path
         style="fill:#e5edfd"
         d="m -184.83456,1214.7906 c -2.52318,-0.8941 -4.60154,-3.6919 -4.7883,-6.4459 -0.0543,-0.8004 0.6244,-9.7487 1.50817,-19.8853 0.88376,-10.1365 1.60684,-18.594 1.60684,-18.7945 0,-0.2004 -0.3663,-0.5808 -0.81401,-0.8453 -2.54192,-1.5015 -2.45328,-5.5701 0.15255,-7.0022 0.43657,-0.24 0.83842,-0.4611 0.89302,-0.4914 0.0546,-0.03 -0.0942,-0.5388 -0.33073,-1.1299 -1.55627,-3.8895 0.75583,-8.1434 5.75635,-10.5907 3.07088,-1.5029 4.79311,-1.8986 8.90029,-2.0445 5.19819,-0.1847 9.28124,0.6509 9.46592,1.9372 0.10095,0.7031 1.75731,1.4291 2.85585,1.2518 0.70612,-0.114 1.0052,0.051 2.19049,1.205 2.46051,2.3966 3.3238,5.5583 2.25028,8.2412 -0.2365,0.5911 -0.38533,1.0995 -0.33073,1.1299 0.0546,0.03 0.45645,0.2514 0.89301,0.4914 2.60584,1.4321 2.69448,5.5007 0.15256,7.0022 -0.44771,0.2645 -0.81401,0.6449 -0.81401,0.8453 0,0.2005 0.72308,8.658 1.60684,18.7945 0.88377,10.1366 1.56244,19.0849 1.50817,19.8853 -0.19085,2.8142 -2.27942,5.5706 -4.89661,6.4624 -1.76363,0.6009 -26.06422,0.5865 -27.76595,-0.016 z"
         id="path12944" /><path
         style="fill:#d2dafc"
         d="m -184.81839,1214.796 c -2.51527,-0.8921 -4.54836,-3.6283 -4.7811,-6.4348 -0.0671,-0.8094 0.60103,-9.7448 1.48479,-19.8563 0.88377,-10.1116 1.60685,-18.5917 1.60685,-18.8448 0,-0.2531 -0.34569,-0.6389 -0.7682,-0.8574 -2.60843,-1.3489 -2.48372,-5.7762 0.1965,-6.9762 l 1.00487,-0.4499 -0.47423,-1.056 c -1.16054,-2.5845 -0.30648,-5.9319 2.11528,-8.2908 2.85902,-2.7848 6.97064,-4.2537 12.50158,-4.4662 5.16001,-0.1983 9.16526,0.6346 9.4901,1.9735 0.15458,0.6372 2.03174,1.7626 2.27729,1.3653 0.64052,-1.0364 3.60483,1.3275 4.75045,3.7883 0.76418,1.6415 0.87431,3.9369 0.25949,5.4083 -0.5291,1.2664 -0.52114,1.2988 0.41395,1.6861 2.66547,1.1041 2.81018,5.6792 0.22196,7.0176 -0.42251,0.2185 -0.7682,0.6043 -0.7682,0.8574 0,0.2531 0.72308,8.7332 1.60685,18.8448 0.88376,10.1115 1.55192,19.0469 1.48479,19.8563 -0.23782,2.8678 -2.27998,5.5623 -4.88942,6.4514 -1.73602,0.5915 -26.05993,0.577 -27.7336,-0.017 z m 26.84606,-1.9793 c 0.6515,-0.2271 0.83352,-0.4435 0.83455,-0.9922 0.002,-0.9386 -0.77099,-9.9985 -0.94562,-11.0866 l -0.13801,-0.8599 h -14.27047 -14.27047 l -0.12496,0.5953 c -0.0687,0.3275 -0.2541,2.1738 -0.41194,4.1031 -0.32768,4.0055 -0.15626,4.9921 1.14084,6.5657 1.62728,1.9742 1.46159,1.9528 15.15535,1.9593 8.18845,0 12.47136,-0.09 13.03073,-0.2847 z m -17.21984,-29.6074 c 0.31814,-0.5094 0.61702,-0.5292 8.00619,-0.5292 h 7.67571 l -0.1279,-0.5953 c -0.0703,-0.3274 -0.26384,-2.3813 -0.43,-4.5641 -0.18928,-2.4866 -0.44209,-4.191 -0.67698,-4.564 l -0.3749,-0.5953 h -11.63052 -11.63053 l -0.12669,0.5953 c -0.0697,0.3274 -0.25649,2.3217 -0.41514,4.4317 -0.15865,2.1101 -0.35149,4.1639 -0.42854,4.5641 l -0.14009,0.7276 h 3.58359 c 3.3128,0 3.60499,0.04 3.86679,0.5292 0.21459,0.4009 0.55399,0.5291 1.40087,0.5291 0.83113,0 1.2024,-0.1356 1.44814,-0.5291 z m 14.92555,-23.1968 c 0.64269,-1.4529 0.56347,-3.6764 -0.18238,-5.1187 -0.72822,-1.4082 -2.89233,-3.3286 -4.82144,-4.2785 -1.75805,-0.8656 -1.82226,-0.8758 -5.48886,-0.8739 -4.1046,0 -5.88117,0.3506 -8.85437,1.7368 -2.33087,1.0868 -3.8046,2.3624 -4.62014,3.9989 -0.85224,1.7103 -0.85937,2.6113 -0.0347,4.3827 l 0.64671,1.3891 h 11.40413 11.40413 z m -15.19487,-0.3723 c -1.15439,-0.6724 -0.0551,-2.4622 1.12448,-1.8309 0.68238,0.3652 0.69291,1.4812 0.0174,1.8428 -0.60908,0.3259 -0.56095,0.3264 -1.14187,-0.012 z m 7.9375,0 c -1.15439,-0.6724 -0.0551,-2.4622 1.12448,-1.8309 0.68238,0.3652 0.69292,1.4812 0.0174,1.8428 -0.60908,0.3259 -0.56095,0.3264 -1.14187,-0.012 z m -11.90625,-3.9688 c -1.15439,-0.6724 -0.0551,-2.4622 1.12448,-1.8309 0.68238,0.3652 0.69291,1.4813 0.0174,1.8428 -0.60908,0.326 -0.56095,0.3265 -1.14187,-0.012 z m 7.9375,0 c -1.15439,-0.6724 -0.0551,-2.4622 1.12448,-1.8309 0.68238,0.3652 0.69291,1.4813 0.0174,1.8428 -0.60908,0.326 -0.56095,0.3265 -1.14187,-0.012 z m 7.9375,0 c -1.15439,-0.6724 -0.0551,-2.4622 1.12448,-1.8309 0.68238,0.3652 0.69292,1.4813 0.0174,1.8428 -0.60908,0.326 -0.56095,0.3265 -1.14187,-0.012 z"
         id="path12943" /><path
         style="fill:#f1e6cc"
         d="m -184.81839,1214.796 c -2.51527,-0.8921 -4.54836,-3.6283 -4.7811,-6.4348 -0.0671,-0.8094 0.60103,-9.7448 1.48479,-19.8563 0.88377,-10.1116 1.60685,-18.5917 1.60685,-18.8448 0,-0.2531 -0.34569,-0.6389 -0.7682,-0.8574 -2.60843,-1.3489 -2.48372,-5.7762 0.1965,-6.9762 l 1.00487,-0.4499 -0.47423,-1.056 c -1.16054,-2.5845 -0.30648,-5.9319 2.11528,-8.2908 2.85902,-2.7848 6.97064,-4.2537 12.50158,-4.4662 5.10708,-0.1963 9.26406,0.656 9.44791,1.9369 0.15991,1.1142 -0.55371,1.295 -2.93347,0.7429 -2.9006,-0.6728 -8.56457,-0.6871 -11.03607,-0.028 -6.62543,1.7674 -10.05316,6.2559 -7.69335,10.0742 l 0.59276,0.9591 h 12.65684 12.65684 l 0.59276,-0.9591 c 1.36207,-2.2039 0.7937,-4.9154 -1.44831,-6.9093 -1.42565,-1.2679 -1.57063,-1.5268 -1.22088,-2.1803 0.48524,-0.9067 1.43453,-0.6522 2.90338,0.7785 2.40035,2.3381 3.30945,5.6061 2.25892,8.1203 -0.5291,1.2664 -0.52114,1.2988 0.41395,1.6861 2.66547,1.1041 2.81018,5.6792 0.22196,7.0176 -0.42251,0.2185 -0.7682,0.6043 -0.7682,0.8574 0,0.2531 0.72308,8.7332 1.60685,18.8448 0.88376,10.1115 1.55192,19.0469 1.48479,19.8563 -0.23782,2.8678 -2.27998,5.5623 -4.88942,6.4514 -1.73602,0.5915 -26.05993,0.577 -27.7336,-0.017 z m 27.28469,-2.1823 c 0.58333,-0.265 1.44152,-0.9156 1.90709,-1.4459 1.32569,-1.5099 1.47758,-2.5124 1.08117,-7.1366 l -0.3447,-4.0209 -16.02173,-0.068 -16.02174,-0.068 -0.33238,4.0811 c -0.38214,4.6922 -0.22841,5.7023 1.09774,7.2127 1.7187,1.9575 1.48305,1.9278 15.27082,1.9278 11.33548,0 12.38654,-0.038 13.36373,-0.4819 z m -17.65847,-29.4044 c 0.32028,-0.5129 0.61702,-0.5292 9.61809,-0.5292 h 9.28762 l -0.14804,-0.8599 c -0.0814,-0.4729 -0.35739,-3.4495 -0.61325,-6.6146 l -0.46521,-5.7547 h -13.38937 -13.38938 l -0.46401,5.7547 c -0.2552,3.1651 -0.52896,6.1417 -0.60834,6.6146 l -0.14435,0.8599 h 3.3151 c 3.52692,0 4.15213,0.1039 4.15213,0.6898 0,0.2634 0.35929,0.3685 1.25927,0.3685 0.97273,0 1.33447,-0.1204 1.58974,-0.5291 z m -0.31657,-23.6991 c -0.22868,-0.2287 -0.41577,-0.5774 -0.41577,-0.7749 0,-0.3984 0.70416,-1.1906 1.05833,-1.1906 0.35417,0 1.05833,0.7922 1.05833,1.1906 0,0.3985 -0.70416,1.1906 -1.05833,1.1906 -0.12473,0 -0.41388,-0.1871 -0.64256,-0.4157 z m 7.9375,0 c -0.22868,-0.2287 -0.41577,-0.5774 -0.41577,-0.7749 0,-0.3984 0.70416,-1.1906 1.05833,-1.1906 0.35417,0 1.05833,0.7922 1.05833,1.1906 0,0.3985 -0.70416,1.1906 -1.05833,1.1906 -0.12473,0 -0.41388,-0.1871 -0.64256,-0.4157 z m -11.90625,-3.9688 c -0.22868,-0.2287 -0.41577,-0.5773 -0.41577,-0.7748 0,-0.3985 0.70416,-1.1907 1.05833,-1.1907 0.35417,0 1.05833,0.7922 1.05833,1.1907 0,0.3984 -0.70416,1.1906 -1.05833,1.1906 -0.12473,0 -0.41388,-0.1871 -0.64256,-0.4158 z m 7.9375,0 c -0.22868,-0.2287 -0.41577,-0.5773 -0.41577,-0.7748 0,-0.3985 0.70416,-1.1907 1.05833,-1.1907 0.35417,0 1.05833,0.7922 1.05833,1.1907 0,0.3984 -0.70416,1.1906 -1.05833,1.1906 -0.12473,0 -0.41388,-0.1871 -0.64256,-0.4158 z m 7.9375,0 c -0.22868,-0.2287 -0.41577,-0.5773 -0.41577,-0.7748 0,-0.3985 0.70416,-1.1907 1.05833,-1.1907 0.35417,0 1.05833,0.7922 1.05833,1.1907 0,0.3984 -0.70416,1.1906 -1.05833,1.1906 -0.12473,0 -0.41388,-0.1871 -0.64256,-0.4158 z"
         id="path12942" /><path
         style="fill:#facf9e"
         d="m -185.39665,1214.4148 c -2.46135,-1.23 -3.95119,-3.3273 -4.19497,-5.9054 -0.0705,-0.7454 0.59453,-9.6247 1.47781,-19.7316 0.88328,-10.1069 1.60596,-18.64 1.60596,-18.9623 0,-0.3808 -0.31438,-0.7803 -0.89787,-1.1409 -2.45049,-1.5145 -2.28148,-5.4206 0.29345,-6.7823 l 1.05964,-0.5603 -0.42333,-0.7692 c -0.2878,-0.5229 -0.4242,-1.4468 -0.42605,-2.8858 -0.002,-1.8445 0.0925,-2.2787 0.73801,-3.3768 1.59263,-2.7094 5.06879,-5.0561 9.18115,-6.1981 2.48066,-0.6889 9.98053,-0.6421 12.4078,0.077 1.85279,0.5493 2.4627,1.1323 1.9779,1.8907 -0.36671,0.5737 -1.14988,0.563 -4.05148,-0.055 -2.64562,-0.5639 -7.36475,-0.4512 -9.93734,0.2373 -6.49749,1.7389 -9.89907,6.2547 -7.56106,10.0377 l 0.59276,0.9591 h 12.65684 12.65684 l 0.59276,-0.9591 c 1.40167,-2.268 0.81661,-4.8265 -1.6161,-7.0674 -1.43502,-1.3219 -1.51875,-1.5213 -0.89898,-2.1411 0.70208,-0.7021 1.21881,-0.4798 2.90734,1.2508 1.9735,2.0226 2.63919,3.6693 2.42743,6.0046 -0.0754,0.8318 -0.31196,1.8461 -0.52562,2.2539 -0.38321,0.7314 -0.37414,0.749 0.67117,1.3017 2.57493,1.3617 2.74394,5.2678 0.29345,6.7823 -0.58349,0.3606 -0.89787,0.7601 -0.89787,1.1409 0,0.3223 0.72268,8.8554 1.60596,18.9623 0.88328,10.1069 1.5483,18.9862 1.47781,19.7316 -0.24379,2.5781 -1.73362,4.6754 -4.19497,5.9054 l -1.61916,0.8091 h -12.88006 -12.88006 z m 27.86295,-1.8011 c 0.58333,-0.265 1.44152,-0.9156 1.90709,-1.4459 1.32569,-1.5099 1.47758,-2.5124 1.08117,-7.1366 l -0.3447,-4.0209 -16.02173,-0.068 -16.02174,-0.068 -0.33238,4.0811 c -0.38214,4.6922 -0.22841,5.7023 1.09774,7.2127 1.7187,1.9575 1.48305,1.9278 15.27082,1.9278 11.33548,0 12.38654,-0.038 13.36373,-0.4819 z m -1.06061,-18.0931 c -0.25146,-3.0809 -0.27114,-3.1563 -0.39687,-1.5217 -0.15515,2.0169 -0.33826,2.3812 -1.19693,2.3812 -0.9388,0 -1.18432,-0.7331 -1.18432,-3.5361 0,-2.3675 -0.0328,-2.5174 -0.56829,-2.5971 -0.7912,-0.1177 -1.23301,-0.8764 -0.85805,-1.4736 0.21493,-0.3423 0.71471,-0.4835 1.91687,-0.5418 l 1.62614,-0.079 -0.004,-0.8473 c -0.002,-0.466 -0.0974,-0.9942 -0.2115,-1.1739 -0.15496,-0.2439 -2.13789,-0.3443 -7.8386,-0.3968 -6.93457,-0.064 -7.6578,-0.1126 -7.92309,-0.5333 -0.21286,-0.3376 -0.21285,-0.5885 4e-5,-0.9261 0.26767,-0.4244 1.06849,-0.4688 9.6186,-0.5326 l 9.32662,-0.07 -0.1474,-0.8565 c -0.0811,-0.4711 -0.35675,-3.4461 -0.61261,-6.6112 l -0.46521,-5.7547 h -13.38937 -13.38938 l -0.46401,5.7547 c -0.2552,3.1651 -0.52896,6.1417 -0.60834,6.6146 l -0.14435,0.8599 h 3.40289 c 1.87158,0 3.53386,0.091 3.69394,0.1984 0.44599,0.2979 0.58943,0.9377 0.32534,1.4512 -0.20933,0.407 -0.67861,0.463 -3.87873,0.463 h -3.64058 l -0.47315,6.0192 c -0.26023,3.3106 -0.5308,6.2277 -0.60127,6.4823 -0.12087,0.4369 0.67763,0.4631 14.11106,0.4635 l 14.23919,4e-4 z m -24.41912,0.4181 c -1.00612,-0.4959 -1.47469,-1.2176 -1.25004,-1.9254 0.24684,-0.7777 0.88096,-0.8526 1.96027,-0.2314 0.62171,0.3578 1.17871,0.503 1.48256,0.3864 0.64924,-0.2492 0.21677,-0.6787 -1.26327,-1.2547 -1.5331,-0.5966 -2.202,-1.7314 -1.77797,-3.0162 0.54347,-1.6467 2.72457,-2.2339 4.43164,-1.1931 1.53736,0.9373 0.83199,2.8386 -0.73196,1.9729 -0.36141,-0.2001 -0.86546,-0.368 -1.12013,-0.3731 -0.84736,-0.017 -0.47813,0.4421 0.72476,0.9015 1.92884,0.7366 2.77244,2.3844 1.97938,3.8662 -0.65606,1.2259 -2.84053,1.6528 -4.43524,0.8669 z m 6.56911,-0.07 c -0.2152,-0.4021 -0.009,-1.2093 0.96259,-3.7703 1.41806,-3.7373 1.52694,-3.9201 2.33534,-3.9201 0.83175,0 0.97998,0.2441 2.36727,3.8974 0.99268,2.6142 1.17384,3.3387 0.94281,3.7703 -0.1573,0.2939 -0.51142,0.5344 -0.78695,0.5344 -0.59112,0 -1.3325,-0.673 -1.3325,-1.2095 0,-0.2642 -0.3166,-0.378 -1.05154,-0.378 -0.90078,0 -1.11039,0.1138 -1.46201,0.7938 -0.4841,0.9361 -1.54394,1.0875 -1.97501,0.282 z m 3.34203,-3.6334 c -0.097,-0.097 -0.17639,-0.018 -0.17639,0.1764 0,0.194 0.0794,0.2734 0.17639,0.1763 0.097,-0.097 0.097,-0.2557 0,-0.3527 z m 5.65375,3.6333 c -0.15064,-0.2814 -0.27389,-1.8966 -0.27389,-3.5892 0,-3.3659 0.21343,-4.1011 1.19062,-4.1011 0.94697,0 1.19063,0.7274 1.19063,3.5545 v 2.5309 h 0.78444 c 0.9691,0 1.49709,0.7851 1.06764,1.5875 -0.23812,0.445 -0.55399,0.5292 -1.98437,0.5292 -1.41111,0 -1.74788,-0.087 -1.97507,-0.5118 z m 9.47322,-28.2079 c 0.39047,-0.857 0.39047,-1.764 0,-2.621 l -0.30705,-0.6739 h -13.43406 c -8.1322,0 -13.70318,0.1023 -14.11599,0.2593 -1.44822,0.5506 -1.53718,2.6632 -0.14187,3.3692 0.50164,0.2538 3.85466,0.3334 14.17449,0.3364 h 13.51743 z m -17.53342,-7.1502 c -0.22868,-0.2287 -0.41577,-0.5774 -0.41577,-0.7749 0,-0.3984 0.70416,-1.1906 1.05833,-1.1906 0.35417,0 1.05833,0.7922 1.05833,1.1906 0,0.3985 -0.70416,1.1906 -1.05833,1.1906 -0.12473,0 -0.41388,-0.1871 -0.64256,-0.4157 z m 7.9375,0 c -0.22868,-0.2287 -0.41577,-0.5774 -0.41577,-0.7749 0,-0.3984 0.70416,-1.1906 1.05833,-1.1906 0.35417,0 1.05833,0.7922 1.05833,1.1906 0,0.3985 -0.70416,1.1906 -1.05833,1.1906 -0.12473,0 -0.41388,-0.1871 -0.64256,-0.4157 z m -11.90625,-3.9688 c -0.22868,-0.2287 -0.41577,-0.5773 -0.41577,-0.7748 0,-0.3985 0.70416,-1.1907 1.05833,-1.1907 0.35417,0 1.05833,0.7922 1.05833,1.1907 0,0.3984 -0.70416,1.1906 -1.05833,1.1906 -0.12473,0 -0.41388,-0.1871 -0.64256,-0.4158 z m 7.9375,0 c -0.22868,-0.2287 -0.41577,-0.5773 -0.41577,-0.7748 0,-0.3985 0.70416,-1.1907 1.05833,-1.1907 0.35417,0 1.05833,0.7922 1.05833,1.1907 0,0.3984 -0.70416,1.1906 -1.05833,1.1906 -0.12473,0 -0.41388,-0.1871 -0.64256,-0.4158 z m 7.9375,0 c -0.22868,-0.2287 -0.41577,-0.5773 -0.41577,-0.7748 0,-0.3985 0.70416,-1.1907 1.05833,-1.1907 0.35417,0 1.05833,0.7922 1.05833,1.1907 0,0.3984 -0.70416,1.1906 -1.05833,1.1906 -0.12473,0 -0.41388,-0.1871 -0.64256,-0.4158 z"
         id="path12941" /><path
         style="fill:#caba9f"
         d="m -185.39665,1214.4148 c -2.46135,-1.23 -3.95119,-3.3273 -4.19497,-5.9054 -0.0705,-0.7454 0.59453,-9.6247 1.47781,-19.7316 0.88328,-10.1069 1.60596,-18.64 1.60596,-18.9623 0,-0.3808 -0.31438,-0.7803 -0.89787,-1.1409 -2.45049,-1.5145 -2.28148,-5.4206 0.29345,-6.7823 l 1.05964,-0.5603 -0.42333,-0.7692 c -0.2878,-0.5229 -0.4242,-1.4468 -0.42605,-2.8858 -0.002,-1.8445 0.0925,-2.2787 0.73801,-3.3768 1.59263,-2.7094 5.06879,-5.0561 9.18115,-6.1981 2.48066,-0.6889 9.98053,-0.6421 12.4078,0.077 1.85279,0.5493 2.4627,1.1323 1.9779,1.8907 -0.36671,0.5737 -1.14988,0.563 -4.05148,-0.055 -2.64562,-0.5639 -7.36475,-0.4512 -9.93734,0.2373 -6.49749,1.7389 -9.89907,6.2547 -7.56106,10.0377 l 0.59276,0.9591 h 12.65684 12.65684 l 0.59276,-0.9591 c 1.40167,-2.268 0.81661,-4.8265 -1.6161,-7.0674 -1.43502,-1.3219 -1.51875,-1.5213 -0.89898,-2.1411 0.70208,-0.7021 1.21881,-0.4798 2.90734,1.2508 1.9735,2.0226 2.63919,3.6693 2.42743,6.0046 -0.0754,0.8318 -0.31196,1.8461 -0.52562,2.2539 -0.38321,0.7314 -0.37414,0.749 0.67117,1.3017 2.57493,1.3617 2.74394,5.2678 0.29345,6.7823 -0.58349,0.3606 -0.89787,0.7601 -0.89787,1.1409 0,0.3223 0.72268,8.8554 1.60596,18.9623 0.88328,10.1069 1.5483,18.9862 1.47781,19.7316 -0.24379,2.5781 -1.73362,4.6754 -4.19497,5.9054 l -1.61916,0.8091 h -12.88006 -12.88006 z m 27.86295,-1.8011 c 0.58333,-0.265 1.44152,-0.9156 1.90709,-1.4459 1.32569,-1.5099 1.47758,-2.5124 1.08117,-7.1366 l -0.3447,-4.0209 -16.02173,-0.068 -16.02174,-0.068 -0.33238,4.0811 c -0.38214,4.6922 -0.22841,5.7023 1.09774,7.2127 1.7187,1.9575 1.48305,1.9278 15.27082,1.9278 11.33548,0 12.38654,-0.038 13.36373,-0.4819 z m 2.41881,-15.3154 c -0.0705,-0.2546 -0.34092,-3.1702 -0.601,-6.479 l -0.47288,-6.016 -9.37611,-0.069 c -8.59732,-0.064 -9.40035,-0.1079 -9.66808,-0.5324 -0.21291,-0.3377 -0.21291,-0.5884 0,-0.9261 0.26767,-0.4244 1.06849,-0.4688 9.6186,-0.5326 l 9.32662,-0.07 -0.1474,-0.8565 c -0.0811,-0.4711 -0.35675,-3.4461 -0.61261,-6.6112 l -0.46521,-5.7547 h -13.38937 -13.38938 l -0.46401,5.7547 c -0.2552,3.1651 -0.52896,6.1417 -0.60834,6.6146 l -0.14435,0.8599 h 3.40289 c 1.87158,0 3.53386,0.091 3.69394,0.1984 0.44599,0.2979 0.58943,0.9377 0.32534,1.4512 -0.20933,0.407 -0.67861,0.463 -3.87873,0.463 h -3.64058 l -0.47315,6.0192 c -0.26023,3.3106 -0.5308,6.2277 -0.60127,6.4823 -0.12099,0.4373 0.75711,0.4631 15.78254,0.4631 15.02543,0 15.90353,-0.026 15.78254,-0.4631 z m -27.89854,-2.3596 c -1.00612,-0.4959 -1.47469,-1.2176 -1.25004,-1.9254 0.24684,-0.7777 0.88096,-0.8526 1.96027,-0.2314 0.62171,0.3578 1.17871,0.503 1.48256,0.3864 0.64924,-0.2492 0.21677,-0.6787 -1.26327,-1.2547 -1.5331,-0.5966 -2.202,-1.7314 -1.77797,-3.0162 0.54347,-1.6467 2.72457,-2.2339 4.43164,-1.1931 1.53736,0.9373 0.83199,2.8386 -0.73196,1.9729 -0.36141,-0.2001 -0.86546,-0.368 -1.12013,-0.3731 -0.84736,-0.017 -0.47813,0.4421 0.72476,0.9015 1.92884,0.7366 2.77244,2.3844 1.97938,3.8662 -0.65606,1.2259 -2.84053,1.6528 -4.43524,0.8669 z m 6.56911,-0.07 c -0.2152,-0.4021 -0.009,-1.2093 0.96259,-3.7703 1.41806,-3.7373 1.52694,-3.9201 2.33534,-3.9201 0.83175,0 0.97998,0.2441 2.36727,3.8974 0.99268,2.6142 1.17384,3.3387 0.94281,3.7703 -0.1573,0.2939 -0.51142,0.5344 -0.78695,0.5344 -0.59112,0 -1.3325,-0.673 -1.3325,-1.2095 0,-0.2642 -0.3166,-0.378 -1.05154,-0.378 -0.90078,0 -1.11039,0.1138 -1.46201,0.7938 -0.4841,0.9361 -1.54394,1.0875 -1.97501,0.282 z m 3.34203,-3.6334 c -0.097,-0.097 -0.17639,-0.018 -0.17639,0.1764 0,0.194 0.0794,0.2734 0.17639,0.1763 0.097,-0.097 0.097,-0.2557 0,-0.3527 z m 5.65375,3.6333 c -0.15064,-0.2814 -0.27389,-1.8966 -0.27389,-3.5892 0,-3.3659 0.21343,-4.1011 1.19062,-4.1011 0.94697,0 1.19063,0.7274 1.19063,3.5545 v 2.5309 h 0.78444 c 0.9691,0 1.49709,0.7851 1.06764,1.5875 -0.23812,0.445 -0.55399,0.5292 -1.98437,0.5292 -1.41111,0 -1.74788,-0.087 -1.97507,-0.5118 z m 6.35,0 c -0.15064,-0.2814 -0.27389,-1.6424 -0.27389,-3.0243 0,-2.3675 -0.0328,-2.5174 -0.56829,-2.5971 -0.79194,-0.1178 -1.23319,-0.8767 -0.85673,-1.4736 0.43164,-0.6843 4.79965,-0.6843 5.23129,0 0.37646,0.5969 -0.0648,1.3558 -0.85673,1.4736 -0.5355,0.08 -0.56829,0.2296 -0.56829,2.5971 0,2.809 -0.24483,3.5361 -1.19063,3.5361 -0.36476,0 -0.76131,-0.2214 -0.91673,-0.5118 z m 5.83502,-28.2909 c 0.64333,-0.7947 0.64333,-1.6603 0,-2.455 l -0.50567,-0.6246 -14.67368,-0.073 c -9.36497,-0.046 -14.92653,0.024 -15.37258,0.1931 -1.4637,0.5565 -1.56264,2.6614 -0.15884,3.3793 0.51265,0.2621 3.90435,0.3215 15.43108,0.2702 l 14.77402,-0.066 z m -20.24522,-7.0672 c -0.22868,-0.2287 -0.41577,-0.5774 -0.41577,-0.7749 0,-0.3984 0.70416,-1.1906 1.05833,-1.1906 0.35417,0 1.05833,0.7922 1.05833,1.1906 0,0.3985 -0.70416,1.1906 -1.05833,1.1906 -0.12473,0 -0.41388,-0.1871 -0.64256,-0.4157 z m 7.9375,0 c -0.22868,-0.2287 -0.41577,-0.5774 -0.41577,-0.7749 0,-0.3984 0.70416,-1.1906 1.05833,-1.1906 0.35417,0 1.05833,0.7922 1.05833,1.1906 0,0.3985 -0.70416,1.1906 -1.05833,1.1906 -0.12473,0 -0.41388,-0.1871 -0.64256,-0.4157 z m -11.90625,-3.9688 c -0.22868,-0.2287 -0.41577,-0.5773 -0.41577,-0.7748 0,-0.3985 0.70416,-1.1907 1.05833,-1.1907 0.35417,0 1.05833,0.7922 1.05833,1.1907 0,0.3984 -0.70416,1.1906 -1.05833,1.1906 -0.12473,0 -0.41388,-0.1871 -0.64256,-0.4158 z m 7.9375,0 c -0.22868,-0.2287 -0.41577,-0.5773 -0.41577,-0.7748 0,-0.3985 0.70416,-1.1907 1.05833,-1.1907 0.35417,0 1.05833,0.7922 1.05833,1.1907 0,0.3984 -0.70416,1.1906 -1.05833,1.1906 -0.12473,0 -0.41388,-0.1871 -0.64256,-0.4158 z m 7.9375,0 c -0.22868,-0.2287 -0.41577,-0.5773 -0.41577,-0.7748 0,-0.3985 0.70416,-1.1907 1.05833,-1.1907 0.35417,0 1.05833,0.7922 1.05833,1.1907 0,0.3984 -0.70416,1.1906 -1.05833,1.1906 -0.12473,0 -0.41388,-0.1871 -0.64256,-0.4158 z"
         id="path12940" /><path
         style="fill:#a2a09d"
         d="m -184.47109,1214.8418 c -1.53637,-0.548 -3.00879,-1.6796 -3.8625,-2.9685 -1.56931,-2.3692 -1.57542,-1.8249 0.25943,-23.1229 l 1.66427,-19.3181 -0.98054,-0.8082 c -2.31275,-1.9064 -2.38078,-4.5532 -0.16495,-6.4177 0.45295,-0.3811 0.98157,-0.693 1.17471,-0.693 0.27151,0 0.2369,-0.3006 -0.1526,-1.3257 -0.9977,-2.6258 -0.45606,-5.1947 1.57113,-7.4516 2.24154,-2.4956 5.67741,-4.2117 9.94612,-4.9676 4.71259,-0.8345 12.58526,0.287 12.58526,1.7928 0,1.0783 -0.64441,1.2255 -2.98685,0.6821 -3.28203,-0.7613 -8.8995,-0.7009 -11.55856,0.1243 -2.62938,0.816 -4.30798,1.6932 -5.70592,2.9818 -2.18937,2.0181 -2.77095,4.3496 -1.64294,6.5865 l 0.59531,1.1806 12.743,0.069 12.74301,0.069 0.59432,-0.9616 c 1.40325,-2.2705 0.81919,-4.8281 -1.61454,-7.0699 -0.72311,-0.6661 -1.31475,-1.3169 -1.31475,-1.4461 0,-0.5005 1.02767,-1.1562 1.55156,-0.9899 0.29213,0.093 1.17958,0.869 1.97211,1.725 2.24931,2.4295 2.8348,4.9356 1.79342,7.6763 -0.38951,1.0251 -0.42411,1.3257 -0.1526,1.3257 0.19314,0 0.72176,0.3119 1.17471,0.693 2.21675,1.8653 2.14785,4.5113 -0.16716,6.4195 l -0.98276,0.8101 1.6669,19.3145 c 1.83794,21.2965 1.83178,20.7517 0.26123,23.1228 -0.85371,1.2889 -2.32613,2.4205 -3.8625,2.9685 -1.46752,0.5235 -25.6798,0.5235 -27.14732,0 z m 26.93739,-2.2281 c 1.33048,-0.6044 2.6607,-2.0978 3.03009,-3.4019 0.20395,-0.72 0.19442,-2.1644 -0.0341,-5.1666 l -0.31716,-4.1672 h -16.05057 -16.05057 l -0.33317,4.307 c -0.30094,3.8902 -0.2907,4.4086 0.1058,5.3578 0.57152,1.3681 1.60739,2.453 2.92445,3.0628 0.98218,0.4547 1.94358,0.49 13.36146,0.49 11.33548,0 12.38654,-0.038 13.36373,-0.4819 z m 2.42341,-15.7122 c -0.0807,-0.473 -0.3538,-3.3885 -0.60686,-6.479 l -0.46011,-5.6191 -9.38186,-0.07 c -8.6028,-0.064 -9.4061,-0.1079 -9.67384,-0.5324 -0.21291,-0.3377 -0.21291,-0.5884 0,-0.9261 0.26767,-0.4244 1.06849,-0.4688 9.6186,-0.5326 l 9.32662,-0.07 -0.1437,-0.8565 c -0.079,-0.4711 -0.3525,-3.4461 -0.6077,-6.6112 l -0.46401,-5.7547 h -13.39549 -13.39549 l -0.4638,5.6224 c -0.2551,3.0924 -0.53027,6.0689 -0.61151,6.6146 l -0.14771,0.9922 h 3.44101 c 3.70602,0 4.16172,0.157 3.98912,1.3745 -0.085,0.5998 -0.14825,0.6111 -3.81283,0.683 l -3.72638,0.073 -0.4489,5.4831 c -0.2469,3.0157 -0.51526,5.9296 -0.59636,6.4753 l -0.14745,0.9922 h 15.9277 15.9277 z m -27.5611,-1.8787 c -1.20814,-0.5543 -1.89235,-1.4265 -1.54802,-1.9733 0.40506,-0.6432 1.08643,-0.698 2.07309,-0.1666 0.82711,0.4454 1.72389,0.3911 1.72389,-0.1044 0,-0.1303 -0.55171,-0.4476 -1.22603,-0.7051 -1.67571,-0.64 -2.21355,-1.2397 -2.21355,-2.468 0,-1.9368 2.26159,-2.9936 4.23333,-1.9782 0.74657,0.3844 0.92604,0.6307 0.92604,1.2706 0,0.7153 -0.0785,0.7894 -0.79375,0.7501 -0.43656,-0.024 -1.12117,-0.1272 -1.52135,-0.2293 -1.20363,-0.307 -0.84125,0.3181 0.47598,0.8211 2.23365,0.8531 2.86743,2.5733 1.50839,4.0942 -0.86081,0.9634 -2.40331,1.2555 -3.63802,0.6889 z m 6.53521,0.04 c -0.49856,-0.4985 -0.39656,-1.0101 0.86372,-4.3316 1.35228,-3.5641 1.78708,-4.0578 2.83765,-3.2222 0.54004,0.4295 2.88602,6.7027 2.69387,7.2034 -0.36919,0.9621 -1.73947,0.6905 -2.09012,-0.4143 -0.12606,-0.3972 -0.41122,-0.5053 -1.33316,-0.5053 -0.84003,0 -1.17279,0.1073 -1.17279,0.378 0,0.4634 -0.71348,1.2095 -1.15661,1.2095 -0.17878,0 -0.46794,-0.1429 -0.64256,-0.3175 z m 3.03389,-3.8276 c -0.097,-0.097 -0.17639,-0.018 -0.17639,0.1764 0,0.194 0.0794,0.2734 0.17639,0.1763 0.097,-0.097 0.097,-0.2557 0,-0.3527 z m 5.96194,3.8276 c -0.21482,-0.2148 -0.3175,-1.4451 -0.3175,-3.8041 0,-3.7107 0.19289,-4.3068 1.28166,-3.9613 0.67697,0.2149 0.82706,0.874 0.8314,3.6511 0.003,2.1046 0.0498,2.3151 0.51114,2.3151 0.95112,0 1.34455,0.3097 1.34455,1.0584 0,0.4281 -0.17546,0.8044 -0.41851,0.8977 -0.72774,0.2793 -2.90211,0.1737 -3.23274,-0.1569 z m 6.18369,-0.098 c -0.32174,-0.3217 -0.41577,-1.0057 -0.41577,-3.0243 0,-2.4657 -0.0311,-2.6131 -0.56829,-2.6931 -0.79145,-0.1177 -1.23307,-0.8765 -0.85761,-1.4736 0.23352,-0.3713 0.74124,-0.4781 2.56363,-0.5392 2.0582,-0.069 2.29965,-0.025 2.56104,0.463 0.4033,0.7536 -0.088,1.5976 -0.92995,1.5976 -0.65094,0 -0.65215,0.01 -0.65215,2.7252 0,2.6875 -0.1922,3.3602 -0.96006,3.3602 -0.17879,0 -0.51216,-0.1871 -0.74084,-0.4158 z m 5.50167,-28.1784 c 0.50563,-0.3977 0.69714,-0.7922 0.69714,-1.436 0,-0.6438 -0.19151,-1.0383 -0.69714,-1.436 -0.68633,-0.5399 -0.92564,-0.5484 -15.44244,-0.5484 -14.5168,0 -14.75611,0.01 -15.44244,0.5484 -0.96411,0.7584 -0.96411,2.1136 0,2.872 0.68633,0.5399 0.92564,0.5484 15.44244,0.5484 14.5168,0 14.75611,-0.01 15.44244,-0.5484 z m -20.3254,-7.6164 c -0.25677,-0.809 0.11369,-1.3602 0.91421,-1.3602 0.80052,0 1.17098,0.5512 0.91421,1.3602 -0.10432,0.3287 -0.40764,0.4919 -0.91421,0.4919 -0.50657,0 -0.80989,-0.1632 -0.91421,-0.4919 z m 7.9375,0 c -0.25677,-0.809 0.11369,-1.3602 0.91421,-1.3602 0.80052,0 1.17098,0.5512 0.91421,1.3602 -0.10432,0.3287 -0.40764,0.4919 -0.91421,0.4919 -0.50657,0 -0.80989,-0.1632 -0.91421,-0.4919 z m -11.90625,-3.9688 c -0.25677,-0.809 0.11369,-1.3602 0.91421,-1.3602 0.80052,0 1.17098,0.5512 0.91421,1.3602 -0.10432,0.3287 -0.40764,0.4919 -0.91421,0.4919 -0.50657,0 -0.80989,-0.1632 -0.91421,-0.4919 z m 7.9375,0 c -0.25677,-0.809 0.11369,-1.3602 0.91421,-1.3602 0.80052,0 1.17098,0.5512 0.91421,1.3602 -0.10432,0.3287 -0.40764,0.4919 -0.91421,0.4919 -0.50657,0 -0.80989,-0.1632 -0.91421,-0.4919 z m 7.9375,0 c -0.25677,-0.809 0.11369,-1.3602 0.91421,-1.3602 0.80052,0 1.17098,0.5512 0.91421,1.3602 -0.10432,0.3287 -0.40764,0.4919 -0.91421,0.4919 -0.50657,0 -0.80989,-0.1632 -0.91421,-0.4919 z"
         id="path12939" /><path
         style="fill:#9c8c74"
         d="m -184.77096,1214.6893 c -2.43329,-0.9501 -4.43516,-3.5058 -4.76248,-6.08 -0.0833,-0.6549 0.59717,-9.7626 1.51207,-20.2395 l 1.66346,-19.0489 -0.79628,-0.5366 c -1.80751,-1.218 -2.49896,-3.4208 -1.61212,-5.1358 0.46553,-0.9003 1.87634,-2.1351 2.43936,-2.1351 0.28397,0 0.34628,-0.1382 0.20865,-0.463 -0.77225,-1.8221 -0.95877,-2.7001 -0.83535,-3.9324 0.71937,-7.1825 12.463,-11.6484 22.85218,-8.6903 1.51332,0.4308 2.04196,1.1862 1.32909,1.8991 -0.35162,0.3516 -0.66232,0.3335 -2.77193,-0.1618 -9.22544,-2.1659 -19.39147,1.8055 -19.37168,7.5676 0.003,0.8224 0.21476,1.6388 0.60373,2.3256 l 0.59937,1.0584 h 12.82388 12.82387 l 0.59531,-1.1806 c 1.13217,-2.2451 0.58288,-4.4839 -1.62269,-6.6136 -0.67187,-0.6487 -1.22158,-1.3691 -1.22158,-1.6007 0,-0.4966 0.50349,-1.0562 0.95035,-1.0562 0.60006,0 2.90895,2.3347 3.64338,3.6841 1.19372,2.1932 1.20528,3.9604 0.0438,6.7008 -0.13763,0.3248 -0.0753,0.463 0.20865,0.463 0.56302,0 1.97383,1.2348 2.43936,2.1351 0.88684,1.715 0.19539,3.9178 -1.61212,5.1358 l -0.79628,0.5366 1.66346,19.0489 c 0.94166,10.7834 1.5947,19.5655 1.50499,20.2395 -0.23385,1.7571 -0.72756,2.7467 -2.10498,4.2193 -0.84627,0.9047 -1.68689,1.4893 -2.67159,1.8577 -1.37168,0.5132 -2.00293,0.537 -13.92843,0.5252 -11.68873,-0.012 -12.57557,-0.045 -13.79746,-0.5222 z m 27.18534,-1.9412 c 1.23257,-0.515 2.44539,-1.8283 2.97919,-3.226 0.42417,-1.1107 0.43392,-1.5514 0.12006,-5.4265 l -0.34159,-4.2176 h -16.10453 c -14.97249,0 -16.10452,0.032 -16.10452,0.4492 0,0.2471 -0.13774,2.0931 -0.30608,4.1024 -0.24167,2.8844 -0.23616,3.8865 0.0262,4.7621 0.45651,1.5237 1.42747,2.7151 2.74384,3.3667 1.07367,0.5314 1.49453,0.5484 13.61797,0.5486 9.93662,10e-5 12.68685,-0.074 13.36946,-0.3589 z m 2.47533,-15.8466 c -0.0807,-0.473 -0.35392,-3.39 -0.60714,-6.4823 l -0.46038,-5.6224 h -9.29127 c -9.40171,0 -9.92627,-0.051 -9.92627,-0.9601 0,-0.1788 0.1871,-0.5121 0.41578,-0.7408 0.36187,-0.3619 1.59666,-0.4158 9.525,-0.4158 5.01007,0 9.10782,-0.089 9.1061,-0.1984 -0.002,-0.1092 -0.23844,-2.8178 -0.52604,-6.0193 -0.28761,-3.2015 -0.52433,-6.0887 -0.52604,-6.4161 l -0.003,-0.5954 h -13.49375 -13.49375 l -0.004,0.5954 c -0.002,0.3274 -0.23852,3.1551 -0.52527,6.2838 -0.28675,3.1287 -0.52312,5.8374 -0.52526,6.0193 -0.003,0.2475 0.84774,0.3307 3.38276,0.3307 2.2813,0 3.4903,0.1036 3.70417,0.3175 0.45361,0.4536 0.39223,1.4493 -0.10101,1.6386 -0.23019,0.088 -1.95659,0.1606 -3.83646,0.1606 -3.36722,0 -3.41799,0.01 -3.42107,0.5953 -0.002,0.3274 -0.23844,3.2147 -0.52604,6.4161 -0.28761,3.2015 -0.52433,5.8506 -0.52604,5.887 -0.002,0.036 7.15387,0.066 15.90132,0.066 h 15.90444 z m -27.5611,-1.8787 c -1.20683,-0.5537 -1.89208,-1.4264 -1.54935,-1.9733 0.38763,-0.6185 1.36356,-0.7102 1.94623,-0.1829 0.52596,0.476 1.61672,0.4519 1.7783,-0.039 0.055,-0.1671 -0.45791,-0.5169 -1.13974,-0.7773 -1.62372,-0.6201 -2.22606,-1.2951 -2.22606,-2.4945 0,-1.8864 2.28953,-2.9293 4.23333,-1.9283 0.74657,0.3844 0.92604,0.6307 0.92604,1.2706 0,0.7153 -0.0785,0.7894 -0.79375,0.7501 -0.43656,-0.024 -1.12117,-0.1272 -1.52135,-0.2293 -1.13146,-0.2886 -0.87342,0.2895 0.3472,0.7779 2.35983,0.9442 3.01379,2.5969 1.63717,4.1374 -0.86081,0.9634 -2.40331,1.2555 -3.63802,0.6889 z m 6.53521,0.04 c -0.49502,-0.495 -0.39571,-1.0177 0.77726,-4.0905 1.89176,-4.9559 2.51667,-5.0138 4.31174,-0.3994 0.66444,1.7081 1.20808,3.4209 1.20808,3.8064 0,1.29 -1.57714,1.2257 -1.99196,-0.081 -0.12606,-0.3972 -0.41122,-0.5053 -1.33316,-0.5053 -0.80603,0 -1.17279,0.1113 -1.17279,0.3559 0,0.3984 -0.82847,1.2316 -1.22469,1.2316 -0.14134,0 -0.39986,-0.1429 -0.57448,-0.3175 z m 3.38667,-3.5033 c 0,-0.064 -0.11907,-0.1903 -0.26459,-0.2802 -0.14552,-0.09 -0.26458,-0.037 -0.26458,0.1166 0,0.1542 0.11906,0.2802 0.26458,0.2802 0.14552,0 0.26459,-0.053 0.26459,-0.1166 z m 5.60916,3.5033 c -0.21482,-0.2148 -0.3175,-1.4451 -0.3175,-3.8041 0,-2.8584 0.0755,-3.5492 0.41906,-3.8343 0.30366,-0.252 0.54044,-0.2714 0.85989,-0.07 0.35785,0.2252 0.45498,0.8076 0.51594,3.0935 0.0739,2.7701 0.0854,2.8161 0.70597,2.8161 1.01213,0 1.46789,0.2799 1.46789,0.9015 0,0.8987 -0.51689,1.2152 -1.98437,1.2152 -0.74216,0 -1.49225,-0.1429 -1.66688,-0.3175 z m 6.35,0 c -0.20584,-0.2058 -0.3175,-1.2759 -0.3175,-3.0427 0,-2.7201 -10e-4,-2.7252 -0.65215,-2.7252 -0.37397,0 -0.76898,-0.2183 -0.92604,-0.5118 -0.35422,-0.6619 -0.35,-0.6972 0.14188,-1.1891 0.30775,-0.3077 0.95842,-0.4158 2.50424,-0.4158 1.81767,0 2.12518,0.069 2.37166,0.5292 0.39815,0.744 -0.0989,1.5875 -0.93535,1.5875 -0.65094,0 -0.65215,0.01 -0.65215,2.7252 0,2.6548 -0.1944,3.3602 -0.92605,3.3602 -0.16007,0 -0.43391,-0.1429 -0.60854,-0.3175 z m 5.33536,-28.2767 c 0.50563,-0.3977 0.69714,-0.7922 0.69714,-1.436 0,-0.6438 -0.19151,-1.0383 -0.69714,-1.436 -0.68633,-0.5399 -0.92564,-0.5484 -15.44244,-0.5484 -14.5168,0 -14.75611,0.01 -15.44244,0.5484 -0.96411,0.7584 -0.96411,2.1136 0,2.872 0.68633,0.5399 0.92564,0.5484 15.44244,0.5484 14.5168,0 14.75611,-0.01 15.44244,-0.5484 z m -20.22335,-7.5436 c -0.46407,-0.5592 -0.001,-1.3007 0.81216,-1.3007 0.81321,0 1.27623,0.7415 0.81216,1.3007 -0.19128,0.2305 -0.55676,0.4191 -0.81216,0.4191 -0.25541,0 -0.62088,-0.1886 -0.81216,-0.4191 z m 7.9375,0 c -0.46407,-0.5592 -0.001,-1.3007 0.81216,-1.3007 0.81321,0 1.27623,0.7415 0.81216,1.3007 -0.19128,0.2305 -0.55675,0.4191 -0.81216,0.4191 -0.25541,0 -0.62088,-0.1886 -0.81216,-0.4191 z m -11.90625,-3.9687 c -0.46407,-0.5592 -0.001,-1.3008 0.81216,-1.3008 0.81321,0 1.27623,0.7416 0.81216,1.3008 -0.19128,0.2304 -0.55676,0.419 -0.81216,0.419 -0.25541,0 -0.62088,-0.1886 -0.81216,-0.419 z m 7.9375,0 c -0.46407,-0.5592 -0.001,-1.3008 0.81216,-1.3008 0.81321,0 1.27623,0.7416 0.81216,1.3008 -0.19128,0.2304 -0.55676,0.419 -0.81216,0.419 -0.25541,0 -0.62088,-0.1886 -0.81216,-0.419 z m 7.9375,0 c -0.46407,-0.5592 -0.001,-1.3008 0.81216,-1.3008 0.81321,0 1.27623,0.7416 0.81216,1.3008 -0.19128,0.2304 -0.55675,0.419 -0.81216,0.419 -0.25541,0 -0.62088,-0.1886 -0.81216,-0.419 z"
         id="path12938" /><path
         style="fill:#747989"
         d="m -184.77096,1214.6893 c -2.30654,-0.9006 -4.2942,-3.3461 -4.74774,-5.8414 -0.13866,-0.7628 2.65832,-35.526 3.12289,-38.8138 0.10232,-0.7241 0.0208,-0.9109 -0.48089,-1.1017 -1.48916,-0.5661 -2.53011,-2.7537 -2.14491,-4.5075 0.23318,-1.0617 1.5219,-2.5398 2.40838,-2.7623 0.51734,-0.1298 0.63617,-0.2808 0.49068,-0.6233 -0.77208,-1.8174 -0.95457,-2.6885 -0.82796,-3.9517 0.38627,-3.8541 4.36453,-7.3928 9.93177,-8.8344 3.88761,-1.0067 9.23238,-0.9311 12.98581,0.1835 1.44493,0.4291 1.95569,1.195 1.26055,1.8901 -0.35162,0.3516 -0.66232,0.3335 -2.77193,-0.1618 -9.22544,-2.1659 -19.39147,1.8055 -19.37168,7.5676 0.003,0.8224 0.21476,1.6388 0.60373,2.3256 l 0.59937,1.0584 h 12.82388 12.82387 l 0.59531,-1.1806 c 1.13217,-2.2451 0.58288,-4.4839 -1.62269,-6.6136 -0.67187,-0.6487 -1.22158,-1.3691 -1.22158,-1.6007 0,-0.4966 0.50349,-1.0562 0.95035,-1.0562 0.60006,0 2.90895,2.3347 3.64338,3.6841 1.19194,2.19 1.20471,3.967 0.0481,6.6897 -0.14549,0.3425 -0.0267,0.4935 0.49068,0.6233 1.56933,0.3939 2.81365,2.7671 2.41131,4.599 -0.2171,0.9884 -1.31559,2.3544 -2.14784,2.6708 -0.50167,0.1908 -0.58321,0.3776 -0.48089,1.1017 0.47515,3.3627 3.26116,38.0475 3.11767,38.8138 -0.48337,2.5815 -2.42763,4.9644 -4.76369,5.8384 -1.37168,0.5132 -2.00293,0.537 -13.92843,0.5252 -11.68873,-0.012 -12.57557,-0.045 -13.79746,-0.5222 z m 27.18534,-1.9412 c 1.23257,-0.515 2.44539,-1.8283 2.97919,-3.226 0.42417,-1.1107 0.43392,-1.5514 0.12006,-5.4265 l -0.34159,-4.2176 h -16.10453 c -14.97249,0 -16.10452,0.032 -16.10452,0.4492 0,0.2471 -0.13774,2.0931 -0.30608,4.1024 -0.24167,2.8844 -0.23616,3.8865 0.0262,4.7621 0.45651,1.5237 1.42747,2.7151 2.74384,3.3667 1.07367,0.5314 1.49453,0.5484 13.61797,0.5486 9.93662,10e-5 12.68685,-0.074 13.36946,-0.3589 z m 2.55929,-15.1852 c -0.002,-0.1091 -0.23852,-2.7583 -0.52527,-5.887 -0.28675,-3.1287 -0.52312,-5.9564 -0.52526,-6.2838 l -0.004,-0.5953 h -9.3398 c -9.45156,0 -9.97479,-0.05 -9.97479,-0.9601 0,-0.1788 0.1871,-0.5121 0.41578,-0.7408 0.36187,-0.3619 1.59666,-0.4158 9.525,-0.4158 5.01007,0 9.10782,-0.089 9.1061,-0.1984 -0.002,-0.1092 -0.23844,-2.8178 -0.52604,-6.0193 -0.28761,-3.2015 -0.52433,-6.0887 -0.52604,-6.4161 l -0.003,-0.5954 h -13.49375 -13.49375 l -0.004,0.5954 c -0.002,0.3274 -0.23852,3.1551 -0.52527,6.2838 -0.28675,3.1287 -0.52312,5.8339 -0.52526,6.0116 -0.003,0.2345 0.94969,0.3433 3.47347,0.3969 2.97397,0.063 3.51959,0.1408 3.76896,0.5368 0.21239,0.3373 0.21239,0.5888 -3e-5,0.9261 -0.25045,0.3976 -0.80101,0.4734 -3.90125,0.5366 -3.20889,0.065 -3.60998,0.1242 -3.61276,0.5292 -0.002,0.2505 -0.23844,3.0749 -0.52604,6.2764 -0.28761,3.2014 -0.52433,5.9101 -0.52604,6.0192 -0.002,0.1092 7.14062,0.1985 15.87187,0.1985 8.73125,0 15.87324,-0.089 15.8711,-0.1985 z m -27.67726,-2.563 c -1.11492,-0.4852 -1.74377,-1.4017 -1.40111,-2.0419 0.31979,-0.5976 0.98776,-0.6252 1.7754,-0.074 0.64542,0.4521 1.675,0.4235 1.831,-0.051 0.0538,-0.1637 -0.41309,-0.5007 -1.0376,-0.7488 -1.62581,-0.646 -2.32611,-1.384 -2.32611,-2.4514 0,-1.0311 0.88098,-2.0698 1.99207,-2.3487 1.00185,-0.2514 3.14165,0.6578 3.24622,1.3794 0.12841,0.8862 -0.61207,1.3125 -1.63648,0.942 -1.97733,-0.715 -2.0373,-0.074 -0.077,0.8236 2.35049,1.0761 2.68024,3.034 0.73208,4.3469 -1.01315,0.6828 -1.8965,0.7464 -3.09844,0.2233 z m 6.56741,0.063 c -0.48554,-0.4855 -0.40426,-0.9056 0.78305,-4.0468 1.86168,-4.9254 2.50964,-5.0367 4.18584,-0.7185 1.32647,3.4171 1.49625,4.1646 1.06415,4.6853 -0.50797,0.6121 -1.03913,0.4755 -1.5342,-0.3946 -0.38272,-0.6726 -0.61038,-0.792 -1.50905,-0.792 -0.89867,0 -1.12633,0.1194 -1.50905,0.792 -0.47809,0.8402 -0.96051,0.9948 -1.48074,0.4746 z m 3.21451,-3.792 c -0.20987,-0.5469 -0.35701,-0.4825 -0.35701,0.1564 0,0.2996 0.11386,0.4744 0.25303,0.3884 0.13916,-0.086 0.18596,-0.3312 0.10398,-0.5448 z m 5.79261,3.8033 c -0.22873,-0.2287 -0.32879,-1.3899 -0.32879,-3.8154 0,-2.8584 0.0755,-3.5492 0.41906,-3.8343 0.30366,-0.252 0.54044,-0.2714 0.85989,-0.07 0.35756,0.225 0.455,0.8064 0.51578,3.0774 l 0.0749,2.8 0.82443,0.082 c 1.00676,0.1004 1.53556,0.7991 1.11363,1.4713 -0.36227,0.5772 -2.97382,0.7942 -3.47893,0.2891 z m 6.33871,-0.011 c -0.20584,-0.2058 -0.3175,-1.2759 -0.3175,-3.0427 0,-2.5152 -0.0393,-2.7252 -0.51026,-2.7252 -0.5202,0 -1.34182,-0.648 -1.34182,-1.0583 0,-0.7132 0.90602,-1.0584 2.77812,-1.0584 1.87211,0 2.77813,0.3452 2.77813,1.0584 0,0.4103 -0.82162,1.0583 -1.34182,1.0583 -0.47094,0 -0.51026,0.21 -0.51026,2.7252 0,2.6548 -0.1944,3.3602 -0.92605,3.3602 -0.16007,0 -0.43391,-0.1429 -0.60854,-0.3175 z m 5.33536,-28.2767 c 0.50563,-0.3977 0.69714,-0.7922 0.69714,-1.436 0,-0.6438 -0.19151,-1.0383 -0.69714,-1.436 -0.68633,-0.5399 -0.92564,-0.5484 -15.44244,-0.5484 -14.5168,0 -14.75611,0.01 -15.44244,0.5484 -0.96411,0.7584 -0.96411,2.1136 0,2.872 0.68633,0.5399 0.92564,0.5484 15.44244,0.5484 14.5168,0 14.75611,-0.01 15.44244,-0.5484 z m -20.22335,-7.5436 c -0.46407,-0.5592 -0.001,-1.3007 0.81216,-1.3007 0.81321,0 1.27623,0.7415 0.81216,1.3007 -0.19128,0.2305 -0.55676,0.4191 -0.81216,0.4191 -0.25541,0 -0.62088,-0.1886 -0.81216,-0.4191 z m 7.9375,0 c -0.46407,-0.5592 -0.001,-1.3007 0.81216,-1.3007 0.81321,0 1.27623,0.7415 0.81216,1.3007 -0.19128,0.2305 -0.55675,0.4191 -0.81216,0.4191 -0.25541,0 -0.62088,-0.1886 -0.81216,-0.4191 z m -11.90625,-3.9687 c -0.46407,-0.5592 -0.001,-1.3008 0.81216,-1.3008 0.81321,0 1.27623,0.7416 0.81216,1.3008 -0.19128,0.2304 -0.55676,0.419 -0.81216,0.419 -0.25541,0 -0.62088,-0.1886 -0.81216,-0.419 z m 7.9375,0 c -0.46407,-0.5592 -0.001,-1.3008 0.81216,-1.3008 0.81321,0 1.27623,0.7416 0.81216,1.3008 -0.19128,0.2304 -0.55676,0.419 -0.81216,0.419 -0.25541,0 -0.62088,-0.1886 -0.81216,-0.419 z m 7.9375,0 c -0.46407,-0.5592 -0.001,-1.3008 0.81216,-1.3008 0.81321,0 1.27623,0.7416 0.81216,1.3008 -0.19128,0.2304 -0.55675,0.419 -0.81216,0.419 -0.25541,0 -0.62088,-0.1886 -0.81216,-0.419 z"
         id="path12937" /><path
         style="fill:#857560"
         d="m -184.41522,1214.8128 c -2.29799,-0.7079 -4.61682,-3.3965 -5.0978,-5.9107 -0.0945,-0.4938 0.54208,-9.1853 1.41453,-19.3146 0.87246,-10.1292 1.61703,-18.8543 1.65461,-19.389 0.0598,-0.8504 -0.0476,-1.0498 -0.85772,-1.5927 -1.27109,-0.8519 -1.91123,-2.1649 -1.76332,-3.6169 0.14191,-1.393 0.81296,-2.3688 2.11702,-3.0786 0.67288,-0.3662 0.9201,-0.6514 0.80282,-0.926 -0.74462,-1.7439 -0.93088,-2.645 -0.80543,-3.8967 0.38519,-3.8434 4.28813,-7.3255 9.93177,-8.8609 4.77437,-1.299 14.58798,-0.3916 14.58798,1.3488 0,0.1073 -0.16268,0.4176 -0.3615,0.6895 -0.35021,0.479 -0.41012,0.4797 -1.91823,0.024 -2.27256,-0.6867 -8.34366,-0.861 -10.94944,-0.3143 -2.43895,0.5117 -5.87371,2.1761 -7.22975,3.5034 -2.07422,2.0303 -2.6061,4.4905 -1.42258,6.5802 l 0.59937,1.0584 h 12.81546 12.81546 l 0.59937,-1.0584 c 1.22721,-2.1669 0.66254,-4.5161 -1.61904,-6.7358 -0.66685,-0.6487 -1.21246,-1.3691 -1.21246,-1.6007 0,-0.4966 0.50349,-1.0562 0.95035,-1.0562 0.59026,0 2.90353,2.3247 3.61615,3.6341 1.188,2.1827 1.21557,4.0669 0.0978,6.6847 -0.11728,0.2746 0.12994,0.5598 0.80282,0.926 2.72184,1.4814 2.9069,4.9845 0.3537,6.6955 -0.81012,0.5429 -0.91749,0.7423 -0.85772,1.5927 0.0376,0.5347 0.78429,9.2844 1.65935,19.4436 1.69694,19.7011 1.68819,19.3257 0.50474,21.6454 -0.71865,1.4087 -2.74882,3.079 -4.30346,3.5407 -1.90301,0.5651 -25.08337,0.5519 -26.92487,-0.015 z m 27.30065,-2.3212 c 0.64136,-0.3386 1.52329,-1.1232 1.95985,-1.7435 0.75099,-1.0672 0.79338,-1.2656 0.78684,-3.6839 -0.004,-1.4058 -0.10378,-3.5978 -0.22218,-4.8711 l -0.21529,-2.3151 h -16.09208 -16.09208 l -0.21529,2.3151 c -0.1184,1.2733 -0.21839,3.4653 -0.22219,4.8711 -0.007,2.4183 0.0359,2.6167 0.78685,3.6839 0.43656,0.6203 1.31849,1.4049 1.95985,1.7435 l 1.16609,0.6156 h 12.61677 12.61677 z m 2.08824,-14.9287 c -0.002,-0.1091 -0.23852,-2.7583 -0.52527,-5.887 -0.28675,-3.1287 -0.52312,-5.9564 -0.52526,-6.2838 l -0.004,-0.5953 h -9.3398 c -9.45156,0 -9.97479,-0.05 -9.97479,-0.9601 0,-0.1788 0.1871,-0.5121 0.41578,-0.7408 0.36187,-0.3619 1.59666,-0.4158 9.525,-0.4158 8.50055,0 9.10896,-0.031 9.10532,-0.463 -0.002,-0.2547 -0.23851,-3.0229 -0.52526,-6.1516 -0.28675,-3.1287 -0.52312,-5.8969 -0.52527,-6.1515 -0.004,-0.4349 -0.82433,-0.4631 -13.49765,-0.4631 -12.67332,0 -13.49399,0.028 -13.49765,0.4631 -0.002,0.2546 -0.23852,3.0228 -0.52527,6.1515 -0.28675,3.1287 -0.52312,5.8969 -0.52526,6.1516 -0.004,0.4156 0.32302,0.463 3.18849,0.463 3.30781,0 4.21594,0.2186 4.21594,1.0147 0,0.9616 -0.5291,1.102 -4.15396,1.102 -3.17381,0 -3.51926,0.045 -3.52208,0.463 -0.002,0.2547 -0.23844,3.0824 -0.52604,6.2839 -0.28761,3.2014 -0.52433,5.9101 -0.52604,6.0192 -0.002,0.1092 7.14062,0.1985 15.87187,0.1985 8.73125,0 15.87324,-0.089 15.8711,-0.1985 z m -27.67726,-2.563 c -1.11492,-0.4852 -1.74377,-1.4017 -1.40111,-2.0419 0.31979,-0.5976 0.98776,-0.6252 1.7754,-0.074 0.64542,0.4521 1.675,0.4235 1.831,-0.051 0.0538,-0.1637 -0.41309,-0.5007 -1.0376,-0.7488 -1.62581,-0.646 -2.32611,-1.384 -2.32611,-2.4514 0,-1.0311 0.88098,-2.0698 1.99207,-2.3487 1.00185,-0.2514 3.14165,0.6578 3.24622,1.3794 0.12841,0.8862 -0.61207,1.3125 -1.63648,0.942 -1.97733,-0.715 -2.0373,-0.074 -0.077,0.8236 2.35049,1.0761 2.68024,3.034 0.73208,4.3469 -1.01315,0.6828 -1.8965,0.7464 -3.09844,0.2233 z m 6.56741,0.063 c -0.48554,-0.4855 -0.40426,-0.9056 0.78305,-4.0468 1.86168,-4.9254 2.50964,-5.0367 4.18584,-0.7185 1.32647,3.4171 1.49625,4.1646 1.06415,4.6853 -0.50797,0.6121 -1.03913,0.4755 -1.5342,-0.3946 -0.38272,-0.6726 -0.61038,-0.792 -1.50905,-0.792 -0.89867,0 -1.12633,0.1194 -1.50905,0.792 -0.47809,0.8402 -0.96051,0.9948 -1.48074,0.4746 z m 3.21451,-3.792 c -0.20987,-0.5469 -0.35701,-0.4825 -0.35701,0.1564 0,0.2996 0.11386,0.4744 0.25303,0.3884 0.13916,-0.086 0.18596,-0.3312 0.10398,-0.5448 z m 5.79261,3.8033 c -0.22873,-0.2287 -0.32879,-1.3899 -0.32879,-3.8154 0,-2.8584 0.0755,-3.5492 0.41906,-3.8343 0.30366,-0.252 0.54044,-0.2714 0.85989,-0.07 0.35756,0.225 0.455,0.8064 0.51578,3.0774 l 0.0749,2.8 0.82443,0.082 c 1.00676,0.1004 1.53556,0.7991 1.11363,1.4713 -0.36227,0.5772 -2.97382,0.7942 -3.47893,0.2891 z m 6.33871,-0.011 c -0.20584,-0.2058 -0.3175,-1.2759 -0.3175,-3.0427 0,-2.5152 -0.0393,-2.7252 -0.51026,-2.7252 -0.5202,0 -1.34182,-0.648 -1.34182,-1.0583 0,-0.7132 0.90602,-1.0584 2.77812,-1.0584 1.87211,0 2.77813,0.3452 2.77813,1.0584 0,0.4103 -0.82162,1.0583 -1.34182,1.0583 -0.47094,0 -0.51026,0.21 -0.51026,2.7252 0,2.6548 -0.1944,3.3602 -0.92605,3.3602 -0.16007,0 -0.43391,-0.1429 -0.60854,-0.3175 z m 5.33536,-28.2767 c 0.50563,-0.3977 0.69714,-0.7922 0.69714,-1.436 0,-0.6438 -0.19151,-1.0383 -0.69714,-1.436 -0.68633,-0.5399 -0.92564,-0.5484 -15.44244,-0.5484 -14.5168,0 -14.75611,0.01 -15.44244,0.5484 -0.96411,0.7584 -0.96411,2.1136 0,2.872 0.68633,0.5399 0.92564,0.5484 15.44244,0.5484 14.5168,0 14.75611,-0.01 15.44244,-0.5484 z m -20.22335,-7.5436 c -0.46407,-0.5592 -0.001,-1.3007 0.81216,-1.3007 0.81321,0 1.27623,0.7415 0.81216,1.3007 -0.19128,0.2305 -0.55676,0.4191 -0.81216,0.4191 -0.25541,0 -0.62088,-0.1886 -0.81216,-0.4191 z m 7.9375,0 c -0.46407,-0.5592 -0.001,-1.3007 0.81216,-1.3007 0.81321,0 1.27623,0.7415 0.81216,1.3007 -0.19128,0.2305 -0.55675,0.4191 -0.81216,0.4191 -0.25541,0 -0.62088,-0.1886 -0.81216,-0.4191 z m -11.90625,-3.9687 c -0.46407,-0.5592 -0.001,-1.3008 0.81216,-1.3008 0.81321,0 1.27623,0.7416 0.81216,1.3008 -0.19128,0.2304 -0.55676,0.419 -0.81216,0.419 -0.25541,0 -0.62088,-0.1886 -0.81216,-0.419 z m 7.9375,0 c -0.46407,-0.5592 -0.001,-1.3008 0.81216,-1.3008 0.81321,0 1.27623,0.7416 0.81216,1.3008 -0.19128,0.2304 -0.55676,0.419 -0.81216,0.419 -0.25541,0 -0.62088,-0.1886 -0.81216,-0.419 z m 7.9375,0 c -0.46407,-0.5592 -0.001,-1.3008 0.81216,-1.3008 0.81321,0 1.27623,0.7416 0.81216,1.3008 -0.19128,0.2304 -0.55675,0.419 -0.81216,0.419 -0.25541,0 -0.62088,-0.1886 -0.81216,-0.419 z"
         id="path12936" /><path
         style="fill:#6e7179"
         d="m -184.41522,1214.8128 c -2.29799,-0.7079 -4.61682,-3.3965 -5.0978,-5.9107 -0.0945,-0.4938 0.54208,-9.1853 1.41453,-19.3146 0.87246,-10.1292 1.61703,-18.8543 1.65461,-19.389 0.0598,-0.8504 -0.0476,-1.0498 -0.85772,-1.5927 -1.27109,-0.8519 -1.91123,-2.1649 -1.76332,-3.6169 0.14191,-1.393 0.81296,-2.3688 2.11702,-3.0786 0.67288,-0.3662 0.9201,-0.6514 0.80282,-0.926 -0.74462,-1.7439 -0.93088,-2.645 -0.80543,-3.8967 0.38519,-3.8434 4.28813,-7.3255 9.93177,-8.8609 4.77437,-1.299 14.58798,-0.3916 14.58798,1.3488 0,0.1073 -0.16268,0.4176 -0.3615,0.6895 -0.35021,0.479 -0.41012,0.4797 -1.91823,0.024 -2.27256,-0.6867 -8.34366,-0.861 -10.94944,-0.3143 -2.43895,0.5117 -5.87371,2.1761 -7.22975,3.5034 -2.07422,2.0303 -2.6061,4.4905 -1.42258,6.5802 l 0.59937,1.0584 h 12.81546 12.81546 l 0.59937,-1.0584 c 1.22721,-2.1669 0.66254,-4.5161 -1.61904,-6.7358 -0.66685,-0.6487 -1.21246,-1.3691 -1.21246,-1.6007 0,-0.4966 0.50349,-1.0562 0.95035,-1.0562 0.59026,0 2.90353,2.3247 3.61615,3.6341 1.188,2.1827 1.21557,4.0669 0.0978,6.6847 -0.11728,0.2746 0.12994,0.5598 0.80282,0.926 2.72184,1.4814 2.9069,4.9845 0.3537,6.6955 -0.81012,0.5429 -0.91749,0.7423 -0.85772,1.5927 0.0376,0.5347 0.78429,9.2844 1.65935,19.4436 1.69694,19.7011 1.68819,19.3257 0.50474,21.6454 -0.71865,1.4087 -2.74882,3.079 -4.30346,3.5407 -1.90301,0.5651 -25.08337,0.5519 -26.92487,-0.015 z m 27.30065,-2.3212 c 0.64136,-0.3386 1.52329,-1.1232 1.95985,-1.7435 0.75099,-1.0672 0.79338,-1.2656 0.78684,-3.6839 -0.004,-1.4058 -0.10378,-3.5978 -0.22218,-4.8711 l -0.21529,-2.3151 h -16.09208 -16.09208 l -0.21529,2.3151 c -0.1184,1.2733 -0.21839,3.4653 -0.22219,4.8711 -0.007,2.4183 0.0359,2.6167 0.78685,3.6839 0.43656,0.6203 1.31849,1.4049 1.95985,1.7435 l 1.16609,0.6156 h 12.61677 12.61677 z m 2.08824,-15.1933 c -0.002,-0.2546 -0.23852,-3.0228 -0.52527,-6.1515 -0.28675,-3.1287 -0.52312,-5.8374 -0.52526,-6.0193 -0.003,-0.2583 -2.05905,-0.3307 -9.3873,-0.3307 -9.00631,0 -9.39441,-0.021 -9.65729,-0.5118 -0.35423,-0.6619 -0.35001,-0.6972 0.14188,-1.1891 0.36187,-0.3619 1.59666,-0.4158 9.525,-0.4158 8.50055,0 9.10896,-0.031 9.10532,-0.463 -0.002,-0.2547 -0.23851,-3.0229 -0.52526,-6.1516 -0.28675,-3.1287 -0.52312,-5.8969 -0.52527,-6.1515 -0.004,-0.4349 -0.82433,-0.4631 -13.49765,-0.4631 -12.67332,0 -13.49399,0.028 -13.49765,0.4631 -0.002,0.2546 -0.23852,3.0228 -0.52527,6.1515 -0.28675,3.1287 -0.52312,5.8969 -0.52526,6.1516 -0.004,0.4156 0.32302,0.463 3.18849,0.463 3.30781,0 4.21594,0.2186 4.21594,1.0147 0,0.9616 -0.5291,1.102 -4.15396,1.102 -1.93543,0 -3.51896,0.091 -3.51896,0.2028 0,0.1115 -0.23689,2.8797 -0.52643,6.1515 -0.28954,3.2718 -0.52766,6.0976 -0.52916,6.2795 -0.002,0.261 3.34719,0.3308 15.87226,0.3308 14.94415,0 15.87477,-0.027 15.8711,-0.4631 z m -27.34276,-2.1806 c -1.06118,-0.3315 -1.75751,-1.0333 -1.75751,-1.7713 0,-0.8352 0.68095,-1.0574 1.59167,-0.5195 0.40642,0.2401 1.05672,0.4365 1.44512,0.4365 1.07947,0 0.7395,-0.7784 -0.56301,-1.2892 -1.54865,-0.6072 -2.20919,-1.2844 -2.20919,-2.2648 0,-1.1411 0.62923,-1.9317 1.82189,-2.289 0.868,-0.2601 1.18364,-0.2251 2.25863,0.2505 1.00612,0.445 1.23298,0.6647 1.16423,1.1274 -0.12378,0.8331 -0.87621,1.2373 -1.53608,0.8252 -0.28957,-0.1808 -0.75921,-0.3288 -1.04364,-0.3288 -1.04554,0 -0.75143,0.4573 0.67415,1.0482 1.09743,0.4548 1.56664,0.8219 1.8737,1.4658 0.97324,2.0409 -1.3016,4.0644 -3.71996,3.309 z m 6.30982,-0.1036 c -0.57536,-0.4207 -0.50531,-0.7534 0.95406,-4.5316 1.70531,-4.415 2.38371,-4.3338 4.19015,0.5017 1.17869,3.1551 1.26194,3.6476 0.696,4.1173 -0.48409,0.4017 -1.36531,-0.026 -1.60432,-0.7794 -0.13426,-0.4231 -0.40021,-0.5295 -1.32301,-0.5295 -0.9228,0 -1.18874,0.1064 -1.323,0.5295 -0.2469,0.7779 -1.01516,1.1123 -1.58988,0.692 z m 3.3057,-3.272 c -0.002,-0.1092 -0.11946,-0.377 -0.26053,-0.5953 -0.2074,-0.321 -0.25725,-0.283 -0.26053,0.1984 -0.002,0.3274 0.11501,0.5953 0.26053,0.5953 0.14552,0 0.26276,-0.089 0.26053,-0.1984 z m 5.75874,3.3522 c -0.40456,-0.2356 -0.46302,-0.7178 -0.46302,-3.8191 0,-3.3152 0.036,-3.5687 0.54608,-3.8416 1.04517,-0.5594 1.30601,0.057 1.30601,3.0841 v 2.7457 h 0.74083 c 1.30485,0 1.90715,1.2846 0.86406,1.8428 -0.64973,0.3477 -2.38839,0.3408 -2.99396,-0.012 z m 6.20448,-0.032 c -0.20584,-0.2058 -0.3175,-1.2759 -0.3175,-3.0427 0,-2.5152 -0.0393,-2.7252 -0.51026,-2.7252 -0.5202,0 -1.34182,-0.648 -1.34182,-1.0583 0,-0.7088 0.90644,-1.0584 2.74411,-1.0584 2.05197,0 2.54756,0.2432 2.54756,1.2502 0,0.4718 -0.18493,0.6521 -0.79375,0.7739 l -0.79375,0.1587 v 2.7358 c 0,2.4339 -0.0565,2.7659 -0.51178,3.0096 -0.6378,0.3414 -0.63786,0.3414 -1.02281,-0.044 z m 5.2945,-28.089 c 1.08537,-0.8246 0.97157,-2.9942 -0.18026,-3.4362 -0.24636,-0.094 -7.13546,-0.1681 -15.30911,-0.1635 -11.82684,0.01 -14.95427,0.079 -15.31713,0.3548 -1.04027,0.7901 -1.03856,2.4533 0.003,3.2449 0.66366,0.5042 30.1395,0.5042 30.80316,0 z m -20.18249,-7.7313 c -0.46407,-0.5592 -0.001,-1.3007 0.81216,-1.3007 0.81321,0 1.27623,0.7415 0.81216,1.3007 -0.19128,0.2305 -0.55676,0.4191 -0.81216,0.4191 -0.25541,0 -0.62088,-0.1886 -0.81216,-0.4191 z m 7.9375,0 c -0.46407,-0.5592 -0.001,-1.3007 0.81216,-1.3007 0.81321,0 1.27623,0.7415 0.81216,1.3007 -0.19128,0.2305 -0.55675,0.4191 -0.81216,0.4191 -0.25541,0 -0.62088,-0.1886 -0.81216,-0.4191 z m -11.90625,-3.9687 c -0.46407,-0.5592 -0.001,-1.3008 0.81216,-1.3008 0.81321,0 1.27623,0.7416 0.81216,1.3008 -0.19128,0.2304 -0.55676,0.419 -0.81216,0.419 -0.25541,0 -0.62088,-0.1886 -0.81216,-0.419 z m 7.9375,0 c -0.46407,-0.5592 -0.001,-1.3008 0.81216,-1.3008 0.81321,0 1.27623,0.7416 0.81216,1.3008 -0.19128,0.2304 -0.55676,0.419 -0.81216,0.419 -0.25541,0 -0.62088,-0.1886 -0.81216,-0.419 z m 7.9375,0 c -0.46407,-0.5592 -0.001,-1.3008 0.81216,-1.3008 0.81321,0 1.27623,0.7416 0.81216,1.3008 -0.19128,0.2304 -0.55675,0.419 -0.81216,0.419 -0.25541,0 -0.62088,-0.1886 -0.81216,-0.419 z"
         id="path12935" /><path
         style="fill:#595c65"
         d="m -184.41522,1214.8128 c -1.45878,-0.4493 -3.50865,-2.1843 -4.21374,-3.5664 -1.12175,-2.1988 -1.12088,-2.2335 0.53642,-21.5548 0.86127,-10.041 1.6261,-18.7527 1.69961,-19.3593 0.12499,-1.0315 0.0753,-1.1375 -0.7649,-1.6333 -2.50272,-1.4766 -2.60726,-4.9576 -0.19723,-6.5671 0.47992,-0.3206 0.97835,-0.6206 1.10762,-0.6668 0.12928,-0.046 -0.007,-0.7983 -0.30349,-1.6714 -2.04272,-6.0215 4.54255,-11.6289 14.33058,-12.2026 4.0652,-0.2383 9.3775,0.7979 9.7126,1.8945 0.0463,0.1514 -0.0743,0.492 -0.268,0.7568 -0.33913,0.4638 -0.43933,0.4597 -2.71555,-0.112 -7.58626,-1.9052 -16.77355,0.7076 -19.00225,5.4042 -0.70907,1.4943 -0.50052,3.7656 0.46158,5.0269 l 0.72605,0.9519 h 12.40849 12.40849 l 0.72605,-0.9519 c 0.54347,-0.7125 0.75364,-1.3332 0.83574,-2.4681 0.13528,-1.8704 -0.48061,-3.2246 -2.2042,-4.8465 -1.25373,-1.1798 -1.47211,-1.864 -0.7279,-2.2805 0.62187,-0.348 1.5874,0.1858 2.83599,1.5678 2.02659,2.2432 2.63666,4.7322 1.77933,7.2595 -0.29619,0.8731 -0.43277,1.6252 -0.30349,1.6714 0.12927,0.046 0.6277,0.3462 1.10762,0.6668 2.41003,1.6095 2.30549,5.0905 -0.19723,6.5671 -0.83985,0.4955 -0.88991,0.6023 -0.76597,1.6333 0.0729,0.6066 0.8378,9.3183 1.69972,19.3593 1.65862,19.3222 1.65945,19.3554 0.53738,21.5548 -0.73765,1.4459 -2.75296,3.1151 -4.32445,3.5818 -1.90301,0.5651 -25.08337,0.5519 -26.92487,-0.015 z m 27.34819,-2.3155 c 0.69449,-0.4083 1.58745,-1.233 1.98438,-1.8328 0.65965,-0.9968 0.72168,-1.3082 0.72168,-3.6234 0,-1.3931 -0.1,-3.5747 -0.22219,-4.848 l -0.22219,-2.3151 h -16.0794 -16.07941 l -0.17089,1.454 c -0.094,0.7997 -0.24136,2.8535 -0.32751,4.5641 -0.14827,2.9443 -0.1224,3.1735 0.4855,4.3007 0.74569,1.3826 2.38612,2.637 3.82696,2.9264 0.55433,0.1114 6.36569,0.1831 12.91413,0.1594 l 11.90625,-0.043 z m 2.0407,-15.199 c -0.002,-0.2546 -0.23852,-3.0228 -0.52527,-6.1515 -0.28675,-3.1287 -0.52312,-5.8374 -0.52526,-6.0193 -0.003,-0.2583 -2.05905,-0.3307 -9.3873,-0.3307 -8.99506,0 -9.3947,-0.021 -9.65635,-0.51 -0.35792,-0.6688 -0.11424,-1.2523 0.60336,-1.4447 0.31736,-0.085 4.53584,-0.1564 9.37441,-0.1584 7.55292,0 8.79739,-0.059 8.79739,-0.3916 0,-1.0357 -1.10525,-12.703 -1.22112,-12.8905 -0.1746,-0.2825 -26.4884,-0.2808 -26.66301,0 -0.12536,0.2028 -1.22003,11.6608 -1.22003,12.7701 0,0.4711 0.22381,0.5066 3.19239,0.5066 3.30781,0 4.21594,0.2186 4.21594,1.0147 0,0.9616 -0.5291,1.102 -4.15396,1.102 -1.93543,0 -3.51896,0.091 -3.51896,0.2028 0,0.1115 -0.23689,2.8797 -0.52643,6.1515 -0.28954,3.2718 -0.52766,6.0976 -0.52916,6.2795 -0.002,0.261 3.34719,0.3308 15.87226,0.3308 14.94415,0 15.87477,-0.027 15.8711,-0.4631 z m -27.34276,-2.1806 c -1.06118,-0.3315 -1.75751,-1.0333 -1.75751,-1.7713 0,-0.8352 0.68095,-1.0574 1.59167,-0.5195 0.40642,0.2401 1.05672,0.4365 1.44512,0.4365 1.07947,0 0.7395,-0.7784 -0.56301,-1.2892 -1.54865,-0.6072 -2.20919,-1.2844 -2.20919,-2.2648 0,-1.1411 0.62923,-1.9317 1.82189,-2.289 0.868,-0.2601 1.18364,-0.2251 2.25863,0.2505 1.00612,0.445 1.23298,0.6647 1.16423,1.1274 -0.12378,0.8331 -0.87621,1.2373 -1.53608,0.8252 -0.28957,-0.1808 -0.75921,-0.3288 -1.04364,-0.3288 -1.04554,0 -0.75143,0.4573 0.67415,1.0482 1.09743,0.4548 1.56664,0.8219 1.8737,1.4658 0.97324,2.0409 -1.3016,4.0644 -3.71996,3.309 z m 6.30982,-0.1036 c -0.57536,-0.4207 -0.50531,-0.7534 0.95406,-4.5316 1.70531,-4.415 2.38371,-4.3338 4.19015,0.5017 1.17869,3.1551 1.26194,3.6476 0.696,4.1173 -0.48409,0.4017 -1.36531,-0.026 -1.60432,-0.7794 -0.13426,-0.4231 -0.40021,-0.5295 -1.32301,-0.5295 -0.9228,0 -1.18874,0.1064 -1.323,0.5295 -0.2469,0.7779 -1.01516,1.1123 -1.58988,0.692 z m 3.3057,-3.272 c -0.002,-0.1092 -0.11946,-0.377 -0.26053,-0.5953 -0.2074,-0.321 -0.25725,-0.283 -0.26053,0.1984 -0.002,0.3274 0.11501,0.5953 0.26053,0.5953 0.14552,0 0.26276,-0.089 0.26053,-0.1984 z m 5.75874,3.3522 c -0.40456,-0.2356 -0.46302,-0.7178 -0.46302,-3.8191 0,-3.3152 0.036,-3.5687 0.54608,-3.8416 1.04517,-0.5594 1.30601,0.057 1.30601,3.0841 v 2.7457 h 0.74083 c 1.30485,0 1.90715,1.2846 0.86406,1.8428 -0.64973,0.3477 -2.38839,0.3408 -2.99396,-0.012 z m 6.20448,-0.032 c -0.20584,-0.2058 -0.3175,-1.2759 -0.3175,-3.0427 0,-2.5152 -0.0393,-2.7252 -0.51026,-2.7252 -0.5202,0 -1.34182,-0.648 -1.34182,-1.0583 0,-0.7088 0.90644,-1.0584 2.74411,-1.0584 2.05197,0 2.54756,0.2432 2.54756,1.2502 0,0.4718 -0.18493,0.6521 -0.79375,0.7739 l -0.79375,0.1587 v 2.7358 c 0,2.4339 -0.0565,2.7659 -0.51178,3.0096 -0.6378,0.3414 -0.63786,0.3414 -1.02281,-0.044 z m 5.2945,-28.089 c 1.08537,-0.8246 0.97157,-2.9942 -0.18026,-3.4362 -0.24636,-0.094 -7.13546,-0.1681 -15.30911,-0.1635 -11.82684,0.01 -14.95427,0.079 -15.31713,0.3548 -1.04027,0.7901 -1.03856,2.4533 0.003,3.2449 0.66366,0.5042 30.1395,0.5042 30.80316,0 z m -20.18249,-7.7313 c -0.46407,-0.5592 -0.001,-1.3007 0.81216,-1.3007 0.81321,0 1.27623,0.7415 0.81216,1.3007 -0.19128,0.2305 -0.55676,0.4191 -0.81216,0.4191 -0.25541,0 -0.62088,-0.1886 -0.81216,-0.4191 z m 7.9375,0 c -0.46407,-0.5592 -0.001,-1.3007 0.81216,-1.3007 0.81321,0 1.27623,0.7415 0.81216,1.3007 -0.19128,0.2305 -0.55675,0.4191 -0.81216,0.4191 -0.25541,0 -0.62088,-0.1886 -0.81216,-0.4191 z m -11.90625,-3.9687 c -0.46407,-0.5592 -0.001,-1.3008 0.81216,-1.3008 0.81321,0 1.27623,0.7416 0.81216,1.3008 -0.19128,0.2304 -0.55676,0.419 -0.81216,0.419 -0.25541,0 -0.62088,-0.1886 -0.81216,-0.419 z m 7.9375,0 c -0.46407,-0.5592 -0.001,-1.3008 0.81216,-1.3008 0.81321,0 1.27623,0.7416 0.81216,1.3008 -0.19128,0.2304 -0.55676,0.419 -0.81216,0.419 -0.25541,0 -0.62088,-0.1886 -0.81216,-0.419 z m 7.9375,0 c -0.46407,-0.5592 -0.001,-1.3008 0.81216,-1.3008 0.81321,0 1.27623,0.7416 0.81216,1.3008 -0.19128,0.2304 -0.55675,0.419 -0.81216,0.419 -0.25541,0 -0.62088,-0.1886 -0.81216,-0.419 z"
         id="path12934" /><path
         style="fill:#2e2e2e"
         d="m -183.99431,1214.8588 c -3.58457,-1.1507 -5.49091,-3.7363 -5.45924,-7.4043 0.009,-1.0384 0.73246,-10.0437 1.60776,-20.0119 1.49005,-16.9692 1.56244,-18.1408 1.1361,-18.3885 -0.99071,-0.5757 -2.12365,-2.0011 -2.28837,-2.8791 -0.33583,-1.7902 0.65315,-3.7456 2.22332,-4.396 0.60375,-0.2501 0.77447,-0.4547 0.63945,-0.7664 -0.10131,-0.2339 -0.35323,-1.0544 -0.55982,-1.8234 -1.50004,-5.5835 4.80038,-10.8048 13.95437,-11.5644 2.57906,-0.214 6.47807,0.1811 8.53988,0.8652 1.14266,0.3792 1.38673,0.5722 1.45368,1.1495 0.11473,0.9894 -0.38012,1.0674 -2.76318,0.4355 -2.76346,-0.7327 -7.85429,-0.7723 -10.54645,-0.082 -7.09258,1.8183 -10.60628,6.2513 -8.20403,10.3505 l 0.68869,1.1751 12.73785,-0.069 12.73785,-0.069 0.63302,-1.2302 c 1.22923,-2.3888 0.7166,-4.6631 -1.53844,-6.8252 -1.47479,-1.414 -1.65037,-2.2094 -0.51621,-2.3383 1.44019,-0.1638 3.9778,2.8721 4.49891,5.3823 0.28345,1.3654 0.0518,3.045 -0.6404,4.6428 -0.13502,0.3117 0.0357,0.5163 0.63945,0.7664 1.57017,0.6504 2.55915,2.6058 2.22332,4.396 -0.16472,0.878 -1.29766,2.3034 -2.28837,2.8791 -0.42634,0.2477 -0.35395,1.4193 1.1361,18.3885 0.8753,9.9682 1.59879,18.9735 1.60776,20.0119 0.0273,3.1637 -1.58181,5.7646 -4.33698,7.0101 l -1.38685,0.627 -12.43542,0.053 c -9.52066,0.041 -12.68348,-0.026 -13.49375,-0.2862 z m 26.75579,-2.203 c 1.33142,-0.7122 2.3274,-1.8544 2.75992,-3.1649 0.3169,-0.9602 0.22887,-4.9343 -0.18784,-8.4798 l -0.16426,-1.3977 h -16.0663 -16.06631 l -0.17277,1.3891 c -0.095,0.764 -0.24777,2.88 -0.33943,4.7022 -0.14366,2.8563 -0.10241,3.44 0.29917,4.2333 0.83378,1.6472 2.00242,2.618 3.84178,3.1917 0.36474,0.1137 6.14005,0.1849 12.834,0.1583 11.99764,-0.048 12.18637,-0.057 13.26204,-0.6322 z m 2.21219,-15.4898 c -0.002,-0.3274 -0.23852,-3.1551 -0.52527,-6.2838 -0.28675,-3.1287 -0.52312,-5.7778 -0.52526,-5.887 -0.002,-0.1091 -4.16259,-0.1984 -9.24542,-0.1984 -8.0486,0 -9.29519,-0.054 -9.65729,-0.4158 -0.49902,-0.499 -0.5167,-0.7004 -0.0983,-1.1188 0.23478,-0.2348 2.71639,-0.3175 9.525,-0.3175 h 9.2075 l -0.003,-0.8599 c -0.002,-0.4729 -0.23844,-3.4793 -0.52604,-6.6807 -0.28761,-3.2015 -0.52433,-5.9102 -0.52604,-6.0193 -0.002,-0.1091 -6.07532,-0.1984 -13.49688,-0.1984 -7.42156,0 -13.49516,0.089 -13.49688,0.1984 -0.002,0.1091 -0.23843,2.8178 -0.52604,6.0193 -0.2876,3.2014 -0.52432,6.2044 -0.52604,6.6732 l -0.003,0.8525 3.63473,0.074 c 3.25494,0.066 3.64427,0.1233 3.72602,0.5493 0.20565,1.0718 -0.36005,1.2441 -4.08586,1.2441 -1.94671,0 -3.54088,0.03 -3.5426,0.066 -0.002,0.036 -0.23844,2.6855 -0.52604,5.887 -0.28761,3.2015 -0.52433,6.0887 -0.52604,6.4161 l -0.003,0.5954 h 15.875 15.875 z m -26.91083,-2.0622 c -1.3213,-0.2838 -2.18944,-0.9668 -2.18944,-1.7225 0,-0.8676 0.6677,-1.1002 1.59167,-0.5544 0.94242,0.5567 2.1125,0.5768 2.1125,0.036 0,-0.2299 -0.60956,-0.6698 -1.4328,-1.0338 -0.78805,-0.3485 -1.56195,-0.875 -1.7198,-1.1699 -0.69587,-1.3003 -0.0466,-2.7915 1.37852,-3.1664 1.75974,-0.4628 4.11098,0.7205 3.45554,1.7391 -0.29686,0.4614 -0.44918,0.4727 -2.27677,0.1693 -1.37875,-0.2289 -1.26998,0.2725 0.17917,0.8259 2.0281,0.7746 2.86657,2.1523 2.15145,3.5352 -0.22475,0.4346 -0.53242,0.8667 -0.68371,0.9602 -0.62044,0.3835 -1.7642,0.5532 -2.56633,0.381 z m 5.57126,-0.4057 c -0.0881,-0.2296 0.4225,-1.9263 1.13468,-3.7703 1.16087,-3.006 1.36545,-3.3611 1.97708,-3.4324 0.37521,-0.044 0.80008,0.075 0.94414,0.2646 0.4921,0.6465 2.51363,6.2768 2.42375,6.7506 -0.0549,0.2892 -0.37111,0.5051 -0.81488,0.5563 -0.57409,0.066 -0.77901,-0.058 -0.98337,-0.5953 -0.22273,-0.5858 -0.41667,-0.679 -1.41287,-0.679 -0.97493,0 -1.20163,0.103 -1.45608,0.6615 -0.3474,0.7624 -1.5513,0.9245 -1.81245,0.244 z m 3.61233,-2.956 c -0.005,-0.2533 -0.51563,-1.0521 -0.52106,-0.8154 -0.002,0.097 -0.0763,0.3651 -0.16465,0.5953 -0.10539,0.2746 -0.0144,0.4185 0.26458,0.4185 0.23385,0 0.42336,-0.089 0.42113,-0.1984 z m 5.41609,3.0409 c -0.0753,-0.1963 -0.10346,-1.8984 -0.0625,-3.7825 l 0.0744,-3.4256 h 0.79375 0.79375 l 0.0751,2.8443 c 0.0729,2.7605 0.0928,2.8442 0.67704,2.8442 0.84592,0 1.57231,0.6025 1.45671,1.2082 -0.0832,0.4359 -0.36225,0.5232 -1.88448,0.59 -1.31197,0.057 -1.82324,-0.017 -1.92379,-0.2786 z m 6.41817,0.1683 c -0.1037,-0.1037 -0.18854,-1.4189 -0.18854,-2.9226 0,-2.4564 -0.0484,-2.734 -0.47625,-2.734 -1.07311,0 -1.51346,-1.3536 -0.59947,-1.8428 0.28147,-0.1506 1.18227,-0.2739 2.00176,-0.2739 0.8195,0 1.7203,0.1233 2.00177,0.2739 0.90938,0.4867 0.47482,1.8428 -0.59052,1.8428 -0.41304,0 -0.47602,0.3302 -0.5424,2.8443 -0.0746,2.8254 -0.0795,2.8448 -0.74646,2.9225 -0.36924,0.043 -0.7562,-0.01 -0.85989,-0.1102 z m 5.22357,-27.7814 c 0.23556,-0.09 0.61187,-0.5193 0.83623,-0.9532 0.33563,-0.649 0.35091,-0.9265 0.0862,-1.5655 -0.17694,-0.4272 -0.53568,-0.8912 -0.7972,-1.0312 -0.63986,-0.3424 -30.01402,-0.3424 -30.65388,0 -0.26152,0.14 -0.62026,0.604 -0.7972,1.0312 -0.26516,0.6401 -0.24926,0.9168 0.0904,1.5737 0.22668,0.4383 0.56348,0.8579 0.74845,0.9323 0.48714,0.196 29.97725,0.2083 30.48694,0.013 z m -19.93245,-7.9784 c -0.32847,-0.6138 0.0973,-1.3822 0.76585,-1.3822 0.66227,0 1.09125,0.7938 0.75433,1.3959 -0.33204,0.5933 -1.1995,0.5855 -1.52018,-0.014 z m 7.9375,0 c -0.32847,-0.6138 0.0973,-1.3822 0.76585,-1.3822 0.66227,0 1.09125,0.7938 0.75433,1.3959 -0.33204,0.5933 -1.1995,0.5855 -1.52018,-0.014 z m -11.90625,-3.9687 c -0.32847,-0.6138 0.0973,-1.3823 0.76585,-1.3823 0.66227,0 1.09125,0.7939 0.75433,1.3959 -0.33204,0.5933 -1.1995,0.5855 -1.52018,-0.014 z m 7.9375,0 c -0.32847,-0.6138 0.0973,-1.3823 0.76585,-1.3823 0.66227,0 1.09125,0.7939 0.75433,1.3959 -0.33204,0.5933 -1.1995,0.5855 -1.52018,-0.014 z m 7.9375,0 c -0.32847,-0.6138 0.0973,-1.3823 0.76585,-1.3823 0.66227,0 1.09125,0.7939 0.75433,1.3959 -0.33204,0.5933 -1.1995,0.5855 -1.52018,-0.014 z"
         id="path12933" /><path
         style="fill:#010100"
         d="m -183.5586,1214.9467 c -3.4421,-0.6985 -5.86214,-3.7402 -5.85794,-7.3629 9.5e-4,-0.8184 0.71533,-9.7015 1.5875,-19.7401 0.87218,-10.0385 1.58578,-18.3736 1.58578,-18.5223 0,-0.1488 -0.35231,-0.4264 -0.78292,-0.617 -2.66506,-1.1797 -2.51101,-5.606 0.23731,-6.8186 l 1.0151,-0.4479 -0.49352,-1.0867 c -0.70997,-1.5633 -0.66069,-3.9171 0.11693,-5.5846 2.22016,-4.7611 10.09165,-7.8539 17.80082,-6.9943 3.4095,0.3802 5.49781,1.0273 5.60082,1.7355 0.14841,1.0204 -0.4677,1.1648 -2.46497,0.5775 -2.78198,-0.818 -8.4898,-0.822 -11.31915,-0.01 -6.84802,1.9703 -10.05512,6.1054 -7.84356,10.1132 l 0.657,1.1907 h 12.82197 12.82197 l 0.657,-1.1907 c 1.32057,-2.3931 0.6223,-5.1093 -1.85963,-7.2337 -0.8429,-0.7215 -1.04558,-1.0506 -0.91008,-1.4775 0.29246,-0.9214 1.25815,-0.6637 2.65058,0.7076 2.38847,2.3521 3.18333,5.5807 2.01002,8.1643 l -0.49352,1.0867 1.0151,0.4479 c 2.74832,1.2126 2.90237,5.6389 0.2373,6.8186 -0.4306,0.1906 -0.78291,0.4682 -0.78291,0.617 0,0.1487 0.7136,8.4838 1.58578,18.5223 0.87217,10.0386 1.58655,18.9217 1.5875,19.7401 0.003,2.9832 -1.52623,5.4647 -4.16842,6.7621 l -1.5184,0.7457 -12.17083,0.044 c -6.69396,0.024 -12.68914,-0.061 -13.32263,-0.1893 z m 25.49346,-1.8674 c 0.67934,-0.1858 1.49306,-0.7376 2.27229,-1.5407 1.73535,-1.7886 1.88989,-2.625 1.42116,-7.6918 -0.20866,-2.2556 -0.38091,-4.1308 -0.38277,-4.1672 -0.002,-0.036 -7.2662,-0.066 -16.14297,-0.066 -8.87677,0 -16.14111,0.03 -16.14297,0.066 -0.002,0.036 -0.17411,1.9116 -0.38277,4.1672 -0.45634,4.9328 -0.30381,5.8342 1.28063,7.5675 1.78228,1.9497 1.65223,1.9329 15.11282,1.9444 7.83141,0.01 12.26846,-0.089 12.96458,-0.2794 z m 3.04271,-16.0868 c 0,-1.0352 -0.76644,-10.2547 -0.94237,-11.3358 l -0.13994,-0.8599 h -9.06557 c -9.57983,0 -10.13885,-0.068 -9.91958,-1.2081 0.0945,-0.4914 0.47079,-0.517 9.48762,-0.644 l 9.38921,-0.1323 -0.0634,-0.7937 c -0.4595,-5.752 -0.89712,-10.8046 -1.01406,-11.7079 l -0.14558,-1.1244 h -13.47754 c -7.41265,0 -13.48377,0.03 -13.49138,0.066 -0.14505,0.6932 -1.1583,13.4902 -1.07475,13.5737 0.0651,0.065 1.69793,0.1185 3.6284,0.1185 3.33364,0 3.51881,0.028 3.68635,0.5558 0.31203,0.9831 -0.24991,1.1596 -3.9815,1.2505 l -3.55123,0.087 -0.13612,0.8395 c -0.1734,1.0695 -0.93856,10.2945 -0.93856,11.3155 v 0.7689 h 15.875 15.875 z m -28.24427,-2.4366 c -0.93441,-0.5984 -1.10068,-1.2924 -0.44084,-1.84 0.32808,-0.2723 0.51475,-0.2792 0.85989,-0.032 0.92117,0.6603 1.65439,0.8503 2.18537,0.5661 0.7121,-0.3811 0.41589,-0.7318 -1.23469,-1.4617 -2.13205,-0.9429 -2.55456,-2.2096 -1.19165,-3.5725 0.58774,-0.5877 1.01647,-0.7725 1.78594,-0.7695 1.88054,0.01 3.25899,1.1703 2.40233,2.027 -0.42509,0.4251 -0.51105,0.4258 -1.37991,0.011 -0.92601,-0.4416 -1.83148,-0.3635 -1.66251,0.1435 0.0492,0.1477 0.57818,0.4604 1.17543,0.695 1.55882,0.6121 2.19699,1.2796 2.19699,2.2979 0,1.2269 -0.2245,1.6661 -1.07725,2.107 -1.0593,0.5478 -2.60977,0.4739 -3.6191,-0.1725 z m 6.96867,0.097 c -0.0795,-0.2547 0.42509,-1.9513 1.12136,-3.7703 1.14546,-2.9925 1.33235,-3.3151 1.96371,-3.3896 0.82492,-0.097 0.96944,0.1468 2.43509,4.1107 0.55019,1.4881 0.93069,2.8871 0.84557,3.1089 -0.25341,0.6604 -1.36894,0.492 -1.71074,-0.2581 -0.25714,-0.5644 -0.47795,-0.6615 -1.50422,-0.6615 -1.03959,0 -1.23699,0.09 -1.45434,0.6615 -0.30146,0.7929 -1.46818,0.9293 -1.69643,0.1984 z m 3.54852,-3.0932 c 0,-0.2097 -0.11907,-0.4549 -0.26459,-0.5448 -0.14552,-0.09 -0.26458,-0.1067 -0.26458,-0.037 0,0.07 -0.0723,0.3146 -0.1606,0.5448 -0.10539,0.2746 -0.0144,0.4185 0.26458,0.4185 0.23385,0 0.42519,-0.1715 0.42519,-0.3812 z m 5.45662,3.1491 c -0.21219,-0.553 -0.21584,-6.2962 -0.004,-6.8473 0.20819,-0.5425 1.3227,-0.5425 1.53089,0 0.0883,0.2302 0.1606,1.5922 0.1606,3.0268 v 2.6082 l 0.99218,0.082 c 0.86005,0.071 0.99219,0.1702 0.99219,0.7436 0,0.6312 -0.0802,0.665 -1.75328,0.7389 -1.42152,0.063 -1.78448,0 -1.91822,-0.3523 z m 6.36143,0.2307 c -0.097,-0.097 -0.17639,-1.4583 -0.17639,-3.0251 v -2.8487 l -0.7276,-0.084 c -0.5774,-0.066 -0.72761,-0.2202 -0.72761,-0.7451 0,-0.6566 0.0176,-0.6615 2.38125,-0.6615 2.36362,0 2.38125,0 2.38125,0.6615 0,0.5249 -0.1502,0.6787 -0.7276,0.7451 l -0.7276,0.084 v 2.6066 c 0,1.4336 -0.0723,2.7949 -0.1606,3.0251 -0.1597,0.4162 -1.17827,0.579 -1.5151,0.2421 z m 5.78876,-28.2543 c 0.35719,-0.3571 0.64944,-0.9579 0.64944,-1.3349 0,-0.377 -0.29225,-0.9778 -0.64944,-1.3349 l -0.64943,-0.6495 h -15.20636 -15.20637 l -0.54837,0.6972 c -0.69574,0.8845 -0.69574,1.6899 0,2.5744 l 0.54837,0.6972 h 15.20637 15.20636 z m -20.1865,-7.1987 c -0.46352,-0.187 -0.41366,-1.3238 0.0661,-1.5079 0.63941,-0.2454 1.19063,0.1051 1.19063,0.7571 0,0.4656 -0.57031,1.0512 -0.88154,0.9052 -0.0245,-0.012 -0.19333,-0.081 -0.37523,-0.1544 z m 7.9375,0 c -0.46352,-0.187 -0.41366,-1.3238 0.0661,-1.5079 0.63941,-0.2454 1.19063,0.1051 1.19063,0.7571 0,0.4656 -0.57031,1.0512 -0.88154,0.9052 -0.0245,-0.012 -0.19333,-0.081 -0.37523,-0.1544 z m -11.90625,-3.9687 c -0.46352,-0.1871 -0.41366,-1.3239 0.0661,-1.508 0.63941,-0.2453 1.19063,0.1052 1.19063,0.7572 0,0.4656 -0.57031,1.0512 -0.88154,0.9051 -0.0245,-0.012 -0.19333,-0.081 -0.37523,-0.1543 z m 7.9375,0 c -0.46352,-0.1871 -0.41366,-1.3239 0.0661,-1.508 0.63941,-0.2453 1.19063,0.1052 1.19063,0.7572 0,0.4656 -0.57031,1.0512 -0.88154,0.9051 -0.0245,-0.012 -0.19333,-0.081 -0.37523,-0.1543 z m 7.9375,0 c -0.46352,-0.1871 -0.41366,-1.3239 0.0661,-1.508 0.63941,-0.2453 1.19063,0.1052 1.19063,0.7572 0,0.4656 -0.57031,1.0512 -0.88154,0.9051 -0.0245,-0.012 -0.19333,-0.081 -0.37523,-0.1543 z"
         id="path12932" /></g></g></svg>
