<?xml version="1.0" encoding="UTF-8" standalone="no"?>
<!-- Created with Inkscape (http://www.inkscape.org/) -->

<svg
   width="50.803761mm"
   height="67.73967mm"
   viewBox="0 0 50.803761 67.73967"
   version="1.1"
   id="svg1"
   xml:space="preserve"
   xmlns="http://www.w3.org/2000/svg"
   xmlns:svg="http://www.w3.org/2000/svg"><defs
     id="defs1" /><g
     id="layer1"
     transform="translate(-110.11455,-1223.0406)"><g
       id="g12944"
       transform="translate(85.862028,58.340236)"><path
         style="fill:#fed059"
         d="m 42.885523,1231.9369 c -3.209348,-1.4579 -4.779071,-5.4295 -3.439108,-8.7013 0.571109,-1.3945 2.641472,-3.2981 4.044045,-3.7183 1.413686,-0.4236 10.881934,-0.4236 12.29562,0 1.402572,0.4202 3.472936,2.3238 4.044045,3.7183 0.253751,0.6196 0.464981,1.7814 0.4694,2.5817 0.01307,2.3666 -1.513075,5.0807 -2.618374,4.6565 -0.614726,-0.2359 -2.66508,0.8064 -2.830471,1.4389 -0.129372,0.4947 -0.390026,0.5189 -5.518369,0.5134 -4.640024,0 -5.529396,-0.072 -6.446788,-0.4892 z m 1.402771,-16.1476 c -2.827366,-0.5884 -5.045782,-3.1658 -5.375594,-6.2455 -0.509801,-4.7605 1.054908,-9.4676 4.188901,-12.6016 1.205585,-1.2056 2.241029,-1.8916 4.599269,-3.0471 2.539981,-1.2445 3.213686,-1.7066 4.072788,-2.7934 2.631811,-3.3295 2.38678,-7.8328 -0.588055,-10.8077 l -1.317398,-1.3174 -0.802212,0.4678 c -1.881227,1.0969 -3.096859,3.3976 -3.411334,6.4563 -0.244698,2.38 -0.873795,3.744 -2.33629,5.0653 -1.737752,1.5699 -3.165404,1.842 -9.110287,1.7363 -5.033546,-0.089 -5.086383,-0.096 -6.465229,-0.8605 -1.470458,-0.8147 -2.489479,-1.9426 -3.121253,-3.4546 -0.516286,-1.2357 -0.487087,-4.416 0.06355,-6.9219 0.384388,-1.7494 0.542562,-2.0699 1.131048,-2.292 0.800588,-0.3022 1.767834,-2.239 1.334552,-2.6722 -0.450874,-0.4509 -0.306204,-0.9254 0.761546,-2.4977 2.949298,-4.3431 7.599526,-7.5319 12.802663,-8.7793 1.865429,-0.4473 3.12414,-0.5221 8.808569,-0.5237 7.214946,0 8.722665,0.1716 11.811586,1.3601 9.725405,3.7419 15.385232,14.0648 13.285351,24.231 -1.374713,6.6554 -5.940497,12.3936 -12.048475,15.1421 l -2.014075,0.9064 -0.149488,2.3074 c -0.215273,3.3227 -1.328354,5.2774 -3.708962,6.5131 -1.333834,0.6923 -1.514834,0.7142 -6.39974,0.773 -2.764896,0.033 -5.470041,-0.032 -6.011434,-0.1442 z"
         id="path12957" /><path
         style="fill:#fdc243"
         d="m 42.885523,1231.9397 c -3.212258,-1.4678 -4.778883,-5.4328 -3.439108,-8.7041 0.571109,-1.3945 2.641472,-3.2981 4.044045,-3.7183 1.40539,-0.4211 10.881523,-0.4237 12.284333,0 1.185038,0.355 3.222444,2.0399 3.78705,3.1317 1.08028,2.089 0.988206,4.8694 -0.219985,6.643 -0.906402,1.3305 -1.43802,1.5413 -2.039481,0.8085 -0.499957,-0.6091 -0.498212,-0.6277 0.180942,-1.9266 1.215693,-2.3249 0.515465,-5.15 -1.539966,-6.2129 -0.736644,-0.3809 -0.837997,-0.3756 -1.339425,0.07 -0.823913,0.7324 -1.514453,2.4603 -1.514453,3.7895 0,1.5567 0.72265,3.1003 1.96005,4.1867 0.909545,0.7986 0.94906,0.8873 0.453277,1.0169 -0.298721,0.078 -0.579586,0.3978 -0.624143,0.7104 -0.07952,0.5579 -0.18069,0.5695 -5.504972,0.6315 -4.787175,0.056 -5.548899,0.01 -6.488164,-0.4231 z m 1.402771,-16.1504 c -2.827366,-0.5884 -5.045782,-3.1658 -5.375594,-6.2455 -0.509801,-4.7605 1.054908,-9.4676 4.188901,-12.6016 1.205585,-1.2056 2.241029,-1.8916 4.599269,-3.0471 2.539981,-1.2445 3.213686,-1.7066 4.072788,-2.7934 2.631811,-3.3295 2.38678,-7.8328 -0.588055,-10.8077 l -1.317398,-1.3174 -0.802212,0.4678 c -1.881227,1.0969 -3.096859,3.3976 -3.411334,6.4563 -0.244698,2.38 -0.873795,3.744 -2.33629,5.0653 -1.737752,1.5699 -3.165404,1.842 -9.110287,1.7363 -5.033546,-0.089 -5.086383,-0.096 -6.465229,-0.8605 -1.470458,-0.8147 -2.489479,-1.9426 -3.121253,-3.4546 -0.516286,-1.2357 -0.487087,-4.416 0.06355,-6.9219 0.393385,-1.7903 0.533897,-2.0666 1.173722,-2.3081 0.899091,-0.3394 1.814591,-2.1334 1.333952,-2.6141 -0.495489,-0.4955 -0.37147,-0.9332 0.719472,-2.5397 2.949298,-4.3431 7.599526,-7.5319 12.802663,-8.7793 1.865429,-0.4473 3.12414,-0.5221 8.808569,-0.5237 7.214946,0 8.722665,0.1716 11.811586,1.3601 9.725405,3.7419 15.385232,14.0648 13.285351,24.231 -1.374713,6.6554 -5.940497,12.3936 -12.048475,15.1421 l -2.014075,0.9064 -0.149488,2.3074 c -0.215273,3.3227 -1.328354,5.2774 -3.708962,6.5131 -1.333834,0.6923 -1.514834,0.7142 -6.39974,0.773 -2.764896,0.033 -5.470041,-0.032 -6.011434,-0.1442 z m 12.319624,-3.1999 c 1.18594,-1.0413 1.44136,-1.787 1.56442,-4.5676 0.09204,-2.0797 0.175168,-2.3932 0.810455,-3.0563 0.389341,-0.4063 1.290246,-0.9483 2.002011,-1.2042 1.9837,-0.7133 5.115207,-2.9002 6.779699,-4.7345 2.534008,-2.7927 4.023298,-5.7398 4.774418,-9.4481 1.377287,-6.7997 -1.292928,-14.0432 -6.827694,-18.5216 -3.236437,-2.6187 -6.784877,-3.9397 -11.178165,-4.1612 l -2.645834,-0.1334 -2.424003,1.2202 c -5.142225,2.5884 -9.309692,7.8109 -10.526574,13.1915 -0.936587,4.1412 -0.774733,6.5494 0.545639,8.1186 0.8001,0.9509 1.309586,0.9964 2.248391,0.2009 1.158267,-0.9814 1.530825,-1.8303 1.779784,-4.0555 0.323988,-2.8959 1.303259,-5.0081 3.117249,-6.7237 2.8399,-2.6859 6.612049,-3.569 10.350592,-2.4231 0.983449,0.3014 2.347324,0.6206 3.030834,0.7094 1.798077,0.2335 4.257823,1.5582 5.487615,2.9554 2.967011,3.3707 2.96147,8.7183 -0.01253,12.097 -0.796659,0.905 -1.782769,1.5643 -3.862917,2.5828 -3.55037,1.7383 -5.752373,3.7124 -7.062917,6.332 -1.188921,2.3765 -1.548891,4.2149 -1.438391,7.3459 0.0786,2.2273 0.184773,2.7154 0.828907,3.8112 0.876016,1.4903 1.388518,1.5798 2.659016,0.4643 z"
         id="path12956" /><path
         style="fill:#a3a3a3"
         d="m 42.885523,1231.9397 c -3.212258,-1.4678 -4.778883,-5.4328 -3.439108,-8.7041 0.571109,-1.3945 2.641472,-3.2981 4.044045,-3.7183 1.40539,-0.4211 10.881523,-0.4237 12.284333,0 1.185038,0.355 3.222444,2.0399 3.78705,3.1317 1.08028,2.089 0.988206,4.8694 -0.219985,6.643 -0.906402,1.3305 -1.43802,1.5413 -2.039481,0.8085 -0.499957,-0.6091 -0.498212,-0.6277 0.180942,-1.9266 0.85946,-1.6436 0.793633,-3.6427 -0.16425,-4.9879 -0.694472,-0.9753 -2.382406,-1.8486 -3.589841,-1.8574 -1.167568,-0.01 -3.067929,1.0453 -3.758093,2.0839 -0.714884,1.0757 -0.815237,3.3363 -0.200852,4.5244 0.602656,1.1654 2.084036,2.1635 3.437315,2.3161 1.337185,0.1507 1.802617,0.5505 1.676503,1.4401 l -0.08646,0.6099 -5.423958,0.063 c -4.787175,0.056 -5.548899,0.01 -6.488164,-0.4231 z m 1.402771,-16.1504 c -2.827366,-0.5884 -5.045782,-3.1658 -5.375594,-6.2455 -0.509801,-4.7605 1.054908,-9.4676 4.188901,-12.6016 1.205585,-1.2056 2.241029,-1.8916 4.599269,-3.0471 2.539981,-1.2445 3.213686,-1.7066 4.072788,-2.7934 2.631811,-3.3295 2.38678,-7.8328 -0.588055,-10.8077 l -1.317398,-1.3174 -0.802212,0.4678 c -1.881227,1.0969 -3.096859,3.3976 -3.411334,6.4563 -0.244698,2.38 -0.873795,3.744 -2.33629,5.0653 -1.737752,1.5699 -3.165404,1.842 -9.110287,1.7363 -5.033546,-0.089 -5.086383,-0.096 -6.465229,-0.8605 -1.470458,-0.8147 -2.489479,-1.9426 -3.121253,-3.4546 -0.516286,-1.2357 -0.487087,-4.416 0.06355,-6.9219 0.393385,-1.7903 0.533897,-2.0666 1.173722,-2.3081 0.899091,-0.3394 1.814591,-2.1334 1.333952,-2.6141 -0.495489,-0.4955 -0.37147,-0.9332 0.719472,-2.5397 2.949298,-4.3431 7.599526,-7.5319 12.802663,-8.7793 1.865429,-0.4473 3.12414,-0.5221 8.808569,-0.5237 7.214946,0 8.722665,0.1716 11.811586,1.3601 9.725405,3.7419 15.385232,14.0648 13.285351,24.231 -1.374713,6.6554 -5.940497,12.3936 -12.048475,15.1421 l -2.014075,0.9064 -0.149488,2.3074 c -0.215273,3.3227 -1.328354,5.2774 -3.708962,6.5131 -1.333834,0.6923 -1.514834,0.7142 -6.39974,0.773 -2.764896,0.033 -5.470041,-0.032 -6.011434,-0.1442 z m 11.702667,-2.7381 c 1.647072,-1.121 1.96595,-1.8253 2.138939,-4.7243 0.142066,-2.3807 0.225038,-2.706 0.859021,-3.3678 0.385971,-0.4028 1.284118,-0.9419 1.995883,-1.1978 1.9837,-0.7133 5.115207,-2.9002 6.779699,-4.7345 2.534008,-2.7927 4.023298,-5.7398 4.774418,-9.4481 1.377287,-6.7997 -1.292928,-14.0432 -6.827694,-18.5216 -10.370135,-8.3909 -26.101171,-3.6517 -30.271406,9.1196 -0.546416,1.6734 -0.697373,2.68 -0.720834,4.8066 -0.0331,3.0004 0.211927,3.5957 1.979027,4.8077 0.755017,0.5179 1.159979,0.6026 2.489214,0.5205 2.778345,-0.1716 3.944984,-1.4924 4.325964,-4.8977 0.452348,-4.0432 2.588632,-7.1312 6.058233,-8.7571 1.335022,-0.6257 1.847176,-0.7133 4.167887,-0.7133 2.316898,0 2.83392,0.088 4.158738,0.7091 2.112591,0.9901 4.005015,2.8481 5.03784,4.9461 0.79412,1.6131 0.857589,1.9382 0.857589,4.3934 0,2.3229 -0.08785,2.8388 -0.709098,4.1643 -1.166075,2.4879 -2.817551,4.0116 -5.989846,5.5266 -3.377131,1.6128 -5.316389,3.4075 -6.681113,6.1832 -0.870486,1.7704 -0.911028,1.9859 -0.995445,5.2916 -0.08321,3.2585 -0.05405,3.4962 0.535463,4.3658 1.440417,2.125 4.151886,2.811 6.037521,1.5277 z"
         id="path12955" /><path
         style="fill:#e2b149"
         d="m 43.815723,1232.1875 c -1.309638,-0.4039 -2.341725,-1.0825 -3.236542,-2.1279 -3.018858,-3.5269 -1.36313,-9.1397 3.08784,-10.4676 1.826168,-0.5448 10.11633,-0.5448 11.942498,0 4.174187,1.2454 5.984237,6.4217 3.495266,9.9956 -0.578759,0.8311 -1.62881,0.9751 -2.019481,0.277 -0.183202,-0.3273 -0.06947,-0.8 0.415803,-1.7281 0.841089,-1.6085 0.767141,-3.6209 -0.182038,-4.9539 -0.694472,-0.9753 -2.382406,-1.8486 -3.589841,-1.8574 -1.167568,-0.01 -3.067929,1.0453 -3.758093,2.0839 -0.714884,1.0757 -0.815237,3.3363 -0.200852,4.5244 0.594592,1.1498 2.051648,2.1327 3.462054,2.3353 1.412935,0.2031 2.010743,0.8135 1.535384,1.5678 -0.259335,0.4115 -0.847948,0.4682 -5.290314,0.5093 -2.749182,0.025 -5.296939,-0.046 -5.661684,-0.1584 z m -0.924328,-16.9194 c -1.385044,-0.6326 -3.193431,-2.6237 -3.550315,-3.909 -0.416838,-1.5012 -0.351107,-6.0833 0.112816,-7.8644 1.17734,-4.5201 4.335328,-8.0587 8.670919,-9.716 3.310753,-1.2656 5.481592,-4.302 5.481996,-7.6679 2.97e-4,-2.4677 -0.616438,-4.0427 -2.238902,-5.7178 -0.749492,-0.7738 -1.507463,-1.4069 -1.684379,-1.4069 -0.583054,0 -2.653982,2.1375 -3.236237,3.3403 -0.314309,0.6492 -0.689319,2.1553 -0.833355,3.3467 -0.419129,3.4669 -1.644873,5.3133 -4.249641,6.4017 -1.333428,0.5571 -11.67329,0.59 -12.986581,0.041 -1.242073,-0.519 -2.752455,-1.9217 -3.427431,-3.1831 -0.502239,-0.9386 -0.573599,-1.4547 -0.533892,-3.8615 0.05576,-3.3798 0.527632,-5.2969 1.412616,-5.7391 0.346877,-0.1733 0.856538,-0.7553 1.132582,-1.2934 0.422558,-0.8236 0.449547,-1.0761 0.17073,-1.597 -0.295705,-0.5526 -0.222816,-0.782 0.680713,-2.1428 2.818287,-4.2447 7.177101,-7.4084 12.221077,-8.8703 1.927967,-0.5587 2.558925,-0.598 9.604159,-0.598 7.045234,0 7.676192,0.039 9.604159,0.598 7.390068,2.1419 12.955747,7.7107 15.056936,15.0655 0.774561,2.7112 0.827896,8.0412 0.106695,10.6625 -1.787802,6.4979 -6.401023,11.8887 -12.332373,14.4109 -1.828514,0.7775 -1.851938,0.814 -1.853559,2.8856 -0.002,2.5728 -0.374428,3.7149 -1.672255,5.1284 -1.882298,2.0502 -2.373309,2.1697 -8.909603,2.1697 -4.946539,0 -5.826589,-0.063 -6.746875,-0.4834 z m 13.099566,-2.2169 c 1.647072,-1.121 1.96595,-1.8253 2.138939,-4.7243 0.142066,-2.3807 0.225038,-2.706 0.859021,-3.3678 0.385971,-0.4028 1.284118,-0.9419 1.995883,-1.1978 1.9837,-0.7133 5.115207,-2.9002 6.779699,-4.7345 2.534008,-2.7927 4.023298,-5.7398 4.774418,-9.4481 1.377287,-6.7997 -1.292928,-14.0432 -6.827694,-18.5216 -10.370135,-8.3909 -26.101171,-3.6517 -30.271406,9.1196 -0.546416,1.6734 -0.697373,2.68 -0.720834,4.8066 -0.0331,3.0004 0.211927,3.5957 1.979027,4.8077 0.755017,0.5179 1.159979,0.6026 2.489214,0.5205 2.778345,-0.1716 3.944984,-1.4924 4.325964,-4.8977 0.452348,-4.0432 2.588632,-7.1312 6.058233,-8.7571 1.335022,-0.6257 1.847176,-0.7133 4.167887,-0.7133 2.316898,0 2.83392,0.088 4.158738,0.7091 2.112591,0.9901 4.005015,2.8481 5.03784,4.9461 0.79412,1.6131 0.857589,1.9382 0.857589,4.3934 0,2.3229 -0.08785,2.8388 -0.709098,4.1643 -1.166075,2.4879 -2.817551,4.0116 -5.989846,5.5266 -3.377131,1.6128 -5.316389,3.4075 -6.681113,6.1832 -0.870486,1.7704 -0.911028,1.9859 -0.995445,5.2916 -0.08321,3.2585 -0.05405,3.4962 0.535463,4.3658 1.440417,2.125 4.151886,2.811 6.037521,1.5277 z"
         id="path12954" /><path
         style="fill:#daa639"
         d="m 43.815723,1232.1875 c -1.309638,-0.4039 -2.341725,-1.0825 -3.236542,-2.1279 -3.018858,-3.5269 -1.36313,-9.1397 3.08784,-10.4676 1.826168,-0.5448 10.11633,-0.5448 11.942498,0 4.183336,1.2481 5.984576,6.4225 3.484715,10.0105 -0.384216,0.5514 -0.69707,0.7216 -1.216302,0.6614 -0.911435,-0.1055 -1.035182,-0.9243 -0.317601,-2.1013 0.772546,-1.2672 0.747173,-3.5497 -0.05284,-4.7535 -0.689994,-1.0383 -2.585878,-2.0897 -3.768177,-2.0897 -1.1823,0 -3.078184,1.0514 -3.768177,2.0897 -0.833314,1.2539 -0.834345,3.5694 -0.0021,4.7922 0.863253,1.2683 1.781029,1.8546 3.229367,2.0627 1.446928,0.2079 2.049111,0.8113 1.569355,1.5726 -0.259335,0.4115 -0.847948,0.4682 -5.290314,0.5093 -2.749182,0.025 -5.296939,-0.046 -5.661684,-0.1584 z m -0.924328,-16.9194 c -1.385044,-0.6326 -3.193431,-2.6237 -3.550315,-3.909 -0.416838,-1.5012 -0.351107,-6.0833 0.112816,-7.8644 1.17734,-4.5201 4.335328,-8.0587 8.670919,-9.716 3.310753,-1.2656 5.481592,-4.302 5.481996,-7.6679 2.97e-4,-2.4677 -0.616438,-4.0427 -2.238902,-5.7178 -0.749492,-0.7738 -1.507463,-1.4069 -1.684379,-1.4069 -0.583054,0 -2.653982,2.1375 -3.236237,3.3403 -0.314309,0.6492 -0.689319,2.1553 -0.833355,3.3467 -0.419129,3.4669 -1.644873,5.3133 -4.249641,6.4017 -1.333428,0.5571 -11.67329,0.59 -12.986581,0.041 -1.242073,-0.519 -2.752455,-1.9217 -3.427431,-3.1831 -0.482472,-0.9016 -0.578198,-1.505 -0.570623,-3.5969 0.0089,-2.4569 0.459774,-5.0938 0.983986,-5.7547 0.144282,-0.1819 0.456112,-0.3312 0.692955,-0.3317 0.259686,-6e-4 0.621037,-0.4641 0.910305,-1.1676 0.396549,-0.9643 0.422109,-1.2587 0.147484,-1.6984 -0.289568,-0.4637 -0.201135,-0.7294 0.689163,-2.0703 2.828172,-4.2595 7.179819,-7.4206 12.230556,-8.8845 1.927967,-0.5587 2.558925,-0.598 9.604159,-0.598 7.045234,0 7.676192,0.039 9.604159,0.598 7.390068,2.1419 12.955747,7.7107 15.056936,15.0655 0.774561,2.7112 0.827896,8.0412 0.106695,10.6625 -1.787802,6.4979 -6.401023,11.8887 -12.332373,14.4109 -1.828514,0.7775 -1.851938,0.814 -1.853559,2.8856 -0.002,2.5728 -0.374428,3.7149 -1.672255,5.1284 -1.882298,2.0502 -2.373309,2.1697 -8.909603,2.1697 -4.946539,0 -5.826589,-0.063 -6.746875,-0.4834 z m 13.099566,-2.2169 c 1.617978,-1.1012 1.963525,-1.839 2.139882,-4.5687 0.103356,-1.5998 0.311609,-2.7131 0.585783,-3.1316 0.249194,-0.3803 1.607999,-1.2294 3.2803,-2.0499 2.47264,-1.2132 3.156004,-1.7037 5.103845,-3.6636 2.575654,-2.5915 3.687527,-4.3366 4.85353,-7.6176 0.775116,-2.1811 0.823235,-2.5369 0.814455,-6.0223 -0.0083,-3.2932 -0.08764,-3.939 -0.715221,-5.8208 -1.015369,-3.0447 -2.406361,-5.2587 -4.820515,-7.6729 -2.414153,-2.4141 -4.628213,-3.8051 -7.672875,-4.8205 -1.884909,-0.6286 -2.522241,-0.7065 -5.820833,-0.7118 -3.372178,-0.01 -3.893875,0.06 -5.820834,0.7279 -3.077303,1.067 -5.542643,2.6205 -7.805208,4.9185 -3.628257,3.685 -5.362449,7.6552 -5.401598,12.3663 -0.02486,2.9919 0.225774,3.6038 1.959324,4.7836 1.27195,0.8657 3.500757,0.8317 4.833192,-0.074 1.315022,-0.8936 1.762836,-1.8519 2.052612,-4.3926 0.447238,-3.9214 2.457624,-6.8728 5.793307,-8.505 1.610291,-0.788 1.945342,-0.8531 4.389205,-0.8531 2.443863,0 2.778914,0.065 4.389205,0.8531 2.099659,1.0274 3.96237,2.9226 4.955864,5.0423 0.623005,1.3292 0.708331,1.8341 0.702781,4.1587 -0.0055,2.3002 -0.09818,2.8436 -0.709495,4.1592 -1.162655,2.5022 -2.765103,3.9661 -6.149441,5.618 -3.460154,1.6889 -5.249127,3.3499 -6.510064,6.0445 -1.436273,3.0692 -1.648766,7.9419 -0.425496,9.7571 1.395552,2.0709 4.133456,2.7441 5.998295,1.4749 z"
         id="path12953" /><path
         style="fill:#fc7b41"
         d="m 43.815723,1232.1875 c -1.309638,-0.4039 -2.341725,-1.0825 -3.236542,-2.1279 -3.018858,-3.5269 -1.36313,-9.1397 3.08784,-10.4676 1.826168,-0.5448 10.11633,-0.5448 11.942498,0 4.183336,1.2481 5.984576,6.4225 3.484715,10.0105 -0.384216,0.5514 -0.69707,0.7216 -1.216302,0.6614 -0.911435,-0.1055 -1.035182,-0.9243 -0.317601,-2.1013 0.657028,-1.0777 0.731829,-3.3324 0.148009,-4.4614 -1.376508,-2.6619 -5.284778,-3.1544 -7.251961,-0.9139 -1.564494,1.7819 -1.613072,4.1613 -0.121154,5.9344 0.866368,1.0296 1.45392,1.3397 2.944587,1.5539 1.365498,0.1963 1.956925,0.8168 1.487909,1.561 -0.259335,0.4115 -0.847948,0.4682 -5.290314,0.5093 -2.749182,0.025 -5.296939,-0.046 -5.661684,-0.1584 z m -0.924328,-16.9194 c -1.385044,-0.6326 -3.193431,-2.6237 -3.550315,-3.909 -0.416838,-1.5012 -0.351107,-6.0833 0.112816,-7.8644 1.17734,-4.5201 4.335328,-8.0587 8.670919,-9.716 3.310753,-1.2656 5.481592,-4.302 5.481996,-7.6679 2.97e-4,-2.4677 -0.616438,-4.0427 -2.238902,-5.7178 -0.749492,-0.7738 -1.507463,-1.4069 -1.684379,-1.4069 -0.583054,0 -2.653982,2.1375 -3.236237,3.3403 -0.314309,0.6492 -0.689319,2.1553 -0.833355,3.3467 -0.419129,3.4669 -1.644873,5.3133 -4.249641,6.4017 -1.333428,0.5571 -11.67329,0.59 -12.986581,0.041 -1.242073,-0.519 -2.752455,-1.9217 -3.427431,-3.1831 -0.482472,-0.9016 -0.578198,-1.505 -0.570623,-3.5969 0.0089,-2.4569 0.459774,-5.0938 0.983986,-5.7547 0.144282,-0.1819 0.456112,-0.3312 0.692955,-0.3317 0.259686,-6e-4 0.621037,-0.4641 0.910305,-1.1676 0.396549,-0.9643 0.422109,-1.2587 0.147484,-1.6984 -0.289568,-0.4637 -0.201135,-0.7294 0.689163,-2.0703 2.828172,-4.2595 7.179819,-7.4206 12.230556,-8.8845 1.927967,-0.5587 2.558925,-0.598 9.604159,-0.598 7.045234,0 7.676192,0.039 9.604159,0.598 7.390068,2.1419 12.955747,7.7107 15.056936,15.0655 0.774561,2.7112 0.827896,8.0412 0.106695,10.6625 -1.787802,6.4979 -6.401023,11.8887 -12.332373,14.4109 -1.828514,0.7775 -1.851938,0.814 -1.853559,2.8856 -0.002,2.5728 -0.374428,3.7149 -1.672255,5.1284 -1.882298,2.0502 -2.373309,2.1697 -8.909603,2.1697 -4.946539,0 -5.826589,-0.063 -6.746875,-0.4834 z m 13.095806,-2.182 c 1.469698,-0.826 2.027971,-2.0502 2.188612,-4.7994 0.086,-1.4717 0.288937,-2.5513 0.556283,-2.9594 0.246885,-0.3768 1.584814,-1.2037 3.236221,-2.0003 2.444783,-1.1792 3.119329,-1.6603 5.125031,-3.6552 2.557181,-2.5433 3.897799,-4.6773 4.989119,-7.9416 0.598931,-1.7915 0.678155,-2.4612 0.678155,-5.7327 0,-3.2714 -0.07922,-3.9411 -0.678155,-5.7326 -1.089521,-3.2589 -2.432715,-5.4001 -4.955037,-7.8986 -1.772719,-1.7561 -2.772625,-2.5024 -4.524576,-3.3771 -5.842906,-2.9173 -11.870605,-2.9185 -17.727084,0 -1.792325,0.8921 -2.73703,1.6047 -4.652752,3.5094 -2.027766,2.0161 -2.597776,2.7831 -3.643848,4.9035 -1.377079,2.7913 -2.010641,5.3087 -2.017557,8.0168 -0.0052,2.0272 0.364476,2.9559 1.585434,3.9832 2.143778,1.8039 5.306368,1.2706 6.713326,-1.1321 0.292941,-0.5002 0.585449,-1.7167 0.71008,-2.953 0.351761,-3.4893 1.912631,-6.108 4.69272,-7.873 5.636891,-3.5786 13.131655,-0.8665 15.132213,5.4761 0.672677,2.1326 0.672677,4.0293 0,6.1619 -0.921673,2.9221 -3.24817,5.3969 -6.084199,6.4722 -5.438209,2.0618 -8.622575,7.3337 -8.114236,13.4336 0.255902,3.0708 1.777923,4.6434 4.506337,4.6562 0.829815,0 1.641013,-0.193 2.283913,-0.5544 z"
         id="path12952" /><path
         style="fill:#dd6c39"
         d="m 43.815723,1232.1875 c -1.309638,-0.4039 -2.341725,-1.0825 -3.236542,-2.1279 -3.018858,-3.5269 -1.36313,-9.1397 3.08784,-10.4676 1.826168,-0.5448 10.11633,-0.5448 11.942498,0 4.183336,1.2481 5.984576,6.4225 3.484715,10.0105 -0.384216,0.5514 -0.69707,0.7216 -1.216302,0.6614 -0.911435,-0.1055 -1.035182,-0.9243 -0.317601,-2.1013 0.657028,-1.0777 0.731829,-3.3324 0.148009,-4.4614 -1.376508,-2.6619 -5.284778,-3.1544 -7.251961,-0.9139 -1.564494,1.7819 -1.613072,4.1613 -0.121154,5.9344 0.866368,1.0296 1.45392,1.3397 2.944587,1.5539 1.365498,0.1963 1.956925,0.8168 1.487909,1.561 -0.259335,0.4115 -0.847948,0.4682 -5.290314,0.5093 -2.749182,0.025 -5.296939,-0.046 -5.661684,-0.1584 z m 4.023941,-3.2503 c -0.564923,-1.0888 -0.714936,-1.7435 -0.714936,-3.1199 0,-1.3764 0.150013,-2.031 0.714936,-3.1199 l 0.714936,-1.378 -1.905561,0.01 c -2.301081,0.01 -3.79996,0.6058 -4.709861,1.8816 -0.90114,1.2635 -0.910777,3.9441 -0.01868,5.1948 0.974986,1.367 2.235076,1.8884 4.596245,1.902 l 2.037853,0.012 z m -4.948269,-13.6691 c -1.385044,-0.6326 -3.193431,-2.6237 -3.550315,-3.909 -0.416838,-1.5012 -0.351107,-6.0833 0.112816,-7.8644 1.17734,-4.5201 4.335328,-8.0587 8.670919,-9.716 3.310753,-1.2656 5.481592,-4.302 5.481996,-7.6679 2.97e-4,-2.4677 -0.616438,-4.0427 -2.238902,-5.7178 -0.749492,-0.7738 -1.507463,-1.4069 -1.684379,-1.4069 -0.583054,0 -2.653982,2.1375 -3.236237,3.3403 -0.314309,0.6492 -0.689319,2.1553 -0.833355,3.3467 -0.419129,3.4669 -1.644873,5.3133 -4.249641,6.4017 -1.333428,0.5571 -11.67329,0.59 -12.986581,0.041 -1.242073,-0.519 -2.752455,-1.9217 -3.427431,-3.1831 -0.482472,-0.9016 -0.578198,-1.505 -0.570623,-3.5969 0.0089,-2.4569 0.459774,-5.0938 0.983986,-5.7547 0.365858,-0.4613 1.505139,-0.4139 1.690931,0.07 0.08463,0.2206 -0.03817,1.3541 -0.272887,2.5189 -0.82706,4.1047 -0.361956,6.2223 1.666921,7.5895 0.753255,0.5076 1.243234,0.6032 3.093907,0.6032 h 2.198912 l -0.682822,-1.3595 c -0.559071,-1.1131 -0.681227,-1.7246 -0.674024,-3.3743 0.03132,-7.1725 3.961519,-14.0696 10.155552,-17.822 0.900793,-0.5457 1.551672,-0.9922 1.446397,-0.9922 -0.105274,0 -1.109122,0.1883 -2.230774,0.4185 -2.53823,0.5208 -5.892576,2.0667 -7.995809,3.6851 -1.666545,1.2824 -3.932763,3.8146 -4.642834,5.1877 -0.321586,0.6219 -0.560627,0.7772 -1.096978,0.7129 -1.28678,-0.1544 -1.343489,-0.8087 -0.217108,-2.5052 2.828717,-4.2603 7.179969,-7.4213 12.231079,-8.8853 1.927967,-0.5587 2.558925,-0.598 9.604159,-0.598 7.045234,0 7.676192,0.039 9.604159,0.598 7.390068,2.1419 12.955747,7.7107 15.056936,15.0655 0.774561,2.7112 0.827896,8.0412 0.106695,10.6625 -1.787802,6.4979 -6.401023,11.8887 -12.332373,14.4109 -1.828514,0.7775 -1.851938,0.814 -1.853559,2.8856 -0.002,2.5728 -0.374428,3.7149 -1.672255,5.1284 -1.882298,2.0502 -2.373309,2.1697 -8.909603,2.1697 -4.946539,0 -5.826589,-0.063 -6.746875,-0.4834 z m 4.966535,-2.8468 c -0.567737,-1.0158 -0.705976,-1.6658 -0.80893,-3.8039 -0.232691,-4.8322 1.088026,-8.5356 4.154419,-11.6491 1.419512,-1.4414 2.25663,-2.0158 4.520268,-3.1016 4.33958,-2.0816 5.938808,-4.2006 5.938808,-7.8692 0,-3.1038 -1.618877,-5.739 -4.400064,-7.1622 -1.295771,-0.6631 -3.824447,-1.1024 -4.610211,-0.8008 -0.394149,0.1512 -0.32453,0.3129 0.499139,1.159 0.526445,0.5407 1.290817,1.6976 1.698604,2.5707 0.656925,1.4066 0.741432,1.8891 0.741432,4.2333 0,2.3169 -0.08816,2.834 -0.709098,4.1588 -1.160515,2.476 -2.853158,4.055 -5.929444,5.5314 -5.65945,2.7162 -7.78125,6.0217 -7.78125,12.1224 0,2.5239 0.06841,2.9492 0.601609,3.7405 1.10386,1.638 2.104128,2.0959 4.578268,2.0959 h 2.191205 z m 8.129271,0.6648 c 1.469698,-0.826 2.027971,-2.0502 2.188612,-4.7994 0.086,-1.4717 0.288937,-2.5513 0.556283,-2.9594 0.246885,-0.3768 1.584814,-1.2037 3.236221,-2.0003 2.444783,-1.1792 3.119329,-1.6603 5.125031,-3.6552 2.557181,-2.5433 3.897799,-4.6773 4.989119,-7.9416 0.598931,-1.7915 0.678155,-2.4612 0.678155,-5.7327 0,-3.2714 -0.07922,-3.9411 -0.678155,-5.7326 -1.089521,-3.2589 -2.432715,-5.4001 -4.955037,-7.8986 -1.772719,-1.7561 -2.772625,-2.5024 -4.524576,-3.3771 -5.842906,-2.9173 -11.870605,-2.9185 -17.727084,0 -1.792325,0.8921 -2.73703,1.6047 -4.652752,3.5094 -2.027766,2.0161 -2.597776,2.7831 -3.643848,4.9035 -1.377079,2.7913 -2.010641,5.3087 -2.017557,8.0168 -0.0052,2.0272 0.364476,2.9559 1.585434,3.9832 2.143778,1.8039 5.306368,1.2706 6.713326,-1.1321 0.292941,-0.5002 0.585449,-1.7167 0.71008,-2.953 0.351761,-3.4893 1.912631,-6.108 4.69272,-7.873 5.636891,-3.5786 13.131655,-0.8665 15.132213,5.4761 0.672677,2.1326 0.672677,4.0293 0,6.1619 -0.921673,2.9221 -3.24817,5.3969 -6.084199,6.4722 -5.438209,2.0618 -8.622575,7.3337 -8.114236,13.4336 0.255902,3.0708 1.777923,4.6434 4.506337,4.6562 0.829815,0 1.641013,-0.193 2.283913,-0.5544 z"
         id="path12951" /><path
         style="fill:#af8934"
         d="m 43.815723,1232.1875 c -1.309638,-0.4039 -2.341725,-1.0825 -3.236542,-2.1279 -3.018858,-3.5269 -1.36313,-9.1397 3.08784,-10.4676 1.826168,-0.5448 10.11633,-0.5448 11.942498,0 4.183336,1.2481 5.984576,6.4225 3.484715,10.0105 -0.384216,0.5514 -0.69707,0.7216 -1.216302,0.6614 -0.911435,-0.1055 -1.035182,-0.9243 -0.317601,-2.1013 0.657028,-1.0777 0.731829,-3.3324 0.148009,-4.4614 -1.376508,-2.6619 -5.284778,-3.1544 -7.251961,-0.9139 -1.564494,1.7819 -1.613072,4.1613 -0.121154,5.9344 0.866368,1.0296 1.45392,1.3397 2.944587,1.5539 1.365498,0.1963 1.956925,0.8168 1.487909,1.561 -0.259335,0.4115 -0.847948,0.4682 -5.290314,0.5093 -2.749182,0.025 -5.296939,-0.046 -5.661684,-0.1584 z m 4.764214,-1.9712 c 0,-0.054 -0.32217,-0.6754 -0.715932,-1.3799 -1.216039,-2.1758 -0.919229,-5.2592 0.681692,-7.0818 0.416834,-0.4745 0.347151,-0.4877 -2.103722,-0.3968 -2.294071,0.085 -2.627082,0.1643 -3.506008,0.8352 -1.276284,0.9742 -1.764364,1.9768 -1.764364,3.6243 0,1.9633 0.9945,3.5422 2.645969,4.2007 0.615222,0.2453 4.762365,0.418 4.762365,0.1983 z m -5.688542,-14.9482 c -1.385044,-0.6326 -3.193431,-2.6237 -3.550315,-3.909 -0.416838,-1.5012 -0.351107,-6.0833 0.112816,-7.8644 1.17734,-4.5201 4.335328,-8.0587 8.670919,-9.716 3.310753,-1.2656 5.481592,-4.302 5.481996,-7.6679 2.97e-4,-2.4677 -0.616438,-4.0427 -2.238902,-5.7178 -0.749492,-0.7738 -1.507463,-1.4069 -1.684379,-1.4069 -0.583054,0 -2.653982,2.1375 -3.236237,3.3403 -0.314309,0.6492 -0.689319,2.1553 -0.833355,3.3467 -0.419129,3.4669 -1.644873,5.3133 -4.249641,6.4017 -1.333428,0.5571 -11.67329,0.59 -12.986581,0.041 -1.242073,-0.519 -2.752455,-1.9217 -3.427431,-3.1831 -0.482472,-0.9016 -0.578198,-1.505 -0.570623,-3.5969 0.0089,-2.4569 0.459774,-5.0938 0.983986,-5.7547 0.35348,-0.4457 1.502511,-0.4208 1.677914,0.036 0.07747,0.2019 -0.04533,1.2684 -0.272887,2.3701 -1.250058,6.0519 0.421116,8.6338 5.591399,8.6385 h 1.639513 l -0.807744,-1.5213 c -0.792486,-1.4926 -0.805194,-1.5763 -0.672737,-4.4318 0.157155,-3.3879 0.775291,-5.6524 2.344458,-8.5889 1.878032,-3.5146 4.111469,-5.9103 7.658072,-8.2147 l 1.692675,-1.0997 -1.322916,0.1871 c -2.12067,0.3 -5.155349,1.3516 -7.011459,2.4298 -1.903848,1.1058 -5.230849,4.2707 -6.56176,6.2419 -0.909463,1.3471 -1.688972,1.5765 -2.260091,0.6651 -0.217554,-0.3471 -0.05782,-0.7719 0.744947,-1.981 2.828717,-4.2603 7.179969,-7.4213 12.231079,-8.8853 1.927967,-0.5587 2.558925,-0.598 9.604159,-0.598 7.045234,0 7.676192,0.039 9.604159,0.598 7.390068,2.1419 12.955747,7.7107 15.056936,15.0655 0.774561,2.7112 0.827896,8.0412 0.106695,10.6625 -1.787802,6.4979 -6.401023,11.8887 -12.332373,14.4109 -1.828514,0.7775 -1.851938,0.814 -1.853559,2.8856 -0.002,2.5728 -0.374428,3.7149 -1.672255,5.1284 -1.882298,2.0502 -2.373309,2.1697 -8.909603,2.1697 -4.946539,0 -5.826589,-0.063 -6.746875,-0.4834 z m 5.308415,-2.3492 c -1.783228,-2.7127 -1.60292,-8.0789 0.409808,-12.1962 1.556828,-3.1848 3.395539,-4.9378 7.005454,-6.679 4.55089,-2.1951 6.064962,-4.2062 6.057783,-8.0462 -0.003,-1.5941 -0.143348,-2.4203 -0.568633,-3.3467 -0.72736,-1.5845 -2.458339,-3.3076 -4.013889,-3.9957 -1.216604,-0.5382 -4.80623,-0.9837 -4.80623,-0.5965 0,0.111 0.430392,0.6783 0.956425,1.2605 0.526034,0.5823 1.270175,1.7278 1.653646,2.5456 0.609677,1.3003 0.696428,1.8192 0.690905,4.1328 -0.0054,2.282 -0.100048,2.846 -0.6878,4.1011 -1.194933,2.5516 -2.762073,3.9945 -6.131658,5.6455 -3.528173,1.7287 -5.276558,3.3658 -6.613299,6.1923 -0.787819,1.6659 -0.852083,2.0179 -0.939345,5.1453 -0.08549,3.0639 -0.043,3.4471 0.486583,4.3894 0.95104,1.6922 2.480241,2.3636 5.495068,2.4129 l 1.6574,0.027 z m 7.787391,0.1672 c 1.469698,-0.826 2.027971,-2.0502 2.188612,-4.7994 0.086,-1.4717 0.288937,-2.5513 0.556283,-2.9594 0.246885,-0.3768 1.584814,-1.2037 3.236221,-2.0003 2.444783,-1.1792 3.119329,-1.6603 5.125031,-3.6552 2.557181,-2.5433 3.897799,-4.6773 4.989119,-7.9416 0.598931,-1.7915 0.678155,-2.4612 0.678155,-5.7327 0,-3.2714 -0.07922,-3.9411 -0.678155,-5.7326 -1.089521,-3.2589 -2.432715,-5.4001 -4.955037,-7.8986 -1.772719,-1.7561 -2.772625,-2.5024 -4.524576,-3.3771 -5.842906,-2.9173 -11.870605,-2.9185 -17.727084,0 -1.792325,0.8921 -2.73703,1.6047 -4.652752,3.5094 -2.027766,2.0161 -2.597776,2.7831 -3.643848,4.9035 -1.377079,2.7913 -2.010641,5.3087 -2.017557,8.0168 -0.0052,2.0272 0.364476,2.9559 1.585434,3.9832 2.143778,1.8039 5.306368,1.2706 6.713326,-1.1321 0.292941,-0.5002 0.585449,-1.7167 0.71008,-2.953 0.351761,-3.4893 1.912631,-6.108 4.69272,-7.873 5.636891,-3.5786 13.131655,-0.8665 15.132213,5.4761 0.672677,2.1326 0.672677,4.0293 0,6.1619 -0.921673,2.9221 -3.24817,5.3969 -6.084199,6.4722 -5.438209,2.0618 -8.622575,7.3337 -8.114236,13.4336 0.255902,3.0708 1.777923,4.6434 4.506337,4.6562 0.829815,0 1.641013,-0.193 2.283913,-0.5544 z"
         id="path12950" /><path
         style="fill:#9d5b2a"
         d="m 43.815723,1232.1847 c -1.301801,-0.396 -2.339955,-1.0776 -3.236542,-2.1251 -3.018858,-3.5269 -1.36313,-9.1397 3.08784,-10.4676 1.826168,-0.5448 10.11633,-0.5448 11.942498,0 4.183336,1.2481 5.984576,6.4225 3.484715,10.0105 -0.384216,0.5514 -0.69707,0.7216 -1.216302,0.6614 -0.830676,-0.096 -1.095944,-1.0662 -0.480328,-1.7564 1.199348,-1.3447 1.066155,-4.0254 -0.27946,-5.6245 -3.567365,-4.2396 -10.116653,0.7209 -7.206148,5.4579 0.58453,0.9514 2.28678,1.9743 3.285422,1.9743 1.449351,0 2.226305,0.9879 1.415019,1.7992 -0.359765,0.3598 -9.646323,0.4202 -10.796714,0.07 z m 4.764214,-1.9684 c 0,-0.054 -0.32217,-0.6754 -0.715932,-1.3799 -1.216039,-2.1758 -0.919229,-5.2592 0.681692,-7.0818 0.416834,-0.4745 0.347151,-0.4877 -2.103722,-0.3968 -2.294071,0.085 -2.627082,0.1643 -3.506008,0.8352 -1.276284,0.9742 -1.764364,1.9768 -1.764364,3.6243 0,1.9633 0.9945,3.5422 2.645969,4.2007 0.615222,0.2453 4.762365,0.418 4.762365,0.1983 z m -5.688542,-14.9482 c -1.385044,-0.6326 -3.193431,-2.6237 -3.550315,-3.909 -0.416838,-1.5012 -0.351107,-6.0833 0.112816,-7.8644 1.17734,-4.5201 4.335328,-8.0587 8.670919,-9.716 3.310753,-1.2656 5.481592,-4.302 5.481996,-7.6679 2.97e-4,-2.4677 -0.616438,-4.0427 -2.238902,-5.7178 -0.749492,-0.7738 -1.507463,-1.4069 -1.684379,-1.4069 -0.583054,0 -2.653982,2.1375 -3.236237,3.3403 -0.314309,0.6492 -0.689319,2.1553 -0.833355,3.3467 -0.419129,3.4669 -1.644873,5.3133 -4.249641,6.4017 -1.333428,0.5571 -11.67329,0.59 -12.986581,0.041 -1.242073,-0.519 -2.752455,-1.9217 -3.427431,-3.1831 -0.482472,-0.9016 -0.578198,-1.505 -0.570623,-3.5969 0.0089,-2.4569 0.459774,-5.0938 0.983986,-5.7547 0.35348,-0.4457 1.502511,-0.4208 1.677914,0.036 0.07747,0.2019 -0.04533,1.2684 -0.272887,2.3701 -1.250058,6.0519 0.421116,8.6338 5.591399,8.6385 h 1.639513 l -0.807744,-1.5213 c -0.792486,-1.4926 -0.805194,-1.5763 -0.672737,-4.4318 0.157155,-3.3879 0.775291,-5.6524 2.344458,-8.5889 1.878032,-3.5146 4.111469,-5.9103 7.658072,-8.2147 l 1.692675,-1.0997 -1.322916,0.1871 c -2.12067,0.3 -5.155349,1.3516 -7.011459,2.4298 -1.903848,1.1058 -5.230849,4.2707 -6.56176,6.2419 -0.909463,1.3471 -1.688972,1.5765 -2.260091,0.6651 -0.217554,-0.3471 -0.05782,-0.7719 0.744947,-1.981 2.828717,-4.2603 7.179969,-7.4213 12.231079,-8.8853 1.927967,-0.5587 2.558925,-0.598 9.604159,-0.598 7.045234,0 7.676192,0.039 9.604159,0.598 7.390068,2.1419 12.955747,7.7107 15.056936,15.0655 0.774561,2.7112 0.827896,8.0412 0.106695,10.6625 -1.787802,6.4979 -6.401023,11.8887 -12.332373,14.4109 -1.828514,0.7775 -1.851938,0.814 -1.853559,2.8856 -0.002,2.5728 -0.374428,3.7149 -1.672255,5.1284 -1.882298,2.0502 -2.373309,2.1697 -8.909603,2.1697 -4.946539,0 -5.826589,-0.063 -6.746875,-0.4834 z m 5.308415,-2.3492 c -1.783228,-2.7127 -1.60292,-8.0789 0.409808,-12.1962 1.556828,-3.1848 3.395539,-4.9378 7.005454,-6.679 4.55089,-2.1951 6.064962,-4.2062 6.057783,-8.0462 -0.003,-1.5941 -0.143348,-2.4203 -0.568633,-3.3467 -0.72736,-1.5845 -2.458339,-3.3076 -4.013889,-3.9957 -1.216604,-0.5382 -4.80623,-0.9837 -4.80623,-0.5965 0,0.111 0.430392,0.6783 0.956425,1.2605 0.526034,0.5823 1.270175,1.7278 1.653646,2.5456 0.609677,1.3003 0.696428,1.8192 0.690905,4.1328 -0.0054,2.282 -0.100048,2.846 -0.6878,4.1011 -1.194933,2.5516 -2.762073,3.9945 -6.131658,5.6455 -3.528173,1.7287 -5.276558,3.3658 -6.613299,6.1923 -0.787819,1.6659 -0.852083,2.0179 -0.939345,5.1453 -0.08549,3.0639 -0.043,3.4471 0.486583,4.3894 0.95104,1.6922 2.480241,2.3636 5.495068,2.4129 l 1.6574,0.027 z m 7.961343,0.1733 c 1.499987,-0.927 2.011806,-2.1001 2.186053,-5.0104 0.178008,-2.9731 0.409246,-3.3759 2.350372,-4.0937 0.6841,-0.253 2.09512,-0.9823 3.1356,-1.6208 8.572127,-5.2601 11.58294,-16.2562 6.929825,-25.3092 -1.566089,-3.0469 -5.037354,-6.5182 -8.084288,-8.0843 -5.668227,-2.9134 -12.218947,-2.9309 -17.761127,-0.048 -6.087239,3.167 -9.962786,9.0523 -10.298016,15.6383 -0.105508,2.0729 -0.043,2.7172 0.342415,3.5294 0.84925,1.7896 3.131599,2.8131 5.094602,2.2845 2.092031,-0.5633 3.478511,-2.4255 3.490453,-4.688 0.0081,-1.5436 0.833609,-4.025 1.81205,-5.4471 1.031366,-1.499 2.45573,-2.6412 4.454889,-3.5724 1.317799,-0.6138 1.893048,-0.7196 3.925331,-0.7221 2.128053,0 2.569761,0.086 4.154147,0.8358 2.256805,1.0674 3.991348,2.802 5.05881,5.0588 0.748268,1.582 0.838575,2.0293 0.838575,4.1541 0,2.1248 -0.09031,2.5722 -0.838575,4.1542 -1.207961,2.5538 -2.710159,3.9261 -6.037016,5.5149 -5.456442,2.6058 -7.799475,6.3398 -7.795745,12.4236 0.0019,3.0431 0.910082,4.6496 3.080935,5.4495 1.228695,0.4528 2.789387,0.2765 3.96071,-0.4475 z"
         id="path12949" /><path
         style="fill:#5d5d5d"
         d="m 43.815723,1232.1847 c -1.301801,-0.396 -2.339955,-1.0776 -3.236542,-2.1251 -3.018858,-3.5269 -1.36313,-9.1397 3.08784,-10.4676 1.826168,-0.5448 10.11633,-0.5448 11.942498,0 2.684054,0.8008 4.604196,3.35 4.6095,6.1197 0.0046,2.3852 -1.090581,4.6035 -2.272694,4.6035 -0.91993,0 -1.089405,-0.7144 -0.437961,-1.8463 1.475861,-2.5644 0.692038,-5.4546 -1.837684,-6.7762 -1.993966,-1.0417 -4.997362,0 -6.006997,2.0878 -0.701613,1.4493 -0.702393,2.6227 -0.0027,4.0681 0.691805,1.4291 1.669945,2.1353 3.415961,2.4665 1.645801,0.3121 1.852998,0.4263 1.852998,1.0212 0,1.0046 -0.474225,1.0964 -5.543021,1.0729 -2.699412,-0.013 -5.206448,-0.1135 -5.571193,-0.2245 z m 4.366362,-2.8221 c -1.246362,-1.8366 -1.268147,-5.1145 -0.04626,-6.9609 l 0.716206,-1.0823 h -2.265852 c -2.524002,0 -3.364961,0.3005 -4.449967,1.5899 -1.90473,2.2637 -1.384282,5.2932 1.177648,6.855 0.729051,0.4445 1.339623,0.5492 3.207585,0.55 l 2.307131,9e-4 z m -5.29069,-14.0945 c -1.385044,-0.6326 -3.193431,-2.6237 -3.550315,-3.909 -0.416838,-1.5012 -0.351107,-6.0833 0.112816,-7.8644 1.17734,-4.5201 4.335328,-8.0587 8.670919,-9.716 3.310753,-1.2656 5.481592,-4.302 5.481996,-7.6679 2.97e-4,-2.4677 -0.616438,-4.0427 -2.238902,-5.7178 -0.749492,-0.7738 -1.507463,-1.4069 -1.684379,-1.4069 -0.583054,0 -2.653982,2.1375 -3.236237,3.3403 -0.314309,0.6492 -0.689319,2.1553 -0.833355,3.3467 -0.419129,3.4669 -1.644873,5.3133 -4.249641,6.4017 -1.333428,0.5571 -11.67329,0.59 -12.986581,0.041 -1.242073,-0.519 -2.752455,-1.9217 -3.427431,-3.1831 -0.482472,-0.9016 -0.578198,-1.505 -0.570623,-3.5969 0.0089,-2.4569 0.459774,-5.0938 0.983986,-5.7547 0.347181,-0.4377 1.116318,-0.4208 1.492769,0.033 0.227467,0.2741 0.203853,0.7785 -0.09598,2.0505 -0.609329,2.5849 -0.534182,5.3547 0.179737,6.625 0.914931,1.6279 2.020861,2.1605 4.757688,2.2914 1.281497,0.061 2.329995,0.026 2.329995,-0.079 0,-0.1045 -0.221599,-0.506 -0.492441,-0.8922 -1.963109,-2.7998 -1.114968,-9.3645 1.868251,-14.4607 1.392828,-2.3793 5.342301,-6.319 7.487732,-7.4692 1.471859,-0.7891 1.527944,-0.8516 0.769927,-0.8581 -1.49309,-0.013 -4.861564,1.0196 -7.063497,2.165 -2.493057,1.2969 -5.502744,3.9911 -7.123135,6.3765 -1.092215,1.6078 -1.817532,1.8874 -2.416605,0.9314 -0.217554,-0.3471 -0.05782,-0.7719 0.744947,-1.981 2.828717,-4.2603 7.179969,-7.4213 12.231079,-8.8853 1.927967,-0.5587 2.558925,-0.598 9.604159,-0.598 7.045234,0 7.676192,0.039 9.604159,0.598 7.390068,2.1419 12.955747,7.7107 15.056936,15.0655 0.774561,2.7112 0.827896,8.0412 0.106695,10.6625 -1.787802,6.4979 -6.401023,11.8887 -12.332373,14.4109 -1.828514,0.7775 -1.851938,0.814 -1.853559,2.8856 -0.002,2.5728 -0.374428,3.7149 -1.672255,5.1284 -1.882298,2.0502 -2.373309,2.1697 -8.909603,2.1697 -4.946539,0 -5.826589,-0.063 -6.746875,-0.4834 z m 5.145242,-2.8391 c -0.734101,-1.3955 -0.779617,-1.6626 -0.779617,-4.5746 0,-5.1181 0.934841,-7.575 4.096518,-10.7662 1.527808,-1.5421 2.356426,-2.1172 4.678896,-3.2474 2.95352,-1.4372 3.957062,-2.3014 5.045544,-4.3449 0.860035,-1.6146 0.860035,-5.3821 0,-6.9967 -1.5421,-2.8952 -3.778665,-4.3338 -7.030055,-4.522 l -2.092913,-0.1212 1.163215,1.4281 c 1.857154,2.2801 2.450229,3.8978 2.461231,6.7134 0.0083,2.133 -0.07678,2.5606 -0.816397,4.1011 -1.341982,2.7951 -2.374585,3.7644 -5.782334,5.4277 -2.241014,1.0938 -3.367531,1.8299 -4.436701,2.899 -2.397373,2.3974 -3.639085,5.6473 -3.635529,9.5151 0.002,2.2215 0.400075,3.4442 1.469242,4.5133 1.107268,1.1073 2.040268,1.4023 4.534421,1.4335 l 1.904096,0.024 z m 8.124516,0.6632 c 1.438231,-0.8888 2.021296,-2.1361 2.140329,-4.5785 0.159144,-3.2655 0.287609,-3.4632 3.13055,-4.8187 4.56465,-2.1764 7.538017,-5.0866 9.661993,-9.4567 1.460886,-3.0058 1.917862,-5.3626 1.769134,-9.1241 -0.0965,-2.4407 -0.272642,-3.5277 -0.842971,-5.2021 -1.933614,-5.6768 -6.514952,-10.2585 -12.195459,-12.1966 -3.003307,-1.0247 -7.563569,-1.1997 -10.685861,-0.4102 -8.458515,2.139 -14.499558,9.578 -14.66451,18.058 -0.03448,1.7724 0.0447,2.1383 0.665766,3.0768 0.777492,1.1749 2.547528,2.1912 3.79991,2.1818 1.129043,-0.01 2.80873,-0.851 3.621049,-1.8164 0.710051,-0.8438 0.837053,-1.2976 1.127414,-4.0282 0.352913,-3.3189 2.677838,-6.4702 5.896668,-7.9927 1.581973,-0.7483 2.029334,-0.8386 4.154147,-0.8386 2.114509,0 2.573896,0.092 4.101042,0.8182 4.232087,2.0135 6.709167,6.611 5.85745,10.8716 -0.766213,3.8329 -2.639847,6.0524 -6.777026,8.0282 -3.321513,1.5862 -5.207683,3.2961 -6.460282,5.8565 -1.916587,3.9176 -1.827999,9.3724 0.181226,11.159 1.437294,1.278 3.829924,1.4569 5.519431,0.4127 z"
         id="path12948" /><path
         style="fill:#685320"
         d="m 43.611535,1232.043 c -4.285285,-1.3381 -5.908505,-6.6699 -3.136877,-10.3037 0.348322,-0.4567 1.272708,-1.1845 2.054192,-1.6173 l 1.420878,-0.787 h 5.688542 5.688542 l 1.420878,0.787 c 2.436647,1.3496 3.673861,3.6816 3.393644,6.3966 -0.16015,1.5517 -1.279835,3.7966 -1.893619,3.7966 -1.260567,0 -1.492813,-0.6534 -0.69416,-1.9531 1.452205,-2.3632 0.603162,-5.3707 -1.882875,-6.6694 -1.993966,-1.0417 -4.997362,0 -6.006997,2.0878 -0.701613,1.4493 -0.702393,2.6227 -0.0027,4.0681 0.691805,1.4291 1.669945,2.1353 3.415961,2.4665 0.750617,0.1423 1.474612,0.3267 1.608878,0.4097 0.345205,0.2133 0.302963,1.0133 -0.07338,1.3896 -0.460327,0.4603 -9.485704,0.4018 -11.000902,-0.071 z m 4.57055,-2.6804 c -1.246362,-1.8366 -1.268147,-5.1145 -0.04626,-6.9609 l 0.716206,-1.0823 h -2.265852 c -2.524002,0 -3.364961,0.3005 -4.449967,1.5899 -1.90473,2.2637 -1.384282,5.2932 1.177648,6.855 0.729051,0.4445 1.339623,0.5492 3.207585,0.55 l 2.307131,9e-4 z m -4.366362,-13.8373 c -1.854947,-0.5904 -3.234172,-1.7507 -4.120429,-3.4663 -0.613319,-1.1872 -0.827139,-5.4741 -0.386775,-7.7545 0.495335,-2.565 1.923329,-5.2618 3.799283,-7.175 1.30801,-1.334 2.194815,-1.9378 4.41438,-3.0055 3.138473,-1.5096 4.652023,-2.8493 5.593996,-4.9515 0.817143,-1.8235 0.817282,-4.5258 3.27e-4,-6.35 -0.617854,-1.3795 -2.803861,-3.8364 -3.413478,-3.8364 -0.661847,0 -2.914629,2.392 -3.471139,3.6856 -0.304084,0.7069 -0.658056,2.2253 -0.786606,3.3743 -0.259729,2.3215 -0.683531,3.3321 -1.912782,4.5614 -1.669008,1.669 -1.950364,1.732 -8.159216,1.8256 -6.540395,0.099 -7.287676,-0.061 -9.184035,-1.957 -1.662627,-1.6626 -2.117849,-3.414 -1.722846,-6.6282 0.393422,-3.2013 0.807295,-4.4426 1.515027,-4.5438 1.009334,-0.1442 1.219415,0.4924 0.779003,2.3607 -0.609329,2.5849 -0.534182,5.3547 0.179737,6.625 0.914931,1.6279 2.020861,2.1605 4.757688,2.2914 1.281497,0.061 2.329995,0.026 2.329995,-0.079 0,-0.1045 -0.221599,-0.506 -0.492441,-0.8922 -1.963109,-2.7998 -1.114968,-9.3645 1.868251,-14.4607 1.392828,-2.3793 5.342301,-6.319 7.487732,-7.4692 1.471859,-0.7891 1.527944,-0.8516 0.769927,-0.8581 -1.49309,-0.013 -4.861564,1.0196 -7.063497,2.165 -2.493057,1.2969 -5.502744,3.9911 -7.123135,6.3765 -0.80787,1.1892 -1.174209,1.5185 -1.618928,1.4552 -2.222186,-0.3165 1.580717,-5.5804 6.219102,-8.6083 4.441021,-2.8992 7.974595,-3.62 16.886323,-3.4446 5.804065,0.1142 6.376125,0.17 8.598958,0.8387 7.316343,2.2012 12.749953,7.7789 14.711032,15.1011 0.792401,2.9586 0.792401,7.6247 0,10.5833 -1.636166,6.109 -5.67065,11.0075 -11.40374,13.846 l -2.513542,1.2445 -0.154645,2.3766 c -0.218032,3.3508 -1.205602,5.0625 -3.681813,6.3813 -0.808203,0.4305 -1.633077,0.5 -6.482292,0.546 -3.055938,0.029 -5.854677,-0.042 -6.219422,-0.1583 z m 4.220914,-3.0963 c -0.734101,-1.3955 -0.779617,-1.6626 -0.779617,-4.5746 0,-5.1181 0.934841,-7.575 4.096518,-10.7662 1.527808,-1.5421 2.356426,-2.1172 4.678896,-3.2474 2.95352,-1.4372 3.957062,-2.3014 5.045544,-4.3449 0.860035,-1.6146 0.860035,-5.3821 0,-6.9967 -1.5421,-2.8952 -3.778665,-4.3338 -7.030055,-4.522 l -2.092913,-0.1212 1.163215,1.4281 c 1.857154,2.2801 2.450229,3.8978 2.461231,6.7134 0.0083,2.133 -0.07678,2.5606 -0.816397,4.1011 -1.341982,2.7951 -2.374585,3.7644 -5.782334,5.4277 -2.241014,1.0938 -3.367531,1.8299 -4.436701,2.899 -2.397373,2.3974 -3.639085,5.6473 -3.635529,9.5151 0.002,2.2215 0.400075,3.4442 1.469242,4.5133 1.107268,1.1073 2.040268,1.4023 4.534421,1.4335 l 1.904096,0.024 z m 8.124516,0.6632 c 1.438231,-0.8888 2.021296,-2.1361 2.140329,-4.5785 0.159144,-3.2655 0.287609,-3.4632 3.13055,-4.8187 4.56465,-2.1764 7.538017,-5.0866 9.661993,-9.4567 1.460886,-3.0058 1.917862,-5.3626 1.769134,-9.1241 -0.0965,-2.4407 -0.272642,-3.5277 -0.842971,-5.2021 -1.933614,-5.6768 -6.514952,-10.2585 -12.195459,-12.1966 -3.003307,-1.0247 -7.563569,-1.1997 -10.685861,-0.4102 -8.458515,2.139 -14.499558,9.578 -14.66451,18.058 -0.03448,1.7724 0.0447,2.1383 0.665766,3.0768 0.777492,1.1749 2.547528,2.1912 3.79991,2.1818 1.129043,-0.01 2.80873,-0.851 3.621049,-1.8164 0.710051,-0.8438 0.837053,-1.2976 1.127414,-4.0282 0.352913,-3.3189 2.677838,-6.4702 5.896668,-7.9927 1.581973,-0.7483 2.029334,-0.8386 4.154147,-0.8386 2.114509,0 2.573896,0.092 4.101042,0.8182 4.232087,2.0135 6.709167,6.611 5.85745,10.8716 -0.766213,3.8329 -2.639847,6.0524 -6.777026,8.0282 -3.321513,1.5862 -5.207683,3.2961 -6.460282,5.8565 -1.916587,3.9176 -1.827999,9.3724 0.181226,11.159 1.437294,1.278 3.829924,1.4569 5.519431,0.4127 z"
         id="path12947" /><path
         style="fill:#5a3017"
         d="m 43.611535,1232.043 c -4.285285,-1.3381 -5.908505,-6.6699 -3.136877,-10.3037 0.348322,-0.4567 1.272708,-1.1845 2.054192,-1.6173 l 1.420878,-0.787 h 5.688542 5.688542 l 1.420878,0.787 c 1.64844,0.913 2.51589,1.9439 3.114902,3.702 0.568446,1.6682 0.347403,3.7641 -0.560354,5.3131 -0.723793,1.2351 -1.397926,1.4959 -1.997803,0.7731 -0.277693,-0.3346 -0.214329,-0.6457 0.364478,-1.7897 0.845153,-1.6704 0.883704,-2.8162 0.146028,-4.34 -1.45608,-3.0079 -5.998402,-3.3483 -7.826046,-0.5866 -1.977355,2.988 -0.205273,6.8065 3.379419,7.282 1.376619,0.1827 1.904332,0.8274 1.286502,1.5718 -0.435695,0.525 -9.359195,0.5212 -11.043281,0 z m 5.232985,-1.6011 c 0,-0.076 -0.322663,-0.6256 -0.717029,-1.2215 -1.244621,-1.8808 -1.131884,-5.2142 0.242605,-7.1734 l 0.510457,-0.7276 h -2.280114 c -2.572998,0 -3.336952,0.2817 -4.568939,1.6849 -2.124612,2.4198 -0.750709,6.5625 2.412082,7.2731 1.190325,0.2675 4.400938,0.3874 4.400938,0.1645 z m -5.028797,-14.9166 c -1.854947,-0.5904 -3.234172,-1.7507 -4.120429,-3.4663 -0.613319,-1.1872 -0.827139,-5.4741 -0.386775,-7.7545 0.495335,-2.565 1.923329,-5.2618 3.799283,-7.175 1.30801,-1.334 2.194815,-1.9378 4.41438,-3.0055 3.138473,-1.5096 4.652023,-2.8493 5.593996,-4.9515 0.817143,-1.8235 0.817282,-4.5258 3.27e-4,-6.35 -0.617854,-1.3795 -2.803861,-3.8364 -3.413478,-3.8364 -0.661847,0 -2.914629,2.392 -3.471139,3.6856 -0.304084,0.7069 -0.658056,2.2253 -0.786606,3.3743 -0.259729,2.3215 -0.683531,3.3321 -1.912782,4.5614 -1.669008,1.669 -1.950364,1.732 -8.159216,1.8256 -6.540395,0.099 -7.287676,-0.061 -9.184035,-1.957 -1.662627,-1.6626 -2.117849,-3.414 -1.722846,-6.6282 0.393422,-3.2013 0.807295,-4.4426 1.515027,-4.5438 1.026273,-0.1467 1.218061,0.4892 0.751662,2.4923 -0.603479,2.5917 -0.44094,5.7798 0.351295,6.8905 0.963462,1.3507 2.509322,1.9409 5.083633,1.9409 2.093152,0 2.184696,-0.024 1.783096,-0.4677 -1.969273,-2.1761 -1.962538,-6.9342 0.01703,-12.0322 1.556082,-4.0074 5.063214,-8.1148 8.812225,-10.3204 1.558858,-0.9171 1.625068,-0.9922 0.87493,-0.9922 -1.341276,0 -4.698725,0.967 -6.490424,1.8693 -3.331691,1.6778 -5.665901,3.6979 -7.651411,6.6217 -0.841433,1.239 -1.211097,1.5764 -1.657705,1.5128 -2.222186,-0.3165 1.580717,-5.5804 6.219102,-8.6083 4.441021,-2.8992 7.974595,-3.62 16.886323,-3.4446 5.804065,0.1142 6.376125,0.17 8.598958,0.8387 7.316343,2.2012 12.749953,7.7789 14.711032,15.1011 0.792401,2.9586 0.792401,7.6247 0,10.5833 -1.636166,6.109 -5.67065,11.0075 -11.40374,13.846 l -2.513542,1.2445 -0.154645,2.3766 c -0.218032,3.3508 -1.205602,5.0625 -3.681813,6.3813 -0.808203,0.4305 -1.633077,0.5 -6.482292,0.546 -3.055938,0.029 -5.854677,-0.042 -6.219421,-0.1583 z m 5.028797,-1.8632 c 0,-0.1369 -0.13146,-0.3302 -0.292134,-0.4295 -0.160673,-0.099 -0.515246,-0.6719 -0.787939,-1.2724 -0.392814,-0.865 -0.495669,-1.7239 -0.495148,-4.1345 3.61e-4,-1.6735 0.123353,-3.5752 0.273314,-4.226 0.857864,-3.7229 4.04384,-7.6405 7.519615,-9.2462 3.206331,-1.4813 3.597726,-1.7175 4.510248,-2.7216 1.678192,-1.8468 2.100541,-2.9797 2.100541,-5.6344 0,-1.9615 -0.104869,-2.5781 -0.595039,-3.4983 -1.566759,-2.9415 -4.160162,-4.5709 -7.275565,-4.5712 l -1.788982,-3e-4 1.134004,1.3923 c 1.827739,2.244 2.421062,3.873 2.432021,6.6775 0.0083,2.1354 -0.07729,2.5644 -0.829271,4.1542 -1.20796,2.5538 -2.710159,3.9261 -6.037015,5.5149 -2.127265,1.0159 -3.131676,1.6808 -4.239355,2.8063 -2.399793,2.4384 -3.581719,5.6299 -3.555182,9.5998 0.0276,4.1285 1.732294,5.8208 5.875366,5.8326 1.127787,0 2.050521,-0.1063 2.050521,-0.2432 z m 6.547252,-0.158 c 2.105445,-0.8797 2.963047,-2.4193 2.971938,-5.3353 0.0085,-2.7772 0.235342,-3.1081 3.035162,-4.4262 5.31355,-2.5014 8.829132,-6.3305 10.604442,-11.5501 3.653632,-10.7422 -2.753718,-22.3465 -13.81396,-25.0185 -2.365324,-0.5714 -6.546041,-0.5677 -8.947959,0.01 -5.349623,1.2823 -10.329841,5.2592 -12.858226,10.268 -1.820066,3.6055 -2.51666,8.9202 -1.41497,10.7956 1.512135,2.5741 4.830764,3.1172 7.011025,1.1475 1.113846,-1.0063 1.33842,-1.6013 1.821768,-4.8267 0.665208,-4.4389 3.901309,-7.7252 8.385008,-8.515 3.246524,-0.5718 6.512677,0.5999 8.920049,3.2002 1.924005,2.0781 2.633656,3.9025 2.624083,6.7459 -0.01501,4.4588 -2.079782,7.3653 -6.857253,9.6527 -5.581432,2.6724 -7.921749,6.4746 -7.721236,12.5443 0.0832,2.5185 0.145469,2.7899 0.852787,3.7164 0.823468,1.0786 2.494721,1.985 3.677234,1.9944 0.404856,0 1.174405,-0.1774 1.710108,-0.4012 z"
         id="path12946" /><path
         style="fill:#020201"
         d="m 44.169857,1232.1781 c -4.948973,-1.1788 -6.721612,-7.2246 -3.184426,-10.861 1.6515,-1.6978 2.312342,-1.8382 8.652839,-1.8382 6.340497,0 7.001339,0.1404 8.652839,1.8382 1.300892,1.3374 1.781682,2.5477 1.787744,4.5002 0.009,2.8837 -1.564916,5.2849 -2.712089,4.1377 -0.37639,-0.3763 -0.349297,-0.5345 0.294086,-1.7166 1.263291,-2.3211 0.680219,-4.907 -1.41977,-6.2967 -2.054779,-1.3598 -4.720919,-0.873 -6.258404,1.1428 -0.642899,0.8429 -0.741281,1.209 -0.741281,2.759 0,1.3988 0.120249,1.9494 0.553494,2.5341 0.771413,1.0411 2.108578,1.8969 3.246387,2.0777 1.725195,0.2742 2.231413,0.8023 1.484699,1.549 -0.362824,0.3629 -1.115992,0.4235 -4.97275,0.4005 -2.49984,-0.015 -4.922356,-0.1169 -5.383368,-0.2267 z m 4.068422,-2.9652 c -0.760776,-1.2249 -0.848967,-1.5753 -0.848967,-3.3734 0,-1.7125 0.106622,-2.1879 0.727604,-3.2443 0.400182,-0.6807 0.727604,-1.3204 0.727604,-1.4214 0,-0.101 -1.060094,-0.133 -2.355765,-0.071 -2.02158,0.097 -2.51246,0.2164 -3.460354,0.8436 -1.868989,1.2369 -2.580296,3.5834 -1.714416,5.6558 0.907696,2.1724 2.398438,2.9633 5.601377,2.9719 l 2.171884,0.01 z m -4.752109,-13.8272 c -1.463476,-0.5223 -2.736967,-1.5956 -3.565439,-3.0049 -0.700262,-1.1913 -0.733443,-1.4037 -0.732168,-4.6874 10e-4,-2.658 0.113509,-3.7703 0.494955,-4.8948 1.382623,-4.076 3.811969,-6.7405 7.953457,-8.7232 1.592433,-0.7623 3.188372,-1.742 3.745402,-2.299 2.346728,-2.3467 3.038385,-6.1648 1.653442,-9.1273 -0.759078,-1.6237 -2.650595,-3.663 -3.397549,-3.663 -0.736728,0 -2.63676,2.0329 -3.344115,3.5779 -0.356043,0.7777 -0.744609,2.2898 -0.865553,3.3683 -0.274028,2.4435 -0.830808,3.6356 -2.303413,4.9319 -1.711089,1.5061 -2.629592,1.6687 -8.869575,1.5696 l -5.430611,-0.086 -1.30118,-0.8032 c -1.523081,-0.9403 -2.872171,-2.9725 -3.099776,-4.6694 -0.178455,-1.3305 0.210605,-5.0606 0.676003,-6.4811 0.266306,-0.8129 0.460452,-1.0108 0.991456,-1.0108 0.598572,0 0.657722,0.099 0.632675,1.0583 -0.0152,0.5821 -0.176239,2.0718 -0.357874,3.3105 -0.702929,4.7937 1.015942,6.8759 5.676169,6.8759 h 2.269037 l -0.663199,-0.9759 c -1.455414,-2.1419 -1.476659,-6.1111 -0.05508,-10.2898 1.680545,-4.9399 4.291185,-8.2497 8.898316,-11.2812 2.495256,-1.6418 2.452761,-1.5858 1.051365,-1.3862 -6.033336,0.8592 -11.240473,4.0598 -14.189863,8.7218 -0.797251,1.2602 -1.17342,1.5274 -1.807496,1.2841 -1.050105,-0.403 0.289612,-2.8988 3.023491,-5.6327 1.928692,-1.9287 3.459481,-2.9809 6.216187,-4.2727 3.339598,-1.565 4.877917,-1.8504 10.868656,-2.016 8.787021,-0.2431 12.867967,0.5194 17.18674,3.2112 9.439897,5.8836 12.721007,17.6626 7.698308,27.6363 -2.231547,4.4313 -6.600031,8.4907 -10.73851,9.9789 -1.495747,0.5379 -1.49765,0.542 -1.655382,3.5813 -0.08263,1.5921 -0.255814,2.2799 -0.813856,3.2321 -0.804806,1.3733 -2.087645,2.4482 -3.540825,2.9668 -1.389454,0.4958 -10.914746,0.4958 -12.3042,0 z m 5.281614,-1.9424 c -1.062741,-1.1743 -1.499092,-2.7689 -1.501043,-5.4853 -0.0034,-4.7521 1.202959,-7.9566 4.097736,-10.8848 1.266521,-1.2812 2.192626,-1.9053 4.38324,-2.954 3.914987,-1.8743 5.445041,-3.5858 6.028807,-6.7436 0.892675,-4.829 -2.873138,-9.4414 -7.793111,-9.5452 -0.910291,-0.019 -1.739763,0.05 -1.843271,0.1532 -0.103509,0.1035 0.356388,0.7938 1.021993,1.5341 2.379257,2.6463 3.078359,6.699 1.756762,10.184 -0.869253,2.2922 -3.434596,4.8015 -5.916248,5.7871 -4.108502,1.6316 -6.466895,4.2238 -7.699025,8.4622 -0.324348,1.1157 -0.419657,2.2636 -0.354064,4.2644 0.08491,2.5901 0.132902,2.791 0.89013,3.7258 1.280551,1.5809 2.266095,1.9699 4.991188,1.9699 2.240233,0 2.338715,-0.024 1.936906,-0.4678 z m 6.607949,0.1864 c 0.829197,-0.3133 2.089693,-1.4216 2.538714,-2.2322 0.161227,-0.291 0.365113,-1.6839 0.453081,-3.0952 0.120803,-1.9381 0.276462,-2.6949 0.636089,-3.0922 0.26188,-0.2894 1.684857,-1.1181 3.162171,-1.8416 6.829883,-3.3447 10.864236,-9.7969 10.861561,-17.371 -0.0012,-3.4535 -0.459364,-5.4496 -1.943258,-8.4666 -5.069364,-10.307 -17.5697,-13.9664 -27.434179,-8.0314 -3.183413,1.9154 -6.266008,5.4204 -7.740041,8.8006 -1.274427,2.9226 -1.933232,7.2618 -1.364269,8.9858 0.952435,2.8859 3.820171,4.1069 6.546205,2.7873 1.536877,-0.744 2.348427,-2.1844 2.593876,-4.6036 0.103281,-1.018 0.421707,-2.4761 0.707614,-3.2403 0.696875,-1.8626 2.801023,-4.1213 4.824778,-5.1793 1.525975,-0.7977 1.764118,-0.842 4.521237,-0.842 2.80662,0 2.969411,0.032 4.564617,0.897 1.928079,1.0456 3.435889,2.5838 4.478954,4.5692 0.676191,1.2871 0.742465,1.6607 0.744156,4.1952 0.0017,2.6111 -0.05152,2.8907 -0.866129,4.5468 -0.540602,1.099 -1.347564,2.1952 -2.139487,2.9063 -1.320337,1.1856 -1.414429,1.2419 -4.305764,2.5781 -3.178512,1.4689 -5.590066,4.1893 -6.605287,7.4512 -0.565893,1.8182 -0.696266,6.3046 -0.219853,7.5655 0.870464,2.3039 3.687516,3.5805 5.985214,2.7124 z"
         id="path12945" /></g></g></svg>
