<?xml version="1.0" encoding="UTF-8" standalone="no"?>
<!-- Created with Inkscape (http://www.inkscape.org/) -->

<svg
   width="21.075279mm"
   height="18.521608mm"
   viewBox="0 0 21.075279 18.521608"
   version="1.1"
   id="svg1"
   xml:space="preserve"
   xmlns="http://www.w3.org/2000/svg"
   xmlns:svg="http://www.w3.org/2000/svg"><defs
     id="defs1" /><g
     id="layer1"
     transform="translate(-212.56147,-1250.8736)"><g
       id="g13036"
       transform="translate(-14.639549,57.718569)"><path
         style="fill:#fcecca"
         d="m 227.6083,1211.391 c -0.15666,-0.1566 -0.28483,-0.6058 -0.28483,-0.9981 v -0.7133 l 4.69248,-8.0657 4.69247,-8.0656 h 1.02489 1.02488 l 4.71076,8.0971 4.71075,8.097 -0.12237,0.8554 -0.12238,0.8554 -10.02092,0.1113 -10.02091,0.1114 z m 11.29261,-2.6953 0.12663,-1.0918 -0.64712,-0.2484 -0.64711,-0.2483 -0.62459,0.2397 -0.62459,0.2397 v 0.927 c 0,1.1832 0.3764,1.548 1.44024,1.3957 l 0.84992,-0.1217 z m 0.0816,-7.4441 v -4.9968 h -1.24918 -1.24918 v 4.9968 4.9967 h 1.24918 1.24918 z"
         id="path13054" /><path
         style="fill:#fceac4"
         d="m 227.6083,1211.391 c -0.15666,-0.1566 -0.28483,-0.5897 -0.28483,-0.9623 v -0.6776 l 4.70359,-8.1014 4.70358,-8.1014 h 1.00821 1.00821 l 4.7154,8.1041 4.71539,8.1042 -0.12145,0.8483 -0.12145,0.8483 -10.02092,0.1113 -10.02091,0.1114 z m 11.29261,-2.6953 0.12663,-1.0918 -0.64712,-0.2484 -0.64711,-0.2483 -0.62459,0.2397 -0.62459,0.2397 v 0.927 c 0,1.1832 0.3764,1.548 1.44024,1.3957 l 0.84992,-0.1217 z m 0.0816,-7.6523 v -5.205 h -1.24918 -1.24918 v 5.205 5.2049 h 1.24918 1.24918 z"
         id="path13053" /><path
         style="fill:#fce9c3"
         d="m 227.6083,1211.391 c -0.15666,-0.1566 -0.28483,-0.5897 -0.28483,-0.9623 v -0.6776 l 4.70359,-8.1014 4.70358,-8.1014 h 1.00267 1.00266 l 4.71687,8.1197 4.71686,8.1196 -0.11738,0.8328 -0.11737,0.8328 -10.02092,0.1113 -10.02091,0.1114 z m 11.29261,-2.6953 0.12663,-1.0918 -0.64712,-0.2484 -0.64711,-0.2483 -0.62459,0.2397 -0.62459,0.2397 v 0.927 c 0,1.1832 0.3764,1.548 1.44024,1.3957 l 0.84992,-0.1217 z m 0.0816,-7.6787 v -5.2313 l -1.35328,0.1305 -1.35328,0.1304 -0.11897,4.5536 c -0.0654,2.5045 -0.0245,4.7998 0.091,5.1008 l 0.21,0.5473 h 1.26225 1.26225 z"
         id="path13052" /><path
         style="fill:#fbe5b9"
         d="m 227.6083,1211.391 c -0.15666,-0.1566 -0.28481,-0.5815 -0.28478,-0.9441 l 4e-5,-0.6593 4.70352,-8.1196 4.70353,-8.1197 h 1.0027 1.0027 l 4.71222,8.1197 4.71221,8.1196 -0.11275,0.8328 -0.11274,0.8328 -10.02092,0.1113 -10.02091,0.1114 z m 11.29261,-2.6953 0.12663,-1.0918 -0.64712,-0.2484 -0.64711,-0.2483 -0.62459,0.2397 -0.62459,0.2397 v 0.927 c 0,1.1832 0.3764,1.548 1.44024,1.3957 l 0.84992,-0.1217 z m 0.28977,-7.6523 v -4.9968 h -1.45737 -1.45738 l -0.11897,4.5536 c -0.0654,2.5045 -0.0199,4.8118 0.10124,5.1274 l 0.2202,0.5739 1.35614,-0.1307 1.35614,-0.1307 z"
         id="path13051" /><path
         style="fill:#fbe1ac"
         d="m 227.6083,1211.391 c -0.15666,-0.1566 -0.28148,-0.5815 -0.27739,-0.9441 l 0.007,-0.6593 4.70014,-8.1196 4.70014,-8.1197 h 0.99467 0.99467 l 4.70876,8.1197 4.70875,8.1196 -0.10527,0.8328 -0.10527,0.8328 -10.02092,0.1113 -10.02091,0.1114 z m 11.31819,-2.1131 0.40178,-0.7179 -0.39574,-0.7395 -0.39574,-0.7394 h -0.79744 -0.79745 l -0.40178,0.7179 -0.40177,0.7179 0.39573,0.7395 0.39574,0.7394 h 0.79745 0.79744 z m 0.26419,-8.2345 v -4.9968 h -1.45737 -1.45738 l -0.11897,4.5536 c -0.0654,2.5045 -0.0199,4.8118 0.10124,5.1274 l 0.2202,0.5739 1.35614,-0.1307 1.35614,-0.1307 z"
         id="path13050" /><path
         style="fill:#fbdda1"
         d="m 227.6083,1211.391 c -0.15666,-0.1566 -0.28191,-0.5815 -0.27834,-0.9441 l 0.006,-0.6593 4.72442,-8.1196 4.72441,-8.1197 h 0.94804 0.94803 l 4.73305,8.1197 4.73306,8.1196 -0.10625,0.8328 -0.10625,0.8328 -10.02092,0.1113 -10.02091,0.1114 z m 11.3521,-1.9931 0.49627,-0.598 -0.45994,-0.8594 -0.45994,-0.8594 h -0.80348 -0.80349 l -0.45994,0.8594 -0.45994,0.8594 0.49628,0.598 0.49627,0.5979 h 0.73082 0.73081 z m 0.3472,-8.2504 -0.11692,-5.1009 h -1.45737 -1.45738 l -0.11691,5.1009 -0.11692,5.1008 h 1.69121 1.6912 z"
         id="path13049" /><path
         style="fill:#fada97"
         d="m 227.60842,1211.3912 c -0.65324,-0.6533 -0.0388,-1.9904 4.46847,-9.7232 l 4.73269,-8.1197 h 0.92484 0.92485 l 4.80852,8.2799 4.80852,8.2798 -0.42397,0.6726 -0.42397,0.6726 -9.7675,0.1115 -9.7675,0.1114 z m 11.35198,-1.9933 0.49627,-0.598 -0.45994,-0.8594 -0.45994,-0.8594 h -0.80348 -0.80349 l -0.45994,0.8594 -0.45994,0.8594 0.49628,0.598 0.49627,0.5979 h 0.73082 0.73081 z m 0.3472,-8.2504 -0.11692,-5.1009 -1.56147,-0.1292 -1.56148,-0.1292 v 5.23 5.2301 h 1.67839 1.67839 z"
         id="path13048" /><path
         style="fill:#fad487"
         d="m 227.73588,1211.032 -0.53485,-0.6444 0.44621,-0.9246 c 0.24541,-0.5085 2.4062,-4.2973 4.80174,-8.4196 l 4.35554,-7.4951 h 0.92583 0.92584 l 4.79993,8.2959 4.79993,8.2959 -0.41383,0.6566 -0.41382,0.6565 -9.57884,0.1116 -9.57883,0.1117 z m 11.27557,-1.6957 0.54734,-0.6595 -0.43763,-0.6937 -0.43763,-0.6938 h -0.95022 -0.95022 l -0.43763,0.6938 -0.43763,0.6937 0.54733,0.6595 0.54733,0.6595 h 0.73082 0.73081 z m 0.38743,-8.2929 v -5.205 h -1.66557 -1.66558 v 5.205 5.2049 h 1.66558 1.66557 z"
         id="path13047" /><path
         style="fill:#f9d07b"
         d="m 227.83059,1211.1692 c -0.27891,-0.2789 -0.50712,-0.6671 -0.50712,-0.8627 0,-0.1955 2.16995,-4.093 4.82211,-8.661 l 4.82211,-8.3054 h 0.76562 0.76561 l 4.87776,8.4013 4.87776,8.4013 -0.41302,0.6552 -0.41302,0.6553 -9.54534,0.1116 -9.54534,0.1115 z m 11.18086,-1.8329 0.54734,-0.6595 -0.43763,-0.6937 -0.43763,-0.6938 h -0.95022 -0.95022 l -0.43763,0.6938 -0.43763,0.6937 0.54733,0.6595 0.54733,0.6595 h 0.73082 0.73081 z m 0.38743,-8.2929 v -5.205 h -1.66557 -1.66558 v 5.205 5.2049 h 1.66558 1.66557 z"
         id="path13046" /><path
         style="fill:#f9cd74"
         d="m 227.83059,1211.1692 c -0.27891,-0.2789 -0.50712,-0.6581 -0.50712,-0.8425 0,-0.1845 2.17393,-4.0819 4.83096,-8.661 l 4.83095,-8.3256 h 0.74793 0.74792 l 4.88049,8.411 4.8805,8.411 -0.40691,0.6455 -0.40691,0.6456 -9.54534,0.1116 -9.54534,0.1115 z m 11.18086,-1.8329 0.54734,-0.6595 -0.43763,-0.6937 -0.43763,-0.6938 h -0.95022 -0.95022 l -0.43763,0.6938 -0.43763,0.6937 0.54733,0.6595 0.54733,0.6595 h 0.73082 0.73081 z m 0.38743,-8.2929 v -5.205 h -1.66557 -1.66558 v 5.205 5.2049 h 1.66558 1.66557 z"
         id="path13045" /><path
         style="fill:#f9c968"
         d="m 227.75774,1211.0583 c -0.28215,-0.3399 -0.44844,-0.7959 -0.36954,-1.0132 0.0789,-0.2173 2.20462,-3.9649 4.7238,-8.3281 l 4.58032,-7.9331 0.5205,-0.2089 c 0.28627,-0.1148 0.75471,-0.114 1.04098,0 l 0.52049,0.2105 4.73156,8.1913 4.73155,8.1912 -0.4045,0.6418 -0.4045,0.6417 -9.57884,0.1116 -9.57883,0.1117 z m 11.25371,-1.722 0.54734,-0.6595 -0.43763,-0.6937 -0.43763,-0.6938 h -0.95022 -0.95022 l -0.43763,0.6938 -0.43763,0.6937 0.54733,0.6595 0.54733,0.6595 h 0.73082 0.73081 z m 0.38743,-8.2929 v -5.205 h -1.66557 -1.66558 v 5.205 5.2049 h 1.66558 1.66557 z"
         id="path13044" /><path
         style="fill:#f8c357"
         d="m 227.75774,1211.0583 c -0.28215,-0.3399 -0.44844,-0.7823 -0.36954,-0.983 0.0789,-0.2007 2.20462,-3.9469 4.7238,-8.3249 l 4.58032,-7.96 0.5205,-0.2121 c 0.28627,-0.1166 0.75471,-0.1156 1.04098,0 l 0.52049,0.2143 4.72017,8.2046 4.72018,8.2045 -0.39312,0.6246 -0.39312,0.6246 -9.57884,0.1116 -9.57883,0.1117 z m 11.00761,-1.3212 0.67513,-0.6751 -0.1249,-0.6336 c -0.0687,-0.3484 -0.45281,-0.84 -0.85358,-1.0924 l -0.72869,-0.4589 -0.72869,0.4589 c -0.40078,0.2524 -0.78489,0.744 -0.85359,1.0924 l -0.12489,0.6336 0.67513,0.6751 c 0.37132,0.3713 0.83574,0.6751 1.03204,0.6751 0.1963,0 0.66071,-0.3038 1.03204,-0.6751 z m 0.63353,-8.6937 v -5.205 h -1.66557 -1.66558 v 5.205 5.2049 h 1.66558 1.66557 z"
         id="path13043" /><path
         style="fill:#f7bd45"
         d="m 227.73268,1211.0281 -0.52556,-0.6332 4.47212,-7.7987 c 2.45966,-4.2893 4.82806,-8.1683 5.26309,-8.62 l 0.79098,-0.8212 0.79097,0.8212 c 0.43504,0.4517 2.80343,4.3307 5.26309,8.62 l 4.47212,7.7987 -0.52555,0.6332 -0.52555,0.6333 h -9.47508 -9.47508 z m 11.03267,-1.291 0.67513,-0.6751 -0.1249,-0.6336 c -0.0687,-0.3484 -0.45281,-0.84 -0.85358,-1.0924 l -0.72869,-0.4589 -0.72869,0.4589 c -0.40078,0.2524 -0.78489,0.744 -0.85359,1.0924 l -0.12489,0.6336 0.67513,0.6751 c 0.37132,0.3713 0.83574,0.6751 1.03204,0.6751 0.1963,0 0.66071,-0.3038 1.03204,-0.6751 z m 0.63353,-8.6937 v -5.205 h -1.66557 -1.66558 v 5.205 5.2049 h 1.66558 1.66557 z"
         id="path13042" /><path
         style="fill:#f6b836"
         d="m 227.755,1211.055 c -0.27677,-0.3334 -0.42243,-0.755 -0.32369,-0.9368 2.32115,-4.2735 9.30859,-16.0556 9.72847,-16.4041 l 0.57353,-0.476 0.57352,0.476 c 0.41989,0.3485 7.40733,12.1306 9.72847,16.4041 0.0987,0.1818 -0.0469,0.6034 -0.32369,0.9368 l -0.50322,0.6064 h -9.47508 -9.47508 z m 10.98498,-1.1908 0.74946,-0.548 -0.14938,-0.7606 -0.14938,-0.7607 -0.72868,-0.4589 -0.72869,-0.4589 -0.72869,0.4589 -0.72869,0.4589 -0.14938,0.7607 -0.14937,0.7606 0.74945,0.548 c 0.4122,0.3014 0.8652,0.548 1.00668,0.548 0.14147,0 0.59447,-0.2466 1.00667,-0.548 z m 0.6589,-8.8208 v -5.205 h -1.66557 -1.66558 v 5.205 5.2049 h 1.66558 1.66557 z"
         id="path13041" /><path
         style="fill:#f6b42b"
         d="m 227.97863,1211.0079 -0.65351,-0.6535 0.38241,-0.7146 c 1.71781,-3.2097 8.95019,-15.3866 9.42499,-15.8684 l 0.60079,-0.6098 0.59816,0.6098 c 0.5252,0.5353 4.46949,7.1365 8.48962,14.2082 l 1.33928,2.3559 -0.66295,0.663 -0.66294,0.6629 h -9.10117 -9.10117 z m 10.77748,-1.1555 0.76557,-0.5598 -0.27753,-1.1058 -0.27753,-1.1057 h -1.23331 -1.23332 l -0.27753,1.1057 -0.27753,1.1058 0.76558,0.5598 c 0.42106,0.3079 0.88132,0.5598 1.0228,0.5598 0.14147,0 0.60173,-0.2519 1.0228,-0.5598 z m 0.64277,-8.809 v -5.205 h -1.66557 -1.66558 v 5.205 5.2049 h 1.66558 1.66557 z"
         id="path13040" /><path
         style="fill:#f6b123"
         d="m 227.98089,1211.0102 -0.65124,-0.6513 0.60599,-1.1184 c 0.33329,-0.6152 2.46418,-4.3039 4.73531,-8.1971 l 4.12932,-7.0787 h 0.93304 0.93303 l 4.12933,7.0787 c 2.27113,3.8932 4.40202,7.5819 4.73531,8.1971 l 0.60598,1.1184 -0.65124,0.6513 -0.65124,0.6512 h -9.10117 -9.10117 z m 10.98258,-1.1997 0.49934,-0.6016 -0.13606,-0.9598 -0.13607,-0.9598 h -1.45737 -1.45738 l -0.13606,0.9598 -0.13606,0.9598 0.49934,0.6016 0.49934,0.6017 h 0.73082 0.73081 z m 0.43541,-8.7671 v -5.205 h -1.66557 -1.66558 v 5.205 5.2049 h 1.66558 1.66557 z"
         id="path13039" /><path
         style="fill:#f6b01d"
         d="m 228.26036,1211.3856 -0.5205,-0.21 v -0.7632 -0.7632 l 4.61402,-7.9464 4.61402,-7.9463 h 0.76713 0.76712 l 4.6123,7.9307 4.6123,7.9308 v 0.769 0.7689 l -0.65865,0.2528 -0.65864,0.2527 -8.81431,-0.033 c -4.84786,-0.018 -9.04852,-0.1274 -9.33479,-0.2429 z m 10.70311,-1.5751 0.49934,-0.6016 -0.13606,-0.9598 -0.13607,-0.9598 h -1.45737 -1.45738 l -0.13606,0.9598 -0.13606,0.9598 0.49934,0.6016 0.49934,0.6017 h 0.73082 0.73081 z m 0.43541,-8.7671 v -5.205 h -1.66557 -1.66558 v 5.205 5.2049 h 1.66558 1.66557 z"
         id="path13038" /><path
         style="fill:#f6ae19"
         d="m 228.26036,1211.3856 -0.5205,-0.21 v -0.7391 -0.7392 l 4.62165,-7.9704 4.62165,-7.9704 h 0.75015 0.75015 l 4.62164,7.9704 4.62165,7.9704 v 0.7293 0.7293 l -0.65865,0.2528 -0.65864,0.2527 -8.81431,-0.033 c -4.84786,-0.018 -9.04852,-0.1274 -9.33479,-0.2429 z m 10.63885,-1.4731 0.49967,-0.4996 v -0.9431 -0.943 l -0.83279,-0.4457 -0.83278,-0.4457 -0.83279,0.4457 -0.83279,0.4457 v 0.943 0.9431 l 0.49968,0.4996 c 0.27481,0.2749 0.79947,0.4997 1.1659,0.4997 0.36642,0 0.89108,-0.2248 1.1659,-0.4997 z m 0.49967,-8.8691 v -5.205 h -1.66557 -1.66558 v 5.205 5.2049 h 1.66558 1.66557 z"
         id="path13037" /></g><path
       style="fill:#ffffff;fill-opacity:1;stroke-width:0.424898;stroke-miterlimit:9"
       d="m 838.50868,4758.2832 v -18.8496 h 4.64899 4.64899 v 18.5115 c 0,10.1813 -0.0571,18.5118 -0.12679,18.5122 -0.0697,5e-4 -1.64828,0.1523 -3.50787,0.3373 -1.8596,0.1851 -3.89459,0.3369 -4.5222,0.3373 l -1.14112,8e-4 z"
       id="path13055"
       transform="scale(0.26458333)" /><path
       style="fill:#ffffff;fill-opacity:1;stroke-width:0.424898;stroke-miterlimit:9"
       d="m 841.46713,4791.0054 c -2.15237,-0.3675 -2.95398,-1.965 -2.95717,-5.8933 -10e-4,-1.7111 0.15579,-2.1921 0.95569,-2.9247 0.81551,-0.7469 1.73837,-0.9974 3.67419,-0.9974 2.4794,0 3.71579,0.502 4.40952,1.7901 0.31585,0.5865 0.31532,0.6416 -0.0355,3.6262 -0.46487,3.9549 -0.45117,3.9336 -2.70353,4.2059 -2.58913,0.313 -2.62863,0.3153 -3.34321,0.1932 z"
       id="path13056"
       transform="scale(0.26458333)" /></g></svg>
